<?xml version="1.0" standalone="no"?><!DOCTYPE svg PUBLIC "-//W3C//DTD SVG 1.1//EN" "http://www.w3.org/Graphics/SVG/1.1/DTD/svg11.dtd" ><svg xmlns="http://www.w3.org/2000/svg"><metadata></metadata><defs><font id="2.007;tyPL;Lato-HeavyItalic;1944;TR4-4.0.1.5099" horiz-adv-x="2532"><font-face font-family="Lato Heavy" font-weight="800" font-stretch="normal" units-per-em="2000" panose-1="2 15 9 2 2 2 4 3 2 3" ascent="1974" descent="-426" x-height="3" bbox="-1056 -579 2588 2210" underline-thickness="194" underline-position="-103" unicode-range="U+0000-feff" /><missing-glyph horiz-adv-x="1107" d="M235 1149 q59 47 134 78.5 q75 31.5 177 31.5 q73 0 131 -19.5 q58 -19.5 97.5 -54.5 q39.5 -35 60.5 -85 q21 -50 21 -110 q0 -55 -13.5 -94.5 q-13.5 -39.5 -34 -69 q-20.5 -29.5 -45 -50.5 q-24.5 -21 -46.5 -39 q-22 -18 -39.5 -35.5 q-17.5 -17.5 -22.5 -39.5 l-25 -94 l-188 0 l-19 114 q-7 38 3.5 65 q10.5 27 30 48.5 q19.5 21.5 45 39.5 q25.5 18 47.5 38 q22 20 37 44 q15 24 15 57 q0 29 -19 48 q-19 19 -61 19 q-35 0 -57.5 -6 q-22.5 -6 -39 -13.5 q-16.5 -7.5 -30.5 -13.5 q-14 -6 -30 -6 q-37 0 -56 32 l-73 115 ZM380 321 q0 30 11 56.5 q11 26.5 31 46 q20 19.5 46.5 31 q26.5 11.5 58.5 11.5 q31 0 57.5 -11.5 q26.5 -11.5 46 -31 q19.5 -19.5 31 -46 q11.5 -26.5 11.5 -56.5 q0 -30 -11.5 -56.5 q-11.5 -26.5 -31 -46 q-19.5 -19.5 -46 -30.5 q-26.5 -11 -57.5 -11 q-32 0 -58.5 11 q-26.5 11 -46.5 30.5 q-20 19.5 -31 46 q-11 26.5 -11 56.5 ZM41 1451 l1025 0 l0 -1451 l-1025 0 l0 1451 ZM111 74 l876 0 l0 1303 l-876 0 l0 -1303 Z" /><glyph glyph-name="" unicode="" d="" /><glyph glyph-name="" unicode="  " d="" /><glyph glyph-name="" unicode="a" d="M1250 0 l-224 0 q-38 0 -59 18 q-21 18 -29 47 l-53 283 l-520 0 l-121 -283 q-13 -26 -40 -45.5 q-27 -19.5 -62 -19.5 l-228 0 l698 1451 l296 0 l342 -1451 ZM452 549 l395 0 l-85 459 q-7 36 -16.5 84.5 q-9.5 48.5 -17.5 105.5 q-21 -57 -42 -106 q-21 -49 -37 -85 l-197 -458 Z" /><glyph glyph-name="" unicode="æ" d="M746 1451 l1029 0 l-28 -227 l-622 0 l0 -386 l448 0 l-27 -218 l-421 0 l0 -393 l500 0 l-29 -227 l-745 0 l0 348 l-450 0 l-149 -283 q-15 -26 -44 -45.5 q-29 -19.5 -65 -19.5 l-226 0 l829 1451 ZM507 549 l344 0 l0 668 q-19 -48 -39 -89 q-20 -41 -40 -77 l-265 -502 Z" /><glyph glyph-name="" unicode="b" d="M68 0 l179 1451 l480 0 q123 0 211 -24 q88 -24 144 -67.5 q56 -43.5 82 -105 q26 -61.5 26 -136.5 q0 -62 -16 -117.5 q-16 -55.5 -50.5 -103.5 q-34.5 -48 -88 -86 q-53.5 -38 -128.5 -64 q121 -32 179.5 -100.5 q58.5 -68.5 58.5 -173.5 q0 -100 -38 -186.5 q-38 -86.5 -109 -150 q-71 -63.5 -173.5 -100 q-102.5 -36.5 -231.5 -36.5 l-525 0 ZM434 630 l-50 -408 l232 0 q65 0 111 18.5 q46 18.5 75.5 51 q29.5 32.5 43 78 q13.5 45.5 13.5 99.5 q0 37 -10.5 66.5 q-10.5 29.5 -34 50.5 q-23.5 21 -60.5 32.5 q-37 11.5 -91 11.5 l-229 0 ZM458 826 l176 0 q61 0 109.5 13.5 q48.5 13.5 82.5 43 q34 29.5 51.5 75.5 q17.5 46 17.5 111 q0 87 -47.5 124.5 q-47.5 37.5 -147.5 37.5 l-192 0 l-50 -405 Z" /><glyph glyph-name="" unicode="c" d="M689 226 q58 0 101 9 q43 9 74.5 23 q31.5 14 53.5 30 q22 16 39.5 30 q17.5 14 31 23 q13.5 9 28.5 9 q14 0 23.5 -5 q9.5 -5 14.5 -11 l101 -124 q-94 -110 -223 -168 q-129 -58 -294 -58 q-135 0 -240.5 48 q-105.5 48 -177.5 132.5 q-72 84.5 -109.5 200 q-37.5 115.5 -37.5 251.5 q0 125 27.5 236.5 q27.5 111.5 77.5 206 q50 94.5 120.5 170.5 q70.5 76 157 128.5 q86.5 52.5 185.5 81 q99 28.5 207 28.5 q80 0 146 -15 q66 -15 120 -41.5 q54 -26.5 96.5 -64 q42.5 -37.5 75.5 -82.5 l-101 -119 q-11 -13 -25.5 -23 q-14.5 -10 -37.5 -10 q-23 0 -43 17.5 q-20 17.5 -49 38 q-29 20.5 -75 38 q-46 17.5 -121 17.5 q-99 0 -184 -41 q-85 -41 -147.5 -116.5 q-62.5 -75.5 -98 -183.5 q-35.5 -108 -35.5 -242 q0 -98 24 -174.5 q24 -76.5 67 -130 q43 -53.5 101 -81.5 q58 -28 127 -28 Z" /><glyph glyph-name="" unicode="ç" d="M518 -228 q14 0 26 -5.5 q12 -5.5 33 -5.5 q27 0 39 12.5 q12 12.5 12 28.5 q0 23 -27.5 34 q-27.5 11 -90.5 21 l59 131 q-119 12 -211 64 q-92 52 -155 135 q-63 83 -96 192.5 q-33 109.5 -33 236.5 q0 125 27.5 236.5 q27.5 111.5 77.5 206 q50 94.5 120.5 170.5 q70.5 76 157 128.5 q86.5 52.5 185.5 81 q99 28.5 207 28.5 q80 0 146 -15 q66 -15 120 -41.5 q54 -26.5 96.5 -64 q42.5 -37.5 75.5 -82.5 l-101 -119 q-11 -13 -25.5 -23 q-14.5 -10 -37.5 -10 q-23 0 -43 17.5 q-20 17.5 -49 38 q-29 20.5 -75 38 q-46 17.5 -121 17.5 q-99 0 -184 -41 q-85 -41 -147.5 -116.5 q-62.5 -75.5 -98 -183.5 q-35.5 -108 -35.5 -242 q0 -98 24 -174.5 q24 -76.5 67 -130 q43 -53.5 101 -81.5 q58 -28 127 -28 q58 0 101 9 q43 9 74.5 23 q31.5 14 53.5 30 q22 16 39.5 30 q17.5 14 31 23 q13.5 9 28.5 9 q14 0 23.5 -5 q9.5 -5 14.5 -11 l101 -124 q-81 -95 -188.5 -151 q-107.5 -56 -241.5 -70 l-18 -46 q76 -20 106 -54.5 q30 -34.5 30 -78.5 q0 -39 -19.5 -70 q-19.5 -31 -54 -52 q-34.5 -21 -83 -32.5 q-48.5 -11.5 -105.5 -11.5 q-38 0 -70 4.5 q-32 4.5 -64 14.5 l36 85 q5 11 12.5 17.5 q7.5 6.5 21.5 6.5 Z" /><glyph glyph-name="" unicode="d" d="M1369 821 q0 -119 -26.5 -226.5 q-26.5 -107.5 -76 -199 q-49.5 -91.5 -119.5 -164.5 q-70 -73 -157.5 -124.5 q-87.5 -51.5 -190 -79 q-102.5 -27.5 -215.5 -27.5 l-516 0 l179 1451 l516 0 q140 0 252.5 -47.5 q112.5 -47.5 191 -131.5 q78.5 -84 120.5 -199.5 q42 -115.5 42 -251.5 ZM1072 814 q0 94 -22.5 170 q-22.5 76 -65.5 129.5 q-43 53.5 -105.5 82.5 q-62.5 29 -143.5 29 l-225 0 l-122 -998 l224 0 q105 0 190 41 q85 41 145 117 q60 76 92.5 184.5 q32.5 108.5 32.5 244.5 Z" /><glyph glyph-name="" unicode="e" d="M1072 1224 l-562 0 l-48 -384 l438 0 l-29 -219 l-436 0 l-48 -394 l565 0 l-28 -227 l-856 0 l179 1451 l854 0 l-29 -227 Z" /><glyph glyph-name="" unicode="f" d="M1072 1224 l-562 0 l-51 -414 l473 0 l-31 -227 l-470 0 l-72 -583 l-291 0 l179 1451 l854 0 l-29 -227 Z" /><glyph glyph-name="" unicode="g" d="M719 211 q72 0 127.5 13.5 q55.5 13.5 106.5 36.5 l31 260 l-144 0 q-27 0 -41 14 q-14 14 -11 37 l19 162 l467 0 l-74 -594 q-56 -41 -115 -70 q-59 -29 -124.5 -48.5 q-65.5 -19.5 -137.5 -28.5 q-72 -9 -154 -9 q-134 0 -243.5 48.5 q-109.5 48.5 -187.5 135 q-78 86.5 -121 204.5 q-43 118 -43 257 q0 122 27 231.5 q27 109.5 77.5 202.5 q50.5 93 121 167.5 q70.5 74.5 157 127 q86.5 52.5 187.5 81 q101 28.5 211 28.5 q90 0 163.5 -16.5 q73.5 -16.5 132.5 -44 q59 -27.5 105.5 -64 q46.5 -36.5 82.5 -76.5 l-94 -118 q-23 -32 -55 -39 q-32 -7 -66 15 q-32 21 -61.5 39.5 q-29.5 18.5 -63 31.5 q-33.5 13 -73.5 20.5 q-40 7.5 -92 7.5 q-102 0 -187.5 -42 q-85.5 -42 -147 -118.5 q-61.5 -76.5 -95.5 -184.5 q-34 -108 -34 -239 q0 -100 25.5 -179.5 q25.5 -79.5 71 -134.5 q45.5 -55 110 -84.5 q64.5 -29.5 142.5 -29.5 Z" /><glyph glyph-name="" unicode="h" d="M1222 0 l-292 0 l77 628 l-571 0 l-77 -628 l-291 0 l179 1451 l291 0 l-77 -621 l571 0 l77 621 l292 0 l-179 -1451 Z" /><glyph glyph-name="" unicode="i" d="M359 0 l-291 0 l177 1451 l291 0 l-177 -1451 Z" /><glyph glyph-name="" unicode="j" d="M681 511 q-15 -121 -54.5 -218.5 q-39.5 -97.5 -103.5 -166 q-64 -68.5 -152.5 -105.5 q-88.5 -37 -201.5 -37 q-53 0 -102.5 6.5 q-49.5 6.5 -101.5 20.5 l21 168 q3 22 16 37.5 q13 15.5 42 15.5 q23 0 53 -6.5 q30 -6.5 72 -6.5 q43 0 80 16 q37 16 65.5 50 q28.5 34 48 88 q19.5 54 28.5 131 l115 947 l290 0 l-115 -940 Z" /><glyph glyph-name="" unicode="k" d="M460 847 l52 0 q69 0 105 46 l385 498 q26 35 58.5 47.5 q32.5 12.5 76.5 12.5 l250 0 l-488 -601 q-23 -29 -46 -48 q-23 -19 -48 -32 q32 -12 55.5 -34.5 q23.5 -22.5 40.5 -58.5 l341 -677 l-257 0 q-50 0 -72 14.5 q-22 14.5 -35 40.5 l-265 527 q-13 28 -36.5 39 q-23.5 11 -66.5 11 l-76 0 l-78 -632 l-288 0 l177 1452 l290 0 l-75 -605 Z" /><glyph glyph-name="" unicode="l" d="M386 235 l510 0 l-29 -235 l-799 0 l179 1451 l289 0 l-150 -1216 Z" /><glyph glyph-name="" unicode="m" d="M837 606 q19 -57 33 -117 q14 30 29.5 59 q15.5 29 32.5 58 l477 800 q13 14 23.5 23 q10.5 9 22 14 q11.5 5 24.5 6.5 q13 1.5 32 1.5 l221 0 l-179 -1451 l-254 0 l109 899 q4 26 9.5 57.5 q5.5 31.5 13.5 64.5 l-470 -791 q-19 -30 -47 -45.5 q-28 -15.5 -62 -15.5 l-40 0 q-33 0 -58 15.5 q-25 15.5 -36 45.5 l-280 794 q-1 -32 -2.5 -63 q-1.5 -31 -4.5 -57 l-107 -904 l-256 0 l179 1451 l219 0 q19 0 31.5 -1.5 q12.5 -1.5 22.5 -6.5 q10 -5 18.5 -14 q8.5 -9 18.5 -23 l280 -800 l0 0 Z" /><glyph glyph-name="" unicode="n" d="M399 1451 q19 0 32 -1.5 q13 -1.5 22.5 -6 q9.5 -4.5 17.5 -13.5 q8 -9 17 -24 l539 -949 q2 32 5 62 q3 30 7 56 l106 876 l256 0 l-179 -1451 l-150 0 q-34 0 -55 11.5 q-21 11.5 -40 37.5 l-537 947 l-9 -95 l-107 -901 l-256 0 l179 1451 l152 0 l0 0 Z" /><glyph glyph-name="" unicode="o" d="M1467 821 q0 -119 -27 -227.5 q-27 -108.5 -76.5 -201.5 q-49.5 -93 -120.5 -168 q-71 -75 -158.5 -128.5 q-87.5 -53.5 -190 -82.5 q-102.5 -29 -215.5 -29 q-141 0 -253 49.5 q-112 49.5 -190 136 q-78 86.5 -120 204.5 q-42 118 -42 255 q0 119 27 227.5 q27 108.5 76.5 201.5 q49.5 93 120.5 168.5 q71 75.5 158.5 129 q87.5 53.5 190 82.5 q102.5 29 215.5 29 q141 0 253 -50 q112 -50 190 -137 q78 -87 120 -205 q42 -118 42 -254 ZM1170 814 q0 94 -23 171.5 q-23 77.5 -67.5 132 q-44.5 54.5 -108 84.5 q-63.5 30 -144.5 30 q-105 0 -189.5 -43 q-84.5 -43 -144 -121 q-59.5 -78 -91.5 -188 q-32 -110 -32 -244 q0 -95 23 -171.5 q23 -76.5 66.5 -131.5 q43.5 -55 107 -84.5 q63.5 -29.5 144.5 -29.5 q105 0 190 42.5 q85 42.5 144.5 120.5 q59.5 78 92 187.5 q32.5 109.5 32.5 244.5 Z" /><glyph glyph-name="" unicode="ø" d="M1467 821 q0 -119 -27 -227.5 q-27 -108.5 -76.5 -201.5 q-49.5 -93 -120.5 -168 q-71 -75 -158.5 -128.5 q-87.5 -53.5 -190 -82.5 q-102.5 -29 -215.5 -29 q-88 0 -163.5 19.5 q-75.5 19.5 -140.5 54.5 l-73 -93 q-36 -42 -81 -59.5 q-45 -17.5 -85 -17.5 l-114 0 l218 277 q-81 88 -123.5 206 q-42.5 118 -42.5 258 q0 119 27 227.5 q27 108.5 76.5 201.5 q49.5 93 120.5 168.5 q71 75.5 158.5 129 q87.5 53.5 190 82.5 q102.5 29 215.5 29 q97 0 179.5 -23.5 q82.5 -23.5 151.5 -68.5 l55 70 q17 19 30 32.5 q13 13.5 27 21.5 q14 8 30.5 12 q16.5 4 40.5 4 l148 0 l-201 -255 q70 -86 107 -198 q37 -112 37 -241 ZM370 636 q0 -142 50 -242 l609 773 q-41 32 -91.5 48.5 q-50.5 16.5 -110.5 16.5 q-105 0 -189.5 -43 q-84.5 -43 -144 -121 q-59.5 -78 -91.5 -188 q-32 -110 -32 -244 ZM1170 814 q0 59 -9.5 110.5 q-9.5 51.5 -26.5 96.5 l-597 -757 q73 -45 174 -45 q105 0 190 42.5 q85 42.5 144.5 120.5 q59.5 78 92 187.5 q32.5 109.5 32.5 244.5 Z" /><glyph glyph-name="" unicode="&#x152;" d="M1999 1224 l-563 0 l-47 -386 l435 0 l-26 -218 l-436 0 l-48 -393 l563 0 l-29 -227 l-820 0 l19 156 q-88 -81 -197 -126 q-109 -45 -237 -45 q-126 0 -225.5 48.5 q-99.5 48.5 -168.5 133.5 q-69 85 -106 201 q-37 116 -37 251 q0 120 24.5 229.5 q24.5 109.5 70 204 q45.5 94.5 110 171 q64.5 76.5 144.5 130.5 q80 54 173 83.5 q93 29.5 196 29.5 q129 0 227 -52 q98 -52 164 -143 l22 179 l820 0 l-28 -227 ZM1090 824 q0 92 -19 169 q-19 77 -56.5 132 q-37.5 55 -92 85.5 q-54.5 30.5 -126.5 30.5 q-97 0 -175.5 -45 q-78.5 -45 -133.5 -126.5 q-55 -81.5 -85 -194.5 q-30 -113 -30 -249 q0 -92 19.5 -168.5 q19.5 -76.5 57 -131.5 q37.5 -55 93 -85 q55.5 -30 128.5 -30 q96 0 173.5 44.5 q77.5 44.5 132.5 125.5 q55 81 84.5 194 q29.5 113 29.5 249 Z" /><glyph glyph-name="" unicode="p" d="M418 503 l-62 -503 l-288 0 l177 1451 l459 0 q126 0 216 -30.5 q90 -30.5 148.5 -84.5 q58.5 -54 86 -128 q27.5 -74 27.5 -161 q0 -118 -36.5 -217.5 q-36.5 -99.5 -110 -172 q-73.5 -72.5 -185.5 -113.5 q-112 -41 -263 -41 l-169 0 ZM508 1231 l-63 -507 l170 0 q74 0 126.5 22 q52.5 22 85.5 61.5 q33 39.5 48.5 94 q15.5 54.5 15.5 120.5 q0 46 -13 84.5 q-13 38.5 -39.5 66.5 q-26.5 28 -67 43 q-40.5 15 -95.5 15 l-168 0 Z" /><glyph glyph-name="" unicode="q" d="M1467 821 q0 -113 -24.5 -217 q-24.5 -104 -70 -194 q-45.5 -90 -110 -164 q-64.5 -74 -144.5 -129 l290 -397 l-237 0 q-51 0 -90.5 14 q-39.5 14 -68.5 50 l-154 220 q-88 -20 -179 -20 q-141 0 -253 49.5 q-112 49.5 -190 136 q-78 86.5 -120 204.5 q-42 118 -42 255 q0 119 27 227.5 q27 108.5 76.5 201.5 q49.5 93 120.5 168.5 q71 75.5 158.5 129 q87.5 53.5 190 82.5 q102.5 29 215.5 29 q141 0 253 -50 q112 -50 190 -137 q78 -87 120 -205 q42 -118 42 -254 ZM1170 814 q0 94 -23 171.5 q-23 77.5 -67.5 132 q-44.5 54.5 -108 84.5 q-63.5 30 -144.5 30 q-105 0 -189.5 -43 q-84.5 -43 -144 -121 q-59.5 -78 -91.5 -188 q-32 -110 -32 -244 q0 -95 23 -171.5 q23 -76.5 66.5 -131.5 q43.5 -55 107 -84.5 q63.5 -29.5 144.5 -29.5 q105 0 190 42.5 q85 42.5 144.5 120.5 q59.5 78 92 187.5 q32.5 109.5 32.5 244.5 Z" /><glyph glyph-name="" unicode="r" d="M425 558 l-69 -558 l-288 0 l177 1451 l425 0 q129 0 220.5 -27.5 q91.5 -27.5 150 -76 q58.5 -48.5 86 -116 q27.5 -67.5 27.5 -146.5 q0 -82 -22.5 -155 q-22.5 -73 -65.5 -133.5 q-43 -60.5 -104.5 -106.5 q-61.5 -46 -140.5 -73 q26 -16 47.5 -38 q21.5 -22 37.5 -52 l237 -527 l-261 0 q-75 0 -98 56 l-187 452 q-12 26 -30 38 q-18 12 -54 12 l-88 0 ZM508 1231 l-58 -470 l135 0 q75 0 128 22 q53 22 87 60 q34 38 50 89 q16 51 16 108 q0 89 -54.5 140 q-54.5 51 -168.5 51 l-135 0 Z" /><glyph glyph-name="" unicode="s" d="M947 1176 q-16 -21 -31 -31.5 q-15 -10.5 -37 -10.5 q-21 0 -43 15.5 q-22 15.5 -51 34.5 q-29 19 -67 34.5 q-38 15.5 -92 15.5 q-51 0 -89.5 -14.5 q-38.5 -14.5 -64.5 -40.5 q-26 -26 -39 -61 q-13 -35 -13 -75 q0 -43 23 -72 q23 -29 60.5 -51 q37.5 -22 86 -39.5 q48.5 -17.5 98.5 -37.5 q50 -20 98.5 -46 q48.5 -26 86 -64.5 q37.5 -38.5 60.5 -92.5 q23 -54 23 -131 q0 -107 -37.5 -202.5 q-37.5 -95.5 -107 -167 q-69.5 -71.5 -168.5 -113.5 q-99 -42 -223 -42 q-63 0 -125.5 14 q-62.5 14 -118.5 39 q-56 25 -104 60 q-48 35 -82 78 l103 137 q12 14 30.5 24.5 q18.5 10.5 37.5 10.5 q26 0 51.5 -20.5 q25.5 -20.5 58 -44.5 q32.5 -24 77 -44.5 q44.5 -20.5 109.5 -20.5 q103 0 160.5 57.5 q57.5 57.5 57.5 163.5 q0 48 -23 78.5 q-23 30.5 -60 51.5 q-37 21 -84.5 37 q-47.5 16 -97.5 34.5 q-50 18.5 -97.5 43 q-47.5 24.5 -84.5 63.5 q-37 39 -60 95.5 q-23 56.5 -23 139.5 q0 95 35.5 182.5 q35.5 87.5 101.5 155 q66 67.5 160 107.5 q94 40 211 40 q60 0 116.5 -13 q56.5 -13 105.5 -35.5 q49 -22.5 89.5 -53.5 q40.5 -31 69.5 -67 l-87 -121 Z" /><glyph glyph-name="" unicode="t" d="M1194 1451 l-30 -234 l-384 0 l-150 -1217 l-288 0 l148 1217 l-385 0 l28 234 l1061 0 Z" /><glyph glyph-name="" unicode="u" d="M647 229 q66 0 121 25 q55 25 96 71.5 q41 46.5 68 112 q27 65.5 36 145.5 l107 868 l289 0 l-106 -868 q-16 -130 -69 -240 q-53 -110 -136 -189.5 q-83 -79.5 -193.5 -124.5 q-110.5 -45 -242.5 -45 q-132 0 -231.5 45 q-99.5 45 -163 124.5 q-63.5 79.5 -89 189.5 q-25.5 110 -9.5 240 l104 868 l290 0 l-106 -868 q-10 -80 1 -145.5 q11 -65.5 41 -112 q30 -46.5 78.5 -71.5 q48.5 -25 114.5 -25 Z" /><glyph glyph-name="" unicode="v" d="M91 1451 l233 0 q38 0 60 -18.5 q22 -18.5 27 -45.5 l175 -857 q12 -45 22 -98 q10 -53 17 -111 q20 58 41.5 111 q21.5 53 44.5 98 l379 857 q11 23 39.5 43.5 q28.5 20.5 64.5 20.5 l234 0 l-715 -1451 l-263 0 l-359 1451 Z" /><glyph glyph-name="" unicode="w" d="M106 1451 l227 0 q38 0 60.5 -17.5 q22.5 -17.5 27.5 -46.5 l115 -842 q3 -35 6 -74 q3 -39 5 -82 q14 43 28.5 82.5 q14.5 39.5 28.5 73.5 l332 842 q6 12 15.5 23.5 q9.5 11.5 23 20.5 q13.5 9 29.5 14.5 q16 5.5 34 5.5 l68 0 q38 0 59.5 -18.5 q21.5 -18.5 29.5 -45.5 l130 -842 q5 -33 9.5 -70.5 q4.5 -37.5 8.5 -79.5 q12 42 24.5 79.5 q12.5 37.5 23.5 70.5 l318 842 q8 25 38 44.5 q30 19.5 66 19.5 l229 0 l-593 -1451 l-262 0 l-150 965 q-4 20 -7 44.5 q-3 24.5 -6 52.5 q-9 -27 -18.5 -52 q-9.5 -25 -17.5 -45 l-385 -965 l-261 0 l-236 1451 Z" /><glyph glyph-name="" unicode="x" d="M462 775 l-321 676 l263 0 q29 0 41.5 -7.5 q12.5 -7.5 20.5 -27.5 l208 -481 q5 11 11 20.5 q6 9.5 13 20.5 l285 436 q14 20 28.5 29.5 q14.5 9.5 35.5 9.5 l303 0 l-488 -663 l357 -788 l-260 0 q-29 0 -45 15 q-16 15 -24 33 l-234 559 q-5 -8 -9 -15 q-4 -7 -9 -13 l-351 -531 q-17 -26 -39.5 -37 q-22.5 -11 -48.5 -11 l-290 0 l553 775 Z" /><glyph glyph-name="" unicode="y" d="M757 563 l-70 -563 l-290 0 l69 558 l-375 893 l257 0 q38 0 59 -17.5 q21 -17.5 31 -46.5 l165 -473 q14 -40 23.5 -77 q9.5 -37 17.5 -72 q17 35 37.5 71.5 q20.5 36.5 44.5 77.5 l283 473 q15 23 40.5 43.5 q25.5 20.5 61.5 20.5 l240 0 l-594 -888 Z" /><glyph glyph-name="" unicode="z" d="M1183 1451 l-13 -88 q-3 -19 -11.5 -35 q-8.5 -16 -19.5 -33 l-771 -1068 l646 0 l-28 -227 l-1027 0 l10 87 q3 19 11.5 34.5 q8.5 15.5 19.5 32.5 l772 1070 l-615 0 l28 227 l998 0 Z" /><glyph glyph-name="" unicode="a" d="M871 0 l-147 0 q-26 0 -43.5 7 q-17.5 7 -28 19 q-10.5 12 -14.5 28 q-4 16 -4 35 l4 105 q-66 -97 -147.5 -153 q-81.5 -56 -179.5 -56 q-57 0 -108.5 22.5 q-51.5 22.5 -90.5 68 q-39 45.5 -61.5 115 q-22.5 69.5 -22.5 162.5 q0 93 23 180.5 q23 87.5 66 164.5 q43 77 104.5 141.5 q61.5 64.5 137 110.5 q75.5 46 164 71.5 q88.5 25.5 186.5 25.5 q72 0 144 -10.5 q72 -10.5 142 -36.5 l-124 -1000 ZM420 206 q37 0 73.5 27 q36.5 27 68.5 74 q32 47 59 110 q27 63 47 136 l38 300 q-10 1 -19 1 q-9 0 -17 0 q-80 0 -147 -36 q-67 -36 -115.5 -98 q-48.5 -62 -76 -144 q-27.5 -82 -27.5 -173 q0 -104 32 -150.5 q32 -46.5 84 -46.5 Z" /><glyph glyph-name="" unicode="æ" d="M1110 1046 q66 0 122.5 -21.5 q56.5 -21.5 98 -58.5 q41.5 -37 65.5 -86 q24 -49 24 -104 q0 -55 -23.5 -110.5 q-23.5 -55.5 -88 -102 q-64.5 -46.5 -178.5 -77.5 q-114 -31 -295 -36 q1 -133 51.5 -194.5 q50.5 -61.5 142.5 -61.5 q43 0 75 8 q32 8 56.5 19.5 q24.5 11.5 43.5 25 q19 13.5 36 25 q17 11.5 34.5 19.5 q17.5 8 38.5 8 q14 0 26.5 -6.5 q12.5 -6.5 22.5 -17.5 l70 -84 q-54 -54 -105 -92.5 q-51 -38.5 -106 -64 q-55 -25.5 -115 -37.5 q-60 -12 -132 -12 q-94 0 -174.5 46.5 q-80.5 46.5 -128.5 143.5 q-34 -51 -77.5 -87 q-43.5 -36 -91.5 -59 q-48 -23 -99 -34 q-51 -11 -100 -11 q-155 0 -230.5 65 q-75.5 65 -75.5 184 q0 66 28.5 131.5 q28.5 65.5 97.5 119.5 q69 54 185.5 89.5 q116.5 35.5 292.5 40.5 l5 34 q11 100 -19.5 146.5 q-30.5 46.5 -98.5 46.5 q-52 0 -87 -13.5 q-35 -13.5 -63 -29.5 q-28 -16 -53.5 -29.5 q-25.5 -13.5 -56.5 -13.5 q-26 0 -44 13.5 q-18 13.5 -27 33.5 l-38 84 q94 82 191.5 122.5 q97.5 40.5 208.5 40.5 q103 0 166.5 -39 q63.5 -39 93.5 -108 q62 68 145 106 q83 38 186 38 ZM581 453 q-98 -5 -161.5 -21 q-63.5 -16 -100.5 -40.5 q-37 -24.5 -51 -56.5 q-14 -32 -14 -69 q0 -51 26.5 -77 q26.5 -26 74.5 -26 q41 0 77.5 14.5 q36.5 14.5 66 45.5 q29.5 31 50 79.5 q20.5 48.5 28.5 117.5 l4 33 ZM1075 858 q-48 0 -86 -18 q-38 -18 -66.5 -51 q-28.5 -33 -47 -80 q-18.5 -47 -28.5 -105 q104 9 169 25 q65 16 101 36.5 q36 20.5 49 45 q13 24.5 13 51.5 q0 41 -24.5 68.5 q-24.5 27.5 -79.5 27.5 Z" /><glyph glyph-name="" unicode="b" d="M32 0 l181 1491 l271 0 l-80 -643 q71 93 156.5 146 q85.5 53 181.5 53 q64 0 116.5 -23 q52.5 -23 90 -70.5 q37.5 -47.5 58 -120.5 q20.5 -73 20.5 -173 q0 -89 -18.5 -173.5 q-18.5 -84.5 -52 -159.5 q-33.5 -75 -80 -137.5 q-46.5 -62.5 -102 -108 q-55.5 -45.5 -119 -71 q-63.5 -25.5 -130.5 -25.5 q-78 0 -138 30.5 q-60 30.5 -102 81.5 l-6 -23 q-12 -38 -32 -56 q-20 -18 -64 -18 l-151 0 ZM632 834 q-37 0 -76 -26.5 q-39 -26.5 -75 -73 q-36 -46.5 -67.5 -109 q-31.5 -62.5 -53.5 -134.5 l-30 -244 q32 -31 72.5 -43.5 q40.5 -12.5 78.5 -12.5 q60 0 110.5 38.5 q50.5 38.5 86.5 101 q36 62.5 56 141.5 q20 79 20 160 q0 104 -32.5 153 q-32.5 49 -89.5 49 Z" /><glyph glyph-name="" unicode="c" d="M837 182 q-50 -56 -96.5 -93.5 q-46.5 -37.5 -95 -60.5 q-48.5 -23 -102.5 -33 q-54 -10 -119 -10 q-90 0 -161.5 30.5 q-71.5 30.5 -122 87 q-50.5 56.5 -77 136.5 q-26.5 80 -26.5 179 q0 126 41 239.5 q41 113.5 114 200 q73 86.5 173.5 137.5 q100.5 51 219.5 51 q103 0 176 -36 q73 -36 130 -110 l-89 -103 q-9 -11 -22 -18.5 q-13 -7.5 -28 -7.5 q-18 0 -32 9.5 q-14 9.5 -31.5 20.5 q-17.5 11 -42.5 20.5 q-25 9.5 -66 9.5 q-52 0 -100.5 -29 q-48.5 -29 -85.5 -83 q-37 -54 -59 -130.5 q-22 -76.5 -22 -172.5 q0 -109 47.5 -165.5 q47.5 -56.5 123.5 -56.5 q53 0 87 15 q34 15 58 33 q24 18 43.5 33 q19.5 15 45.5 15 q14 0 26.5 -6.5 q12.5 -6.5 22.5 -17.5 l70 -84 l0 0 Z" /><glyph glyph-name="" unicode="ç" d="M278 -228 q14 0 26 -5.5 q12 -5.5 33 -5.5 q27 0 39 12.5 q12 12.5 12 28.5 q0 23 -27.5 34 q-27.5 11 -90.5 21 l62 137 q-69 14 -124 50 q-55 36 -93 90.5 q-38 54.5 -58 126 q-20 71.5 -20 157.5 q0 126 41 239.5 q41 113.5 114 200 q73 86.5 173.5 137.5 q100.5 51 219.5 51 q103 0 176 -36 q73 -36 130 -110 l-89 -103 q-9 -11 -22 -18.5 q-13 -7.5 -28 -7.5 q-18 0 -32 9.5 q-14 9.5 -31.5 20.5 q-17.5 11 -42.5 20.5 q-25 9.5 -66 9.5 q-52 0 -100.5 -29 q-48.5 -29 -85.5 -83 q-37 -54 -59 -130.5 q-22 -76.5 -22 -172.5 q0 -109 47.5 -165.5 q47.5 -56.5 123.5 -56.5 q53 0 87 15 q34 15 58 33 q24 18 43.5 33 q19.5 15 45.5 15 q14 0 26.5 -6.5 q12.5 -6.5 22.5 -17.5 l70 -84 q-44 -49 -85 -83.5 q-41 -34.5 -83 -58 q-42 -23.5 -87 -36 q-45 -12.5 -97 -16.5 l-17 -45 q76 -20 106 -54.5 q30 -34.5 30 -78.5 q0 -39 -19.5 -70 q-19.5 -31 -54 -52 q-34.5 -21 -83 -32.5 q-48.5 -11.5 -105.5 -11.5 q-38 0 -70 4.5 q-32 4.5 -64 14.5 l36 85 q5 11 12.5 17.5 q7.5 6.5 21.5 6.5 Z" /><glyph glyph-name="" unicode="d" d="M758 0 q-26 0 -43.5 7 q-17.5 7 -27.5 19 q-10 12 -14 28 q-4 16 -4 35 l4 117 q-72 -103 -161.5 -162 q-89.5 -59 -190.5 -59 q-64 0 -117 23 q-53 23 -90.5 70.5 q-37.5 47.5 -58 120.5 q-20.5 73 -20.5 173 q0 88 18.5 172.5 q18.5 84.5 52 159.5 q33.5 75 80 138 q46.5 63 102 108.5 q55.5 45.5 119 71 q63.5 25.5 131.5 25.5 q67 0 121 -23.5 q54 -23.5 94 -63.5 l67 531 l270 0 l-185 -1491 l-147 0 ZM430 198 q36 0 75 26.5 q39 26.5 75 72.5 q36 46 67 108 q31 62 53 133 l31 247 q-32 30 -72 43 q-40 13 -78 13 q-60 0 -110 -38.5 q-50 -38.5 -86 -101 q-36 -62.5 -56 -142 q-20 -79.5 -20 -160.5 q0 -103 32 -152 q32 -49 89 -49 Z" /><glyph glyph-name="" unicode="e" d="M924 785 q0 -69 -28 -127 q-28 -58 -98 -104 q-70 -46 -190 -78.5 q-120 -32.5 -303 -50.5 l0 -2 q0 -229 193 -229 q64 0 104.5 16.5 q40.5 16.5 69.5 36 q29 19.5 53.5 36 q24.5 16.5 56.5 16.5 q14 0 26.5 -6.5 q12.5 -6.5 22.5 -17.5 l70 -84 q-54 -54 -105 -92.5 q-51 -38.5 -106 -64 q-55 -25.5 -115 -37.5 q-60 -12 -132 -12 q-91 0 -166 31 q-75 31 -128.5 87.5 q-53.5 56.5 -83 136 q-29.5 79.5 -29.5 177.5 q0 82 18 160 q18 78 52 148 q34 70 82.5 128.5 q48.5 58.5 110.5 101 q62 42.5 135.5 66.5 q73.5 24 156.5 24 q81 0 143.5 -23.5 q62.5 -23.5 104.5 -61 q42 -37.5 63.5 -83.5 q21.5 -46 21.5 -92 ZM575 856 q-44 0 -83 -18.5 q-39 -18.5 -71 -52 q-32 -33.5 -56 -81 q-24 -47.5 -39 -105.5 q111 16 179.5 34.5 q68.5 18.5 106 40.5 q37.5 22 50.5 47 q13 25 13 54 q0 14 -6 28.5 q-6 14.5 -18 26 q-12 11.5 -31 19 q-19 7.5 -45 7.5 Z" /><glyph glyph-name="" unicode="f" d="M470 833 l-95 -787 l-53 -182 q-17 -53 -49.5 -82 q-32.5 -29 -92.5 -29 l-111 0 l130 1079 l-71 15 q-26 7 -42 22.5 q-16 15.5 -12 45.5 l14 110 l135 0 l8 68 q11 88 47.5 159.5 q36.5 71.5 93 121 q56.5 49.5 130.5 76.5 q74 27 160 27 q33 0 62.5 -4.5 q29.5 -4.5 58.5 -13.5 l-25 -142 q-5 -23 -28 -29.5 q-23 -6.5 -49 -6.5 q-39 0 -71.5 -10 q-32.5 -10 -56.5 -33.5 q-24 -23.5 -40 -61 q-16 -37.5 -22 -91.5 l-7 -60 l221 0 l-26 -192 l-209 0 Z" /><glyph glyph-name="" unicode="&#xfb01;" d="M1082 1025 l-125 -1025 l-270 0 l103 833 l-321 0 l-96 -789 l-52 -182 q-17 -52 -50 -81.5 q-33 -29.5 -92 -29.5 l-112 0 l133 1082 l-66 14 q-30 6 -46.5 20.5 q-16.5 14.5 -13.5 43.5 l13 114 l137 0 l3 25 q11 94 50.5 175 q39.5 81 108 140.5 q68.5 59.5 167 93.5 q98.5 34 227.5 34 q41 0 85 -4.5 q44 -4.5 74 -13.5 l-27 -136 q-5 -24 -27.5 -29.5 q-22.5 -5.5 -50.5 -5.5 q-93 0 -156.5 -16 q-63.5 -16 -104 -48 q-40.5 -32 -61 -80.5 q-20.5 -48.5 -28.5 -114.5 l-2 -20 l600 0 Z" /><glyph glyph-name="" unicode="&#xfb02;" d="M470 833 l-97 -789 l-52 -182 q-17 -52 -50 -81.5 q-33 -29.5 -92 -29.5 l-112 0 l133 1082 l-66 14 q-30 6 -47 20.5 q-17 14.5 -13 43.5 l13 114 l137 0 l5 42 q10 81 42.5 155.5 q32.5 74.5 89 131.5 q56.5 57 137 91.5 q80.5 34.5 185.5 34.5 q81 0 153 -5.5 q72 -5.5 146 -6.5 l177 0 l-181 -1468 l-267 0 l155 1275 q-42 5 -83.5 9.5 q-41.5 4.5 -79.5 4.5 q-92 0 -148 -55.5 q-56 -55.5 -67 -166.5 l-4 -42 l208 0 l-23 -192 l-199 0 Z" /><glyph glyph-name="" unicode="g" d="M885 728 q0 -66 -19 -113.5 q-19 -47.5 -42.5 -88.5 q-23.5 -41 -42.5 -83.5 q-19 -42.5 -19 -99.5 q0 -41 15.5 -75.5 q15.5 -34.5 33.5 -70.5 q18 -36 33.5 -77 q15.5 -41 15.5 -94 q-1 -78 -35.5 -147.5 q-34.5 -69.5 -99 -122 q-64.5 -52.5 -158.5 -83 q-94 -30.5 -213 -30.5 q-97 0 -175 20 q-78 20 -132.5 55.5 q-54.5 35.5 -83.5 84 q-29 48.5 -29 105.5 q0 72 31.5 125 q31.5 53 83 88.5 q51.5 35.5 118 55.5 q66.5 20 137 28.5 q70.5 8.5 140 5.5 q69.5 -3 126.5 -13 q-6 28 -6 59 q0 56 30 125 q-39 -26 -88.5 -40.5 q-49.5 -14.5 -119.5 -14.5 q-59 0 -112 19.5 q-53 19.5 -94 58.5 q-41 39 -65 98.5 q-24 59.5 -24 139.5 q0 76 28.5 148.5 q28.5 72.5 85 129.5 q56.5 57 140.5 91.5 q84 34.5 194 34.5 q57 0 109.5 -13.5 q52.5 -13.5 97.5 -39.5 l293 0 l-12 -88 q-7 -52 -53 -70 l-97 -29 q4 -19 6 -38.5 q2 -19.5 2 -40.5 ZM465 490 q41 0 72 20 q31 20 52 52.5 q21 32.5 32 73.5 q11 41 12 82 q0 70 -31.5 108.5 q-31.5 38.5 -93.5 38.5 q-41 0 -72 -18.5 q-31 -18.5 -52 -49.5 q-21 -31 -31.5 -71.5 q-10.5 -40.5 -10.5 -83.5 q0 -72 31.5 -112 q31.5 -40 91.5 -40 ZM609 4 q0 11 -0.5 20.5 q-0.5 9.5 -1.5 18.5 q-111 19 -189.5 17 q-78.5 -2 -128 -18 q-49.5 -16 -72 -42.5 q-22.5 -26.5 -22.5 -57.5 q0 -56 43.5 -85 q43.5 -29 138.5 -29 q52 0 94.5 13 q42.5 13 73 36.5 q30.5 23.5 47.5 56 q17 32.5 17 70.5 Z" /><glyph glyph-name="" unicode="h" d="M32 0 l181 1491 l276 0 l-75 -616 q72 88 156 130 q84 42 172 42 q65 0 117.5 -26 q52.5 -26 87 -76 q34.5 -50 48.5 -123 q14 -73 2 -167 l-78 -655 l-275 0 l77 655 q12 93 -9 132.5 q-21 39.5 -76 39.5 q-35 0 -73 -20.5 q-38 -20.5 -73 -58 q-35 -37.5 -65.5 -90 q-30.5 -52.5 -51.5 -117.5 l-65 -541 l-276 0 Z" /><glyph glyph-name="" unicode="i" d="M437 1031 l-123 -1031 l-272 0 l123 1031 l272 0 ZM497 1324 q0 -35 -14.5 -65 q-14.5 -30 -38 -53 q-23.5 -23 -54 -36 q-30.5 -13 -62.5 -13 q-32 0 -61.5 13 q-29.5 13 -52 36 q-22.5 23 -36 53 q-13.5 30 -13.5 65 q0 34 14 64.5 q14 30.5 36.5 53.5 q22.5 23 52 36.5 q29.5 13.5 61.5 13.5 q33 0 63.5 -13 q30.5 -13 53.5 -36 q23 -23 37 -53.5 q14 -30.5 14 -65.5 Z" /><glyph glyph-name="" unicode="&#x131;" d="M437 1031 l-123 -1031 l-272 0 l123 1031 l272 0 Z" /><glyph glyph-name="" unicode="j" d="M436 1031 l-128 -1051 q-9 -70 -35 -131.5 q-26 -61.5 -71 -107.5 q-45 -46 -109 -73 q-64 -27 -147 -27 q-42 0 -71.5 5 q-29.5 5 -58.5 14 l26 146 q5 20 18.5 28 q13.5 8 46.5 8 q33 0 55.5 6.5 q22.5 6.5 37.5 22.5 q15 16 24 42.5 q9 26.5 14 66.5 l128 1051 l270 0 ZM487 1324 q0 -35 -14.5 -65 q-14.5 -30 -38.5 -53 q-24 -23 -54.5 -36 q-30.5 -13 -62.5 -13 q-32 0 -61.5 13 q-29.5 13 -52 36 q-22.5 23 -36 53 q-13.5 30 -13.5 65 q0 34 14 64.5 q14 30.5 37 53.5 q23 23 52.5 36.5 q29.5 13.5 61.5 13.5 q33 0 63 -13 q30 -13 53.5 -36 q23.5 -23 37.5 -53.5 q14 -30.5 14 -65.5 Z" /><glyph glyph-name="" unicode="k" d="M485 1491 l-104 -846 l24 0 q24 0 39 7.5 q15 7.5 32 27.5 l246 304 q18 23 39 35 q21 12 51 12 l247 0 l-317 -376 q-20 -23 -40.5 -41.5 q-20.5 -18.5 -43.5 -32.5 q20 -16 33.5 -37 q13.5 -21 25.5 -47 l233 -497 l-239 0 q-30 0 -50 10.5 q-20 10.5 -31 37.5 l-174 379 q-11 24 -23 31 q-12 7 -41 7 l-33 0 l-57 -465 l-272 0 l184 1491 l271 0 Z" /><glyph glyph-name="" unicode="m" d="M32 0 l125 1032 l142 0 q43 0 67 -21 q24 -21 24 -67 l-3 -88 q68 97 145 144 q77 47 162 47 q91 0 147.5 -60 q56.5 -60 68.5 -175 q71 121 155.5 178 q84.5 57 187.5 57 q65 0 115.5 -26 q50.5 -26 83 -76 q32.5 -50 44.5 -123 q12 -73 0 -167 l-77 -655 l-272 0 l77 655 q12 93 -5.5 131.5 q-17.5 38.5 -65.5 38.5 q-35 0 -67.5 -18.5 q-32.5 -18.5 -61.5 -53.5 q-29 -35 -54 -84.5 q-25 -49.5 -43 -112.5 l-66 -556 l-272 0 l78 655 q11 93 -5 131.5 q-16 38.5 -65 38.5 q-36 0 -69 -19.5 q-33 -19.5 -62.5 -55.5 q-29.5 -36 -54 -87.5 q-24.5 -51.5 -42.5 -115.5 l-66 -547 l-271 0 Z" /><glyph glyph-name="" unicode="n" d="M33 0 l124 1032 l141 0 q43 0 67 -21 q24 -21 24 -67 l-3 -109 q77 108 168.5 160 q91.5 52 190.5 52 q64 0 116 -26 q52 -26 86.5 -76 q34.5 -50 48.5 -123 q14 -73 2 -167 l-78 -655 l-275 0 l77 655 q12 93 -9 131.5 q-21 38.5 -74 38.5 q-38 0 -78 -22.5 q-40 -22.5 -77 -63.5 q-37 -41 -68 -99 q-31 -58 -50 -129 l-57 -511 l-276 0 Z" /><glyph glyph-name="" unicode="o" d="M465 192 q58 0 104 34 q46 34 78 91.5 q32 57.5 49.5 133.5 q17.5 76 17.5 161 q0 120 -37 173.5 q-37 53.5 -115 53.5 q-57 0 -103.5 -33.5 q-46.5 -33.5 -78.5 -90.5 q-32 -57 -49.5 -133.5 q-17.5 -76.5 -17.5 -161.5 q0 -118 37 -173 q37 -55 115 -55 ZM441 -15 q-86 0 -160 28.5 q-74 28.5 -128 83.5 q-54 55 -84.5 136 q-30.5 81 -30.5 185 q0 135 44 250.5 q44 115.5 119 199.5 q75 84 175 131.5 q100 47.5 211 47.5 q86 0 159.5 -28.5 q73.5 -28.5 127.5 -84 q54 -55.5 85 -136.5 q31 -81 31 -185 q0 -134 -44 -249 q-44 -115 -119.5 -199 q-75.5 -84 -175 -132 q-99.5 -48 -210.5 -48 Z" /><glyph glyph-name="" unicode="ø" d="M440 -15 q-112 0 -200 47 q-32 -44 -77 -61.5 q-45 -17.5 -88 -17.5 l-100 0 l139 190 q-37 53 -57 121.5 q-20 68.5 -20 153.5 q0 135 44 250.5 q44 115.5 119 199.5 q75 84 175 131.5 q100 47.5 211 47.5 q56 0 106 -12.5 q50 -12.5 94 -35.5 l5 7 q15 20 27 33.5 q12 13.5 25.5 22 q13.5 8.5 30.5 12.5 q17 4 41 4 l136 0 l-139 -191 q36 -53 56.5 -121 q20.5 -68 20.5 -153 q0 -134 -44 -249 q-44 -115 -119.5 -199 q-75.5 -84 -175 -132 q-99.5 -48 -210.5 -48 ZM465 175 q57 0 106 31.5 q49 31.5 84.5 89.5 q35.5 58 55.5 138 q20 80 20 178 q0 16 -1 30.5 q-1 14.5 -3 28.5 l-343 -474 q34 -22 81 -22 ZM295 420 q0 -31 3 -59 l342 474 q-35 21 -79 21 q-57 0 -106 -31 q-49 -31 -84.5 -88 q-35.5 -57 -55.5 -137.5 q-20 -80.5 -20 -179.5 Z" /><glyph glyph-name="" unicode="&#x153;" d="M1229 1047 q69 0 126 -19.5 q57 -19.5 97.5 -54.5 q40.5 -35 62.5 -83.5 q22 -48.5 22 -107.5 q0 -68 -27.5 -125 q-27.5 -57 -96.5 -102.5 q-69 -45.5 -186.5 -78 q-117.5 -32.5 -296.5 -50.5 q5 -121 56 -176.5 q51 -55.5 139 -55.5 q43 0 75 8 q32 8 56.5 19.5 q24.5 11.5 43.5 25 q19 13.5 36 25 q17 11.5 34.5 19.5 q17.5 8 38.5 8 q14 0 26.5 -6.5 q12.5 -6.5 22.5 -17.5 l70 -84 q-54 -54 -105 -92.5 q-51 -38.5 -106 -64 q-55 -25.5 -115 -37.5 q-60 -12 -132 -12 q-93 0 -171 44 q-78 44 -126 138 q-74 -88 -173.5 -135 q-99.5 -47 -217.5 -47 q-84 0 -148.5 30.5 q-64.5 30.5 -108.5 82 q-44 51.5 -67 120 q-23 68.5 -23 144.5 q0 168 47 296 q47 128 125.5 214.5 q78.5 86.5 180 130.5 q101.5 44 210.5 44 q95 0 165.5 -38.5 q70.5 -38.5 113.5 -109.5 q65 69 152.5 108.5 q87.5 39.5 199.5 39.5 ZM448 186 q63 0 110 30 q47 30 79 85 q32 55 50.5 132 q18.5 77 24.5 172 q8 114 -25.5 177.5 q-33.5 63.5 -113.5 63.5 q-64 0 -114 -34 q-50 -34 -84.5 -96 q-34.5 -62 -52.5 -148 q-18 -86 -18 -191 q0 -38 7.5 -72.5 q7.5 -34.5 24 -61 q16.5 -26.5 44 -42 q27.5 -15.5 68.5 -15.5 ZM1185 860 q-89 0 -154.5 -69.5 q-65.5 -69.5 -89.5 -200.5 q111 16 181.5 37 q70.5 21 111.5 44.5 q41 23.5 56.5 49 q15.5 25.5 15.5 51.5 q0 35 -29 61.5 q-29 26.5 -92 26.5 Z" /><glyph glyph-name="" unicode="p" d="M-8 -333 l166 1365 l141 0 q43 0 67 -21 q24 -21 24 -67 l-4 -122 q73 104 163 164.5 q90 60.5 193 60.5 q64 0 116.5 -23 q52.5 -23 90 -70.5 q37.5 -47.5 58 -120.5 q20.5 -73 20.5 -173 q0 -89 -18.5 -173.5 q-18.5 -84.5 -51.5 -159.5 q-33 -75 -79.5 -137.5 q-46.5 -62.5 -102.5 -108 q-56 -45.5 -119.5 -71 q-63.5 -25.5 -130.5 -25.5 q-68 0 -121.5 23 q-53.5 23 -94.5 63 l-49 -404 l-268 0 ZM633 834 q-37 0 -75.5 -26.5 q-38.5 -26.5 -75 -72.5 q-36.5 -46 -68 -108 q-31.5 -62 -53.5 -133 l-30 -248 q32 -30 72 -42.5 q40 -12.5 78 -12.5 q60 0 110.5 38.5 q50.5 38.5 86.5 101 q36 62.5 56 141.5 q20 79 20 160 q0 104 -32.5 153 q-32.5 49 -88.5 49 Z" /><glyph glyph-name="" unicode="q" d="M829 -333 l-180 0 q-26 0 -42.5 9.5 q-16.5 9.5 -26 24 q-9.5 14.5 -12 32 q-2.5 17.5 -0.5 33.5 l51 400 q-63 -85 -139.5 -133 q-76.5 -48 -167.5 -48 q-57 0 -108.5 22.5 q-51.5 22.5 -90.5 68 q-39 45.5 -61.5 115 q-22.5 69.5 -22.5 162.5 q0 93 23 180.5 q23 87.5 66 164.5 q43 77 104.5 141.5 q61.5 64.5 137 110.5 q75.5 46 164 71.5 q88.5 25.5 186.5 25.5 q72 0 144 -10.5 q72 -10.5 142 -36.5 l-167 -1333 ZM421 206 q37 0 73 26.5 q36 26.5 68 73 q32 46.5 59 109 q27 62.5 47 134.5 l39 304 q-10 1 -19 1 q-9 0 -17 0 q-80 0 -147 -36 q-67 -36 -115.5 -98 q-48.5 -62 -76 -144 q-27.5 -82 -27.5 -173 q0 -104 31.5 -150.5 q31.5 -46.5 84.5 -46.5 Z" /><glyph glyph-name="" unicode="r" d="M32 0 l125 1032 l142 0 q43 0 67 -21 q24 -21 24 -67 l-4 -143 q39 72 82.5 123 q43.5 51 90.5 79.5 q47 28.5 96 33 q49 4.5 99 -17.5 l-50 -259 q-59 25 -111 21 q-52 -4 -95.5 -40 q-43.5 -36 -78.5 -105 q-35 -69 -61 -174 l-55 -462 l-271 0 Z" /><glyph glyph-name="" unicode="s" d="M729 827 q-12 -17 -23.5 -24.5 q-11.5 -7.5 -28.5 -7.5 q-19 0 -37.5 10 q-18.5 10 -41.5 21.5 q-23 11.5 -52.5 21.5 q-29.5 10 -69.5 10 q-75 0 -111.5 -32 q-36.5 -32 -36.5 -80 q0 -39 29 -62.5 q29 -23.5 73 -42 q44 -18.5 95 -37.5 q51 -19 95 -49 q44 -30 73 -77 q29 -47 29 -120 q0 -76 -30 -144 q-30 -68 -86.5 -119 q-56.5 -51 -136.5 -81 q-80 -30 -179 -30 q-49 0 -95.5 9.5 q-46.5 9.5 -88 27 q-41.5 17.5 -75 40.5 q-33.5 23 -56.5 50 l68 103 q12 18 29 28 q17 10 41 10 q22 0 40 -12.5 q18 -12.5 40 -27 q22 -14.5 52.5 -27 q30.5 -12.5 79.5 -12.5 q37 0 65.5 9.5 q28.5 9.5 48 26 q19.5 16.5 29 38.5 q9.5 22 9.5 46 q0 44 -29 68 q-29 24 -72.5 42 q-43.5 18 -94.5 35 q-51 17 -94.5 46 q-43.5 29 -72.5 75 q-29 46 -29 123 q0 70 26.5 135.5 q26.5 65.5 77.5 116.5 q51 51 126.5 82 q75.5 31 174.5 31 q101 0 179.5 -34.5 q78.5 -34.5 130.5 -87.5 l-71 -98 Z" /><glyph glyph-name="" unicode="ß" d="M794 1475 q107 0 179.5 -31.5 q72.5 -31.5 117 -78.5 q44.5 -47 64 -103 q19.5 -56 19.5 -104 q0 -66 -20.5 -111.5 q-20.5 -45.5 -51 -78.5 q-30.5 -33 -66.5 -57 q-36 -24 -66.5 -46 q-30.5 -22 -51 -45 q-20.5 -23 -20.5 -55 q0 -28 19.5 -49.5 q19.5 -21.5 48.5 -43 q29 -21.5 63.5 -46 q34.5 -24.5 63.5 -58.5 q29 -34 48.5 -80 q19.5 -46 19.5 -110 q0 -98 -35.5 -171.5 q-35.5 -73.5 -94 -123 q-58.5 -49.5 -134 -74.5 q-75.5 -25 -156.5 -25 q-41 0 -81.5 9.5 q-40.5 9.5 -78 27 q-37.5 17.5 -69.5 40.5 q-32 23 -57 50 l75 99 q12 17 29.5 27 q17.5 10 42.5 10 q23 0 41.5 -12.5 q18.5 -12.5 38.5 -28 q20 -15.5 44.5 -28 q24.5 -12.5 60.5 -12.5 q24 0 45.5 11 q21.5 11 38 30 q16.5 19 26.5 45 q10 26 10 56 q0 39 -22 66.5 q-22 27.5 -54.5 50 q-32.5 22.5 -71 45 q-38.5 22.5 -71 51.5 q-32.5 29 -54.5 69 q-22 40 -22 98 q0 68 22.5 115.5 q22.5 47.5 56.5 82.5 q34 35 73 62.5 q39 27.5 73 56 q34 28.5 56.5 63 q22.5 34.5 22.5 83.5 q0 28 -9 52.5 q-9 24.5 -28 43 q-19 18.5 -49 29 q-30 10.5 -71 10.5 q-59 0 -105.5 -34 q-46.5 -34 -81 -90.5 q-34.5 -56.5 -56 -128 q-21.5 -71.5 -30.5 -146.5 l-102 -841 l-52 -182 q-17 -53 -49.5 -82 q-32.5 -29 -92.5 -29 l-111 0 l131 1080 l-84 17 q-30 7 -47 21.5 q-17 14.5 -13 43.5 l13 107 l167 0 q29 89 80.5 171 q51.5 82 122 144.5 q70.5 62.5 157.5 100 q87 37.5 188 37.5 Z" /><glyph glyph-name="" unicode="t" d="M122 216 q0 7 0 16.5 q0 9.5 1.5 28 q1.5 18.5 5 49 q3.5 30.5 9.5 79.5 l55 444 l-90 0 q-20 0 -32.5 14 q-12.5 14 -8.5 42 l13 108 l156 30 l85 267 q14 45 61 45 l148 0 l-39 -314 l241 0 l-23 -192 l-241 0 l-53 -429 q-5 -41 -8 -65 q-3 -24 -4.5 -37 q-1.5 -13 -1.5 -17.5 q0 -4.5 0 -6.5 q0 -35 16 -55.5 q16 -20.5 48 -20.5 q18 0 31 4.5 q13 4.5 22.5 10 q9.5 5.5 17.5 10 q8 4.5 17 4.5 q13 0 19 -5.5 q6 -5.5 12 -18.5 l60 -132 q-58 -45 -127 -68 q-69 -23 -139 -23 q-114 0 -180.5 61.5 q-66.5 61.5 -70.5 170.5 Z" /><glyph glyph-name="" unicode="u" d="M423 1031 l-78 -655 q-11 -93 9.5 -131.5 q20.5 -38.5 74.5 -38.5 q36 0 74.5 20.5 q38.5 20.5 74 58.5 q35.5 38 66 92 q30.5 54 50.5 120 l65 534 l275 0 l-125 -1031 l-140 0 q-98 0 -98 93 l3 93 q-76 -102 -166 -151.5 q-90 -49.5 -185 -49.5 q-65 0 -117 26 q-52 26 -86 76 q-34 50 -48 122.5 q-14 72.5 -2 166.5 l77 655 l276 0 Z" /><glyph glyph-name="" unicode="v" d="M53 1031 l227 0 q29 0 45.5 -14 q16.5 -14 21.5 -36 l89 -510 q8 -54 14 -105.5 q6 -51.5 9 -103.5 q33 102 77 209 l216 510 q10 22 30 36 q20 14 45 14 l218 0 l-505 -1031 l-232 0 l-255 1031 Z" /><glyph glyph-name="" unicode="w" d="M58 1031 l211 0 q27 0 44.5 -14 q17.5 -14 22.5 -36 l46 -510 q6 -96 9 -182 q17 45 34 89.5 q17 44.5 37 92.5 l201 512 q8 21 28.5 35 q20.5 14 45.5 14 l118 0 q29 0 46.5 -14 q17.5 -14 19.5 -35 l74 -512 q7 -48 12.5 -92.5 q5.5 -44.5 10.5 -89.5 q13 45 27 89.5 q14 44.5 31 92.5 l174 510 q8 22 28 36 q20 14 45 14 l202 0 l-423 -1031 l-214 0 q-17 0 -27 11 q-10 11 -15 37 l-88 558 q-6 40 -9 81 q-8 -21 -15.5 -42 q-7.5 -21 -15.5 -41 l-223 -556 q-20 -48 -59 -48 l-206 0 l-172 1031 Z" /><glyph glyph-name="" unicode="x" d="M319 558 l-235 473 l251 0 q28 0 40 -7.5 q12 -7.5 20 -25.5 l129 -289 q6 13 13.5 25 q7.5 12 16.5 25 l160 233 q25 39 60 39 l250 0 l-360 -474 l261 -557 l-251 0 q-28 0 -44 14.5 q-16 14.5 -24 34.5 l-144 340 q-5 -11 -11 -21 q-6 -10 -12 -19 l-208 -300 q-14 -19 -31.5 -34 q-17.5 -15 -43.5 -15 l-243 0 l406 558 Z" /><glyph glyph-name="" unicode="y" d="M373 -277 q-29 -56 -87 -56 l-206 0 l232 417 l-258 947 l232 0 q30 0 45 -15 q15 -15 21 -35 l109 -493 q6 -27 10 -54 q4 -27 7 -54 q11 27 23.5 54.5 q12.5 27.5 25.5 54.5 l225 493 q11 21 32 35 q21 14 43 14 l221 0 l-675 -1308 Z" /><glyph glyph-name="" unicode="z" d="M853 919 q-2 -29 -15.5 -55 q-13.5 -26 -29.5 -46 l-482 -610 l431 0 l-25 -208 l-760 0 l14 114 q2 17 14 43.5 q12 26.5 31 48.5 l488 617 l-420 0 l25 208 l744 0 l-15 -112 Z" /><glyph glyph-name="" unicode="ª" d="M527 841 q-26 0 -38 7.5 q-12 7.5 -21 30.5 l-8 32 q-47 -39 -88.5 -58.5 q-41.5 -19.5 -99.5 -19.5 q-74 0 -115.5 38 q-41.5 38 -41.5 108 q0 37 15.5 75.5 q15.5 38.5 56 71 q40.5 32.5 110 54 q69.5 21.5 178.5 24.5 l3 23 q1 18 -1 35 q-2 17 -8.5 30 q-6.5 13 -18.5 20.5 q-12 7.5 -33 7.5 q-29 0 -48 -7 q-19 -7 -35 -15 q-16 -8 -31.5 -15 q-15.5 -7 -36.5 -7 q-20 0 -31.5 11 q-11.5 11 -18.5 24 l-27 61 q60 51 127.5 74.5 q67.5 23.5 142.5 23.5 q51 0 91 -19.5 q40 -19.5 67 -53 q27 -33.5 39.5 -77.5 q12.5 -44 6.5 -93 l-47 -386 l-89 0 ZM349 961 q29 0 52.5 11 q23.5 11 50.5 36 l9 81 q-48 -2 -79.5 -9 q-31.5 -7 -49.5 -18.5 q-18 -11.5 -25.5 -26.5 q-7.5 -15 -7.5 -33 q0 -23 12.5 -32 q12.5 -9 37.5 -9 Z" /><glyph glyph-name="" unicode="º" d="M479 1468 q62 0 112.5 -19 q50.5 -19 86 -54.5 q35.5 -35.5 55 -86 q19.5 -50.5 19.5 -113.5 q0 -84 -26.5 -151.5 q-26.5 -67.5 -73.5 -115.5 q-47 -48 -111.5 -73.5 q-64.5 -25.5 -139.5 -25.5 q-63 0 -114 19.5 q-51 19.5 -87.5 55.5 q-36.5 36 -56 87 q-19.5 51 -19.5 115 q0 84 27 151 q27 67 75 114 q48 47 113 72 q65 25 140 25 ZM421 982 q67 0 96 55.5 q29 55.5 29 157.5 q0 121 -85 121 q-40 0 -65.5 -15.5 q-25.5 -15.5 -39.5 -44 q-14 -28.5 -19.5 -67.5 q-5.5 -39 -5.5 -87 q0 -60 21.5 -90 q21.5 -30 68.5 -30 Z" /><glyph glyph-name="" unicode="`" d="M457 1467 q39 0 57.5 -14 q18.5 -14 29.5 -42 l100 -244 l-144 0 q-29 0 -45.5 8.5 q-16.5 8.5 -32.5 29.5 l-203 262 l238 0 Z" /><glyph glyph-name="" unicode="´" d="M873 1467 l-263 -262 q-21 -21 -39.5 -29.5 q-18.5 -8.5 -47.5 -8.5 l-152 0 l155 244 q18 28 40 42 q22 14 61 14 l246 0 Z" /><glyph glyph-name="" unicode="&#x2c6;" d="M831 1168 l-168 0 q-15 0 -28.5 5.5 q-13.5 5.5 -26.5 20.5 l-70 95 q-5 5 -9.5 11 q-4.5 6 -8.5 14 q-6 -8 -12.5 -14 q-6.5 -6 -11.5 -11 l-93 -95 q-28 -26 -60 -26 l-175 0 l244 283 l239 0 l180 -283 Z" /><glyph glyph-name="" unicode="&#x2c7;" d="M619 1168 l-239 0 l-180 283 l175 0 q15 0 28 -5.5 q13 -5.5 20 -12.5 l77 -102 q9 -12 18 -27 q6 8 12.5 14.5 q6.5 6.5 12.5 12.5 l99 102 q9 6 23.5 12 q14.5 6 29.5 6 l169 0 l-245 -283 Z" /><glyph glyph-name="" unicode="&#x2dc;" d="M620 1372 q25 0 41.5 14.5 q16.5 14.5 21.5 56.5 l154 0 q-7 -59 -27.5 -107 q-20.5 -48 -51 -81.5 q-30.5 -33.5 -69 -52 q-38.5 -18.5 -81.5 -18.5 q-33 0 -61 12.5 q-28 12.5 -51.5 27 q-23.5 14.5 -43 27 q-19.5 12.5 -36.5 12.5 q-26 0 -41 -15.5 q-15 -15.5 -20 -57.5 l-156 0 q6 59 27 107 q21 48 52 82 q31 34 69.5 52.5 q38.5 18.5 80.5 18.5 q34 0 62 -12 q28 -12 51 -27 q23 -15 42.5 -27 q19.5 -12 36.5 -12 Z" /><glyph glyph-name="" unicode="¯&#x2c9;" d="M244 1381 l560 0 l-21 -172 l-559 0 l20 172 Z" /><glyph glyph-name="" unicode="&#x2d8;" d="M499 1160 q-82 0 -134.5 23 q-52.5 23 -82 63 q-29.5 40 -37.5 93 q-8 53 -2 112 l178 0 q-4 -29 -1.5 -51.5 q2.5 -22.5 13 -38 q10.5 -15.5 31.5 -23.5 q21 -8 55 -8 q33 0 55.5 8 q22.5 8 36.5 23.5 q14 15.5 21.5 38 q7.5 22.5 11.5 51.5 l176 0 q-6 -59 -26.5 -112 q-20.5 -53 -58.5 -93 q-38 -40 -96 -63 q-58 -23 -140 -23 Z" /><glyph glyph-name="" unicode="&#x2da;" d="M304 1329 q5 48 27 87.5 q22 39.5 54.5 67 q32.5 27.5 73 43 q40.5 15.5 82.5 15.5 q43 0 80.5 -15.5 q37.5 -15.5 64.5 -43 q27 -27.5 40 -67 q13 -39.5 8 -87.5 q-6 -47 -28 -85 q-22 -38 -55 -65 q-33 -27 -74 -42 q-41 -15 -84 -15 q-42 0 -79 15 q-37 15 -63 42 q-26 27 -39 65 q-13 38 -8 85 ZM441 1329 q-4 -38 13 -61.5 q17 -23.5 56 -23.5 q35 0 58.5 23.5 q23.5 23.5 27.5 61.5 q5 40 -13.5 63.5 q-18.5 23.5 -53.5 23.5 q-39 0 -61 -23.5 q-22 -23.5 -27 -63.5 Z" /><glyph glyph-name="" unicode="&#x2dd;" d="M659 1467 l-213 -262 q-19 -23 -38.5 -30.5 q-19.5 -7.5 -48.5 -7.5 l-104 0 l140 244 q17 28 38.5 42 q21.5 14 61.5 14 l164 0 ZM993 1467 l-265 -262 q-21 -21 -39.5 -29.5 q-18.5 -8.5 -46.5 -8.5 l-121 0 l191 244 q10 13 19.5 23.5 q9.5 10.5 20.5 17.5 q11 7 25.5 11 q14.5 4 34.5 4 l181 0 Z" /><glyph glyph-name="" unicode="&#x2d9;" d="M687 1324 q0 -35 -14.5 -65 q-14.5 -30 -38.5 -53 q-24 -23 -54.5 -36 q-30.5 -13 -62.5 -13 q-32 0 -61 13 q-29 13 -52 36 q-23 23 -36.5 53 q-13.5 30 -13.5 65 q0 34 14 64.5 q14 30.5 37 53.5 q23 23 52.5 36.5 q29.5 13.5 61.5 13.5 q33 0 63.5 -13 q30.5 -13 53.5 -36 q23 -23 37 -53.5 q14 -30.5 14 -65.5 Z" /><glyph glyph-name="" unicode="¸" d="M230 -228 q14 0 26 -5.5 q12 -5.5 33 -5.5 q27 0 39 12.5 q12 12.5 12 28.5 q0 23 -27.5 34 q-27.5 11 -90.5 21 l82 182 l153 0 l-37 -96 q76 -20 106 -54.5 q30 -34.5 30 -78.5 q0 -39 -19.5 -70 q-19.5 -31 -54 -52 q-34.5 -21 -83 -32.5 q-48.5 -11.5 -105.5 -11.5 q-38 0 -70 4.5 q-32 4.5 -64 14.5 l36 85 q5 11 12.5 17.5 q7.5 6.5 21.5 6.5 Z" /><glyph glyph-name="" unicode="&#x2db;" d="M475 -178 q20 0 23 -17 l29 -100 q-35 -22 -84 -36.5 q-49 -14.5 -103 -14.5 q-91 0 -136 37.5 q-45 37.5 -45 95.5 q0 60 42.5 118 q42.5 58 135.5 107 l140 -12 q-21 -11 -39.5 -26 q-18.5 -15 -33 -32.5 q-14.5 -17.5 -23 -38 q-8.5 -20.5 -8.5 -42.5 q0 -23 11 -36.5 q11 -13.5 34 -13.5 q15 0 23.5 1.5 q8.5 1.5 14.5 4 q6 2.5 10 4 q4 1.5 9 1.5 Z" /><glyph glyph-name="" unicode="&#x3c0;" d="M1194 1028 l-16 -126 q-5 -35 -29.5 -59.5 q-24.5 -24.5 -65.5 -24.5 l-116 0 q-5 -31 -9.5 -69.5 q-4.5 -38.5 -8 -87 q-3.5 -48.5 -5.5 -109.5 q-2 -61 -2 -137 q0 -74 5 -118.5 q5 -44.5 14.5 -68.5 q9.5 -24 23 -31.5 q13.5 -7.5 30.5 -7.5 l47 0 l-14 -108 q-3 -22 -18 -38.5 q-15 -16.5 -39 -28 q-24 -11.5 -54.5 -17 q-30.5 -5.5 -62.5 -5.5 q-57 0 -98.5 19 q-41.5 19 -68.5 54 q-27 35 -40 85 q-13 50 -13 112 q0 60 9.5 115 q9.5 55 24.5 118 q15 63 34 140.5 q19 77.5 38 182.5 l-250 0 q-25 -172 -51.5 -300 q-26.5 -128 -55 -220 q-28.5 -92 -61 -151.5 q-32.5 -59.5 -69 -94 q-36.5 -34.5 -78.5 -48 q-42 -13.5 -90 -13.5 q-17 0 -36 3 q-19 3 -34.5 9 q-15.5 6 -25 15.5 q-9.5 9.5 -7.5 23.5 l22 181 l20 0 q31 0 61 31.5 q30 31.5 58.5 102.5 q28.5 71 55 184 q26.5 113 51.5 277 l-183 0 l14 114 q2 16 11 33 q9 17 24 31 q15 14 35 23 q20 9 44 9 l979 0 Z" /><glyph glyph-name="" unicode="!" d="M491 1451 l-70 -573 q-11 -92 -32 -180.5 q-21 -88.5 -48 -185.5 l-180 0 q-4 97 -2 185.5 q2 88.5 14 180.5 l70 573 l248 0 ZM58 145 q0 33 12.5 62.5 q12.5 29.5 34 51 q21.5 21.5 51 34 q29.5 12.5 64.5 12.5 q34 0 64 -12.5 q30 -12.5 52 -34 q22 -21.5 34.5 -51 q12.5 -29.5 12.5 -62.5 q0 -34 -12.5 -63 q-12.5 -29 -34.5 -50.5 q-22 -21.5 -52 -33.5 q-30 -12 -64 -12 q-35 0 -64.5 12 q-29.5 12 -51 33.5 q-21.5 21.5 -34 50.5 q-12.5 29 -12.5 63 Z" /><glyph glyph-name="" unicode="?" d="M146 1317 q37 31 79.5 58 q42.5 27 90 47 q47.5 20 101 32 q53.5 12 113.5 12 q82 0 144 -23 q62 -23 103.5 -63 q41.5 -40 62.5 -93 q21 -53 21 -113 q0 -85 -22 -143.5 q-22 -58.5 -56 -100.5 q-34 -42 -75 -73 q-41 -31 -79.5 -60 q-38.5 -29 -69.5 -62 q-31 -33 -45 -78 l-42 -145 l-183 0 l2 162 q1 51 25 90.5 q24 39.5 60 73 q36 33.5 78 64 q42 30.5 77.5 63 q35.5 32.5 59.5 71 q24 38.5 24 88.5 q0 60 -32 95 q-32 35 -102 35 q-50 0 -85.5 -12 q-35.5 -12 -61.5 -27 q-26 -15 -45 -27 q-19 -12 -36 -12 q-20 0 -30 7.5 q-10 7.5 -20 25.5 l-57 108 ZM194 145 q0 33 12.5 62.5 q12.5 29.5 34.5 51 q22 21.5 51.5 34 q29.5 12.5 64.5 12.5 q34 0 64 -12.5 q30 -12.5 52 -34 q22 -21.5 34.5 -51 q12.5 -29.5 12.5 -62.5 q0 -34 -12.5 -63 q-12.5 -29 -34.5 -50.5 q-22 -21.5 -52 -33.5 q-30 -12 -64 -12 q-35 0 -64.5 12 q-29.5 12 -51.5 33.5 q-22 21.5 -34.5 50.5 q-12.5 29 -12.5 63 Z" /><glyph glyph-name="" unicode="," d="M25 163 q0 30 11.5 56 q11.5 26 31.5 45 q20 19 48.5 30 q28.5 11 63.5 11 q41 0 71.5 -14.5 q30.5 -14.5 51 -38.5 q20.5 -24 30.5 -56.5 q10 -32.5 10 -68.5 q0 -49 -15 -103.5 q-15 -54.5 -45 -109.5 q-30 -55 -73.5 -107.5 q-43.5 -52.5 -100.5 -95.5 l-48 43 q-11 9 -15.5 18 q-4.5 9 -4.5 21 q0 15 17 35 q17 20 39 45.5 q22 25.5 44 57.5 q22 32 31 73 q-33 1 -60 14 q-27 13 -46.5 34 q-19.5 21 -30 49.5 q-10.5 28.5 -10.5 61.5 Z" /><glyph glyph-name="" unicode="." d="M23 145 q0 33 12.5 62.5 q12.5 29.5 34 51 q21.5 21.5 51.5 34 q30 12.5 65 12.5 q34 0 63.5 -12.5 q29.5 -12.5 51.5 -34 q22 -21.5 34.5 -51 q12.5 -29.5 12.5 -62.5 q0 -34 -12.5 -63 q-12.5 -29 -34.5 -50.5 q-22 -21.5 -51.5 -33.5 q-29.5 -12 -63.5 -12 q-35 0 -65 12 q-30 12 -51.5 33.5 q-21.5 21.5 -34 50.5 q-12.5 29 -12.5 63 Z" /><glyph glyph-name="" unicode="&#x2026;" d="M23 145 q0 33 12.5 62.5 q12.5 29.5 34 51 q21.5 21.5 51.5 34 q30 12.5 65 12.5 q34 0 63.5 -12.5 q29.5 -12.5 51.5 -34 q22 -21.5 34.5 -51 q12.5 -29.5 12.5 -62.5 q0 -34 -12.5 -63 q-12.5 -29 -34.5 -50.5 q-22 -21.5 -51.5 -33.5 q-29.5 -12 -63.5 -12 q-35 0 -65 12 q-30 12 -51.5 33.5 q-21.5 21.5 -34 50.5 q-12.5 29 -12.5 63 ZM565 145 q0 33 12.5 62.5 q12.5 29.5 34 51 q21.5 21.5 51.5 34 q30 12.5 65 12.5 q34 0 63.5 -12.5 q29.5 -12.5 51.5 -34 q22 -21.5 35 -51 q13 -29.5 13 -62.5 q0 -34 -13 -63 q-13 -29 -35 -50.5 q-22 -21.5 -51.5 -33.5 q-29.5 -12 -63.5 -12 q-35 0 -65 12 q-30 12 -51.5 33.5 q-21.5 21.5 -34 50.5 q-12.5 29 -12.5 63 ZM1107 145 q0 33 12.5 62.5 q12.5 29.5 34.5 51 q22 21.5 51.5 34 q29.5 12.5 64.5 12.5 q34 0 64 -12.5 q30 -12.5 52 -34 q22 -21.5 34.5 -51 q12.5 -29.5 12.5 -62.5 q0 -34 -12.5 -63 q-12.5 -29 -34.5 -50.5 q-22 -21.5 -52 -33.5 q-30 -12 -64 -12 q-35 0 -64.5 12 q-29.5 12 -51.5 33.5 q-22 21.5 -34.5 50.5 q-12.5 29 -12.5 63 Z" /><glyph glyph-name="" unicode="&#x2018;" d="M180 970 q-38 80 -42 160.5 q-4 80.5 22.5 157 q26.5 76.5 82 147.5 q55.5 71 138.5 133 l75 -48 q17 -11 17 -31 q0 -12 -6.5 -22 q-6.5 -10 -20.5 -25 q-15 -18 -36.5 -50.5 q-21.5 -32.5 -35.5 -76.5 q-14 -44 -13 -99 q1 -55 30 -116 q9 -21 -3.5 -40.5 q-12.5 -19.5 -39.5 -28.5 l-168 -61 Z" /><glyph glyph-name="" unicode="&#x2019;" d="M409 1534 q38 -80 42.5 -160.5 q4.5 -80.5 -22 -157.5 q-26.5 -77 -82.5 -148.5 q-56 -71.5 -139 -132.5 l-75 48 q-17 12 -17 32 q0 11 6.5 21 q6.5 10 20.5 25 q15 18 36.5 50.5 q21.5 32.5 35.5 76.5 q14 44 13 98.5 q-1 54.5 -30 116.5 q-9 22 3.5 41 q12.5 19 39.5 29 l168 61 Z" /><glyph glyph-name="" unicode="&#x201a;" d="M238 303 q38 -80 42.5 -160.5 q4.5 -80.5 -22 -157.5 q-26.5 -77 -82.5 -148.5 q-56 -71.5 -139 -132.5 l-75 48 q-17 12 -17 32 q0 11 6.5 21 q6.5 10 20.5 25 q15 18 36.5 50.5 q21.5 32.5 35.5 76.5 q14 44 13 98.5 q-1 54.5 -30 116.5 q-9 22 3.5 41 q12.5 19 39.5 29 l168 61 Z" /><glyph glyph-name="" unicode="&#x2039;" d="M64 523 l6 33 l288 398 l82 -40 q32 -15 34 -42.5 q2 -27.5 -21 -58.5 l-143 -230 q-18 -27 -38 -44 q14 -14 27 -42 l88 -230 q14 -32 5 -59.5 q-9 -27.5 -44 -43.5 l-93 -40 l-191 399 Z" /><glyph glyph-name="" unicode="&#x203a;" d="M162 124 l-81 40 q-32 16 -34.5 43.5 q-2.5 27.5 18.5 59.5 l145 230 q18 26 38 41 q-17 16 -27 45 l-90 230 q-12 31 -3 58.5 q9 27.5 44 42.5 l93 40 l189 -398 l-3 -33 l-289 -399 Z" /><glyph glyph-name="" unicode="/" d="M230 -1 q-12 -24 -29.5 -42 q-17.5 -18 -38 -30 q-20.5 -12 -42 -18.5 q-21.5 -6.5 -41.5 -6.5 l-113 0 l693 1463 q23 43 61 67.5 q38 24.5 86 24.5 l112 0 l-688 -1458 Z" /><glyph glyph-name="" unicode="|" d="M166 1552 l214 0 l0 -1885 l-214 0 l0 1885 Z" /><glyph glyph-name="" unicode="\" d="M154 1457 l112 0 q48 0 80 -24.5 q32 -24.5 44 -67.5 l333 -1463 l-112 0 q-21 0 -41 6.5 q-20 6.5 -37 18.5 q-17 12 -30 30 q-13 18 -19 42 l-330 1458 Z" /><glyph glyph-name="" unicode="-­&#x2010;" d="M112 714 l490 0 l-28 -218 l-489 0 l27 218 Z" /><glyph glyph-name="" unicode="&#x2013;" d="M214 694 l751 0 l-23 -186 l-751 0 l23 186 Z" /><glyph glyph-name="" unicode="&#x2014;" d="M113 694 l1263 0 l-23 -186 l-1263 0 l23 186 Z" /><glyph glyph-name="" unicode="_" d="M719 -127 l-22 -169 l-726 0 l22 169 l726 0 Z" /><glyph glyph-name="" unicode="&#x2022;" d="M114 593 q0 94 36.5 177.5 q36.5 83.5 99.5 145.5 q63 62 147 98 q84 36 179 36 q96 0 180.5 -36 q84.5 -36 147.5 -98 q63 -62 99.5 -145.5 q36.5 -83.5 36.5 -177.5 q0 -94 -36.5 -176.5 q-36.5 -82.5 -99.5 -144.5 q-63 -62 -147.5 -98 q-84.5 -36 -180.5 -36 q-95 0 -179 36 q-84 36 -147 98 q-63 62 -99.5 144.5 q-36.5 82.5 -36.5 176.5 Z" /><glyph glyph-name="" unicode="·&#x2219;" d="M72 595 q0 42 16 79 q16 37 44 64.5 q28 27.5 65 43 q37 15.5 79 15.5 q43 0 81 -15.5 q38 -15.5 66 -43 q28 -27.5 44 -64.5 q16 -37 16 -79 q0 -41 -16 -77.5 q-16 -36.5 -44 -63.5 q-28 -27 -66 -43 q-38 -16 -81 -16 q-42 0 -79 16 q-37 16 -65 43 q-28 27 -44 63.5 q-16 36.5 -16 77.5 Z" /><glyph glyph-name="" unicode="(" d="M292 431 q0 -68 5.5 -143.5 q5.5 -75.5 16 -152 q10.5 -76.5 26.5 -149 q16 -72.5 37 -134.5 q8 -22 8 -38 q0 -16 -6 -28 q-6 -12 -16.5 -21 q-10.5 -9 -22.5 -16 l-126 -69 q-40 84 -69 176.5 q-29 92.5 -47.5 187 q-18.5 94.5 -27.5 188 q-9 93.5 -9 179.5 q0 153 19.5 296.5 q19.5 143.5 64.5 285 q45 141.5 118.5 285 q73.5 143.5 181.5 296.5 l111 -69 q10 -7 18 -16 q8 -9 11 -21 q3 -12 -1 -28.5 q-4 -16.5 -18 -37.5 q-62 -108 -112.5 -221 q-50.5 -113 -86.5 -233 q-36 -120 -55.5 -249 q-19.5 -129 -19.5 -268 Z" /><glyph glyph-name="" unicode=")" d="M250 823 q0 68 -5.5 143.5 q-5.5 75.5 -16.5 152 q-11 76.5 -27 149 q-16 72.5 -36 134.5 q-8 21 -8 37.5 q0 16.5 6 28.5 q6 12 16.5 21 q10.5 9 22.5 16 l126 69 q40 -84 69 -176.5 q29 -92.5 47.5 -186.5 q18.5 -94 27.5 -187.5 q9 -93.5 9 -180.5 q0 -153 -19.5 -296.5 q-19.5 -143.5 -64.5 -285 q-45 -141.5 -119 -285 q-74 -143.5 -183 -296.5 l-109 69 q-10 7 -18 16 q-8 9 -11 21 q-3 12 1 28 q4 16 18 38 q62 108 112.5 222 q50.5 114 86.5 234.5 q36 120.5 55.5 249 q19.5 128.5 19.5 265.5 Z" /><glyph glyph-name="" unicode="[" d="M41 -312 l228 1862 l400 0 l-12 -104 q-3 -26 -25.5 -45 q-22.5 -19 -51.5 -19 l-109 0 l-188 -1526 l111 0 q30 0 47 -19 q17 -19 13 -47 l-13 -102 l-400 0 Z" /><glyph glyph-name="" unicode="]" d="M-53 -210 q3 28 24.5 47 q21.5 19 51.5 19 l110 0 l188 1526 l-111 0 q-30 0 -47 19 q-17 19 -14 45 l14 104 l400 0 l-230 -1862 l-400 0 l14 102 Z" /><glyph glyph-name="" unicode="{" d="M136 437 q0 47 -21 76.5 q-21 29.5 -68 29.5 l19 152 q37 0 61 15.5 q24 15.5 38.5 47 q14.5 31.5 20.5 78.5 q6 47 6 111 q0 13 -0.5 32.5 q-0.5 19.5 -1.5 40 q-1 20.5 -1.5 40.5 q-0.5 20 -0.5 34 q0 109 24.5 194 q24.5 85 75 143.5 q50.5 58.5 128 88.5 q77.5 30 183.5 30 l47 0 l-14 -117 q-2 -14 -9 -23.5 q-7 -9.5 -16.5 -15.5 q-9.5 -6 -19.5 -9 q-10 -3 -17 -3 l-3 0 q-62 0 -96.5 -45 q-34.5 -45 -42.5 -125 q-6 -53 -7.5 -100.5 q-1.5 -47.5 -2 -92.5 q-0.5 -45 -1.5 -88.5 q-1 -43.5 -6 -86.5 q-5 -41 -18.5 -77 q-13.5 -36 -36 -65.5 q-22.5 -29.5 -53 -51 q-30.5 -21.5 -67.5 -32.5 q60 -20 91 -71.5 q31 -51.5 31 -114.5 q0 -58 -12.5 -113 q-12.5 -55 -27 -109.5 q-14.5 -54.5 -27 -110.5 q-12.5 -56 -12.5 -116 q0 -57 25 -92 q25 -35 76 -35 l4 0 q7 0 16.5 -3 q9.5 -3 17 -9.5 q7.5 -6.5 12 -16.5 q4.5 -10 2.5 -23 l-14 -116 l-49 0 q-84 0 -144.5 21.5 q-60.5 21.5 -100 59.5 q-39.5 38 -58.5 91.5 q-19 53.5 -19 118.5 q0 64 14 123 q14 59 30.5 114.5 q16.5 55.5 30.5 110 q14 54.5 14 110.5 Z" /><glyph glyph-name="" unicode="}" d="M394 290 q0 -13 0.5 -32 q0.5 -19 0.5 -39.5 q0 -20.5 0.5 -40.5 q0.5 -20 0.5 -34 q0 -110 -24.5 -194.5 q-24.5 -84.5 -74.5 -143 q-50 -58.5 -127.5 -88.5 q-77.5 -30 -182.5 -30 l-48 0 l16 116 q1 13 8 23 q7 10 16 16.5 q9 6.5 19 9.5 q10 3 18 3 l3 0 q62 0 96.5 45 q34.5 45 42.5 125 q6 52 7.5 99.5 q1.5 47.5 2.5 92.5 q1 45 1.5 88 q0.5 43 5.5 86 q4 40 17.5 76.5 q13.5 36.5 36 66 q22.5 29.5 52.5 51 q30 21.5 67 32.5 q-30 10 -53 28.5 q-23 18.5 -38.5 43 q-15.5 24.5 -23 54 q-7.5 29.5 -7.5 61.5 q0 57 13 112 q13 55 28 110 q15 55 28 111 q13 56 13 116 q0 57 -25 92.5 q-25 35.5 -77 35.5 l-3 0 q-8 0 -17 3 q-9 3 -17 9 q-8 6 -12.5 15.5 q-4.5 9.5 -2.5 23.5 l14 117 l49 0 q83 0 143.5 -21.5 q60.5 -21.5 99.5 -60 q39 -38.5 58 -92 q19 -53.5 19 -118.5 q0 -64 -13.5 -122.5 q-13.5 -58.5 -29.5 -114.5 q-16 -56 -29.5 -110.5 q-13.5 -54.5 -13.5 -110.5 q0 -46 19.5 -75.5 q19.5 -29.5 67.5 -29.5 l-18 -152 q-37 0 -61 -15.5 q-24 -15.5 -38.5 -47 q-14.5 -31.5 -20.5 -79 q-6 -47.5 -6 -111.5 Z" /><glyph glyph-name="" unicode="*" d="M357 830 l23 181 q2 20 6.5 38 q4.5 18 12.5 35 q-13 -13 -28.5 -23.5 q-15.5 -10.5 -33.5 -20.5 l-149 -90 l-49 105 l149 90 q38 23 76 29 q-36 6 -68 29 l-128 92 l75 105 l128 -92 q15 -10 28.5 -21 q13.5 -11 23.5 -24 q-5 17 -5 35 q0 18 2 38 l23 182 l125 0 l-22 -180 q-3 -20 -8 -39.5 q-5 -19.5 -14 -36.5 q29 27 65 46 l149 91 l48 -105 l-149 -91 q-20 -11 -39 -18.5 q-19 -7.5 -38 -10.5 q36 -6 70 -29 l126 -92 l-73 -103 l-128 90 q-16 11 -29 21.5 q-13 10.5 -24 23.5 q5 -17 5 -35 q0 -18 -2 -38 l-22 -182 l-126 0 Z" /><glyph glyph-name="" unicode="&#x2020;" d="M143 945 q3 22 12.5 42 q9.5 20 26.5 35.5 q17 15.5 41.5 25 q24.5 9.5 56.5 9.5 q27 0 57 -5 q30 -5 61.5 -12 q31.5 -7 64 -14 q32.5 -7 64.5 -13 l22 456 q29 16 65.5 24.5 q36.5 8.5 75.5 8.5 q79 0 132 -33 l-90 -456 q34 6 68 13 q34 7 67.5 14 q33.5 7 64.5 12 q31 5 59 5 q32 0 54 -9.5 q22 -9.5 35 -25 q13 -15.5 17.5 -35.5 q4.5 -20 1.5 -42 l-10 -86 l-376 0 l-45 -375 l-64 -805 q-31 -17 -67.5 -25 q-36.5 -8 -75.5 -8 q-39 0 -72.5 8 q-33.5 8 -59.5 25 l133 805 l44 375 l-374 0 l11 86 Z" /><glyph glyph-name="" unicode="&#x2021;" d="M144 945 q3 22 12.5 42 q9.5 20 27 35.5 q17.5 15.5 42 25 q24.5 9.5 56.5 9.5 q27 0 56.5 -5 q29.5 -5 61 -12 q31.5 -7 64 -14 q32.5 -7 64.5 -13 l23 456 q29 16 65.5 24.5 q36.5 8.5 75.5 8.5 q38 0 72 -8.5 q34 -8.5 59 -24.5 l-89 -456 q34 6 68 13 q34 7 67 14 q33 7 64.5 12 q31.5 5 58.5 5 q32 0 54 -9.5 q22 -9.5 35 -25 q13 -15.5 18 -35.5 q5 -20 2 -42 l-10 -86 l-376 0 l-39 -311 l-32 -259 l377 0 l-11 -86 q-3 -22 -12.5 -42.5 q-9.5 -20.5 -26.5 -36 q-17 -15.5 -41.5 -25 q-24.5 -9.5 -56.5 -9.5 q-27 0 -57 5 q-30 5 -61.5 11.5 q-31.5 6.5 -64 13.5 q-32.5 7 -65.5 13 l-20 -454 q-31 -17 -67.5 -25 q-36.5 -8 -74.5 -8 q-39 0 -72.5 8 q-33.5 8 -59.5 25 l88 454 q-33 -6 -67.5 -13 q-34.5 -7 -67.5 -13.5 q-33 -6.5 -64 -11.5 q-31 -5 -58 -5 q-32 0 -54 9.5 q-22 9.5 -35 25 q-13 15.5 -18 36 q-5 20.5 -2 42.5 l11 86 l375 0 l33 259 l38 311 l-377 0 l11 86 Z" /><glyph glyph-name="" unicode="§" d="M847 1241 q-12 -17 -25.5 -24.5 q-13.5 -7.5 -30.5 -7.5 q-20 0 -38.5 10 q-18.5 10 -41 22 q-22.5 12 -51.5 22 q-29 10 -68 10 q-76 0 -115 -36.5 q-39 -36.5 -39 -87.5 q0 -27 19 -49 q19 -22 50.5 -41 q31.5 -19 71 -38 q39.5 -19 81.5 -40 q42 -21 81.5 -46 q39.5 -25 71 -57.5 q31.5 -32.5 50.5 -73.5 q19 -41 19 -94 q0 -88 -43 -163 q-43 -75 -137 -120 q32 -32 51.5 -73.5 q19.5 -41.5 19.5 -96.5 q0 -80 -29 -148.5 q-29 -68.5 -85 -119 q-56 -50.5 -137.5 -79.5 q-81.5 -29 -186.5 -29 q-49 0 -96 9.5 q-47 9.5 -89 26 q-42 16.5 -77 39.5 q-35 23 -59 50 l74 100 q13 18 29.5 27.5 q16.5 9.5 42.5 9.5 q24 0 41.5 -12.5 q17.5 -12.5 40 -27.5 q22.5 -15 55 -27.5 q32.5 -12.5 84.5 -12.5 q72 0 112.5 35.5 q40.5 35.5 40.5 96.5 q0 47 -33 77.5 q-33 30.5 -83 55 q-50 24.5 -108 48.5 q-58 24 -108 59 q-50 35 -83 85.5 q-33 50.5 -33 127.5 q0 91 46 161.5 q46 70.5 139 112.5 q-32 34 -52 79 q-20 45 -20 107 q0 71 27 135.5 q27 64.5 79 113.5 q52 49 129 78 q77 29 177 29 q103 0 182 -36 q79 -36 125 -93 l-71 -94 ZM328 713 q0 -36 22 -62.5 q22 -26.5 57 -49 q35 -22.5 79 -43 q44 -20.5 89 -43.5 q35 23 51 53 q16 30 16 66 q0 37 -21.5 63.5 q-21.5 26.5 -56 48.5 q-34.5 22 -77.5 42 q-43 20 -87 43 q-39 -24 -55.5 -52.5 q-16.5 -28.5 -16.5 -65.5 Z" /><glyph glyph-name="" unicode="¶" d="M1531 1451 l-28 -227 l-212 0 l-177 -1436 l-240 0 l176 1436 l-217 0 l-176 -1436 l-241 0 l102 831 q-94 0 -170 27.5 q-76 27.5 -130 76.5 q-54 49 -83 116 q-29 67 -29 146 q0 94 37.5 179 q37.5 85 105.5 148.5 q68 63.5 162.5 101 q94.5 37.5 209.5 37.5 l910 0 Z" /><glyph glyph-name="" unicode="^" d="M1096 773 l-202 0 q-24 0 -40 12.5 q-16 12.5 -27 31.5 l-143 266 q-17 29 -29.5 56.5 q-12.5 27.5 -22.5 53.5 q-18 -54 -49 -110 l-139 -266 q-10 -18 -27 -31 q-17 -13 -44 -13 l-213 0 l378 678 l180 0 l378 -678 Z" /><glyph glyph-name="" unicode="~" d="M736 661 q53 0 81.5 33.5 q28.5 33.5 28.5 96.5 l223 0 q0 -81 -21 -145.5 q-21 -64.5 -61.5 -110.5 q-40.5 -46 -99 -70.5 q-58.5 -24.5 -133.5 -24.5 q-53 0 -100.5 13 q-47.5 13 -89.5 28 q-42 15 -78 28 q-36 13 -66 13 q-52 0 -80.5 -33.5 q-28.5 -33.5 -29.5 -96.5 l-222 0 q0 81 21 146 q21 65 61.5 110.5 q40.5 45.5 99 70.5 q58.5 25 133.5 25 q53 0 100.5 -13 q47.5 -13 89.5 -28.5 q42 -15.5 78 -28.5 q36 -13 65 -13 Z" /><glyph glyph-name="" unicode="&#39;" d="M422 1450 l-36 -288 l-43 -157 q-13 -47 -36 -72 q-23 -25 -69 -25 q-38 0 -56 25 q-18 25 -22 72 l-5 157 l36 288 l231 0 Z" /><glyph glyph-name="" unicode="&amp;" d="M732 1466 q86 0 151.5 -27 q65.5 -27 109 -72 q43.5 -45 65 -104.5 q21.5 -59.5 20.5 -124.5 l-160 -30 q-33 -7 -50 1.5 q-17 8.5 -27 38.5 q-14 53 -47 85.5 q-33 32.5 -86 32.5 q-38 0 -68.5 -16.5 q-30.5 -16.5 -51.5 -44.5 q-21 -28 -32.5 -65.5 q-11.5 -37.5 -11.5 -79.5 q0 -44 16.5 -91.5 q16.5 -47.5 53.5 -102.5 l285 -372 q30 57 52 119.5 q22 62.5 35 128.5 q5 25 18 40.5 q13 15.5 39 15.5 l188 0 q-18 -139 -67.5 -262 q-49.5 -123 -124.5 -225 l239 -311 l-231 0 q-32 0 -55 4 q-23 4 -41 13 q-18 9 -33 23 q-15 14 -31 35 l-36 48 q-91 -66 -194.5 -102.5 q-103.5 -36.5 -215.5 -36.5 q-96 0 -171.5 26 q-75.5 26 -127 74.5 q-51.5 48.5 -78.5 117 q-27 68.5 -27 153.5 q0 76 24 143.5 q24 67.5 66.5 124.5 q42.5 57 100.5 103 q58 46 126 79 q-31 62 -44 122.5 q-13 60.5 -13 116.5 q0 85 30.5 162 q30.5 77 86.5 134.5 q56 57.5 136.5 91.5 q80.5 34 181.5 34 ZM497 192 q63 0 122 24 q59 24 112 67 l-281 376 q-77 -56 -108 -124.5 q-31 -68.5 -31 -145.5 q0 -90 45.5 -143.5 q45.5 -53.5 140.5 -53.5 Z" /><glyph glyph-name="" unicode="@" d="M1036 183 q-30 0 -57 7 q-27 7 -49 22.5 q-22 15.5 -38 40 q-16 24.5 -23 58.5 q-63 -69 -127.5 -98 q-64.5 -29 -134.5 -29 q-52 0 -90 18.5 q-38 18.5 -63.5 51 q-25.5 32.5 -38 77 q-12.5 44.5 -12.5 95.5 q0 61 16 124.5 q16 63.5 47.5 123.5 q31.5 60 78.5 113 q47 53 109 92.5 q62 39.5 138.5 62.5 q76.5 23 168.5 23 q39 0 70.5 -3 q31.5 -3 58.5 -8.5 q27 -5.5 51 -14 q24 -8.5 48 -19.5 l-137 -373 q-20 -61 -24.5 -100.5 q-4.5 -39.5 2.5 -62 q7 -22.5 24 -31 q17 -8.5 41 -8.5 q42 0 80 34 q38 34 67 93 q29 59 46 138.5 q17 79.5 17 171.5 q0 106 -29 187.5 q-29 81.5 -84 137 q-55 55.5 -133 84 q-78 28.5 -177 28.5 q-132 0 -245 -56.5 q-113 -56.5 -196 -156 q-83 -99.5 -130 -235.5 q-47 -136 -47 -294 q0 -134 36.5 -236.5 q36.5 -102.5 102.5 -172 q66 -69.5 159.5 -105 q93.5 -35.5 207.5 -35.5 q72 0 133 8 q61 8 110.5 21 q49.5 13 87 28.5 q37.5 15.5 61.5 30.5 q25 13 43 15 q18 2 30.5 -3.5 q12.5 -5.5 20.5 -17 q8 -11.5 12 -24.5 l20 -73 q-103 -68 -236.5 -111 q-133.5 -43 -300.5 -43 q-155 0 -280 50 q-125 50 -214 142.5 q-89 92.5 -137 223.5 q-48 131 -48 293 q0 124 30 240.5 q30 116.5 84.5 218.5 q54.5 102 130.5 186.5 q76 84.5 168.5 145 q92.5 60.5 198.5 94 q106 33.5 220 33.5 q122 0 229 -42.5 q107 -42.5 187 -121 q80 -78.5 126.5 -190.5 q46.5 -112 46.5 -250 q0 -125 -35.5 -234.5 q-35.5 -109.5 -97.5 -190.5 q-62 -81 -145.5 -127.5 q-83.5 -46.5 -178.5 -46.5 ZM682 353 q21 0 43 7.5 q22 7.5 43.5 26.5 q21.5 19 41.5 51.5 q20 32.5 36 81.5 l101 280 q-12 2 -24.5 3 q-12.5 1 -25.5 1 q-55 0 -106.5 -29.5 q-51.5 -29.5 -91.5 -78.5 q-40 -49 -64.5 -112 q-24.5 -63 -24.5 -130 q0 -48 18.5 -74.5 q18.5 -26.5 53.5 -26.5 Z" /><glyph glyph-name="" unicode="©" d="M1050 526 q11 0 21 -5.5 q10 -5.5 17 -13.5 l91 -95 q-55 -73 -141.5 -111 q-86.5 -38 -201.5 -38 q-101 0 -182 36 q-81 36 -138 99 q-57 63 -88 148 q-31 85 -31 183 q0 102 35.5 187 q35.5 85 97.5 147 q62 62 146 96.5 q84 34.5 181 34.5 q113 0 194 -38.5 q81 -38.5 135 -97.5 l-73 -99 q-7 -8 -18.5 -17 q-11.5 -9 -28.5 -9 q-19 0 -33.5 9.5 q-14.5 9.5 -34.5 21 q-20 11.5 -49.5 21 q-29.5 9.5 -77.5 9.5 q-55 0 -98 -18.5 q-43 -18.5 -72 -53 q-29 -34.5 -44.5 -83.5 q-15.5 -49 -15.5 -110 q0 -65 15.5 -114 q15.5 -49 43.5 -83 q28 -34 66.5 -51 q38.5 -17 83.5 -17 q49 0 78.5 8.5 q29.5 8.5 49.5 19 q20 10.5 35.5 20.5 q15.5 10 36.5 14 ZM95 726 q0 102 26.5 197 q26.5 95 74.5 177 q48 82 116 150 q68 68 150 116 q82 48 176.5 74.5 q94.5 26.5 196.5 26.5 q102 0 197 -26.5 q95 -26.5 177.5 -74.5 q82.5 -48 150 -116 q67.5 -68 116 -150 q48.5 -82 75 -177 q26.5 -95 26.5 -197 q0 -102 -26.5 -196.5 q-26.5 -94.5 -75 -176.5 q-48.5 -82 -116 -150 q-67.5 -68 -150 -116 q-82.5 -48 -177.5 -74.5 q-95 -26.5 -197 -26.5 q-102 0 -196.5 26.5 q-94.5 26.5 -176.5 74.5 q-82 48 -150 116 q-68 68 -116 150 q-48 82 -74.5 176.5 q-26.5 94.5 -26.5 196.5 ZM244 726 q0 -129 45.5 -240.5 q45.5 -111.5 125 -194 q79.5 -82.5 187.5 -130 q108 -47.5 233 -47.5 q84 0 160.5 21.5 q76.5 21.5 143 61 q66.5 39.5 120.5 95 q54 55.5 92.5 123.5 q38.5 68 59.5 146.5 q21 78.5 21 164.5 q0 86 -21 165 q-21 79 -59.5 147.5 q-38.5 68.5 -92.5 124.5 q-54 56 -120.5 96 q-66.5 40 -143 61.5 q-76.5 21.5 -160.5 21.5 q-125 0 -233 -48 q-108 -48 -187.5 -131 q-79.5 -83 -125 -195.5 q-45.5 -112.5 -45.5 -241.5 Z" /><glyph glyph-name="" unicode="®" d="M95 726 q0 102 26.5 197 q26.5 95 74.5 177 q48 82 116 150 q68 68 150 116 q82 48 176.5 74.5 q94.5 26.5 196.5 26.5 q102 0 197 -26.5 q95 -26.5 177.5 -74.5 q82.5 -48 150 -116 q67.5 -68 116 -150 q48.5 -82 75 -177 q26.5 -95 26.5 -197 q0 -102 -26.5 -196.5 q-26.5 -94.5 -75 -176.5 q-48.5 -82 -116 -150 q-67.5 -68 -150 -116 q-82.5 -48 -177.5 -74.5 q-95 -26.5 -197 -26.5 q-102 0 -196.5 26.5 q-94.5 26.5 -176.5 74.5 q-82 48 -150 116 q-68 68 -116 150 q-48 82 -74.5 176.5 q-26.5 94.5 -26.5 196.5 ZM244 726 q0 -129 45.5 -240.5 q45.5 -111.5 125 -194 q79.5 -82.5 187.5 -130 q108 -47.5 233 -47.5 q121 0 226 43.5 q105 43.5 185 121.5 l-215 0 q-49 0 -69 35 l-120 249 q-8 17 -22 23.5 q-14 6.5 -38 6.5 l-45 0 l0 -314 l-239 0 l0 899 l336 0 q193 0 281.5 -68 q88.5 -68 88.5 -195 q0 -87 -43.5 -154.5 q-43.5 -67.5 -137.5 -99.5 q26 -14 43.5 -35 q17.5 -21 32.5 -50 l156 -288 q83 83 130 195 q47 112 47 243 q0 86 -21 165 q-21 79 -59.5 147.5 q-38.5 68.5 -92.5 124.5 q-54 56 -120.5 96 q-66.5 40 -143 61.5 q-76.5 21.5 -160.5 21.5 q-125 0 -233 -48 q-108 -48 -187.5 -131 q-79.5 -83 -125 -195.5 q-45.5 -112.5 -45.5 -241.5 ZM737 760 l77 0 q50 0 80.5 8 q30.5 8 47 24 q16.5 16 22 39 q5.5 23 5.5 53 q0 29 -5 50.5 q-5 21.5 -19.5 36 q-14.5 14.5 -41 22 q-26.5 7.5 -69.5 7.5 l-97 0 l0 -240 Z" /><glyph glyph-name="" unicode="&#x2122;" d="M974 1176 q6 -18 10.5 -36 q4.5 -18 8.5 -37 q14 36 39 73 l132 245 q16 19 28 24 q12 5 35 5 l156 0 l-73 -607 l-161 0 l36 288 l24 100 l-160 -290 q-25 -38 -68 -38 l-25 0 q-43 0 -57 38 l-85 285 l-2 -95 l-34 -288 l-159 0 l73 607 l158 0 q23 0 33.5 -5 q10.5 -5 22.5 -24 l68 -245 ZM640 1450 l-19 -149 l-143 0 l-56 -458 l-181 0 l55 458 l-141 0 l19 149 l466 0 Z" /><glyph glyph-name="" unicode="°" d="M119 1121 q0 72 27 135.5 q27 63.5 74.5 111 q47.5 47.5 112 74.5 q64.5 27 139.5 27 q75 0 140 -27 q65 -27 113 -74.5 q48 -47.5 75.5 -111 q27.5 -63.5 27.5 -135.5 q0 -71 -27.5 -133.5 q-27.5 -62.5 -75.5 -110 q-48 -47.5 -113 -75 q-65 -27.5 -140 -27.5 q-75 0 -139.5 27.5 q-64.5 27.5 -112 75 q-47.5 47.5 -74.5 110 q-27 62.5 -27 133.5 ZM309 1120 q0 -36 12 -66.5 q12 -30.5 34 -53 q22 -22.5 52 -35.5 q30 -13 65 -13 q36 0 65.5 13 q29.5 13 51.5 35.5 q22 22.5 34 53 q12 30.5 12 66.5 q0 36 -12 67 q-12 31 -34 54 q-22 23 -51.5 36 q-29.5 13 -65.5 13 q-35 0 -65 -13 q-30 -13 -52 -36 q-22 -23 -34 -54 q-12 -31 -12 -67 Z" /><glyph glyph-name="" unicode="&#x20ac;" d="M65 934 l123 0 q37 123 99.5 221 q62.5 98 144.5 166.5 q82 68.5 180 105.5 q98 37 207 37 q139 0 232.5 -55 q93.5 -55 147.5 -145 l-106 -100 q-12 -12 -24.5 -21 q-12.5 -9 -34.5 -9 q-14 0 -25.5 8 q-11.5 8 -23 19.5 q-11.5 11.5 -26 25 q-14.5 13.5 -36 25 q-21.5 11.5 -51 19.5 q-29.5 8 -71.5 8 q-116 0 -205 -78 q-89 -78 -137 -227 l499 0 l-9 -81 q-4 -23 -26 -43 q-22 -20 -57 -20 l-440 0 q-4 -26 -6.5 -53 q-2.5 -27 -4.5 -56 l418 0 l-11 -80 q-2 -24 -25 -44.5 q-23 -20.5 -56 -20.5 l-326 0 q11 -161 76 -243 q65 -82 173 -82 q46 0 80.5 9 q34.5 9 60.5 22 q26 13 45 29 q19 16 34.5 29 q15.5 13 29 22 q13.5 9 28.5 9 q12 0 20 -2.5 q8 -2.5 16 -13.5 l103 -105 q-83 -109 -199.5 -166.5 q-116.5 -57.5 -258.5 -57.5 q-116 0 -203.5 40.5 q-87.5 40.5 -147.5 113.5 q-60 73 -92.5 174 q-32.5 101 -38.5 222 l-125 0 l18 145 l109 0 q2 28 5 55.5 q3 27.5 7 53.5 l-107 0 l17 144 Z" /><glyph glyph-name="" unicode="$" d="M376 -8 q-113 17 -211 65 q-98 48 -161 118 l98 120 q12 16 31 25.5 q19 9.5 39 9.5 q23 0 45.5 -14.5 q22.5 -14.5 51 -34.5 q28.5 -20 65.5 -40.5 q37 -20.5 88 -31.5 l91 428 q-64 19 -126 44 q-62 25 -111 64.5 q-49 39.5 -79.5 99 q-30.5 59.5 -30.5 147.5 q0 88 36 170.5 q36 82.5 103.5 147.5 q67.5 65 163.5 106 q96 41 217 47 l26 120 q2 13 9.5 25 q7.5 12 18 21 q10.5 9 23.5 14.5 q13 5.5 28 5.5 l98 0 l-41 -195 q52 -9 96 -25 q44 -16 80.5 -37 q36.5 -21 66.5 -45.5 q30 -24.5 54 -51.5 l-76 -96 q-17 -23 -33.5 -32.5 q-16.5 -9.5 -38.5 -9.5 q-15 0 -34.5 9 q-19.5 9 -43.5 21.5 q-24 12.5 -53 26 q-29 13.5 -64 22.5 l-84 -399 q64 -20 128 -45 q64 -25 114 -63 q50 -38 81.5 -93.5 q31.5 -55.5 31.5 -136.5 q0 -99 -37 -188.5 q-37 -89.5 -106 -158.5 q-69 -69 -168 -113 q-99 -44 -223 -53 l-30 -142 q-2 -12 -9 -23.5 q-7 -11.5 -17.5 -20 q-10.5 -8.5 -24 -14 q-13.5 -5.5 -28.5 -5.5 l-98 0 l44 211 ZM813 435 q0 31 -11 54.5 q-11 23.5 -30.5 42 q-19.5 18.5 -46.5 32.5 q-27 14 -59 26 l-81 -386 q112 15 170 75 q58 60 58 156 ZM423 1050 q0 -30 10.5 -54 q10.5 -24 29.5 -43.5 q19 -19.5 45.5 -35 q26.5 -15.5 57.5 -28.5 l74 352 q-59 -7 -100 -24.5 q-41 -17.5 -67 -43 q-26 -25.5 -38 -57 q-12 -31.5 -12 -66.5 Z" /><glyph glyph-name="" unicode="¢" d="M449 -7 q-78 13 -143 49.5 q-65 36.5 -112.5 94 q-47.5 57.5 -73.5 134.5 q-26 77 -26 171 q0 124 39.5 231 q39.5 107 113.5 187.5 q74 80.5 181.5 128.5 q107.5 48 244.5 54 l32 152 q5 24 27.5 45 q22.5 21 51.5 21 l98 0 l-49 -229 q77 -16 136.5 -49 q59.5 -33 107.5 -84 l-80 -91 q-12 -16 -24.5 -23 q-12.5 -7 -32.5 -7 q-14 0 -28.5 6 q-14.5 6 -32 15 q-17.5 9 -39 18.5 q-21.5 9.5 -49.5 17.5 l-138 -651 q51 5 86.5 18.5 q35.5 13.5 61.5 28 q26 14.5 46.5 25.5 q20.5 11 41.5 11 q32 0 46 -21 l63 -92 q-42 -41 -88 -70.5 q-46 -29.5 -95.5 -49.5 q-49.5 -20 -100.5 -31 q-51 -11 -102 -15 l-30 -141 q-6 -26 -28 -45.5 q-22 -19.5 -51 -19.5 l-98 0 l44 211 ZM356 455 q0 -97 35.5 -161.5 q35.5 -64.5 102.5 -92.5 l136 643 q-70 -9 -121.5 -40.5 q-51.5 -31.5 -85.5 -81.5 q-34 -50 -50.5 -117.5 q-16.5 -67.5 -16.5 -149.5 Z" /><glyph glyph-name="" unicode="£" d="M903 662 q-3 -24 -26 -44.5 q-23 -20.5 -55 -20.5 l-363 0 l-22 -187 q-9 -66 -31 -116.5 q-22 -50.5 -62 -92.5 q44 10 87 15.5 q43 5.5 86 5.5 l562 0 l-15 -109 q-3 -20 -13.5 -40 q-10.5 -20 -27 -36 q-16.5 -16 -38.5 -26.5 q-22 -10.5 -47 -10.5 l-959 0 l22 164 q69 15 106 54.5 q37 39.5 47 119.5 l31 259 l-150 0 l13 105 q4 24 26.5 44.5 q22.5 20.5 54.5 20.5 l77 0 l29 232 q12 95 54 180 q42 85 111 148.5 q69 63.5 163.5 101 q94.5 37.5 211.5 37.5 q87 0 152 -19.5 q65 -19.5 112 -55 q47 -35.5 79 -83.5 q32 -48 53 -105 l-115 -69 q-38 -18 -71.5 -16 q-33.5 2 -59.5 33 q-18 24 -34 41.5 q-16 17.5 -35.5 29.5 q-19.5 12 -45 18 q-25.5 6 -62.5 6 q-48 0 -89.5 -16.5 q-41.5 -16.5 -73 -48 q-31.5 -31.5 -51.5 -77 q-20 -45.5 -27 -103.5 l-28 -234 l436 0 l-12 -105 l0 0 Z" /><glyph glyph-name="" unicode="¥" d="M131 634 l268 0 l-296 816 l222 0 q37 0 58.5 -18 q21.5 -18 29.5 -47 l147 -471 q14 -47 22 -87 q8 -40 13 -78 q13 38 31 78 q18 40 43 87 l259 471 q14 25 40 45 q26 20 62 20 l224 0 l-498 -816 l269 0 l-18 -145 l-313 0 l-12 -92 l312 0 l-18 -145 l-312 0 l-31 -252 l-265 0 l30 252 l-315 0 l20 145 l313 0 l11 92 l-314 0 l18 145 Z" /><glyph glyph-name="" unicode="#" d="M810 404 l-123 -404 l-124 0 q-18 0 -32.5 8.5 q-14.5 8.5 -23.5 23.5 q-9 15 -11 34.5 q-2 19.5 6 41.5 l91 296 l-194 0 l-93 -309 q-7 -26 -20.5 -44 q-13.5 -18 -31 -29.5 q-17.5 -11.5 -37.5 -16.5 q-20 -5 -41 -5 l-119 0 l125 404 l-107 0 q-41 0 -56 24 q-15 24 1 82 l25 82 l186 0 l82 267 l-211 0 l34 108 q13 41 42 60 q29 19 87 19 l97 0 l97 316 q14 41 47.5 64.5 q33.5 23.5 75.5 23.5 l123 0 l-126 -404 l193 0 l125 404 l119 0 q20 0 36 -7 q16 -7 26 -19 q10 -12 12.5 -28.5 q2.5 -16.5 -3.5 -35.5 l-96 -314 l201 0 l-35 -109 q-12 -41 -41 -59.5 q-29 -18.5 -86 -18.5 l-88 0 l-82 -267 l132 0 q40 0 55.5 -23.5 q15.5 -23.5 -0.5 -82.5 l-25 -82 l-212 0 ZM448 592 l195 0 l81 267 l-193 0 l-83 -267 Z" /><glyph glyph-name="" unicode="0" d="M1099 884 q0 -228 -47.5 -397 q-47.5 -169 -128.5 -281 q-81 -112 -190 -167 q-109 -55 -232 -55 q-92 0 -168 36.5 q-76 36.5 -131 109 q-55 72.5 -85 181.5 q-30 109 -30 255 q0 228 46.5 397 q46.5 169 127.5 280.5 q81 111.5 189.5 167 q108.5 55.5 232.5 55.5 q92 0 168.5 -36 q76.5 -36 131.5 -109 q55 -73 85.5 -182 q30.5 -109 30.5 -255 ZM826 898 q0 100 -14 167.5 q-14 67.5 -37.5 108 q-23.5 40.5 -54.5 58 q-31 17.5 -65 17.5 q-55 0 -108 -34 q-53 -34 -95 -115 q-42 -81 -67.5 -215 q-25.5 -134 -25.5 -335 q0 -100 13.5 -167 q13.5 -67 37 -107.5 q23.5 -40.5 54 -57.5 q30.5 -17 63.5 -17 q54 0 107.5 33.5 q53.5 33.5 96 113.5 q42.5 80 69 214.5 q26.5 134.5 26.5 335.5 Z" /><glyph glyph-name="" unicode="1" d="M207 195 l260 0 l100 815 q3 24 7 49.5 q4 25.5 9 51.5 l-185 -159 q-21 -15 -40 -18.5 q-19 -3.5 -35 -0.5 q-16 3 -27.5 11 q-11.5 8 -16.5 17 l-70 113 l460 378 l219 0 l-154 -1257 l227 0 l-25 -195 l-754 0 l25 195 Z" /><glyph glyph-name="" unicode="2" d="M700 1466 q88 0 158 -26.5 q70 -26.5 118.5 -74 q48.5 -47.5 74.5 -114 q26 -66.5 26 -146.5 q0 -92 -26.5 -167.5 q-26.5 -75.5 -71.5 -143 q-45 -67.5 -105 -130 q-60 -62.5 -127 -128.5 l-334 -329 q54 16 108.5 26 q54.5 10 99.5 10 l281 0 q43 0 65 -24 q22 -24 17 -63 l-20 -156 l-932 0 l11 87 q4 26 17.5 55 q13.5 29 42.5 53 l445 435 q66 64 114 119.5 q48 55.5 79 108.5 q31 53 46 107 q15 54 15 116 q0 79 -37 122 q-37 43 -109 43 q-35 0 -65.5 -12 q-30.5 -12 -56 -33 q-25.5 -21 -45.5 -49.5 q-20 -28.5 -32 -61.5 q-24 -48 -55 -64 q-31 -16 -84 -7 l-138 24 q28 106 78.5 185 q50.5 79 118.5 132 q68 53 150 79.5 q82 26.5 173 26.5 Z" /><glyph glyph-name="" unicode="3" d="M706 1466 q89 0 157.5 -26 q68.5 -26 115 -71 q46.5 -45 70.5 -105.5 q24 -60.5 24 -129.5 q0 -80 -16.5 -140.5 q-16.5 -60.5 -48.5 -105 q-32 -44.5 -79 -74.5 q-47 -30 -109 -49 q198 -77 198 -283 q0 -81 -20 -149 q-20 -68 -56 -123.5 q-36 -55.5 -85.5 -97.5 q-49.5 -42 -107.5 -70.5 q-58 -28.5 -123 -43 q-65 -14.5 -132 -14.5 q-97 0 -169 24.5 q-72 24.5 -123.5 72.5 q-51.5 48 -84 120 q-32.5 72 -51.5 167 l124 49 q49 19 87.5 10 q38.5 -9 51.5 -42 q15 -37 32 -70 q17 -33 39 -57.5 q22 -24.5 51 -39 q29 -14.5 67 -14.5 q55 0 99 22.5 q44 22.5 74 61 q30 38.5 46 88.5 q16 50 16 105 q0 37 -11 67.5 q-11 30.5 -40.5 53 q-29.5 22.5 -81 35 q-51.5 12.5 -133.5 12.5 l24 187 q85 0 142.5 16.5 q57.5 16.5 92 48 q34.5 31.5 49 77.5 q14.5 46 14.5 105 q0 78 -37.5 120.5 q-37.5 42.5 -109.5 42.5 q-35 0 -65.5 -12 q-30.5 -12 -56.5 -33 q-26 -21 -45.5 -49.5 q-19.5 -28.5 -31.5 -61.5 q-24 -48 -55.5 -64 q-31.5 -16 -84.5 -7 l-137 24 q28 106 78.5 185 q50.5 79 118.5 132 q68 53 150 79.5 q82 26.5 173 26.5 Z" /><glyph glyph-name="" unicode="4" d="M914 551 l149 0 l-19 -151 q-2 -21 -18 -36.5 q-16 -15.5 -41 -15.5 l-96 0 l-42 -348 l-231 0 l42 348 l-547 0 q-25 0 -43 16 q-18 16 -20 40 l-11 134 l736 913 l252 0 l-111 -900 ZM737 1000 q3 28 8.5 58.5 q5.5 30.5 13.5 64.5 l-447 -572 l370 0 l55 449 Z" /><glyph glyph-name="" unicode="5" d="M1063 1339 q-7 -56 -47 -91 q-40 -35 -125 -35 l-333 0 l-80 -283 q80 16 153 16 q96 0 167.5 -30 q71.5 -30 119 -82 q47.5 -52 71.5 -122 q24 -70 24 -149 q0 -128 -44.5 -234.5 q-44.5 -106.5 -122 -183 q-77.5 -76.5 -182.5 -119 q-105 -42.5 -226 -42.5 q-65 0 -121 14.5 q-56 14.5 -104 38.5 q-48 24 -87.5 55.5 q-39.5 31.5 -70.5 66.5 l96 111 q31 35 72 35 q26 0 48 -16 q22 -16 49.5 -35 q27.5 -19 65.5 -35 q38 -16 95 -16 q69 0 119 27 q50 27 82.5 72 q32.5 45 47.5 104 q15 59 15 123 q0 95 -50.5 149 q-50.5 54 -147.5 54 q-93 0 -187 -38 l-160 46 l201 710 l676 0 l-14 -111 Z" /><glyph glyph-name="" unicode="7" d="M1157 1450 l-14 -113 q-7 -51 -22 -82 q-15 -31 -28 -53 l-614 -1113 q-23 -37 -59 -63 q-36 -26 -92 -26 l-193 0 l623 1089 q24 37 48 67 q24 30 52 57 l-605 0 q-23 0 -39.5 18.5 q-16.5 18.5 -13.5 41.5 l22 177 l935 0 Z" /><glyph glyph-name="" unicode="9" d="M682 631 q-95 -55 -208 -55 q-61 0 -119 22.5 q-58 22.5 -103 67.5 q-45 45 -72.5 112 q-27.5 67 -27.5 156 q0 109 40 206 q40 97 110.5 169.5 q70.5 72.5 167 114.5 q96.5 42 210.5 42 q96 0 171 -30.5 q75 -30.5 126.5 -85.5 q51.5 -55 78 -131 q26.5 -76 26.5 -166 q0 -78 -14.5 -147 q-14.5 -69 -42 -132.5 q-27.5 -63.5 -66.5 -124 q-39 -60.5 -87 -123.5 l-350 -466 q-21 -26 -59.5 -43 q-38.5 -17 -84.5 -17 l-246 0 l490 559 l60 72 ZM829 1050 q0 96 -49 149.5 q-49 53.5 -130 53.5 q-51 0 -93 -21 q-42 -21 -72 -59.5 q-30 -38.5 -46.5 -91 q-16.5 -52.5 -16.5 -115.5 q0 -93 43 -143.5 q43 -50.5 128 -50.5 q55 0 98.5 21 q43.5 21 74 58.5 q30.5 37.5 47 88.5 q16.5 51 16.5 110 Z" /><glyph glyph-name="" unicode="&#x2044;" d="M-198 77 q-33 -45 -66.5 -61 q-33.5 -16 -76.5 -16 l-109 0 l944 1361 q32 42 68 65.5 q36 23.5 85 23.5 l109 0 l-954 -1373 Z" /><glyph glyph-name="" unicode="+" d="M756 1174 l-50 -405 l384 0 l-25 -194 l-383 0 l-50 -407 l-217 0 l50 407 l-380 0 l25 194 l379 0 l51 405 l216 0 Z" /><glyph glyph-name="" unicode="÷" d="M109 769 l980 0 l-25 -194 l-980 0 l25 194 ZM469 1009 q0 36 14.5 68 q14.5 32 39 56 q24.5 24 57 37.5 q32.5 13.5 69.5 13.5 q30 0 56 -11 q26 -11 44.5 -30 q18.5 -19 29 -44.5 q10.5 -25.5 10.5 -54.5 q0 -37 -15 -68.5 q-15 -31.5 -39.5 -55 q-24.5 -23.5 -57 -36.5 q-32.5 -13 -67.5 -13 q-32 0 -57.5 10.5 q-25.5 10.5 -44.5 29 q-19 18.5 -29 44 q-10 25.5 -10 54.5 ZM381 297 q0 36 14.5 68 q14.5 32 39 56 q24.5 24 57 37.5 q32.5 13.5 69.5 13.5 q30 0 56 -11 q26 -11 44.5 -30 q18.5 -19 29 -44.5 q10.5 -25.5 10.5 -54.5 q0 -37 -15 -68.5 q-15 -31.5 -39.5 -55 q-24.5 -23.5 -57 -36.5 q-32.5 -13 -67.5 -13 q-31 0 -57 10.5 q-26 10.5 -44.5 29 q-18.5 18.5 -29 44 q-10.5 25.5 -10.5 54.5 Z" /><glyph glyph-name="" unicode="=" d="M129 591 l894 0 l-25 -194 l-894 0 l25 194 ZM174 947 l892 0 l-24 -194 l-893 0 l25 194 Z" /><glyph glyph-name="" unicode="&#x2260;" d="M804 1163 l190 0 l-631 -998 l-189 0 l630 998 Z" /><glyph glyph-name="" unicode="&#x2248;" d="M826 905 q32 0 63 7 q31 7 57 17.5 q26 10.5 45 21.5 q19 11 27 19 l10 -165 q-46 -52 -111.5 -75 q-65.5 -23 -133.5 -23 q-53 0 -104 15.5 q-51 15.5 -99.5 33.5 q-48.5 18 -94 33.5 q-45.5 15.5 -88.5 15.5 q-33 0 -65 -7.5 q-32 -7.5 -58.5 -18 q-26.5 -10.5 -45.5 -23 q-19 -12.5 -27 -21.5 l-19 160 q48 56 116.5 81 q68.5 25 140.5 25 q52 0 103 -15 q51 -15 99.5 -33 q48.5 -18 94.5 -33 q46 -15 90 -15 ZM781 544 q32 0 63 7.5 q31 7.5 57.5 17.5 q26.5 10 45 21 q18.5 11 26.5 19 l10 -165 q-46 -51 -111.5 -73.5 q-65.5 -22.5 -132.5 -22.5 q-53 0 -104 15 q-51 15 -99.5 33 q-48.5 18 -94.5 33 q-46 15 -89 15 q-33 0 -64.5 -7 q-31.5 -7 -58 -17.5 q-26.5 -10.5 -46 -22.5 q-19.5 -12 -26.5 -22 l-18 159 q46 57 114.5 82.5 q68.5 25.5 141.5 25.5 q53 0 104 -15.5 q51 -15.5 99.5 -33.5 q48.5 -18 94 -33.5 q45.5 -15.5 88.5 -15.5 Z" /><glyph glyph-name="" unicode="&lt;" d="M154 647 l10 82 l852 418 l-24 -194 q-3 -21 -16 -39 q-13 -18 -40 -30 l-347 -172 q-26 -12 -54.5 -21 q-28.5 -9 -59.5 -17 q58 -13 104 -38 l308 -171 q23 -12 31.5 -30 q8.5 -18 5.5 -40 l-25 -194 l-748 419 l3 27 Z" /><glyph glyph-name="" unicode="&gt;" d="M1020 701 l1 0 l-10 -81 l-853 -419 l25 194 q3 22 15.5 40 q12.5 18 39.5 30 l347 171 q26 12 54.5 21 q28.5 9 60.5 17 q-58 13 -105 38 l-307 172 q-23 12 -31.5 30 q-8.5 18 -5.5 39 l24 194 l749 -418 l-4 -28 Z" /><glyph glyph-name="" unicode="±" d="M768 1250 l-43 -350 l383 0 l-25 -194 l-382 0 l-41 -335 l-215 0 l41 335 l-381 0 l23 194 l382 0 l43 350 l215 0 ZM51 274 l980 0 l-25 -194 l-978 0 l23 194 Z" /><glyph glyph-name="" unicode="&#x2264;" d="M195 799 l7 58 l847 380 l-23 -185 q-3 -22 -17 -41.5 q-14 -19.5 -51 -33.5 l-332 -139 q-29 -11 -60.5 -19.5 q-31.5 -8.5 -66.5 -15.5 q33 -8 62.5 -16.5 q29.5 -8.5 55.5 -19.5 l298 -142 q34 -14 43 -34 q9 -20 7 -41 l-23 -185 l-754 383 l7 51 ZM131 281 l801 0 l-26 -201 l-801 0 l26 201 Z" /><glyph glyph-name="" unicode="&#x2265;" d="M1023 857 l-11 -82 l-1 0 l-3 -27 l-847 -383 l23 185 q3 21 17.5 41 q14.5 20 52.5 34 l330 142 q29 11 60 19.5 q31 8.5 66 16.5 q-64 13 -118 35 l-297 139 q-35 14 -43.5 33.5 q-8.5 19.5 -6.5 41.5 l23 185 l755 -380 ZM926 80 l-801 0 l26 201 l801 0 l-26 -201 Z" /><glyph glyph-name="" unicode="¬" d="M148 769 l894 0 l-60 -476 l-224 0 l35 282 l-668 0 l23 194 Z" /><glyph glyph-name="" unicode="&#x221e;" d="M909 224 q-50 0 -89.5 13.5 q-39.5 13.5 -71.5 36.5 q-32 23 -56.5 54 q-24.5 31 -44.5 66 q-29 -35 -61.5 -66 q-32.5 -31 -70 -54 q-37.5 -23 -80.5 -36.5 q-43 -13.5 -93 -13.5 q-64 0 -118 27 q-54 27 -91 76 q-37 49 -54 116.5 q-17 67.5 -7 148.5 q10 81 43.5 148 q33.5 67 83 116 q49.5 49 110 76 q60.5 27 124.5 27 q50 0 89.5 -13.5 q39.5 -13.5 71.5 -36.5 q32 -23 57 -54 q25 -31 45 -66 q28 35 60.5 66 q32.5 31 70 54 q37.5 23 80.5 36.5 q43 13.5 93 13.5 q64 0 118.5 -27 q54.5 -27 92 -76 q37.5 -49 54.5 -116 q17 -67 7 -148 q-10 -81 -43.5 -148.5 q-33.5 -67.5 -83 -116.5 q-49.5 -49 -111 -76 q-61.5 -27 -125.5 -27 ZM926 442 q22 0 43.5 8 q21.5 8 39.5 26 q18 18 30.5 46.5 q12.5 28.5 17.5 69.5 q5 40 -1 68.5 q-6 28.5 -19.5 46.5 q-13.5 18 -33 26 q-19.5 8 -41.5 8 q-25 0 -48 -11.5 q-23 -11.5 -44.5 -31.5 q-21.5 -20 -42.5 -47.5 q-21 -27.5 -42 -58.5 q13 -32 27.5 -59 q14.5 -27 31.5 -47.5 q17 -20.5 37 -32 q20 -11.5 45 -11.5 ZM382 442 q25 0 47.5 11.5 q22.5 11.5 44 31.5 q21.5 20 42.5 47 q21 27 42 58 q-14 32 -28 59.5 q-14 27.5 -31 48 q-17 20.5 -37 32 q-20 11.5 -45 11.5 q-22 0 -43.5 -8 q-21.5 -8 -39 -26 q-17.5 -18 -30 -46.5 q-12.5 -28.5 -17.5 -68.5 q-5 -41 1 -69.5 q6 -28.5 19.5 -46.5 q13.5 -18 32.5 -26 q19 -8 42 -8 Z" /><glyph glyph-name="" unicode="&#x2202;" d="M351 1334 q42 30 84 54.5 q42 24.5 87.5 41 q45.5 16.5 96.5 25.5 q51 9 111 9 q88 0 158 -38 q70 -38 116 -110 q46 -72 64 -175.5 q18 -103.5 2 -233.5 q-26 -210 -82 -380 q-56 -170 -142 -290.5 q-86 -120.5 -202 -186 q-116 -65.5 -261 -65.5 q-87 0 -157 30 q-70 30 -117.5 86.5 q-47.5 56.5 -68 136.5 q-20.5 80 -8.5 179 q14 117 64 217.5 q50 100.5 124.5 174.5 q74.5 74 168 116 q93.5 42 195.5 42 q85 0 142 -28 q57 -28 92 -79 l5 45 q10 87 3 152 q-7 65 -28 108 q-21 43 -55.5 64.5 q-34.5 21.5 -77.5 21.5 q-32 0 -62.5 -10 q-30.5 -10 -58.5 -22 q-28 -12 -51 -22 q-23 -10 -39 -10 q-15 0 -29 8.5 q-14 8.5 -27 34.5 l-47 104 ZM441 194 q41 0 83 20 q42 20 82 64.5 q40 44.5 76.5 116 q36.5 71.5 65.5 175.5 q-4 37 -14 71 q-10 34 -28.5 60 q-18.5 26 -47.5 41.5 q-29 15.5 -71 15.5 q-60 0 -106 -25 q-46 -25 -79.5 -69.5 q-33.5 -44.5 -54.5 -106.5 q-21 -62 -30 -136 q-14 -109 19 -168 q33 -59 105 -59 Z" /><glyph glyph-name="" unicode="&#x222b;" d="M341 1233 q13 104 48 180 q35 76 88 125.5 q53 49.5 122 73.5 q69 24 151 24 q37 0 80 -8 q43 -8 81 -28 l-15 -113 q-2 -14 -5.5 -24.5 q-3.5 -10.5 -12 -17.5 q-8.5 -7 -24 -10.5 q-15.5 -3.5 -39.5 -3.5 q-57 0 -95 -10.5 q-38 -10.5 -62 -33.5 q-24 -23 -36 -59 q-12 -36 -18 -87 l-128 -1177 q-13 -105 -48 -181 q-35 -76 -87.5 -125.5 q-52.5 -49.5 -122 -73 q-69.5 -23.5 -151.5 -23.5 q-37 0 -80 7.5 q-43 7.5 -81 27.5 l15 114 q2 14 5.5 24.5 q3.5 10.5 12.5 17 q9 6.5 24 10 q15 3.5 39 3.5 q57 0 95 11 q38 11 62 34 q24 23 36 59 q12 36 18 86 l128 1178 Z" /><glyph glyph-name="" unicode="&#x221a;" d="M236 637 l-107 0 q-20 0 -37.5 5.5 q-17.5 5.5 -30 18 q-12.5 12.5 -18 33 q-5.5 20.5 -2.5 49.5 l11 83 l357 0 q29 0 47 -14 q18 -14 22 -34 l55 -290 q9 -44 12 -88 q3 -44 3 -90 q11 35 23.5 71.5 q12.5 36.5 29.5 74.5 l518 1200 q10 21 31 35.5 q21 14.5 48 14.5 l176 0 l-759 -1706 l-224 0 l-155 637 Z" /><glyph glyph-name="" unicode="&#x220f;" d="M1447 1450 l-26 -219 l-162 0 l-192 -1565 l-274 0 l190 1565 l-404 0 l-193 -1565 l-273 0 l192 1565 l-163 0 l27 219 l1278 0 Z" /><glyph glyph-name="" unicode="&#x2211;" d="M169 1451 l1117 0 l-28 -227 l-702 0 l364 -625 l-10 -79 l-517 -626 l702 0 l-28 -227 l-1118 0 l12 94 q2 20 12 41.5 q10 21.5 27 38.5 l614 722 l-439 712 q-13 19 -17 40.5 q-4 21.5 -1 41.5 l12 94 Z" /><glyph glyph-name="" unicode="&#x25ca;" d="M122 726 l377 808 l192 0 l377 -808 l-377 -808 l-192 0 l-377 808 ZM347 726 l211 -471 q11 -29 20 -53.5 q9 -24.5 17 -47.5 q7 23 16.5 47.5 q9.5 24.5 20.5 53.5 l216 471 l-216 472 q-11 28 -20.5 52.5 q-9.5 24.5 -16.5 47.5 q-8 -23 -17 -47.5 q-9 -24.5 -20 -52.5 l-211 -472 Z" /><glyph glyph-name="" unicode="&#x192;" d="M96 85 l92 752 l-68 14 q-29 6 -46 21 q-17 15 -13 44 l14 107 l136 0 l9 71 q10 88 44.5 158.5 q34.5 70.5 88.5 120 q54 49.5 126.5 76 q72.5 26.5 159.5 26.5 q34 0 63.5 -4.5 q29.5 -4.5 59.5 -13.5 l-23 -131 q-5 -29 -29 -38 q-24 -9 -50 -9 q-39 0 -70 -9.5 q-31 -9.5 -54.5 -32 q-23.5 -22.5 -38.5 -59.5 q-15 -37 -21 -93 l-8 -62 l231 0 l-23 -186 l-222 0 l-93 -763 l-1 0 l-7 -66 q-11 -88 -41 -162 q-30 -74 -81 -127.5 q-51 -53.5 -124.5 -83.5 q-73.5 -30 -170.5 -30 q-26 0 -48.5 2.5 q-22.5 2.5 -43.5 7 q-21 4.5 -42 12 q-21 7.5 -43 18.5 l44 114 q12 31 28 40.5 q16 9.5 35 9.5 q16 0 29 -5.5 q13 -5.5 40 -5.5 q64 0 100.5 43.5 q36.5 43.5 47.5 136.5 l13 107 Z" /><glyph glyph-name="" unicode="l" d="M34 0 l181 1491 l272 0 l-182 -1491 l-271 0 Z" /><glyph glyph-name="" unicode="6" d="M552 878 q35 14 74 22.5 q39 8.5 83 8.5 q67 0 129.5 -23.5 q62.5 -23.5 110.5 -70 q48 -46.5 77 -116.5 q29 -70 29 -162 q0 -114 -41.5 -214.5 q-41.5 -100.5 -114.5 -176 q-73 -75.5 -173 -119 q-100 -43.5 -218 -43.5 q-99 0 -176.5 32 q-77.5 32 -130.5 90 q-53 58 -80.5 138.5 q-27.5 80.5 -27.5 176.5 q0 67 13.5 130.5 q13.5 63.5 40 125.5 q26.5 62 66.5 125 q40 63 93 129 l363 457 q22 26 61.5 44 q39.5 18 87.5 18 l237 0 l-460 -523 l-43 -49 ZM345 411 q0 -47 11.5 -86.5 q11.5 -39.5 34.5 -67.5 q23 -28 57.5 -43.5 q34.5 -15.5 81.5 -15.5 q52 0 98.5 22.5 q46.5 22.5 81.5 62 q35 39.5 55 94 q20 54.5 20 119.5 q0 101 -51.5 159 q-51.5 58 -142.5 58 q-51 0 -96 -22 q-45 -22 -78.5 -62 q-33.5 -40 -52.5 -95.5 q-19 -55.5 -19 -122.5 Z" /><glyph glyph-name="" unicode="8" d="M502 -16 q-97 0 -175.5 26.5 q-78.5 26.5 -133.5 75.5 q-55 49 -85 118 q-30 69 -30 154 q0 72 16 134.5 q16 62.5 50 113.5 q34 51 88 89.5 q54 38.5 129 62.5 q-79 40 -118 108.5 q-39 68.5 -39 160.5 q0 94 37 174 q37 80 102 139 q65 59 152.5 92.5 q87.5 33.5 188.5 33.5 q87 0 157.5 -27 q70.5 -27 121 -73.5 q50.5 -46.5 78 -110.5 q27.5 -64 27.5 -137 q0 -129 -58.5 -222.5 q-58.5 -93.5 -175.5 -141.5 q103 -40 150 -114.5 q47 -74.5 47 -177.5 q0 -109 -39.5 -197.5 q-39.5 -88.5 -110 -150.5 q-70.5 -62 -167.5 -96 q-97 -34 -212 -34 ZM527 188 q58 0 101.5 21 q43.5 21 72.5 57.5 q29 36.5 43 87.5 q14 51 14 111 q0 88 -43 135 q-43 47 -132 47 q-107 0 -168.5 -65.5 q-61.5 -65.5 -61.5 -205.5 q0 -40 10.5 -74 q10.5 -34 32 -59.5 q21.5 -25.5 54 -40 q32.5 -14.5 77.5 -14.5 ZM608 853 q51 0 89 19.5 q38 19.5 62.5 53 q24.5 33.5 36.5 79 q12 45.5 12 97.5 q0 33 -8.5 63 q-8.5 30 -26.5 53.5 q-18 23.5 -46 37 q-28 13.5 -67 13.5 q-52 0 -89.5 -20 q-37.5 -20 -61.5 -53.5 q-24 -33.5 -35.5 -77.5 q-11.5 -44 -11.5 -93 q0 -33 7 -64 q7 -31 24 -55 q17 -24 45 -38.5 q28 -14.5 70 -14.5 Z" /><glyph glyph-name="" unicode="%" d="M767 1152 q0 -94 -31.5 -170 q-31.5 -76 -83 -130 q-51.5 -54 -117 -83 q-65.5 -29 -134.5 -29 q-62 0 -112.5 22 q-50.5 22 -86.5 62.5 q-36 40.5 -56 97.5 q-20 57 -20 126 q0 94 28.5 171 q28.5 77 78 131.5 q49.5 54.5 116 84 q66.5 29.5 142.5 29.5 q62 0 113 -22 q51 -22 87 -63 q36 -41 56 -98.5 q20 -57.5 20 -128.5 ZM562 1150 q0 40 -7 67.5 q-7 27.5 -19.5 45 q-12.5 17.5 -29.5 25.5 q-17 8 -37 8 q-30 0 -55.5 -13.5 q-25.5 -13.5 -44 -43 q-18.5 -29.5 -28.5 -77 q-10 -47.5 -10 -114.5 q0 -38 6.5 -64.5 q6.5 -26.5 18.5 -43 q12 -16.5 29 -23.5 q17 -7 37 -7 q30 0 55.5 12 q25.5 12 44 40.5 q18.5 28.5 29.5 74 q11 45.5 11 113.5 ZM1229 1409 q15 15 35.5 28 q20.5 13 54.5 13 l194 0 l-1177 -1411 q-15 -17 -35.5 -28 q-20.5 -11 -49.5 -11 l-197 0 l1175 1409 ZM1438 395 q0 -95 -31.5 -171.5 q-31.5 -76.5 -83 -130 q-51.5 -53.5 -117 -82.5 q-65.5 -29 -134.5 -29 q-62 0 -112.5 22 q-50.5 22 -86.5 62.5 q-36 40.5 -55.5 96.5 q-19.5 56 -19.5 125 q0 95 28.5 172.5 q28.5 77.5 77.5 132 q49 54.5 115.5 84 q66.5 29.5 142.5 29.5 q62 0 113 -22 q51 -22 87 -63 q36 -41 56 -98.5 q20 -57.5 20 -127.5 ZM1233 393 q0 79 -26 111 q-26 32 -67 32 q-30 0 -55.5 -13.5 q-25.5 -13.5 -44 -43 q-18.5 -29.5 -28.5 -76.5 q-10 -47 -10 -115 q0 -75 25 -106 q25 -31 67 -31 q30 0 55 12.5 q25 12.5 44 41 q19 28.5 29.5 74.5 q10.5 46 10.5 114 Z" /><glyph glyph-name="" unicode="¡" d="M20 -334 l66 532 q11 91 31.5 180 q20.5 89 47.5 186 l178 0 q3 -97 1 -186 q-2 -89 -14 -180 l-65 -532 l-245 0 ZM128 887 q0 33 12.5 62.5 q12.5 29.5 34 51 q21.5 21.5 51 34 q29.5 12.5 64.5 12.5 q34 0 64 -12.5 q30 -12.5 52 -34 q22 -21.5 34.5 -51 q12.5 -29.5 12.5 -62.5 q0 -34 -12.5 -63 q-12.5 -29 -34.5 -50.5 q-22 -21.5 -52 -33.5 q-30 -12 -64 -12 q-35 0 -64.5 12 q-29.5 12 -51 33.5 q-21.5 21.5 -34 50.5 q-12.5 29 -12.5 63 Z" /><glyph glyph-name="" unicode="¿" d="M698 -202 q-37 -30 -79 -57 q-42 -27 -89.5 -47 q-47.5 -20 -101 -32 q-53.5 -12 -114.5 -12 q-77 0 -138 20.5 q-61 20.5 -104 59 q-43 38.5 -65.5 93 q-22.5 54.5 -22.5 122.5 q0 80 22.5 136.5 q22.5 56.5 57 98 q34.5 41.5 75.5 71 q41 29.5 79 55.5 q38 26 67.5 52.5 q29.5 26.5 39.5 60.5 l42 145 l182 0 l-3 -164 q-1 -47 -23 -82 q-22 -35 -55 -64.5 q-33 -29.5 -71.5 -56.5 q-38.5 -27 -71 -56.5 q-32.5 -29.5 -54.5 -65 q-22 -35.5 -22 -82.5 q0 -33 9 -57.5 q9 -24.5 25 -41 q16 -16.5 36.5 -24.5 q20.5 -8 44.5 -8 q49 0 85 12 q36 12 62 27 q26 15 45 27 q19 12 35 12 q37 0 50 -31 l57 -111 ZM351 887 q0 33 12.5 62.5 q12.5 29.5 34 51 q21.5 21.5 51.5 34 q30 12.5 65 12.5 q34 0 63.5 -12.5 q29.5 -12.5 51.5 -34 q22 -21.5 34.5 -51 q12.5 -29.5 12.5 -62.5 q0 -34 -12.5 -63 q-12.5 -29 -34.5 -50.5 q-22 -21.5 -51.5 -33.5 q-29.5 -12 -63.5 -12 q-35 0 -65 12 q-30 12 -51.5 33.5 q-21.5 21.5 -34 50.5 q-12.5 29 -12.5 63 Z" /><glyph glyph-name="" unicode="&#x2030;" d="M767 1152 q0 -94 -31.5 -170 q-31.5 -76 -83 -130 q-51.5 -54 -117 -83 q-65.5 -29 -134.5 -29 q-62 0 -112.5 22 q-50.5 22 -86.5 62.5 q-36 40.5 -56 97.5 q-20 57 -20 126 q0 94 28.5 171 q28.5 77 78 131.5 q49.5 54.5 116 84 q66.5 29.5 142.5 29.5 q62 0 113 -22 q51 -22 87 -63 q36 -41 56 -98.5 q20 -57.5 20 -128.5 ZM562 1150 q0 40 -7 67.5 q-7 27.5 -19.5 45 q-12.5 17.5 -29.5 25.5 q-17 8 -37 8 q-30 0 -55.5 -13.5 q-25.5 -13.5 -44 -43 q-18.5 -29.5 -28.5 -77 q-10 -47.5 -10 -114.5 q0 -38 6.5 -64.5 q6.5 -26.5 18.5 -43 q12 -16.5 29 -23.5 q17 -7 37 -7 q30 0 55.5 12 q25.5 12 44 40.5 q18.5 28.5 29.5 74 q11 45.5 11 113.5 ZM1229 1409 q15 15 35.5 28 q20.5 13 54.5 13 l194 0 l-1177 -1411 q-15 -17 -35.5 -28 q-20.5 -11 -49.5 -11 l-197 0 l1175 1409 ZM1438 395 q0 -95 -31.5 -171.5 q-31.5 -76.5 -83 -130 q-51.5 -53.5 -117 -82.5 q-65.5 -29 -134.5 -29 q-62 0 -112.5 22 q-50.5 22 -86.5 62.5 q-36 40.5 -55.5 96.5 q-19.5 56 -19.5 125 q0 95 28.5 172.5 q28.5 77.5 77.5 132 q49 54.5 115.5 84 q66.5 29.5 142.5 29.5 q62 0 113 -22 q51 -22 87 -63 q36 -41 56 -98.5 q20 -57.5 20 -127.5 ZM1233 393 q0 79 -26 111 q-26 32 -67 32 q-30 0 -55.5 -13.5 q-25.5 -13.5 -44 -43 q-18.5 -29.5 -28.5 -76.5 q-10 -47 -10 -115 q0 -75 25 -106 q25 -31 67 -31 q30 0 55 12.5 q25 12.5 44 41 q19 28.5 29.5 74.5 q10.5 46 10.5 114 ZM2124 395 q0 -95 -31.5 -171.5 q-31.5 -76.5 -83 -130 q-51.5 -53.5 -117 -82.5 q-65.5 -29 -134.5 -29 q-62 0 -112.5 22 q-50.5 22 -86.5 62.5 q-36 40.5 -55.5 96.5 q-19.5 56 -19.5 125 q0 95 28.5 172.5 q28.5 77.5 77.5 132 q49 54.5 115.5 84 q66.5 29.5 142.5 29.5 q61 0 112 -22 q51 -22 87.5 -63 q36.5 -41 56.5 -98.5 q20 -57.5 20 -127.5 ZM1919 393 q0 79 -26 111 q-26 32 -66 32 q-30 0 -55.5 -13.5 q-25.5 -13.5 -44 -43 q-18.5 -29.5 -28.5 -76.5 q-10 -47 -10 -115 q0 -75 25 -106 q25 -31 66 -31 q29 0 54.5 12.5 q25.5 12.5 44 41 q18.5 28.5 29.5 74.5 q11 46 11 114 Z" /><glyph glyph-name="" unicode="&#xf8ff;" d="M636 1489 q-85 -57 -150.5 -148.5 q-65.5 -91.5 -113.5 -201.5 q-48 -110 -80.5 -232 q-32.5 -122 -51.5 -241.5 q-19 -119.5 -27.5 -229.5 q-8.5 -110 -8.5 -195 q0 -85 11 -144.5 q11 -59.5 30.5 -104.5 q19.5 -45 45.5 -79 q26 -34 57 -68 l-12 -12 q-59 55 -106 113 q-47 58 -80.5 127.5 q-33.5 69.5 -51.5 155.5 q-18 86 -18 198 q0 154 35 308.5 q35 154.5 104 296 q69 141.5 172.5 262.5 q103.5 121 240.5 207 l4 -12 ZM1080 785 l-174 0 l0 -342 q0 -38 25.5 -60 q25.5 -22 78.5 -22 q9 0 25 0.5 q16 0.5 33 3.5 l20 -214 q-50 -20 -107 -31 q-57 -11 -119 -11 q-96 0 -160 23 q-64 23 -103 68 q-39 45 -55 111 q-16 66 -16 152 l0 300 l-100 46 l0 218 l120 12 l100 244 l258 0 l0 -252 l174 0 l0 -246 ZM942 -155 q85 58 150.5 148.5 q65.5 90.5 113.5 200 q48 109.5 80 231.5 q32 122 52 241 q20 119 28 228 q8 109 8 195 q0 86 -11 146.5 q-11 60.5 -30.5 105.5 q-19.5 45 -45.5 79.5 q-26 34.5 -57 68.5 l12 12 q59 -56 106.5 -114 q47.5 -58 80.5 -128 q33 -70 51 -156 q18 -86 18 -196 q0 -154 -35 -308.5 q-35 -154.5 -104 -296 q-69 -141.5 -172.5 -262.5 q-103.5 -121 -240.5 -207 l-4 12 Z" /><glyph glyph-name="" unicode="" d="" /><glyph glyph-name="" unicode="¨" d="M462 1294 q0 -30 -12 -56 q-12 -26 -32.5 -45.5 q-20.5 -19.5 -48 -30.5 q-27.5 -11 -58.5 -11 q-29 0 -55 11 q-26 11 -46 30.5 q-20 19.5 -32 45.5 q-12 26 -12 56 q0 30 12 57 q12 27 32 47.5 q20 20.5 46 32 q26 11.5 55 11.5 q31 0 58.5 -11.5 q27.5 -11.5 48 -32 q20.5 -20.5 32.5 -47.5 q12 -27 12 -57 ZM857 1294 q0 -30 -12 -56 q-12 -26 -32 -45.5 q-20 -19.5 -47.5 -30.5 q-27.5 -11 -58.5 -11 q-30 0 -57 11 q-27 11 -47 30.5 q-20 19.5 -31.5 45.5 q-11.5 26 -11.5 56 q0 30 11.5 57 q11.5 27 31.5 47.5 q20 20.5 47 32 q27 11.5 57 11.5 q31 0 58.5 -11.5 q27.5 -11.5 47.5 -32 q20 -20.5 32 -47.5 q12 -27 12 -57 Z" /><glyph glyph-name="" unicode="ñ" d="M399 1451 q19 0 32 -1.5 q13 -1.5 22.5 -6 q9.5 -4.5 17.5 -13.5 q8 -9 17 -24 l539 -949 q2 32 5 62 q3 30 7 56 l106 876 l256 0 l-179 -1451 l-150 0 q-34 0 -55 11.5 q-21 11.5 -40 37.5 l-537 947 l-9 -95 l-107 -901 l-256 0 l179 1451 l152 0 ZM962 1713 q20 0 35.5 8.5 q15.5 8.5 26.5 22 q11 13.5 17 29.5 q6 16 8 31 l154 0 q-6 -52 -24.5 -100 q-18.5 -48 -48 -85 q-29.5 -37 -69 -59.5 q-39.5 -22.5 -88.5 -22.5 q-49 0 -82.5 15.5 q-33.5 15.5 -59.5 34 q-26 18.5 -48 34 q-22 15.5 -46 15.5 q-21 0 -36 -9 q-15 -9 -25.5 -23 q-10.5 -14 -16.5 -30 q-6 -16 -8 -31 l-156 0 q6 52 24.5 100.5 q18.5 48.5 48.5 86 q30 37.5 70 60 q40 22.5 88 22.5 q49 0 83 -15.5 q34 -15.5 60 -34 q26 -18.5 47.5 -34 q21.5 -15.5 45.5 -15.5 Z" /><glyph glyph-name="" unicode="&#x2206;" d="M1354 0 l-224 0 l-8 0 l-1139 0 l733 1450 l263 0 l375 -1450 ZM385 225 l623 0 l-167 783 q-8 29 -15.5 67 q-7.5 38 -14.5 83 q-18 -45 -35 -83.5 q-17 -38.5 -32 -67.5 l-359 -782 Z" /><glyph glyph-name="" unicode="&#x2126;" d="M692 0 l64 510 q64 12 121.5 41.5 q57.5 29.5 101 80.5 q43.5 51 68.5 125.5 q25 74.5 25 176.5 q0 145 -73 225 q-73 80 -212 80 q-89 0 -158.5 -29 q-69.5 -29 -117 -84.5 q-47.5 -55.5 -72.5 -135 q-25 -79.5 -25 -180.5 q0 -68 17.5 -120 q17.5 -52 48 -88.5 q30.5 -36.5 72.5 -59 q42 -22.5 92 -32.5 l-62 -510 l-469 0 q-45 0 -67 25 q-22 25 -17 64 l18 145 l340 0 l17 133 q-71 24 -124.5 67 q-53.5 43 -89 100.5 q-35.5 57.5 -53.5 127 q-18 69.5 -18 146.5 q0 91 23.5 175 q23.5 84 67 157 q43.5 73 105.5 133.5 q62 60.5 139.5 103 q77.5 42.5 168.5 66 q91 23.5 193 23.5 q130 0 233.5 -41.5 q103.5 -41.5 174.5 -112 q71 -70.5 109 -165.5 q38 -95 38 -201 q0 -102 -27.5 -195 q-27.5 -93 -80 -169.5 q-52.5 -76.5 -129 -132.5 q-76.5 -56 -175.5 -84 l-16 -131 l342 0 l-18 -145 q-5 -39 -33.5 -64 q-28.5 -25 -73.5 -25 l-468 0 Z" /><glyph glyph-name="" unicode="µ" d="M482 1031 l-74 -604 l-1 -9 q-8 -82 19.5 -131 q27.5 -49 91.5 -49 q63 0 111 37.5 q48 37.5 81 106.5 l80 649 l275 0 l-87 -718 q-8 -64 12.5 -94.5 q20.5 -30.5 64.5 -30.5 l76 0 l-13 -107 q-2 -17 -15.5 -33.5 q-13.5 -16.5 -37 -29.5 q-23.5 -13 -55 -21 q-31.5 -8 -70.5 -8 q-39 0 -74 11.5 q-35 11.5 -62.5 35 q-27.5 23.5 -47 59.5 q-19.5 36 -27.5 85 q-56 -78 -118.5 -120 q-62.5 -42 -137.5 -42 q-90 0 -145 44 q5 -42 3.5 -86 q-1.5 -44 -6.5 -82 l-28 -227 l-137 0 q-57 0 -85 29 q-28 29 -22 84 l154 1251 l275 0 Z" /><glyph glyph-name="" unicode="&#x104;" d="M1219 -178 q20 0 23 -17 l29 -100 q-35 -22 -84 -36.5 q-49 -14.5 -103 -14.5 q-91 0 -136 37.5 q-45 37.5 -45 95.5 q0 57 37.5 111.5 q37.5 54.5 118.5 101.5 l-33 0 q-38 0 -59 18 q-21 18 -29 47 l-53 283 l-520 0 l-121 -283 q-13 -26 -40 -45.5 q-27 -19.5 -62 -19.5 l-228 0 l698 1451 l296 0 l342 -1451 l-29 0 q-21 -11 -39.5 -26 q-18.5 -15 -33 -32.5 q-14.5 -17.5 -23 -38 q-8.5 -20.5 -8.5 -42.5 q0 -23 11 -36.5 q11 -13.5 34 -13.5 q15 0 23.5 1.5 q8.5 1.5 14.5 4 q6 2.5 10 4 q4 1.5 9 1.5 ZM452 549 l395 0 l-85 459 q-7 36 -16.5 84.5 q-9.5 48.5 -17.5 105.5 q-21 -57 -42 -106 q-21 -49 -37 -85 l-197 -458 Z" /><glyph glyph-name="" unicode="ð" d="M27 809 l156 0 l79 642 l516 0 q141 0 253.5 -47.5 q112.5 -47.5 190.5 -131.5 q78 -84 120 -199.5 q42 -115.5 42 -251.5 q0 -119 -26.5 -226.5 q-26.5 -107.5 -76 -199 q-49.5 -91.5 -119.5 -164.5 q-70 -73 -157 -124.5 q-87 -51.5 -189 -79 q-102 -27.5 -215 -27.5 l-517 0 l79 647 l-157 0 l21 162 ZM1087 814 q0 94 -22.5 170 q-22.5 76 -65.5 129.5 q-43 53.5 -105.5 82.5 q-62.5 29 -143.5 29 l-225 0 l-51 -416 l322 0 l-20 -162 l-321 0 l-51 -420 l225 0 q105 0 189.5 41 q84.5 41 144.5 117 q60 76 92 184.5 q32 108.5 32 244.5 Z" /><glyph glyph-name="" unicode="&#x118;" d="M877 -178 q20 0 23 -17 l29 -100 q-35 -22 -84 -36.5 q-49 -14.5 -103 -14.5 q-91 0 -136 37.5 q-45 37.5 -45 95.5 q0 57 37.5 111.5 q37.5 54.5 118.5 101.5 l-649 0 l179 1451 l854 0 l-29 -227 l-562 0 l-48 -384 l438 0 l-29 -219 l-436 0 l-48 -394 l565 0 l-28 -227 l-45 0 q-21 -11 -39.5 -26 q-18.5 -15 -33 -32.5 q-14.5 -17.5 -23 -38 q-8.5 -20.5 -8.5 -42.5 q0 -23 11 -36.5 q11 -13.5 34 -13.5 q15 0 23.5 1.5 q8.5 1.5 14.5 4 q6 2.5 10 4 q4 1.5 9 1.5 Z" /><glyph glyph-name="" unicode="&#x126;" d="M1382 1202 l133 0 l-20 -167 l-134 0 l-127 -1035 l-292 0 l77 628 l-571 0 l-77 -628 l-291 0 l127 1035 l-130 0 l20 167 l131 0 l31 249 l291 0 l-31 -249 l571 0 l31 249 l292 0 l-31 -249 ZM1044 830 l25 205 l-571 0 l-25 -205 l571 0 Z" /><glyph glyph-name="" unicode="&#x12e;" d="M309 -178 q20 0 23 -17 l29 -100 q-35 -22 -84 -36.5 q-49 -14.5 -103 -14.5 q-91 0 -136 37.5 q-45 37.5 -45 95.5 q0 57 37.5 111.5 q37.5 54.5 118.5 101.5 l-81 0 l177 1451 l291 0 l-177 -1451 l-48 0 q-21 -11 -39.5 -26 q-18.5 -15 -33 -32.5 q-14.5 -17.5 -23 -38 q-8.5 -20.5 -8.5 -42.5 q0 -23 11 -36.5 q11 -13.5 34 -13.5 q15 0 23.5 1.5 q8.5 1.5 14.5 4 q6 2.5 10 4 q4 1.5 9 1.5 Z" /><glyph glyph-name="" unicode="&#x141;" d="M506 895 l324 165 l-25 -192 q-5 -41 -40 -56 l-288 -152 l-52 -425 l510 0 l-29 -235 l-799 0 l64 522 l-184 -89 l24 196 q3 36 37 51 l152 76 l86 695 l289 0 l-69 -556 Z" /><glyph glyph-name="" unicode="&#x13d;" d="M922 1492 q25 0 32 -10.5 q7 -10.5 7 -21.5 q0 -9 -3 -22 q-3 -13 -16 -41.5 q-13 -28.5 -39 -77.5 q-26 -49 -71 -131 q-18 -30 -40.5 -38 q-22.5 -8 -56.5 -8 l-94 0 l102 350 l179 0 ZM386 235 l510 0 l-29 -235 l-799 0 l179 1451 l289 0 l-150 -1216 Z" /><glyph glyph-name="" unicode="&#x14a;" d="M1252 243 l-21 -171 l-1 -1 l-3 -25 q-11 -88 -39 -162 q-28 -74 -77.5 -127.5 q-49.5 -53.5 -121 -83.5 q-71.5 -30 -168.5 -30 q-26 0 -48.5 2.5 q-22.5 2.5 -43.5 7.5 q-21 5 -42 12.5 q-21 7.5 -43 18.5 l43 114 q12 30 28.5 40 q16.5 10 35.5 10 q15 0 28.5 -6 q13.5 -6 40.5 -6 q64 0 100.5 44 q36.5 44 47.5 136 l5 38 l-537 929 q-2 -33 -4.5 -64.5 q-2.5 -31.5 -5.5 -58.5 l-103 -860 l-255 0 l178 1450 l151 0 q19 0 32 -1.5 q13 -1.5 23 -6.5 q10 -5 18.5 -14 q8.5 -9 18.5 -24 l543 -937 q1 35 3.5 69 q2.5 34 6.5 63 l102 851 l255 0 l-139 -1143 l-8 -64 Z" /><glyph glyph-name="" unicode="þ" d="M504 1204 l171 0 q125 0 215 -30 q90 -30 148.5 -83.5 q58.5 -53.5 86.5 -127 q28 -73.5 28 -160.5 q0 -118 -36.5 -218 q-36.5 -100 -110.5 -172.5 q-74 -72.5 -186 -113 q-112 -40.5 -262 -40.5 l-170 0 l-32 -259 l-288 0 l177 1451 l290 0 l-31 -247 ZM477 984 l-62 -504 l171 0 q74 0 126.5 22 q52.5 22 85.5 61.5 q33 39.5 48.5 94 q15.5 54.5 15.5 120.5 q0 94 -52.5 150 q-52.5 56 -162.5 56 l-170 0 Z" /><glyph glyph-name="" unicode="&#x15e;" d="M284 -228 q14 0 26 -5.5 q12 -5.5 33 -5.5 q27 0 39 12.5 q12 12.5 12 28.5 q0 23 -27.5 34 q-27.5 11 -90.5 21 l60 134 q-52 7 -102 23.5 q-50 16.5 -94.5 40.5 q-44.5 24 -83 54 q-38.5 30 -66.5 66 l103 137 q12 14 30.5 24.5 q18.5 10.5 37.5 10.5 q26 0 51.5 -20.5 q25.5 -20.5 58 -44.5 q32.5 -24 77 -44.5 q44.5 -20.5 109.5 -20.5 q103 0 160.5 57.5 q57.5 57.5 57.5 163.5 q0 48 -23 78.5 q-23 30.5 -60 51.5 q-37 21 -84.5 37 q-47.5 16 -97.5 34.5 q-50 18.5 -97.5 43 q-47.5 24.5 -84.5 63.5 q-37 39 -60 95.5 q-23 56.5 -23 139.5 q0 95 35.5 182.5 q35.5 87.5 101.5 155 q66 67.5 160 107.5 q94 40 211 40 q60 0 116.5 -13 q56.5 -13 105.5 -35.5 q49 -22.5 89.5 -53.5 q40.5 -31 69.5 -67 l-87 -121 q-16 -21 -31 -31.5 q-15 -10.5 -37 -10.5 q-21 0 -43 15.5 q-22 15.5 -51 34.5 q-29 19 -67 34.5 q-38 15.5 -92 15.5 q-51 0 -89.5 -14.5 q-38.5 -14.5 -64.5 -40.5 q-26 -26 -39 -61 q-13 -35 -13 -75 q0 -43 23 -72 q23 -29 60.5 -51 q37.5 -22 86 -39.5 q48.5 -17.5 98.5 -37.5 q50 -20 98.5 -46 q48.5 -26 86 -64.5 q37.5 -38.5 60.5 -92.5 q23 -54 23 -131 q0 -99 -32 -188.5 q-32 -89.5 -92.5 -159.5 q-60.5 -70 -146.5 -115.5 q-86 -45.5 -194 -57.5 l-17 -45 q76 -20 106 -54.5 q30 -34.5 30 -78.5 q0 -39 -19.5 -70 q-19.5 -31 -54 -52 q-34.5 -21 -83 -32.5 q-48.5 -11.5 -105.5 -11.5 q-38 0 -70 4.5 q-32 4.5 -64 14.5 l36 85 q5 11 12.5 17.5 q7.5 6.5 21.5 6.5 Z" /><glyph glyph-name="" unicode="&#x166;" d="M1207 1451 l-30 -234 l-384 0 l-45 -364 l280 0 l-20 -162 l-280 0 l-85 -691 l-288 0 l84 691 l-280 0 l19 162 l280 0 l45 364 l-385 0 l28 234 l1061 0 Z" /><glyph glyph-name="" unicode="&#x172;" d="M760 -180 q20 0 23 -17 l29 -100 q-35 -22 -84 -36.5 q-49 -14.5 -103 -14.5 q-91 0 -136 37.5 q-45 37.5 -45 95.5 q0 53 32.5 104 q32.5 51 102.5 96 q-122 6 -214.5 53.5 q-92.5 47.5 -151 126.5 q-58.5 79 -82 185.5 q-23.5 106.5 -7.5 232.5 l104 868 l290 0 l-106 -868 q-10 -80 1 -145.5 q11 -65.5 41 -112 q30 -46.5 78.5 -71.5 q48.5 -25 114.5 -25 q66 0 121 25 q55 25 96 71.5 q41 46.5 68 112 q27 65.5 36 145.5 l107 868 l289 0 l-106 -868 q-14 -112 -55 -209.5 q-41 -97.5 -105.5 -173.5 q-64.5 -76 -151 -128 q-86.5 -52 -189.5 -73 l5 -1 q-21 -11 -39.5 -26 q-18.5 -15 -33 -32.5 q-14.5 -17.5 -23 -38 q-8.5 -20.5 -8.5 -42.5 q0 -23 11 -36.5 q11 -13.5 34 -13.5 q15 0 23.5 1.5 q8.5 1.5 14.5 4 q6 2.5 10 4 q4 1.5 9 1.5 Z" /><glyph glyph-name="" unicode="&#x105;" d="M837 -178 q20 0 23 -17 l29 -100 q-35 -22 -84 -36.5 q-49 -14.5 -103 -14.5 q-91 0 -136 37.5 q-45 37.5 -45 95.5 q0 58 39.5 114 q39.5 56 125.5 104 q-29 9 -40 31.5 q-11 22.5 -11 52.5 l4 105 q-66 -97 -147.5 -153 q-81.5 -56 -179.5 -56 q-57 0 -108.5 22.5 q-51.5 22.5 -90.5 68 q-39 45.5 -61.5 115 q-22.5 69.5 -22.5 162.5 q0 93 23 180.5 q23 87.5 66 164.5 q43 77 104.5 141.5 q61.5 64.5 137 110.5 q75.5 46 164 71.5 q88.5 25.5 186.5 25.5 q72 0 144 -10.5 q72 -10.5 142 -36.5 l-124 -1000 l-33 0 q-21 -11 -39.5 -26 q-18.5 -15 -33 -32.5 q-14.5 -17.5 -23 -38 q-8.5 -20.5 -8.5 -42.5 q0 -23 11 -36.5 q11 -13.5 34 -13.5 q15 0 23.5 1.5 q8.5 1.5 14.5 4 q6 2.5 10 4 q4 1.5 9 1.5 ZM421 206 q37 0 73.5 27 q36.5 27 68.5 74 q32 47 59 110 q27 63 47 136 l38 300 q-10 1 -19 1 q-9 0 -17 0 q-80 0 -147 -36 q-67 -36 -115.5 -98 q-48.5 -62 -76 -144 q-27.5 -82 -27.5 -173 q0 -104 32 -150.5 q32 -46.5 84 -46.5 Z" /><glyph glyph-name="" unicode="&#x10f;" d="M1335 1492 q25 0 32 -10.5 q7 -10.5 7 -21.5 q0 -9 -3.5 -22 q-3.5 -13 -16 -41.5 q-12.5 -28.5 -38.5 -77.5 q-26 -49 -71 -131 q-18 -30 -40.5 -38 q-22.5 -8 -56.5 -8 l-68 0 l103 350 l152 0 ZM758 0 q-26 0 -43.5 7 q-17.5 7 -27.5 19 q-10 12 -14 28 q-4 16 -4 35 l4 117 q-72 -103 -161.5 -162 q-89.5 -59 -190.5 -59 q-64 0 -117 23 q-53 23 -90.5 70.5 q-37.5 47.5 -58 120.5 q-20.5 73 -20.5 173 q0 88 18.5 172.5 q18.5 84.5 52 159.5 q33.5 75 80 138 q46.5 63 102 108.5 q55.5 45.5 119 71 q63.5 25.5 131.5 25.5 q67 0 121 -23.5 q54 -23.5 94 -63.5 l67 531 l270 0 l-185 -1491 l-147 0 ZM430 198 q36 0 75 26.5 q39 26.5 75 72.5 q36 46 67 108 q31 62 53 133 l31 247 q-32 30 -72 43 q-40 13 -78 13 q-60 0 -110 -38.5 q-50 -38.5 -86 -101 q-36 -62.5 -56 -142 q-20 -79.5 -20 -160.5 q0 -103 32 -152 q32 -49 89 -49 Z" /><glyph glyph-name="" unicode="&#x111;" d="M758 0 q-26 0 -43.5 7 q-17.5 7 -27.5 19 q-10 12 -14 28 q-4 16 -4 35 l4 117 q-72 -103 -161.5 -162 q-89.5 -59 -190.5 -59 q-64 0 -117 23 q-53 23 -90.5 70.5 q-37.5 47.5 -58 120.5 q-20.5 73 -20.5 173 q0 133 40.5 250 q40.5 117 109.5 204 q69 87 160.5 137.5 q91.5 50.5 192.5 50.5 q66 0 118.5 -22 q52.5 -22 93.5 -60 l24 197 l-109 0 q-54 0 -74 21.5 q-20 21.5 -12 71.5 l11 69 l205 0 l25 200 l270 0 l-25 -200 l123 0 l-19 -162 l-124 0 l-140 -1129 l-147 0 ZM430 198 q36 0 75 26.5 q39 26.5 75 72.5 q36 46 67 108 q31 62 53 133 l28 218 q-32 29 -71 40.5 q-39 11.5 -76 11.5 q-60 0 -110 -33.5 q-50 -33.5 -86 -89.5 q-36 -56 -56 -130.5 q-20 -74.5 -20 -155.5 q0 -103 32 -152 q32 -49 89 -49 Z" /><glyph glyph-name="" unicode="ð" d="M405 1059 q-11 20 -5.5 38 q5.5 18 21.5 28 l111 68 q-29 14 -62.5 27 q-33.5 13 -71.5 25 q-45 14 -52.5 41.5 q-7.5 27.5 11.5 65.5 l41 83 q97 -17 183.5 -51 q86.5 -34 159.5 -87 l187 112 l44 -86 q10 -18 7.5 -38 q-2.5 -20 -27.5 -34 l-97 -59 q72 -86 112.5 -201 q40.5 -115 40.5 -264 q0 -172 -38.5 -309.5 q-38.5 -137.5 -111.5 -233.5 q-73 -96 -179 -147.5 q-106 -51.5 -241 -51.5 q-90 0 -164.5 29 q-74.5 29 -128 84 q-53.5 55 -83.5 133 q-30 78 -30 176 q0 107 37 202.5 q37 95.5 102 167.5 q65 72 154 114 q89 42 193 42 q93 0 161.5 -35.5 q68.5 -35.5 115.5 -103.5 q-5 99 -34.5 174.5 q-29.5 75.5 -92.5 134.5 l-213 -131 l-50 87 ZM470 184 q45 0 88 19 q43 19 79 64 q36 45 64 118 q28 73 43 181 q-10 35 -26 65.5 q-16 30.5 -39.5 53.5 q-23.5 23 -56 36 q-32.5 13 -74.5 13 q-59 0 -105.5 -24 q-46.5 -24 -79 -66.5 q-32.5 -42.5 -50 -100 q-17.5 -57.5 -17.5 -123.5 q0 -56 13 -100 q13 -44 36 -74 q23 -30 55 -46 q32 -16 70 -16 Z" /><glyph glyph-name="" unicode="&#x119;" d="M589 -178 q20 0 23 -17 l29 -100 q-35 -22 -84 -36.5 q-49 -14.5 -103 -14.5 q-91 0 -136 37.5 q-45 37.5 -45 95.5 q0 53 32 104 q32 51 102 96 q-83 6 -151.5 39 q-68.5 33 -117.5 89 q-49 56 -75.5 132.5 q-26.5 76.5 -26.5 169.5 q0 82 18 160 q18 78 52 148 q34 70 82.5 128.5 q48.5 58.5 110.5 101 q62 42.5 135.5 66.5 q73.5 24 156.5 24 q81 0 143.5 -23.5 q62.5 -23.5 104.5 -61 q42 -37.5 63.5 -83.5 q21.5 -46 21.5 -92 q0 -69 -28 -127 q-28 -58 -98 -104 q-70 -46 -190 -78.5 q-120 -32.5 -303 -50.5 l0 -2 q0 -229 193 -229 q64 0 104.5 16.5 q40.5 16.5 69.5 36 q29 19.5 53.5 36 q24.5 16.5 56.5 16.5 q14 0 26.5 -6.5 q12.5 -6.5 22.5 -17.5 l70 -84 q-77 -77 -151 -124.5 q-74 -47.5 -161 -66.5 l2 0 q-21 -11 -39.5 -26 q-18.5 -15 -33 -32.5 q-14.5 -17.5 -23 -38 q-8.5 -20.5 -8.5 -42.5 q0 -23 11 -36.5 q11 -13.5 34 -13.5 q15 0 23.5 1.5 q8.5 1.5 14.5 4 q6 2.5 10 4 q4 1.5 9 1.5 ZM575 856 q-44 0 -83 -18.5 q-39 -18.5 -71 -52 q-32 -33.5 -56 -81 q-24 -47.5 -39 -105.5 q111 16 179.5 34.5 q68.5 18.5 106 40.5 q37.5 22 50.5 47 q13 25 13 54 q0 14 -6 28.5 q-6 14.5 -18 26 q-12 11.5 -31 19 q-19 7.5 -45 7.5 Z" /><glyph glyph-name="" unicode="&#xfb00;" d="M1086 1025 l232 0 l-24 -186 l-222 0 l-96 -793 l-52 -182 q-17 -53 -49.5 -82 q-32.5 -29 -92.5 -29 l-111 0 l129 1086 l-329 0 l-96 -793 l-52 -182 q-17 -53 -49.5 -82 q-32.5 -29 -92.5 -29 l-112 0 l132 1087 l-68 14 q-29 5 -46 20.5 q-17 15.5 -13 44.5 l14 106 l136 0 l6 50 q11 88 47 159.5 q36 71.5 91.5 121 q55.5 49.5 127.5 76.5 q72 27 156 27 q34 0 63 -5 q29 -5 58 -14 l-25 -141 q-5 -24 -28 -30 q-23 -6 -49 -6 q-38 0 -68.5 -7.5 q-30.5 -7.5 -53 -28 q-22.5 -20.5 -37.5 -55.5 q-15 -35 -21 -89 l-8 -58 l340 0 l10 85 q11 88 47.5 159.5 q36.5 71.5 93 121 q56.5 49.5 130 76.5 q73.5 27 159.5 27 q34 0 63.5 -4.5 q29.5 -4.5 58.5 -13.5 l-26 -142 q-5 -23 -27.5 -29.5 q-22.5 -6.5 -48.5 -6.5 q-40 0 -71.5 -10 q-31.5 -10 -55.5 -33.5 q-24 -23.5 -39 -61 q-15 -37.5 -22 -91.5 l-9 -77 Z" /><glyph glyph-name="" unicode="&#xfb03;" d="M483 1025 l347 0 l3 25 q11 94 50.5 175 q39.5 81 108 140.5 q68.5 59.5 167 93.5 q98.5 34 227.5 34 q40 0 84 -4.5 q44 -4.5 74 -13.5 l-26 -136 q-5 -24 -28 -29.5 q-23 -5.5 -50 -5.5 q-94 0 -157.5 -16 q-63.5 -16 -104 -48 q-40.5 -32 -61 -80.5 q-20.5 -48.5 -28.5 -114.5 l-2 -20 l598 0 l-125 -1025 l-266 0 l103 839 l-323 0 l-96 -795 l-52 -182 q-17 -52 -49.5 -81.5 q-32.5 -29.5 -92.5 -29.5 l-111 0 l134 1088 l-336 0 l-96 -793 l-52 -182 q-17 -53 -49.5 -82 q-32.5 -29 -92.5 -29 l-112 0 l132 1087 l-68 14 q-29 5 -46 20.5 q-17 15.5 -13 44.5 l14 106 l136 0 l6 50 q11 88 47 159.5 q36 71.5 91.5 121 q55.5 49.5 127.5 76.5 q72 27 156 27 q34 0 63 -5 q29 -5 58 -14 l-25 -141 q-5 -24 -28 -30 q-23 -6 -49 -6 q-38 0 -68.5 -7.5 q-30.5 -7.5 -53 -28 q-22.5 -20.5 -37.5 -55.5 q-15 -35 -21 -89 l-8 -58 Z" /><glyph glyph-name="" unicode="&#xfb04;" d="M479 1023 l345 0 l6 44 q10 81 43 155.5 q33 74.5 89.5 131.5 q56.5 57 137 91.5 q80.5 34.5 185.5 34.5 q88 0 165.5 -6 q77.5 -6 157.5 -6 l152 0 l-180 -1468 l-267 0 l155 1275 q-42 5 -84 9.5 q-42 4.5 -80 4.5 q-92 0 -147.5 -55.5 q-55.5 -55.5 -66.5 -166.5 l-5 -44 l233 0 l-24 -186 l-222 0 l-98 -793 l-52 -182 q-17 -52 -49.5 -81.5 q-32.5 -29.5 -92.5 -29.5 l-111 0 l133 1086 l-336 0 l-95 -791 l-53 -182 q-17 -53 -49.5 -82 q-32.5 -29 -92.5 -29 l-111 0 l132 1085 l-64 13 q-29 6 -46 21 q-17 15 -13 44 l14 107 l131 0 l7 52 q11 88 47 159.5 q36 71.5 91.5 121 q55.5 49.5 127.5 76.5 q72 27 156 27 q33 0 62.5 -5 q29.5 -5 58.5 -14 l-25 -141 q-5 -24 -28 -30 q-23 -6 -49 -6 q-38 0 -68.5 -7.5 q-30.5 -7.5 -53 -28 q-22.5 -20.5 -37.5 -55.5 q-15 -35 -21 -89 l-8 -60 Z" /><glyph glyph-name="" unicode="&#x125;" d="M716 1550 l-202 0 q-14 0 -31.5 5.5 q-17.5 5.5 -29.5 10.5 l-69 61 l-15 12 l-18 -12 l-83 -61 q-13 -7 -31 -11.5 q-18 -4.5 -35 -4.5 l-200 0 l251 221 l266 0 l197 -221 ZM32 0 l181 1491 l276 0 l-75 -616 q72 88 156 130 q84 42 172 42 q65 0 117.5 -26 q52.5 -26 87 -76 q34.5 -50 48.5 -123 q14 -73 2 -167 l-78 -655 l-275 0 l77 655 q12 93 -9 132.5 q-21 39.5 -76 39.5 q-35 0 -73 -20.5 q-38 -20.5 -73 -58 q-35 -37.5 -65.5 -90 q-30.5 -52.5 -51.5 -117.5 l-65 -541 l-276 0 Z" /><glyph glyph-name="" unicode="&#x127;" d="M53 1294 l136 0 l24 197 l276 0 l-24 -197 l251 0 l-14 -97 q-5 -32 -27.5 -51 q-22.5 -19 -59.5 -19 l-170 0 l-35 -287 q72 88 156 130.5 q84 42.5 172 42.5 q65 0 117.5 -26 q52.5 -26 87 -76 q34.5 -50 48.5 -123 q14 -73 2 -167 l-74 -621 l-275 0 l74 621 q11 93 -10 132.5 q-21 39.5 -76 39.5 q-35 0 -73 -20.5 q-38 -20.5 -73.5 -59 q-35.5 -38.5 -66 -92 q-30.5 -53.5 -50.5 -119.5 l-61 -502 l-276 0 l137 1127 l-139 0 l23 167 Z" /><glyph glyph-name="" unicode="&#x237;" d="M436 1031 l-128 -1051 q-9 -70 -35 -131.5 q-26 -61.5 -71 -107.5 q-45 -46 -109 -73 q-64 -27 -147 -27 q-42 0 -71.5 5 q-29.5 5 -58.5 14 l26 146 q5 20 18.5 28 q13.5 8 46.5 8 q33 0 55.5 6.5 q22.5 6.5 37.5 22.5 q15 16 24 42.5 q9 26.5 14 66.5 l128 1051 l270 0 Z" /><glyph glyph-name="" unicode="&#x138;" d="M430 1031 l-48 -386 l24 0 q23 0 38.5 7.5 q15.5 7.5 32.5 27.5 l245 304 q19 23 39.5 35 q20.5 12 51.5 12 l245 0 l-311 -376 q-40 -47 -85 -75 q18 -16 31.5 -36.5 q13.5 -20.5 24.5 -46.5 l233 -497 l-238 0 q-30 0 -50 10.5 q-20 10.5 -30 37.5 l-176 379 q-11 24 -23.5 31 q-12.5 7 -40.5 7 l-33 0 l-57 -465 l-272 0 l128 1031 l271 0 Z" /><glyph glyph-name="" unicode="&#x142;" d="M41 741 q0 36 33 51 l136 57 l78 642 l272 0 l-67 -545 l138 56 l0 -157 q0 -44 -36 -57 l-128 -54 l-89 -734 l-271 0 l77 637 l-143 -57 l0 161 Z" /><glyph glyph-name="" unicode="&#x13e;" d="M739 1492 q25 0 32 -10.5 q7 -10.5 7 -21.5 q0 -9 -3 -22 q-3 -13 -16 -41.5 q-13 -28.5 -39 -77.5 q-26 -49 -71 -131 q-18 -30 -40.5 -38 q-22.5 -8 -56.5 -8 l-68 0 l103 350 l152 0 ZM34 0 l181 1491 l272 0 l-182 -1491 l-271 0 Z" /><glyph glyph-name="" unicode="&#x14b;" d="M927 44 q-11 -89 -40 -163.5 q-29 -74.5 -79 -128 q-50 -53.5 -122.5 -83 q-72.5 -29.5 -171.5 -29.5 q-26 0 -46 1 q-20 1 -37.5 3 q-17.5 2 -35.5 6 q-18 4 -40 10 l24 129 q3 15 6.5 26 q3.5 11 10 18 q6.5 7 17.5 10 q11 3 28 3 q16 0 29 -3 q13 -3 40 -3 q62 0 94 40.5 q32 40.5 43 132.5 l9 78 l66 564 q12 93 -9 131.5 q-21 38.5 -74 38.5 q-38 0 -78 -22.5 q-40 -22.5 -77 -63.5 q-37 -41 -68 -99 q-31 -58 -50 -129 l-57 -511 l-276 0 l124 1032 l141 0 q43 0 67 -21 q24 -21 24 -67 l-3 -109 q77 108 168.5 160 q91.5 52 190.5 52 q64 0 116 -26 q52 -26 86.5 -76 q34.5 -50 48.5 -123 q14 -73 2 -167 l-62 -537 l-9 -74 Z" /><glyph glyph-name="" unicode="þ" d="M-8 -333 l222 1824 l271 0 l-80 -642 q71 92 156 145 q85 53 181 53 q64 0 116.5 -23 q52.5 -23 90 -70.5 q37.5 -47.5 58 -120.5 q20.5 -73 20.5 -173 q0 -89 -18.5 -173.5 q-18.5 -84.5 -51.5 -159.5 q-33 -75 -79.5 -137.5 q-46.5 -62.5 -102.5 -108 q-56 -45.5 -119.5 -71 q-63.5 -25.5 -130.5 -25.5 q-68 0 -121.5 23 q-53.5 23 -94.5 63 l-38 -314 q-2 -17 -10.5 -33.5 q-8.5 -16.5 -22.5 -29 q-14 -12.5 -33 -20 q-19 -7.5 -42 -7.5 l-171 0 ZM633 834 q-37 0 -75.5 -26.5 q-38.5 -26.5 -75 -72 q-36.5 -45.5 -67.5 -107.5 q-31 -62 -53 -133 l-31 -249 q32 -30 72 -42.5 q40 -12.5 78 -12.5 q60 0 110.5 38.5 q50.5 38.5 86.5 101 q36 62.5 56 141.5 q20 79 20 160 q0 104 -32.5 153 q-32.5 49 -88.5 49 Z" /><glyph glyph-name="" unicode="&#x15f;" d="M165 -228 q14 0 26 -5.5 q12 -5.5 33 -5.5 q27 0 39 12.5 q12 12.5 12 28.5 q0 23 -27.5 34 q-27.5 11 -90.5 21 l60 133 q-77 12 -141 44 q-64 32 -101 77 l68 103 q12 18 29 28 q17 10 41 10 q22 0 40 -12.5 q18 -12.5 40 -27 q22 -14.5 52.5 -27 q30.5 -12.5 79.5 -12.5 q37 0 65.5 9.5 q28.5 9.5 48 26 q19.5 16.5 29 38.5 q9.5 22 9.5 46 q0 44 -29 68 q-29 24 -72.5 42 q-43.5 18 -94.5 35 q-51 17 -94.5 46 q-43.5 29 -72.5 75 q-29 46 -29 123 q0 70 26.5 135.5 q26.5 65.5 77.5 116.5 q51 51 126.5 82 q75.5 31 174.5 31 q101 0 179.5 -34.5 q78.5 -34.5 130.5 -87.5 l-71 -98 q-12 -17 -23.5 -24.5 q-11.5 -7.5 -28.5 -7.5 q-19 0 -37.5 10 q-18.5 10 -41.5 21.5 q-23 11.5 -52.5 21.5 q-29.5 10 -69.5 10 q-75 0 -111.5 -32 q-36.5 -32 -36.5 -80 q0 -39 29 -62.5 q29 -23.5 73 -42 q44 -18.5 95 -37.5 q51 -19 95 -49 q44 -30 73 -77 q29 -47 29 -120 q0 -68 -24 -129 q-24 -61 -69.5 -110.5 q-45.5 -49.5 -110 -83 q-64.5 -33.5 -145.5 -45.5 l-18 -47 q76 -20 106 -54.5 q30 -34.5 30 -78.5 q0 -39 -19.5 -70 q-19.5 -31 -54 -52 q-34.5 -21 -83 -32.5 q-48.5 -11.5 -105.5 -11.5 q-38 0 -70 4.5 q-32 4.5 -64 14.5 l36 85 q5 11 12.5 17.5 q7.5 6.5 21.5 6.5 Z" /><glyph glyph-name="" unicode="&#x17f;" d="M384 46 l-52 -182 q-17 -53 -49.5 -82 q-32.5 -29 -92.5 -29 l-111 0 l130 1080 l-83 17 q-30 7 -47 21.5 q-17 14.5 -13 43.5 l13 107 l153 0 l9 71 q11 88 45.5 159 q34.5 71 88.5 120.5 q54 49.5 126.5 76 q72.5 26.5 159.5 26.5 q35 0 64 -5.5 q29 -5.5 59 -14.5 l-25 -134 q-5 -24 -27 -29.5 q-22 -5.5 -48 -5.5 q-39 0 -68.5 -10.5 q-29.5 -10.5 -51 -34.5 q-21.5 -24 -35 -62.5 q-13.5 -38.5 -19.5 -93.5 l-126 -1039 Z" /><glyph glyph-name="" unicode="&#x165;" d="M834 1492 q24 0 31 -10.5 q7 -10.5 7 -21.5 q0 -9 -3 -22 q-3 -13 -16 -41.5 q-13 -28.5 -39 -77.5 q-26 -49 -71 -131 q-17 -30 -40 -38 q-23 -8 -57 -8 l-67 0 l102 350 l153 0 ZM122 216 q0 7 0 16.5 q0 9.5 1.5 28 q1.5 18.5 5 49 q3.5 30.5 9.5 79.5 l55 444 l-90 0 q-20 0 -32.5 14 q-12.5 14 -8.5 42 l13 108 l156 30 l85 267 q14 45 61 45 l148 0 l-39 -314 l241 0 l-23 -192 l-241 0 l-53 -429 q-5 -41 -8 -65 q-3 -24 -4.5 -37 q-1.5 -13 -1.5 -17.5 q0 -4.5 0 -6.5 q0 -35 16 -55.5 q16 -20.5 48 -20.5 q18 0 31 4.5 q13 4.5 22.5 10 q9.5 5.5 17.5 10 q8 4.5 17 4.5 q13 0 19 -5.5 q6 -5.5 12 -18.5 l60 -132 q-58 -45 -127 -68 q-69 -23 -139 -23 q-114 0 -180.5 61.5 q-66.5 61.5 -70.5 170.5 Z" /><glyph glyph-name="" unicode="&#x167;" d="M129 216 q0 7 0 16.5 q0 9.5 1.5 28 q1.5 18.5 5 49 q3.5 30.5 9.5 79.5 l17 139 l-91 0 q-21 0 -35.5 15.5 q-14.5 15.5 -12.5 42.5 l15 109 l145 0 l17 138 l-90 0 q-20 0 -32.5 14 q-12.5 14 -8.5 42 l13 108 l156 30 l85 267 q14 45 61 45 l148 0 l-39 -314 l241 0 l-23 -192 l-241 0 l-17 -138 l239 0 l-22 -167 l-238 0 l-15 -124 q-5 -41 -8 -65 q-3 -24 -4.5 -37 q-1.5 -13 -1.5 -17.5 q0 -4.5 0 -6.5 q0 -35 16 -55.5 q16 -20.5 48 -20.5 q18 0 31 4.5 q13 4.5 22.5 10 q9.5 5.5 17.5 10 q8 4.5 17 4.5 q13 0 19 -5.5 q6 -5.5 12 -18.5 l60 -132 q-58 -45 -127 -68 q-69 -23 -139 -23 q-114 0 -180.5 61.5 q-66.5 61.5 -70.5 170.5 Z" /><glyph glyph-name="" unicode="&#x173;" d="M869 -178 q20 0 23 -17 l29 -100 q-35 -22 -84 -36.5 q-49 -14.5 -103 -14.5 q-91 0 -136 37.5 q-45 37.5 -45 95.5 q0 59 40.5 115.5 q40.5 56.5 128.5 104.5 q-51 18 -51 86 l3 93 q-76 -102 -166 -151.5 q-90 -49.5 -185 -49.5 q-65 0 -117 26 q-52 26 -86 76 q-34 50 -48 122.5 q-14 72.5 -2 166.5 l77 655 l276 0 l-78 -655 q-11 -93 9.5 -131.5 q20.5 -38.5 74.5 -38.5 q36 0 74.5 20.5 q38.5 20.5 74 58.5 q35.5 38 66 92 q30.5 54 50.5 120 l65 534 l275 0 l-125 -1031 l-38 0 q-21 -11 -39.5 -26 q-18.5 -15 -33 -32.5 q-14.5 -17.5 -23 -38 q-8.5 -20.5 -8.5 -42.5 q0 -23 11 -36.5 q11 -13.5 34 -13.5 q15 0 23.5 1.5 q8.5 1.5 14.5 4 q6 2.5 10 4 q4 1.5 9 1.5 Z" /><glyph glyph-name="" unicode="&#x207f;" d="M100 919 l65 531 l98 0 q18 0 28 -8 q10 -8 15 -27 l5 -30 q36 31 75 52 q39 21 95 21 q44 0 76 -15.5 q32 -15.5 51.5 -43 q19.5 -27.5 26.5 -64.5 q7 -37 2 -80 l-42 -336 l-184 0 l42 336 q5 61 -48 61 q-20 0 -38.5 -7.5 q-18.5 -7.5 -37.5 -21.5 l-45 -368 l-184 0 Z" /><glyph glyph-name="" unicode="&#x315;" d="M662 1493 q25 0 32.5 -10.5 q7.5 -10.5 7.5 -21.5 q0 -9 -3 -21 q-3 -12 -16 -40 q-13 -28 -39.5 -78 q-26.5 -50 -72.5 -134 q-19 -30 -43 -39 q-24 -9 -59 -9 l-97 0 l104 353 l186 0 Z" /><glyph glyph-name="" unicode="&#x393;" d="M1072 1231 l-563 0 l-152 -1231 l-290 0 l178 1450 l854 0 l-27 -219 Z" /><glyph glyph-name="" unicode="&#x394;" d="M1280 0 l-223 0 l-8 0 l-1139 0 l733 1450 l263 0 l374 -1450 ZM312 225 l623 0 l-167 783 q-8 29 -15.5 67 q-7.5 38 -14.5 83 q-18 -45 -35 -83.5 q-17 -38.5 -32 -67.5 l-359 -782 Z" /><glyph glyph-name="" unicode="&#x398;" d="M547 841 l476 0 l-29 -227 l-476 0 l29 227 ZM1467 821 q0 -119 -27 -227.5 q-27 -108.5 -76.5 -201.5 q-49.5 -93 -120.5 -168 q-71 -75 -158.5 -128.5 q-87.5 -53.5 -190 -82.5 q-102.5 -29 -215.5 -29 q-141 0 -253 49.5 q-112 49.5 -190 136 q-78 86.5 -120 204.5 q-42 118 -42 255 q0 119 27 227.5 q27 108.5 76.5 201.5 q49.5 93 120.5 168.5 q71 75.5 158.5 129 q87.5 53.5 190 82.5 q102.5 29 215.5 29 q141 0 253 -50 q112 -50 190 -137 q78 -87 120 -205 q42 -118 42 -254 ZM1170 814 q0 94 -23 171.5 q-23 77.5 -67.5 132 q-44.5 54.5 -108 84.5 q-63.5 30 -144.5 30 q-105 0 -189.5 -43 q-84.5 -43 -144 -121 q-59.5 -78 -91.5 -188 q-32 -110 -32 -244 q0 -95 23 -171.5 q23 -76.5 66.5 -131.5 q43.5 -55 107 -84.5 q63.5 -29.5 144.5 -29.5 q105 0 190 42.5 q85 42.5 144.5 120.5 q59.5 78 92 187.5 q32.5 109.5 32.5 244.5 Z" /><glyph glyph-name="" unicode="&#x39b;" d="M1250 0 l-236 0 q-38 0 -59 18 q-21 18 -29 46 l-174 856 q-12 45 -22 98 q-10 53 -17 111 q-20 -58 -41.5 -111 q-21.5 -53 -44.5 -98 l-379 -856 q-12 -24 -39.5 -44 q-27.5 -20 -63.5 -20 l-232 0 l715 1450 l262 0 l360 -1450 Z" /><glyph glyph-name="" unicode="&#x39e;" d="M1198 1450 l-29 -235 l-1023 0 l29 235 l1023 0 ZM1049 235 l-29 -235 l-1023 0 l29 235 l1023 0 ZM331 849 l564 0 l-31 -243 l-564 0 l31 243 Z" /><glyph glyph-name="" unicode="&#x3a0;" d="M1220 0 l-290 0 l151 1231 l-572 0 l-152 -1231 l-290 0 l178 1450 l1153 0 l-178 -1450 Z" /><glyph glyph-name="" unicode="&#x3a3;" d="M771 750 q-1 -15 -6.5 -29 q-5.5 -14 -16 -30.5 q-10.5 -16.5 -28 -38 q-17.5 -21.5 -42.5 -50.5 l-247 -302 q-29 -33 -54.5 -54.5 q-25.5 -21.5 -56.5 -38.5 q45 6 82 8.5 q37 2.5 68 2.5 l556 0 l-28 -218 l-1023 0 l13 105 q5 32 23.5 63 q18.5 31 43.5 54 l468 500 l-362 526 q-12 17 -19 37.5 q-7 20.5 -4 42.5 l15 122 l1023 0 l-27 -219 l-520 0 q-58 0 -103.5 4.5 q-45.5 4.5 -89.5 12.5 q99 -54 148 -132 l131 -232 q17 -29 28.5 -49 q11.5 -20 18 -35 q6.5 -15 8.5 -26.5 q2 -11.5 1 -23.5 Z" /><glyph glyph-name="" unicode="&#x3a6;" d="M1028 1373 q126 -3 226 -49 q100 -46 170 -123.5 q70 -77.5 107 -181 q37 -103.5 37 -220.5 q0 -99 -23.5 -190.5 q-23.5 -91.5 -67 -171 q-43.5 -79.5 -106 -144.5 q-62.5 -65 -140.5 -112 q-78 -47 -169.5 -73.5 q-91.5 -26.5 -193.5 -27.5 l-23 -191 l-274 0 l23 191 q-127 2 -227 48.5 q-100 46.5 -169.5 125 q-69.5 78.5 -106 182.5 q-36.5 104 -36.5 220 q0 98 23.5 189.5 q23.5 91.5 67.5 171 q44 79.5 106 144.5 q62 65 140 112 q78 47 169 73.5 q91 26.5 193 27.5 l23 189 l274 0 l-23 -190 ZM1286 786 q0 74 -19 140 q-19 66 -56 116 q-37 50 -90 80 q-53 30 -120 32 l-106 -855 q84 2 156 41 q72 39 124 105 q52 66 81.5 153.5 q29.5 87.5 29.5 187.5 ZM337 669 q0 -75 19 -141 q19 -66 55.5 -116.5 q36.5 -50.5 89.5 -80.5 q53 -30 120 -32 l106 856 q-84 -2 -155.5 -40.5 q-71.5 -38.5 -123.5 -104.5 q-52 -66 -81.5 -153.5 q-29.5 -87.5 -29.5 -187.5 Z" /><glyph glyph-name="" unicode="&#x3a8;" d="M371 1450 q46 0 68 -27.5 q22 -27.5 17 -67.5 l-52 -426 q-10 -81 -5 -143 q5 -62 30 -106 q25 -44 72.5 -70 q47.5 -26 124.5 -34 l108 874 l290 0 l-108 -874 q80 7 135.5 32.5 q55.5 25.5 91.5 69.5 q36 44 56 107 q20 63 30 144 l53 426 q5 40 33.5 67.5 q28.5 27.5 74.5 27.5 l195 0 l-64 -521 q-16 -127 -64.5 -230.5 q-48.5 -103.5 -128 -179 q-79.5 -75.5 -190 -120 q-110.5 -44.5 -250.5 -53.5 l-42 -346 l-291 0 l43 346 q-137 9 -236 54 q-99 45 -159.5 120.5 q-60.5 75.5 -83 179 q-22.5 103.5 -7.5 229.5 l65 521 l194 0 Z" /><glyph glyph-name="" unicode="&#x3a9;" d="M685 0 l65 510 q64 12 121.5 41.5 q57.5 29.5 101 80.5 q43.5 51 68.5 125.5 q25 74.5 25 176.5 q0 145 -73 225 q-73 80 -212 80 q-89 0 -158.5 -29 q-69.5 -29 -117.5 -84.5 q-48 -55.5 -73 -135 q-25 -79.5 -25 -180.5 q0 -68 17.5 -120 q17.5 -52 48.5 -88.5 q31 -36.5 73 -59 q42 -22.5 92 -32.5 l-63 -510 l-468 0 q-45 0 -67 25 q-22 25 -17 64 l18 145 l340 0 l17 133 q-72 24 -125.5 67 q-53.5 43 -89 100.5 q-35.5 57.5 -53.5 127 q-18 69.5 -18 146.5 q0 91 23.5 175 q23.5 84 67 157 q43.5 73 105.5 133.5 q62 60.5 139.5 103 q77.5 42.5 169 66 q91.5 23.5 193.5 23.5 q130 0 233 -41.5 q103 -41.5 174.5 -112 q71.5 -70.5 109.5 -165.5 q38 -95 38 -201 q0 -102 -27.5 -195 q-27.5 -93 -80.5 -169.5 q-53 -76.5 -129.5 -133 q-76.5 -56.5 -175.5 -84.5 l-16 -130 l343 0 l-18 -145 q-5 -39 -33.5 -64 q-28.5 -25 -73.5 -25 l-469 0 Z" /><glyph glyph-name="" unicode="&#x3b1;" d="M1017 80 q-3 -15 -11 -31.5 q-8 -16.5 -25 -29.5 q-17 -13 -45 -21.5 q-28 -8.5 -71 -8.5 q-82 0 -121.5 47 q-39.5 47 -49.5 158 q-97 -101 -195.5 -155 q-98.5 -54 -193.5 -54 q-60 0 -109.5 22.5 q-49.5 22.5 -85.5 69 q-36 46.5 -56 117.5 q-20 71 -20 168 q0 93 18.5 180 q18.5 87 52.5 163 q34 76 81.5 139 q47.5 63 105 108 q57.5 45 123 70 q65.5 25 135.5 25 q53 0 95.5 -14.5 q42.5 -14.5 75 -40 q32.5 -25.5 56.5 -60.5 q24 -35 39 -77 q16 57 30 91.5 q14 34.5 28 53.5 q14 19 29.5 25.5 q15.5 6.5 35.5 6.5 l189 0 q-51 -186 -121 -345 q-70 -159 -153 -287 q0 -37 4 -68.5 q4 -31.5 16 -54 q12 -22.5 33 -35 q21 -12.5 54 -12.5 l83 0 l-27 -150 ZM428 198 q72 0 139 72 q67 72 127 210 q10 70 13.5 135.5 q3.5 65.5 -7 115 q-10.5 49.5 -38 79.5 q-27.5 30 -79.5 30 q-55 0 -105 -33 q-50 -33 -88 -91.5 q-38 -58.5 -60.5 -138 q-22.5 -79.5 -22.5 -172.5 q0 -207 121 -207 Z" /><glyph glyph-name="" unicode="&#x3b2;" d="M145 927 q15 124 50 223.5 q35 99.5 94 169.5 q59 70 142.5 107.5 q83.5 37.5 196.5 37.5 q88 0 156.5 -25.5 q68.5 -25.5 115.5 -69 q47 -43.5 71 -101.5 q24 -58 24 -124 q0 -121 -55 -212 q-55 -91 -167 -134 q109 -34 165.5 -113.5 q56.5 -79.5 56.5 -194.5 q0 -105 -34 -197.5 q-34 -92.5 -95 -161 q-61 -68.5 -145 -108 q-84 -39.5 -184 -39.5 q-63 0 -124 22 q-61 22 -106 69 l-14 -117 l-53 -181 q-17 -53 -49.5 -82.5 q-32.5 -29.5 -92.5 -29.5 l-108 0 l81 666 l74 595 ZM327 245 q29 -27 72.5 -40 q43.5 -13 87.5 -13 q61 0 107 23.5 q46 23.5 76 64 q30 40.5 45 95 q15 54.5 15 115.5 q0 58 -16 96.5 q-16 38.5 -42 61 q-26 22.5 -58.5 31.5 q-32.5 9 -65.5 9 l-58 0 l26 204 l25 0 q100 0 150.5 59 q50.5 59 50.5 174 q0 77 -36 114 q-36 37 -95 37 q-44 0 -76.5 -19 q-32.5 -19 -56 -61.5 q-23.5 -42.5 -40 -110.5 q-16.5 -68 -28.5 -166 l-73 -593 l-10 -81 Z" /><glyph glyph-name="" unicode="&#x3b3;" d="M274 -333 l54 436 q0 90 -4.5 180.5 q-4.5 90.5 -15.5 173 q-11 82.5 -29 154 q-18 71.5 -45 124.5 q-27 53 -63.5 83 q-36.5 30 -84.5 30 l-26 0 l11 95 q3 21 9.5 39 q6.5 18 21 30.5 q14.5 12.5 39.5 19.5 q25 7 64 7 q94 0 160 -49 q66 -49 106.5 -137.5 q40.5 -88.5 58 -212 q17.5 -123.5 15.5 -271.5 q39 69 73 144 q34 75 63.5 150 q29.5 75 53.5 148 q24 73 42 139 q13 45 36 63 q23 18 59 18 l226 0 q-33 -108 -88 -226 q-55 -118 -122 -236.5 q-67 -118.5 -142.5 -233 q-75.5 -114.5 -150.5 -216.5 l-56 -452 l-265 0 Z" /><glyph glyph-name="" unicode="&#x3b4;" d="M948 1258 q-8 -33 -24.5 -44 q-16.5 -11 -48.5 -11 q-18 0 -48.5 9 q-30.5 9 -69 20.5 q-38.5 11.5 -82.5 20.5 q-44 9 -87 9 q-51 0 -73 -21.5 q-22 -21.5 -22 -50.5 q0 -26 21 -50 q21 -24 55 -50 q34 -26 78 -55 q44 -29 89.5 -65 q45.5 -36 89.5 -79.5 q44 -43.5 78 -98 q34 -54.5 55 -122 q21 -67.5 21 -151.5 q0 -114 -37 -211 q-37 -97 -105.5 -168.5 q-68.5 -71.5 -166.5 -112 q-98 -40.5 -219 -40.5 q-99 0 -177 31.5 q-78 31.5 -132 88 q-54 56.5 -82.5 133 q-28.5 76.5 -28.5 166.5 q0 192 97.5 316.5 q97.5 124.5 299.5 186.5 q-38 27 -72 55.5 q-34 28.5 -59.5 61.5 q-25.5 33 -41 72 q-15.5 39 -15.5 87 q0 64 27 115.5 q27 51.5 76 88 q49 36.5 118.5 56 q69.5 19.5 154.5 19.5 q43 0 92.5 -4 q49.5 -4 99 -10.5 q49.5 -6.5 96.5 -15 q47 -8.5 85 -17.5 l-42 -159 ZM713 510 q0 55 -13.5 100 q-13.5 45 -36 82.5 q-22.5 37.5 -52.5 69 q-30 31.5 -64 59.5 q-47 -22 -90.5 -55 q-43.5 -33 -77 -81.5 q-33.5 -48.5 -53.5 -114 q-20 -65.5 -20 -151.5 q0 -48 10 -91 q10 -43 30 -75 q20 -32 51.5 -51 q31.5 -19 75.5 -19 q51 0 95 23 q44 23 76 65.5 q32 42.5 50.5 103 q18.5 60.5 18.5 135.5 Z" /><glyph glyph-name="" unicode="&#x3b5;" d="M770 821 q-18 -24 -32.5 -30.5 q-14.5 -6.5 -33.5 -6.5 q-16 0 -31.5 10.5 q-15.5 10.5 -37 23 q-21.5 12.5 -52 23 q-30.5 10.5 -75.5 10.5 q-75 0 -116 -34 q-41 -34 -41 -89 q0 -47 38 -78 q38 -31 113 -31 l153 0 l-21 -171 l-154 0 q-51 0 -86.5 -10 q-35.5 -10 -57 -28.5 q-21.5 -18.5 -31.5 -45 q-10 -26.5 -10 -60.5 q0 -51 31.5 -86 q31.5 -35 97.5 -35 q51 0 85.5 14.5 q34.5 14.5 60.5 31.5 q26 17 47.5 31.5 q21.5 14.5 45.5 14.5 q30 0 45 -23 l65 -97 q-48 -50 -100.5 -82.5 q-52.5 -32.5 -104 -51.5 q-51.5 -19 -99 -26.5 q-47.5 -7.5 -86.5 -7.5 q-73 0 -138.5 19.5 q-65.5 19.5 -115 56.5 q-49.5 37 -79 90 q-29.5 53 -29.5 120 q0 93 57 162 q57 69 172 102 q-44 16 -74 40 q-30 24 -48 51.5 q-18 27.5 -26 58 q-8 30.5 -8 60.5 q0 58 28.5 112 q28.5 54 82.5 95.5 q54 41.5 131.5 66.5 q77.5 25 175.5 25 q110 0 194.5 -36 q84.5 -36 134.5 -93 l-71 -96 Z" /><glyph glyph-name="" unicode="&#x3b6;" d="M868 1364 q2 -22 -2.5 -41.5 q-4.5 -19.5 -19.5 -42.5 q-15 -23 -43 -52 q-28 -29 -72 -69 q-39 -36 -86 -81.5 q-47 -45.5 -95.5 -98 q-48.5 -52.5 -94.5 -111.5 q-46 -59 -81.5 -124 q-35.5 -65 -57 -135 q-21.5 -70 -21.5 -144 q0 -44 11 -77 q11 -33 33.5 -59 q22.5 -26 57 -46 q34.5 -20 82.5 -38 q67 -26 112.5 -54.5 q45.5 -28.5 73.5 -60.5 q28 -32 39.5 -67 q11.5 -35 11.5 -73 q0 -76 -31.5 -152 q-31.5 -76 -94.5 -161 l-195 78 q10 15 21.5 34 q11.5 19 21.5 40 q10 21 16.5 42 q6.5 21 6.5 40 q0 15 -6.5 30.5 q-6.5 15.5 -23 31.5 q-16.5 16 -45.5 32.5 q-29 16.5 -74 33.5 q-69 25 -122 57.5 q-53 32.5 -88 75.5 q-35 43 -53 97 q-18 54 -18 122 q0 120 42.5 230.5 q42.5 110.5 117.5 217 q75 106.5 177 212 q102 105.5 221 216.5 q-48 -12 -104 -20 q-56 -8 -129 -8 l-69 0 q-30 0 -50 8 q-20 8 -31 20.5 q-11 12.5 -15.5 27.5 q-4.5 15 -2.5 29 l16 126 l655 0 l9 -86 Z" /><glyph glyph-name="" unicode="&#x3b7;" d="M894 -334 l-266 0 l122 989 q12 93 -11 131.5 q-23 38.5 -81 38.5 q-30 0 -61 -13.5 q-31 -13.5 -61.5 -39 q-30.5 -25.5 -58.5 -62.5 q-28 -37 -50 -83 l-77 -627 l-265 0 l88 722 q8 65 -13 96 q-21 31 -66 31 l-49 0 l13 103 q4 36 37 62 q33 26 106 26 q42 0 79 -11 q37 -11 65.5 -34.5 q28.5 -23.5 47 -58.5 q18.5 -35 23.5 -83 q75 99 163.5 146.5 q88.5 47.5 182.5 47.5 q64 0 116.5 -26 q52.5 -26 86.5 -76 q34 -50 48 -123 q14 -73 2 -167 l-121 -989 Z" /><glyph glyph-name="" unicode="&#x3b8;" d="M663 1467 q93 0 168.5 -39 q75.5 -39 129 -113 q53.5 -74 83 -182.5 q29.5 -108.5 29.5 -246.5 q0 -218 -42.5 -386 q-42.5 -168 -119 -282.5 q-76.5 -114.5 -181.5 -173.5 q-105 -59 -231 -59 q-95 0 -171.5 39 q-76.5 39 -130.5 114 q-54 75 -83.5 183.5 q-29.5 108.5 -29.5 248.5 q0 217 43 384.5 q43 167.5 120 281.5 q77 114 183.5 172.5 q106.5 58.5 232.5 58.5 ZM517 187 q117 0 188.5 119 q71.5 119 97.5 346 l-463 0 q-1 -27 -1.5 -54.5 q-0.5 -27.5 -0.5 -56.5 q0 -180 47 -267 q47 -87 132 -87 ZM646 1267 q-118 0 -191 -112.5 q-73 -112.5 -101 -325.5 l461 0 q1 20 1.5 41.5 q0.5 21.5 0.5 43.5 q0 180 -45 266.5 q-45 86.5 -126 86.5 Z" /><glyph glyph-name="" unicode="&#x3b9;" d="M151 1030 l266 0 l-88 -721 q-8 -63 10 -96 q18 -33 70 -33 l91 0 l-10 -79 q-4 -27 -24.5 -48 q-20.5 -21 -51 -35.5 q-30.5 -14.5 -66.5 -21.5 q-36 -7 -71 -7 q-63 0 -107.5 23 q-44.5 23 -71 64 q-26.5 41 -35.5 97 q-9 56 -1 122 l89 735 Z" /><glyph glyph-name="" unicode="&#x3bb;" d="M421 922 l-46 248 q-6 29 -14.5 48.5 q-8.5 19.5 -23 31.5 q-14.5 12 -36 17 q-21.5 5 -53.5 5 l-65 0 l12 95 q2 20 11.5 37.5 q9.5 17.5 28 31 q18.5 13.5 47.5 21 q29 7.5 71 7.5 q38 0 78 -8.5 q40 -8.5 75.5 -30.5 q35.5 -22 63 -60 q27.5 -38 40.5 -98 l200 -991 q9 -49 32 -72.5 q23 -23.5 78 -23.5 l56 0 l-14 -104 q-3 -27 -13.5 -44.5 q-10.5 -17.5 -27 -27 q-16.5 -9.5 -38 -13 q-21.5 -3.5 -47.5 -3.5 q-55 0 -99 10.5 q-44 10.5 -77.5 41.5 q-33.5 31 -57.5 87.5 q-24 56.5 -39 148.5 l-33 179 q-11 68 -15 116 q-4 48 -4 86 q-14 -40 -31.5 -83.5 q-17.5 -43.5 -40.5 -94.5 l-190 -431 q-9 -20 -29 -34 q-20 -14 -56 -14 l-224 0 l481 922 Z" /><glyph glyph-name="" unicode="&#x3bc;" d="M434 1031 l-75 -604 l1 0 q-11 -86 16.5 -137.5 q27.5 -51.5 92.5 -51.5 q63 0 111 37 q48 37 81 105 l80 651 l276 0 l-88 -718 q-8 -64 13 -94.5 q21 -30.5 65 -30.5 l76 0 l-14 -107 q-2 -17 -15.5 -33.5 q-13.5 -16.5 -36.5 -29.5 q-23 -13 -54.5 -21 q-31.5 -8 -70.5 -8 q-79 0 -137 46.5 q-58 46.5 -74 144.5 q-56 -78 -119 -120 q-63 -42 -138 -42 q-90 0 -145 44 q5 -42 3.5 -86 q-1.5 -44 -6.5 -82 l-27 -227 l-137 0 q-58 0 -86 29 q-28 29 -21 84 l153 1251 l276 0 Z" /><glyph glyph-name="" unicode="&#x3bd;" d="M1020 1030 q-39 -128 -99.5 -265.5 q-60.5 -137.5 -134 -272 q-73.5 -134.5 -156.5 -261 q-83 -126.5 -167 -231.5 l-164 0 l-246 1030 l219 0 q29 0 46.5 -14 q17.5 -14 22.5 -35 l86 -525 q17 -86 24 -166 q45 73 83 156.5 q38 83.5 69 170.5 q31 87 57 173.5 q26 86.5 47 165.5 q11 41 34.5 57.5 q23.5 16.5 49.5 16.5 l229 0 Z" /><glyph glyph-name="" unicode="&#x3be;" d="M850 1341 q-3 -23 -14 -40.5 q-11 -17.5 -27 -30.5 q-16 -13 -35.5 -19.5 q-19.5 -6.5 -38.5 -6.5 l-88 0 q-57 0 -102 -18.5 q-45 -18.5 -76 -51 q-31 -32.5 -47.5 -77.5 q-16.5 -45 -16.5 -97 q0 -71 50.5 -105.5 q50.5 -34.5 142.5 -34.5 l99 0 l-25 -203 l-154 0 q-59 0 -100 -17 q-41 -17 -67.5 -47.5 q-26.5 -30.5 -38.5 -72 q-12 -41.5 -12 -89.5 q0 -36 12 -64.5 q12 -28.5 39 -53 q27 -24.5 70 -47.5 q43 -23 106 -50 q88 -38 127 -93 q39 -55 39 -127 q0 -78 -30.5 -155 q-30.5 -77 -95.5 -165 l-196 78 q10 15 21.5 34.5 q11.5 19.5 21.5 40 q10 20.5 16.5 41.5 q6.5 21 6.5 40 q0 35 -19 61 q-19 26 -67 43 q-74 25 -133 59.5 q-59 34.5 -100.5 80.5 q-41.5 46 -64 103.5 q-22.5 57.5 -22.5 128.5 q0 48 13.5 103 q13.5 55 44.5 107.5 q31 52.5 82.5 97 q51.5 44.5 128.5 73.5 q-75 30 -109 81 q-34 51 -34 121 q0 54 18 97.5 q18 43.5 49 79 q31 35.5 72 62.5 q41 27 86 47 l-121 0 q-60 0 -81.5 27 q-21.5 27 -14.5 73 l11 95 l689 0 l-15 -109 Z" /><glyph glyph-name="" unicode="&#x3c1;" d="M84 539 q15 123 56 217.5 q41 94.5 106 159 q65 64.5 153.5 98 q88.5 33.5 199.5 33.5 q86 0 159.5 -31.5 q73.5 -31.5 127.5 -90 q54 -58.5 85 -142 q31 -83.5 31 -186.5 q0 -128 -38 -239.5 q-38 -111.5 -104 -194 q-66 -82.5 -154.5 -130.5 q-88.5 -48 -188.5 -48 q-67 0 -123.5 27 q-56.5 27 -100.5 72 l-51 -418 l-266 0 l108 873 ZM318 288 q32 -56 77.5 -80.5 q45.5 -24.5 89.5 -24.5 q48 0 92 26 q44 26 77.5 79 q33.5 53 54 132.5 q20.5 79.5 20.5 187.5 q0 62 -11 106.5 q-11 44.5 -31.5 73 q-20.5 28.5 -49.5 42 q-29 13.5 -65 13.5 q-38 0 -74 -17 q-36 -17 -65.5 -53 q-29.5 -36 -51.5 -91.5 q-22 -55.5 -31 -132.5 l-32 -261 Z" /><glyph glyph-name="" unicode="&#x3c3;" d="M897 830 q49 -48 79 -113.5 q30 -65.5 30 -150.5 q0 -125 -41 -231.5 q-41 -106.5 -113.5 -184 q-72.5 -77.5 -172.5 -121.5 q-100 -44 -218 -44 q-97 0 -175.5 31 q-78.5 31 -133.5 88 q-55 57 -85 138.5 q-30 81.5 -30 182.5 q0 136 47 247.5 q47 111.5 131 191 q84 79.5 200.5 123 q116.5 43.5 255.5 43.5 l553 0 l-15 -115 q-5 -36 -30 -60.5 q-25 -24.5 -79 -24.5 l-203 0 ZM740 620 q0 33 -3.5 65.5 q-3.5 32.5 -11.5 60.5 q-8 28 -20 50 q-12 22 -28 34 l-38 0 q-87 0 -149.5 -26 q-62.5 -26 -102.5 -78 q-40 -52 -58.5 -128.5 q-18.5 -76.5 -18.5 -178.5 q0 -114 43 -174 q43 -60 132 -60 q129 0 192 111.5 q63 111.5 63 323.5 Z" /><glyph glyph-name="" unicode="&#x3c2;" d="M823 805 q-14 -15 -26 -23.5 q-12 -8.5 -33 -8.5 q-20 0 -35.5 11.5 q-15.5 11.5 -35.5 25.5 q-20 14 -48 25.5 q-28 11.5 -71 11.5 q-59 0 -106 -27 q-47 -27 -80 -73.5 q-33 -46.5 -50.5 -110 q-17.5 -63.5 -17.5 -136.5 q0 -64 16 -105.5 q16 -41.5 47 -71 q31 -29.5 77 -51 q46 -21.5 107 -46.5 q52 -22 88.5 -45.5 q36.5 -23.5 58.5 -51.5 q22 -28 32 -60.5 q10 -32.5 10 -71.5 q0 -78 -31 -155.5 q-31 -77.5 -95 -164.5 l-196 78 q10 15 21.5 34.5 q11.5 19.5 21 41 q9.5 21.5 16 43.5 q6.5 22 6.5 43 q0 16 -4 29.5 q-4 13.5 -14.5 25.5 q-10.5 12 -29.5 23.5 q-19 11.5 -50 23.5 q-68 26 -132 59 q-64 33 -114 84 q-50 51 -80.5 126 q-30.5 75 -30.5 185 q0 120 36 224.5 q36 104.5 104.5 182 q68.5 77.5 168 122 q99.5 44.5 225.5 44.5 q111 0 189.5 -37.5 q78.5 -37.5 138.5 -108.5 l-83 -95 Z" /><glyph glyph-name="" unicode="&#x3c4;" d="M50 943 q4 33 28.5 58.5 q24.5 25.5 69.5 25.5 l778 0 l-12 -103 q-6 -45 -32.5 -68.5 q-26.5 -23.5 -69.5 -23.5 l-242 0 l-63 -520 q-8 -65 10 -97.5 q18 -32.5 70 -32.5 l91 0 l-10 -79 q-4 -27 -24.5 -48.5 q-20.5 -21.5 -51 -35.5 q-30.5 -14 -66.5 -21.5 q-36 -7.5 -71 -7.5 q-62 0 -106.5 23.5 q-44.5 23.5 -71.5 64.5 q-27 41 -36 97 q-9 56 -1 121 l65 536 l-269 0 l14 111 Z" /><glyph glyph-name="" unicode="&#x3c5;" d="M414 1030 l-80 -655 q-11 -89 25.5 -138 q36.5 -49 104.5 -49 q41 0 84.5 21.5 q43.5 21.5 79 75.5 q35.5 54 58 146.5 q22.5 92.5 22.5 233.5 q0 30 -1 65 q-1 35 -2 71.5 q-1 36.5 -1.5 73.5 q-0.5 37 0.5 71 q1 23 9 39 q8 16 20 26 q12 10 26.5 14.5 q14.5 4.5 27.5 4.5 l184 0 q0 -25 0.5 -58 q0.5 -33 1 -66 q0.5 -33 1 -62.5 q0.5 -29.5 0.5 -48.5 q0 -153 -22.5 -273 q-22.5 -120 -62 -210 q-39.5 -90 -92.5 -152.5 q-53 -62.5 -114.5 -101.5 q-61.5 -39 -128.5 -56.5 q-67 -17.5 -133 -17.5 q-97 0 -168 27.5 q-71 27.5 -116 78 q-45 50.5 -62.5 123 q-17.5 72.5 -6.5 162.5 l80 655 l266 0 Z" /><glyph glyph-name="" unicode="&#x3c6;" d="M305 463 q0 -63 17 -115 q17 -52 49 -89 q32 -37 78 -58.5 q46 -21.5 104 -23.5 l64 513 q11 93 43.5 160 q32.5 67 83.5 110.5 q51 43.5 118.5 64.5 q67.5 21 148.5 21 q93 0 167 -33 q74 -33 126.5 -91 q52.5 -58 80.5 -137.5 q28 -79.5 28 -171.5 q0 -143 -49.5 -258 q-49.5 -115 -135 -197 q-85.5 -82 -201.5 -127 q-116 -45 -248 -46 l-39 -318 l-249 0 l39 319 q-110 2 -200.5 36.5 q-90.5 34.5 -155 95.5 q-64.5 61 -100 146 q-35.5 85 -35.5 188 q0 105 31 196 q31 91 87 166 q56 75 132.5 132 q76.5 57 168.5 94 l62 -105 q8 -15 8 -30.5 q0 -15.5 -6 -30 q-6 -14.5 -17 -26.5 q-11 -12 -23 -19 q-81 -51 -129 -144.5 q-48 -93.5 -48 -221.5 ZM802 177 q79 1 143 34 q64 33 109 90.5 q45 57.5 69 136 q24 78.5 24 170.5 q0 115 -39 180.5 q-39 65.5 -113 65.5 q-48 0 -83 -38 q-35 -38 -46 -126 l-64 -513 Z" /><glyph glyph-name="" unicode="&#x3c7;" d="M370 162 q-7 -29 -16 -54.5 q-9 -25.5 -18 -45.5 l-174 -345 q-10 -20 -28.5 -34 q-18.5 -14 -50.5 -14 l-191 0 l393 717 l-95 365 q-9 30 -19 49.5 q-10 19.5 -24.5 31.5 q-14.5 12 -34 16.5 q-19.5 4.5 -48.5 4.5 l-37 0 l13 95 q3 20 5.5 37.5 q2.5 17.5 12.5 30.5 q10 13 31.5 20.5 q21.5 7.5 62.5 7.5 q53 0 96.5 -10 q43.5 -10 77.5 -33 q34 -23 59 -60.5 q25 -37.5 41 -92.5 l81 -308 q14 58 34 101 l171 341 q10 20 29 34.5 q19 14.5 50 14.5 l191 0 l-391 -710 l103 -386 q11 -48 33.5 -72 q22.5 -24 76.5 -24 l38 0 l-13 -103 q-3 -28 -10 -45.5 q-7 -17.5 -19.5 -27 q-12.5 -9.5 -32 -13 q-19.5 -3.5 -47.5 -3.5 q-48 0 -89.5 8.5 q-41.5 8.5 -76 31.5 q-34.5 23 -60.5 65 q-26 42 -44 108 l-80 302 Z" /><glyph glyph-name="" unicode="&#x3c8;" d="M983 1450 l-154 -1255 q81 10 141 38.5 q60 28.5 99 85 q39 56.5 58.5 145 q19.5 88.5 19.5 217.5 q0 42 -2.5 77.5 q-2.5 35.5 -5 67 q-2.5 31.5 -3 60.5 q-0.5 29 2.5 60 q6 46 31.5 65.5 q25.5 19.5 52.5 19.5 l192 0 q1 -25 2 -58 q1 -33 1.5 -66.5 q0.5 -33.5 1 -63 q0.5 -29.5 0.5 -48.5 q0 -150 -22 -265.5 q-22 -115.5 -62.5 -202 q-40.5 -86.5 -96.5 -146.5 q-56 -60 -124.5 -99.5 q-68.5 -39.5 -147 -60.5 q-78.5 -21 -163.5 -29 l-39 -325 l-266 0 l39 323 q-139 12 -233.5 52.5 q-94.5 40.5 -149 106.5 q-54.5 66 -72.5 155.5 q-18 89.5 -4 200.5 l65 526 l184 0 q16 0 29.5 -8.5 q13.5 -8.5 23 -22.5 q9.5 -14 14 -32 q4.5 -18 1.5 -37 l-52 -426 q-16 -133 41.5 -207.5 q57.5 -74.5 178.5 -97.5 l154 1250 l265 0 Z" /><glyph glyph-name="" unicode="&#x3c9;" d="M433 188 q34 0 61 18 q27 18 47 50 q20 32 33.5 77 q13.5 45 21.5 99 l33 263 l265 0 l-29 -238 l1 0 q-7 -59 -6 -108.5 q1 -49.5 11.5 -85 q10.5 -35.5 33 -55.5 q22.5 -20 58.5 -20 q36 0 72.5 19 q36.5 19 66.5 64.5 q30 45.5 48.5 121.5 q18.5 76 18.5 190 q0 50 -7 102.5 q-7 52.5 -16.5 98.5 q-9.5 46 -19.5 81.5 q-10 35.5 -15 51.5 q-10 31 -4.5 53 q5.5 22 19 35.5 q13.5 13.5 30.5 19.5 q17 6 31 6 l192 0 q14 -43 25 -93 q11 -50 19 -102.5 q8 -52.5 12 -104 q4 -51.5 4 -96.5 q0 -140 -33.5 -259 q-33.5 -119 -94.5 -206 q-61 -87 -147.5 -136.5 q-86.5 -49.5 -191.5 -49.5 q-61 0 -106.5 14 q-45.5 14 -79 38 q-33.5 24 -56 57 q-22.5 33 -35.5 71 q-23 -38 -53.5 -71 q-30.5 -33 -69.5 -57 q-39 -24 -87.5 -38 q-48.5 -14 -106.5 -14 q-81 0 -143 34.5 q-62 34.5 -104 95 q-42 60.5 -63.5 142.5 q-21.5 82 -21.5 178 q0 79 13.5 156.5 q13.5 77.5 38 152.5 q24.5 75 58 147.5 q33.5 72.5 72.5 140.5 l173 0 q18 0 36.5 -6.5 q18.5 -6.5 28.5 -20.5 q10 -14 7.5 -37.5 q-2.5 -23.5 -26.5 -56.5 q-21 -34 -44 -77.5 q-23 -43.5 -42.5 -100 q-19.5 -56.5 -32 -125.5 q-12.5 -69 -12.5 -154 q0 -76 9.5 -127 q9.5 -51 25.5 -81.5 q16 -30.5 37 -43.5 q21 -13 45 -13 Z" /><glyph glyph-name="" unicode="&#x384;" d="M420 1142 l93 376 l155 0 q35 0 45 -23.5 q10 -23.5 -7 -61.5 l-140 -291 l-146 0 Z" /><glyph glyph-name="" unicode="&#x385;" d="M419 1150 l91 376 l156 0 q35 0 44.5 -23 q9.5 -23 -7.5 -62 l-138 -291 l-146 0 ZM921 1300 q-3 -24 -14 -44.5 q-11 -20.5 -27.5 -36.5 q-16.5 -16 -38 -25 q-21.5 -9 -43.5 -9 q-23 0 -42 9 q-19 9 -32 25 q-13 16 -19.5 36.5 q-6.5 20.5 -3.5 44.5 q3 25 14 46.5 q11 21.5 27.5 38 q16.5 16.5 37.5 26 q21 9.5 44 9.5 q23 0 42 -9.5 q19 -9.5 32.5 -26 q13.5 -16.5 19.5 -38 q6 -21.5 3 -46.5 ZM404 1300 q-2 -24 -13.5 -44.5 q-11.5 -20.5 -28.5 -36.5 q-17 -16 -38.5 -25 q-21.5 -9 -44.5 -9 q-22 0 -40.5 9 q-18.5 9 -31.5 25 q-13 16 -19.5 36.5 q-6.5 20.5 -3.5 44.5 q3 25 14 46.5 q11 21.5 27.5 38 q16.5 16.5 37 26 q20.5 9.5 42.5 9.5 q23 0 42.5 -9.5 q19.5 -9.5 33 -26 q13.5 -16.5 20 -38 q6.5 -21.5 3.5 -46.5 Z" /><glyph glyph-name="" unicode="&#x374;" d="M482 1515 q19 -171 -46 -329 q-65 -158 -208 -294 l-77 51 q-11 7 -16.5 16 q-5.5 9 -6 19 q-0.5 10 3.5 19 q4 9 10 17 q33 40 59 76.5 q26 36.5 39.5 73.5 q13.5 37 11 76.5 q-2.5 39.5 -27.5 85.5 l15 123 q5 29 23 47.5 q18 18.5 55 18.5 l165 0 Z" /><glyph glyph-name="" unicode="&#x375;" d="M355 382 q19 -171 -46 -329 q-65 -158 -208 -294 l-77 51 q-11 7 -16.5 16 q-5.5 9 -6 19 q-0.5 10 3.5 19 q4 9 10 17 q33 40 59 76.5 q26 36.5 39.5 73.5 q13.5 37 11 76.5 q-2.5 39.5 -27.5 85.5 l15 123 q5 29 23 47.5 q18 18.5 55 18.5 l165 0 Z" /><glyph glyph-name="" unicode="&#x411;" d="M1151 1230 l-645 0 l-46 -375 l194 0 q123 0 210 -27.5 q87 -27.5 141.5 -75 q54.5 -47.5 79.5 -111 q25 -63.5 25 -135.5 q0 -113 -38.5 -206 q-38.5 -93 -111.5 -159.5 q-73 -66.5 -177 -103.5 q-104 -37 -235 -37 l-481 0 l178 1450 l933 0 l-27 -220 ZM433 634 l-50 -412 l194 0 q65 0 111.5 17.5 q46.5 17.5 76 49.5 q29.5 32 43 77.5 q13.5 45.5 13.5 102.5 q0 37 -10 67.5 q-10 30.5 -32.5 52 q-22.5 21.5 -60 33.5 q-37.5 12 -92.5 12 l-193 0 Z" /><glyph glyph-name="" unicode="&#x413;" d="M1054 1231 l-546 0 l-151 -1231 l-290 0 l178 1450 l836 0 l-27 -219 Z" /><glyph glyph-name="" unicode="&#x490;" d="M1054 1231 l-546 0 l-151 -1231 l-290 0 l178 1450 l614 0 l39 321 l222 0 l-66 -540 Z" /><glyph glyph-name="" unicode="&#x414;" d="M1380 1450 l-151 -1232 l202 0 l-59 -480 q-5 -36 -33 -58.5 q-28 -22.5 -68 -22.5 l-175 0 l43 343 l-927 0 l-32 -262 q-4 -36 -32 -58.5 q-28 -22.5 -69 -22.5 l-175 0 l70 561 l144 0 q26 15 54.5 47 q28.5 32 59.5 91.5 q31 59.5 63.5 150.5 q32.5 91 65.5 223 q33 132 67.5 309.5 q34.5 177.5 68.5 410.5 l883 0 ZM743 1231 q-36 -207 -74.5 -368 q-38.5 -161 -79 -284 q-40.5 -123 -82 -211.5 q-41.5 -88.5 -83.5 -149.5 l514 0 l124 1013 l-319 0 Z" /><glyph glyph-name="" unicode="&#x416;" d="M372 1451 q43 0 77.5 -21 q34.5 -21 51.5 -59 l182 -452 q18 -43 44 -57 q26 -14 62 -14 l107 0 l74 603 l272 0 l-74 -603 l110 0 q36 0 65.5 14 q29.5 14 58.5 57 l291 452 q26 38 65.5 59 q39.5 21 82.5 21 l230 0 l-386 -556 q-34 -47 -68.5 -78.5 q-34.5 -31.5 -79.5 -49.5 q50 -19 86.5 -55.5 q36.5 -36.5 64.5 -99.5 l246 -612 l-193 0 q-63 0 -104.5 26.5 q-41.5 26.5 -61.5 72.5 l-181 453 q-18 45 -45.5 63 q-27.5 18 -72.5 18 l-135 0 l-77 -633 l-272 0 l77 633 l-133 0 q-44 0 -76.5 -18 q-32.5 -18 -62.5 -63 l-289 -453 q-32 -46 -80 -72.5 q-48 -26.5 -111 -26.5 l-194 0 l397 612 q43 63 88.5 99.5 q45.5 36.5 100.5 55.5 q-41 18 -67 49 q-26 31 -49 79 l-250 556 l229 0 Z" /><glyph glyph-name="" unicode="&#x417;" d="M1046 1124 q0 -118 -60 -213 q-60 -95 -183 -147 q94 -45 146 -120 q52 -75 52 -174 q0 -100 -38.5 -188 q-38.5 -88 -110 -154 q-71.5 -66 -172.5 -104 q-101 -38 -225 -38 q-75 0 -147 14 q-72 14 -135.5 39.5 q-63.5 25.5 -116.5 61 q-53 35.5 -91 78.5 l102 134 q12 15 30 25.5 q18 10.5 38 10.5 q18 0 36 -9.5 q18 -9.5 38 -24 q20 -14.5 44.5 -31.5 q24.5 -17 55.5 -31.5 q31 -14.5 69.5 -24 q38.5 -9.5 88.5 -9.5 q125 0 193 62.5 q68 62.5 68 184.5 q0 85 -58 132.5 q-58 47.5 -167 47.5 l-188 0 l28 229 l171 0 q127 0 192.5 54 q65.5 54 65.5 152 q0 69 -46 111 q-46 42 -145 42 q-62 0 -111.5 -15.5 q-49.5 -15.5 -87.5 -34 q-38 -18.5 -66.5 -34 q-28.5 -15.5 -49.5 -15.5 q-22 0 -35 10.5 q-13 10.5 -24 32.5 l-55 135 q95 70 215 111 q120 41 251 41 q102 0 181.5 -25 q79.5 -25 134.5 -70.5 q55 -45.5 83.5 -108 q28.5 -62.5 28.5 -137.5 Z" /><glyph glyph-name="" unicode="&#x418;" d="M1042 1363 q12 16 27 31.5 q15 15.5 33 28 q18 12.5 37.5 20.5 q19.5 8 40.5 8 l218 0 l-178 -1451 l-290 0 l103 856 q7 52 17 109 q10 57 26 121 q-27 -57 -57 -105.5 q-30 -48.5 -57 -84.5 l-539 -808 q-12 -16 -27 -31.5 q-15 -15.5 -33 -28 q-18 -12.5 -37.5 -20.5 q-19.5 -8 -40.5 -8 l-218 0 l178 1451 l291 0 l-104 -856 q-8 -53 -18 -111.5 q-10 -58.5 -27 -123.5 q28 58 58 108 q30 50 58 87 l539 808 Z" /><glyph glyph-name="" unicode="&#x41a;" d="M460 848 l119 0 q35 0 63 13.5 q28 13.5 55 51.5 l315 462 q24 33 55.5 54.5 q31.5 21.5 71.5 21.5 l248 0 l-409 -580 q-28 -38 -63 -63 q-35 -25 -75 -40 q58 -17 94.5 -55 q36.5 -38 65.5 -105 l243 -608 l-264 0 q-40 0 -64.5 21 q-24.5 21 -41.5 62 l-185 479 q-17 42 -42.5 56.5 q-25.5 14.5 -69.5 14.5 l-143 0 l-77 -633 l-289 0 l178 1451 l289 0 l-74 -603 Z" /><glyph glyph-name="" unicode="&#x41b;" d="M1364 1450 l-178 -1450 l-291 0 l152 1231 l-319 0 q-47 -271 -95.5 -468.5 q-48.5 -197.5 -99.5 -336 q-51 -138.5 -105.5 -225 q-54.5 -86.5 -112 -134.5 q-57.5 -48 -118.5 -65 q-61 -17 -127 -17 q-75 0 -106 13.5 q-31 13.5 -28 39.5 l22 178 l76 0 q28 0 60.5 11 q32.5 11 68 51.5 q35.5 40.5 74 120 q38.5 79.5 78.5 216.5 q40 137 82 341 q42 204 85 494 l882 0 Z" /><glyph glyph-name="" unicode="&#x409;" d="M1364 1450 l-73 -595 l188 0 q123 0 210 -27.5 q87 -27.5 141.5 -75 q54.5 -47.5 79.5 -111 q25 -63.5 25 -135.5 q0 -113 -39 -206 q-39 -93 -111.5 -159.5 q-72.5 -66.5 -177 -103.5 q-104.5 -37 -234.5 -37 l-478 0 l152 1231 l-319 0 q-47 -271 -95.5 -468.5 q-48.5 -197.5 -99.5 -336 q-51 -138.5 -105.5 -225 q-54.5 -86.5 -112 -134.5 q-57.5 -48 -118.5 -65 q-61 -17 -127 -17 q-75 0 -106 13.5 q-31 13.5 -28 39.5 l22 178 l76 0 q28 0 60.5 11 q32.5 11 68 51.5 q35.5 40.5 74 120 q38.5 79.5 78.5 216.5 q40 137 82 341 q42 204 85 494 l882 0 ZM1264 634 l-51 -412 l188 0 q66 0 112 17.5 q46 17.5 75.5 49.5 q29.5 32 43 77.5 q13.5 45.5 13.5 102.5 q0 37 -9.5 67.5 q-9.5 30.5 -32.5 52 q-23 21.5 -60.5 33.5 q-37.5 12 -92.5 12 l-186 0 Z" /><glyph glyph-name="" unicode="&#x40a;" d="M1327 855 l188 0 q123 0 210 -27.5 q87 -27.5 141.5 -75 q54.5 -47.5 79.5 -111 q25 -63.5 25 -135.5 q0 -113 -38.5 -206 q-38.5 -93 -111.5 -159.5 q-73 -66.5 -177 -103.5 q-104 -37 -235 -37 l-479 0 l77 628 l-571 0 l-77 -628 l-291 0 l179 1451 l291 0 l-77 -621 l571 0 l77 621 l292 0 l-74 -596 ZM1300 634 l-51 -412 l189 0 q65 0 111.5 17.5 q46.5 17.5 76 49.5 q29.5 32 43 77.5 q13.5 45.5 13.5 102.5 q0 37 -10 67.5 q-10 30.5 -32.5 52 q-22.5 21.5 -60 33.5 q-37.5 12 -92.5 12 l-187 0 Z" /><glyph glyph-name="" unicode="&#x472;" d="M1467 821 q0 -119 -27 -227.5 q-27 -108.5 -76.5 -201.5 q-49.5 -93 -120.5 -168 q-71 -75 -158.5 -128.5 q-87.5 -53.5 -190 -82.5 q-102.5 -29 -215.5 -29 q-141 0 -253 49.5 q-112 49.5 -190 136 q-78 86.5 -120 204.5 q-42 118 -42 255 q0 119 27 227.5 q27 108.5 76.5 201.5 q49.5 93 120.5 168.5 q71 75.5 158.5 129 q87.5 53.5 190 82.5 q102.5 29 215.5 29 q141 0 253 -50 q112 -50 190 -137 q78 -87 120 -205 q42 -118 42 -254 ZM711 219 q85 0 157.5 28.5 q72.5 28.5 129 81.5 q56.5 53 96 129.5 q39.5 76.5 58.5 171.5 l-782 0 q1 -93 24 -169 q23 -76 67 -130 q44 -54 107 -83 q63 -29 143 -29 ZM827 1232 q-83 0 -154 -27 q-71 -27 -126.5 -78 q-55.5 -51 -94.5 -123.5 q-39 -72.5 -60 -162.5 l777 0 q-3 88 -28 160.5 q-25 72.5 -68.5 123.5 q-43.5 51 -105.5 79 q-62 28 -140 28 Z" /><glyph glyph-name="" unicode="&#x41f;" d="M1177 0 l-291 0 l151 1231 l-528 0 l-152 -1231 l-290 0 l178 1450 l1110 0 l-178 -1450 Z" /><glyph glyph-name="" unicode="&#x423;" d="M267 216 q26 0 48 4 q22 4 41.5 15.5 q19.5 11.5 38.5 33 q19 21.5 40 57.5 l61 108 l-413 1016 l265 0 q38 0 57.5 -17.5 q19.5 -17.5 31.5 -46.5 l159 -505 q16 -51 28 -100.5 q12 -49.5 20 -100.5 q20 51 44 101 q24 50 51 101 l255 504 q14 23 40 43.5 q26 20.5 63 20.5 l245 0 l-691 -1246 q-38 -66 -78 -108.5 q-40 -42.5 -80.5 -67 q-40.5 -24.5 -82 -34 q-41.5 -9.5 -83.5 -9.5 q-83 0 -121.5 16.5 q-38.5 16.5 -33.5 57.5 l20 157 l75 0 l0 0 Z" /><glyph glyph-name="" unicode="&#x474;" d="M89 1450 l226 0 q38 0 60.5 -18 q22.5 -18 28.5 -46 l174 -855 q11 -45 21 -99 q10 -54 17 -112 q20 58 41.5 112 q21.5 54 44.5 99 l274 703 q25 57 56.5 99.5 q31.5 42.5 72.5 70.5 q41 28 92.5 42 q51.5 14 116.5 14 q37 0 59.5 -3 q22.5 -3 34 -11 q11.5 -8 14 -21.5 q2.5 -13.5 -0.5 -35.5 l-20 -160 l-51 0 q-42 0 -73 -24.5 q-31 -24.5 -55 -78.5 l-512 -1126 l-262 0 l-359 1450 Z" /><glyph glyph-name="" unicode="&#x424;" d="M984 1339 q112 -5 204 -47.5 q92 -42.5 158 -113 q66 -70.5 102.5 -163 q36.5 -92.5 36.5 -197.5 q0 -88 -23 -168.5 q-23 -80.5 -65.5 -151.5 q-42.5 -71 -101.5 -129 q-59 -58 -130.5 -101 q-71.5 -43 -153.5 -68 q-82 -25 -170 -28 l-21 -172 l-274 0 l21 172 q-112 5 -204.5 48 q-92.5 43 -158.5 114 q-66 71 -102.5 164 q-36.5 93 -36.5 198 q0 87 23 167.5 q23 80.5 65.5 151 q42.5 70.5 101.5 128.5 q59 58 130.5 100.5 q71.5 42.5 153.5 67.5 q82 25 170 28 l21 171 l275 0 l-21 -171 ZM1196 807 q0 63 -17 119 q-17 56 -48 98.5 q-31 42.5 -75 68 q-44 25.5 -99 27.5 l-89 -728 q68 3 128 36.5 q60 33.5 104.5 89.5 q44.5 56 70 130.5 q25.5 74.5 25.5 158.5 ZM356 707 q0 -64 16.5 -120 q16.5 -56 47.5 -99 q31 -43 75 -68.5 q44 -25.5 99 -27.5 l88 728 q-68 -2 -127.5 -35.5 q-59.5 -33.5 -103.5 -89.5 q-44 -56 -69.5 -130 q-25.5 -74 -25.5 -158 Z" /><glyph glyph-name="" unicode="&#x426;" d="M67 0 l178 1450 l291 0 l-152 -1232 l529 0 l151 1232 l291 0 l-178 -1450 l28 218 l184 0 l-59 -480 q-5 -36 -33.5 -58.5 q-28.5 -22.5 -68.5 -22.5 l-174 0 l41 343 l-1028 0 Z" /><glyph glyph-name="" unicode="&#x40f;" d="M1177 0 l-422 0 l-32 -262 q-5 -36 -33.5 -58.5 q-28.5 -22.5 -67.5 -22.5 l-175 0 l42 343 l-422 0 l178 1450 l291 0 l-152 -1232 l529 0 l151 1232 l291 0 l-178 -1450 Z" /><glyph glyph-name="" unicode="&#x427;" d="M1057 0 l-291 0 l70 571 q-112 -29 -213 -42.5 q-101 -13.5 -186 -7.5 q-85 6 -151 33.5 q-66 27.5 -108.5 81.5 q-42.5 54 -59.5 136.5 q-17 82.5 -2 198.5 l59 479 l291 0 l-59 -480 q-10 -80 4 -134.5 q14 -54.5 64 -81 q50 -26.5 143 -23 q93 3.5 242 40.5 l84 678 l291 0 l-178 -1450 Z" /><glyph glyph-name="" unicode="&#x428;" d="M1801 0 l-1734 0 l178 1450 l291 0 l-152 -1232 l431 0 l151 1232 l291 0 l-151 -1232 l431 0 l151 1232 l291 0 l-178 -1450 Z" /><glyph glyph-name="" unicode="&#x429;" d="M67 0 l178 1450 l291 0 l-152 -1232 l431 0 l151 1232 l291 0 l-151 -1232 l431 0 l151 1232 l291 0 l-151 -1232 l184 0 l-59 -480 q-5 -36 -33 -58.5 q-28 -22.5 -68 -22.5 l-175 0 l43 343 l-1653 0 Z" /><glyph glyph-name="" unicode="&#x42a;" d="M129 1450 l666 0 l-73 -595 l193 0 q123 0 210 -27.5 q87 -27.5 141.5 -75 q54.5 -47.5 79.5 -111 q25 -63.5 25 -135.5 q0 -113 -38.5 -206 q-38.5 -93 -111.5 -159.5 q-73 -66.5 -177 -103.5 q-104 -37 -235 -37 l-481 0 l150 1223 l-378 0 l29 227 ZM695 634 l-51 -412 l194 0 q65 0 111.5 17.5 q46.5 17.5 76 49.5 q29.5 32 43 77.5 q13.5 45.5 13.5 102.5 q0 37 -10 67.5 q-10 30.5 -32.5 52 q-22.5 21.5 -60 33.5 q-37.5 12 -92.5 12 l-192 0 Z" /><glyph glyph-name="" unicode="&#x42c;" d="M534 1450 l-73 -595 l193 0 q123 0 210 -27.5 q87 -27.5 141.5 -75 q54.5 -47.5 79.5 -111 q25 -63.5 25 -135.5 q0 -113 -38.5 -206 q-38.5 -93 -111.5 -159.5 q-73 -66.5 -177 -103.5 q-104 -37 -235 -37 l-481 0 l178 1450 l289 0 ZM434 634 l-51 -412 l194 0 q65 0 111.5 17.5 q46.5 17.5 76 49.5 q29.5 32 43 77.5 q13.5 45.5 13.5 102.5 q0 37 -10 67.5 q-10 30.5 -32.5 52 q-22.5 21.5 -60 33.5 q-37.5 12 -92.5 12 l-192 0 Z" /><glyph glyph-name="" unicode="&#x42d;" d="M154 349 q26 0 45 -21 q26 -29 52.5 -49 q26.5 -20 57 -32 q30.5 -12 66.5 -17.5 q36 -5.5 81 -5.5 q71 0 137 26.5 q66 26.5 121.5 78.5 q55.5 52 97 127.5 q41.5 75.5 62.5 173.5 l-592 0 l27 211 l583 0 q-3 89 -25.5 160 q-22.5 71 -62.5 121 q-40 50 -96 77 q-56 27 -125 27 q-74 0 -124.5 -16.5 q-50.5 -16.5 -86.5 -37 q-36 -20.5 -61.5 -37 q-25.5 -16.5 -48.5 -16.5 q-23 0 -35 9.5 q-12 9.5 -19 22.5 l-78 129 q94 85 214.5 135.5 q120.5 50.5 270.5 50.5 q134 0 240.5 -47.5 q106.5 -47.5 181 -132.5 q74.5 -85 114 -202.5 q39.5 -117.5 39.5 -256.5 q0 -180 -52.5 -334.5 q-52.5 -154.5 -149 -267.5 q-96.5 -113 -232.5 -177 q-136 -64 -303 -64 q-165 0 -281 59 q-116 59 -191 166 l130 122 q21 18 43 18 Z" /><glyph glyph-name="" unicode="&#x404;" d="M1157 210 q-94 -110 -222 -168 q-128 -58 -294 -58 q-135 0 -240.5 47.5 q-105.5 47.5 -178 132.5 q-72.5 85 -110 200.5 q-37.5 115.5 -37.5 252.5 q0 124 26.5 235.5 q26.5 111.5 75 205.5 q48.5 94 117.5 169.5 q69 75.5 153.5 128.5 q84.5 53 183 81.5 q98.5 28.5 206.5 28.5 q150 0 259 -52.5 q109 -52.5 175 -137.5 l-113 -132 q-11 -13 -25.5 -23 q-14.5 -10 -37.5 -10 q-16 0 -29.5 8.5 q-13.5 8.5 -29 20.5 q-15.5 12 -35 27 q-19.5 15 -46 27 q-26.5 12 -63 20.5 q-36.5 8.5 -86.5 8.5 q-74 0 -140 -26 q-66 -26 -119.5 -75 q-53.5 -49 -93 -120 q-39.5 -71 -60.5 -161 l591 0 l-26 -211 l-586 0 q1 -95 25.5 -170.5 q24.5 -75.5 67 -127.5 q42.5 -52 100 -79.5 q57.5 -27.5 125.5 -27.5 q45 0 82 5.5 q37 5.5 70.5 18 q33.5 12.5 64.5 32.5 q31 20 63 49 q10 7 21.5 13 q11.5 6 23 7.5 q11.5 1.5 23 -2.5 q11.5 -4 20.5 -15 l99 -123 l0 0 Z" /><glyph glyph-name="" unicode="&#x42e;" d="M460 831 l239 0 q28 139 92.5 255.5 q64.5 116.5 158 201 q93.5 84.5 213.5 131.5 q120 47 260 47 q134 0 239 -48.5 q105 -48.5 177 -134 q72 -85.5 109.5 -201 q37.5 -115.5 37.5 -250.5 q0 -120 -24.5 -229.5 q-24.5 -109.5 -70.5 -203.5 q-46 -94 -112 -170.5 q-66 -76.5 -149 -130.5 q-83 -54 -181 -83.5 q-98 -29.5 -208 -29.5 q-134 0 -238 48 q-104 48 -176 132 q-72 84 -110 199 q-38 115 -39 249 l-244 0 l-75 -613 l-291 0 l177 1451 l291 0 l-76 -620 ZM1270 220 q97 0 175 43.5 q78 43.5 132 123 q54 79.5 83 191 q29 111.5 29 248.5 q0 91 -19 165.5 q-19 74.5 -56.5 128 q-37.5 53.5 -93 82.5 q-55.5 29 -127.5 29 q-98 0 -175.5 -44 q-77.5 -44 -131.5 -124 q-54 -80 -83 -191.5 q-29 -111.5 -29 -247.5 q0 -92 19 -166.5 q19 -74.5 56.5 -127.5 q37.5 -53 93 -81.5 q55.5 -28.5 127.5 -28.5 Z" /><glyph glyph-name="" unicode="&#x42f;" d="M768 0 l73 595 l-119 0 q-20 -1 -39.5 -6 q-19.5 -5 -38 -16.5 q-18.5 -11.5 -37 -31 q-18.5 -19.5 -36.5 -48.5 l-252 -394 q-32 -46 -80 -72.5 q-48 -26.5 -111 -26.5 l-218 0 l346 506 q35 51 77 85.5 q42 34.5 94 56.5 q-62 20 -107.5 52.5 q-45.5 32.5 -75 74.5 q-29.5 42 -44 91.5 q-14.5 49.5 -14.5 105.5 q0 103 39 191 q39 88 111.5 151.5 q72.5 63.5 176.5 99.5 q104 36 233 36 l490 0 l-178 -1450 l-290 0 ZM473 983 q0 -37 9.5 -67.5 q9.5 -30.5 32.5 -52.5 q23 -22 60 -34 q37 -12 93 -12 l200 0 l51 411 l-202 0 q-66 0 -112 -17 q-46 -17 -75.5 -49 q-29.5 -32 -43 -77.5 q-13.5 -45.5 -13.5 -101.5 Z" /><glyph glyph-name="" unicode="&#x402;" d="M1128 1450 l-28 -225 l-365 0 l-45 -370 l228 0 q123 0 210 -27.5 q87 -27.5 142 -75 q55 -47.5 80 -111 q25 -63.5 25 -135.5 q0 -113 -39 -206 q-39 -93 -111.5 -159.5 q-72.5 -66.5 -177 -103.5 q-104.5 -37 -234.5 -37 l-75 0 l28 222 l74 0 q66 0 112.5 17.5 q46.5 17.5 76 49.5 q29.5 32 43 77.5 q13.5 45.5 13.5 102.5 q0 37 -9.5 67.5 q-9.5 30.5 -32.5 52 q-23 21.5 -60.5 33.5 q-37.5 12 -92.5 12 l-228 0 l-78 -634 l-288 0 l150 1225 l-341 0 l28 225 l995 0 Z" /><glyph glyph-name="" unicode="&#x40b;" d="M1281 -1 l-290 0 l54 447 q6 53 6.5 95.5 q0.5 42.5 -10 72.5 q-10.5 30 -35.5 48 q-25 18 -69.5 22.5 q-44.5 4.5 -111 -4.5 q-66.5 -9 -161.5 -32 l-79 -648 l-289 0 l150 1225 l-341 0 l28 225 l995 0 l-28 -225 l-365 0 l-46 -376 q109 27 203.5 40 q94.5 13 171.5 6.5 q77 -6.5 134.5 -34.5 q57.5 -28 92.5 -82 q35 -54 47 -136 q12 -82 -2 -197 l-55 -447 Z" /><glyph glyph-name="" unicode="&#x462;" d="M748 1450 l-25 -197 l382 0 l-26 -209 l-381 0 l-23 -189 l193 0 q123 0 210 -27.5 q87 -27.5 141.5 -75 q54.5 -47.5 79.5 -111 q25 -63.5 25 -135.5 q0 -113 -38.5 -206 q-38.5 -93 -111.5 -159.5 q-73 -66.5 -177 -103.5 q-104 -37 -235 -37 l-481 0 l128 1044 l-313 0 l27 209 l311 0 l25 197 l289 0 ZM648 634 l-51 -412 l194 0 q65 0 111.5 17.5 q46.5 17.5 76 49.5 q29.5 32 43 77.5 q13.5 45.5 13.5 102.5 q0 37 -10 67.5 q-10 30.5 -32.5 52 q-22.5 21.5 -60 33.5 q-37.5 12 -92.5 12 l-192 0 Z" /><glyph glyph-name="" unicode="&#x431;" d="M723 1232 q-111 -18 -185.5 -63.5 q-74.5 -45.5 -121 -107.5 q-46.5 -62 -71 -136.5 q-24.5 -74.5 -34.5 -150.5 q33 49 77 90.5 q44 41.5 98 71 q54 29.5 116.5 46 q62.5 16.5 133.5 16.5 q66 0 121.5 -20.5 q55.5 -20.5 95 -64 q39.5 -43.5 62 -110.5 q22.5 -67 22.5 -159 q0 -83 -18 -164 q-18 -81 -52.5 -154 q-34.5 -73 -83.5 -135.5 q-49 -62.5 -111 -108 q-62 -45.5 -136 -71.5 q-74 -26 -157 -26 q-87 0 -160 30 q-73 30 -126.5 93 q-53.5 63 -83.5 160.5 q-30 97.5 -30 233.5 q0 57 4 124 q4 67 15.5 138.5 q11.5 71.5 31 145 q19.5 73.5 50 143.5 q30.5 70 74 134 q43.5 64 102 116 q58.5 52 133.5 89.5 q75 37.5 170 55.5 l441 83 l0 -138 q0 -42 -21.5 -73.5 q-21.5 -31.5 -65.5 -41.5 l-290 -46 ZM347 396 q0 -105 39 -158.5 q39 -53.5 109 -53.5 q60 0 109 37 q49 37 84.5 98.5 q35.5 61.5 54.5 140.5 q19 79 19 162 q0 94 -28.5 139.5 q-28.5 45.5 -94.5 45.5 q-65 0 -118.5 -37 q-53.5 -37 -92 -96.5 q-38.5 -59.5 -60 -132.5 q-21.5 -73 -21.5 -145 Z" /><glyph glyph-name="" unicode="&#x432;" d="M888 829 q1 -79 -56.5 -149 q-57.5 -70 -175.5 -113 q49 -4 91 -18.5 q42 -14.5 72.5 -40.5 q30.5 -26 48 -63.5 q17.5 -37.5 17.5 -86.5 q0 -68 -30 -135 q-30 -67 -88 -120 q-58 -53 -141.5 -86 q-83.5 -33 -189.5 -33 q-98 0 -172.5 29.5 q-74.5 29.5 -125.5 84 q-51 54.5 -77 132.5 q-26 78 -26 174 q0 87 19.5 168 q19.5 81 56 152.5 q36.5 71.5 87.5 130.5 q51 59 114.5 101 q63.5 42 137 65.5 q73.5 23.5 154.5 23.5 q70 0 123 -17 q53 -17 88.5 -46 q35.5 -29 54 -68.5 q18.5 -39.5 18.5 -84.5 ZM305 425 q-1 -115 39 -179.5 q40 -64.5 123 -60.5 q37 2 67.5 16.5 q30.5 14.5 52 37.5 q21.5 23 33 53.5 q11.5 30.5 11.5 63.5 q0 28 -9 51.5 q-9 23.5 -28.5 38.5 q-19.5 15 -51 20 q-31.5 5 -76.5 -4 l-161 -37 ZM570 865 q-39 0 -77 -19.5 q-38 -19.5 -70 -56 q-32 -36.5 -58 -88 q-26 -51.5 -41 -115.5 l142 36 q59 12 95.5 29.5 q36.5 17.5 56.5 38 q20 20.5 27 43 q7 22.5 7 45.5 q0 38 -18 62.5 q-18 24.5 -64 24.5 Z" /><glyph glyph-name="" unicode="&#x433;" d="M444 1044 q64 0 122 -15.5 q58 -15.5 102 -46 q44 -30.5 70.5 -77 q26.5 -46.5 26.5 -109.5 q0 -73 -36 -129.5 q-36 -56.5 -90.5 -102.5 q-54.5 -46 -118 -83.5 q-63.5 -37.5 -118 -72.5 q-54.5 -35 -90.5 -70.5 q-36 -35.5 -36 -76.5 q0 -26 26 -47 q26 -21 80 -21 q41 0 74.5 12 q33.5 12 61.5 27 q28 15 50.5 27 q22.5 12 41.5 12 q19 0 30.5 -6.5 q11.5 -6.5 23.5 -22.5 l65 -97 q-41 -40 -88 -70 q-47 -30 -98 -50 q-51 -20 -103.5 -30 q-52.5 -10 -104.5 -10 q-77 0 -138.5 19.5 q-61.5 19.5 -104.5 53.5 q-43 34 -66 81 q-23 47 -23 102 q0 56 21.5 103 q21.5 47 56.5 87 q35 40 79.5 74 q44.5 34 91.5 63.5 q47 29.5 91.5 56.5 q44.5 27 79.5 52 q35 25 56.5 49.5 q21.5 24.5 21.5 50.5 q0 23 -21.5 41 q-21.5 18 -68.5 18 q-33 0 -62.5 -9.5 q-29.5 -9.5 -56 -20.5 q-26.5 -11 -48.5 -20.5 q-22 -9.5 -40 -9.5 q-11 -1 -23.5 5 q-12.5 6 -23.5 28 l-59 111 q69 57 159.5 90.5 q90.5 33.5 186.5 33.5 Z" /><glyph glyph-name="" unicode="&#x491;" d="M893 1275 l-92 -430 l-217 0 q-48 0 -79 -32.5 q-31 -32.5 -42 -102.5 l-69 -394 q-14 -75 -41.5 -135.5 q-27.5 -60.5 -70 -103 q-42.5 -42.5 -100.5 -65.5 q-58 -23 -132 -23 q-51 0 -72 10 q-21 10 -19 37 l20 154 l13 0 q54 0 91 34.5 q37 34.5 49 103.5 l67 372 q16 89 47.5 151.5 q31.5 62.5 77.5 102.5 q46 40 104.5 58 q58.5 18 128.5 18 l51 0 l38 139 q14 51 50.5 78.5 q36.5 27.5 91.5 27.5 l105 0 Z" /><glyph glyph-name="" unicode="&#x434;" d="M239 1455 q172 21 315 0.5 q143 -20.5 245.5 -96.5 q102.5 -76 159 -215.5 q56.5 -139.5 56.5 -357.5 q0 -186 -44.5 -334.5 q-44.5 -148.5 -122.5 -252 q-78 -103.5 -183 -159 q-105 -55.5 -226 -55.5 q-86 0 -159 27.5 q-73 27.5 -126.5 83 q-53.5 55.5 -83.5 138.5 q-30 83 -30 194 q0 117 36.5 225 q36.5 108 101.5 191.5 q65 83.5 156.5 133.5 q91.5 50 202.5 50 q69 0 122.5 -20.5 q53.5 -20.5 98.5 -58.5 q-15 99 -52.5 162.5 q-37.5 63.5 -97 99.5 q-59.5 36 -141.5 49 q-82 13 -188 12 q-35 0 -46.5 14.5 q-11.5 14.5 -6.5 45.5 l13 123 ZM472 194 q58 0 108 34 q50 34 86 106 q36 72 57 184.5 q21 112.5 21 268.5 q-29 21 -65.5 34.5 q-36.5 13.5 -78.5 13.5 q-63 0 -115.5 -31 q-52.5 -31 -90 -85.5 q-37.5 -54.5 -58 -129.5 q-20.5 -75 -20.5 -162 q0 -63 11 -107.5 q11 -44.5 31.5 -72 q20.5 -27.5 49 -40.5 q28.5 -13 64.5 -13 Z" /><glyph glyph-name="" unicode="&#x436;" d="M982 511 q78 143 160.5 244.5 q82.5 101.5 161 166 q78.5 64.5 148 94 q69.5 29.5 121.5 29.5 q50 0 99 -18 q49 -18 94 -60 l-68 -114 q-14 -25 -29 -33 q-15 -8 -30 -8 q-20 0 -37.5 8 q-17.5 8 -42.5 8 q-33 0 -68 -28.5 q-35 -28.5 -64 -83.5 q-29 -55 -47.5 -135 q-18.5 -80 -18.5 -183 q0 -59 6 -98 q6 -39 17 -62.5 q11 -23.5 28 -33.5 q17 -10 39 -10 q13 0 25.5 5 q12.5 5 24.5 11 q12 6 23.5 11 q11.5 5 22.5 5 q14 0 28 -4.5 q14 -4.5 22 -19.5 l61 -118 q-32 -27 -67 -45.5 q-35 -18.5 -70.5 -30.5 q-35.5 -12 -70 -17.5 q-34.5 -5.5 -64.5 -5.5 q-58 0 -105.5 19.5 q-47.5 19.5 -81.5 58 q-34 38.5 -52.5 96.5 q-18.5 58 -18.5 135 q0 148 47 280 q-39 -53 -77.5 -115.5 q-38.5 -62.5 -71.5 -133 q-33 -70.5 -58 -147.5 q-25 -77 -37 -158 l-22 344 q17 39 35.5 75.5 q18.5 36.5 37.5 71.5 l-51 -490 l-2 -21 l-231 0 l54 520 q-78 -144 -161 -245.5 q-83 -101.5 -161.5 -166 q-78.5 -64.5 -148 -94 q-69.5 -29.5 -120.5 -29.5 q-50 0 -99 18.5 q-49 18.5 -94 60.5 l67 113 q14 25 29 33 q15 8 30 8 q20 1 38 -7.5 q18 -8.5 42 -8.5 q33 0 68 28.5 q35 28.5 64 83.5 q29 55 47.5 135.5 q18.5 80.5 18.5 183.5 q0 58 -6 97 q-6 39 -17 62.5 q-11 23.5 -28 33.5 q-17 10 -39 10 q-13 0 -25.5 -5 q-12.5 -5 -24 -11 q-11.5 -6 -23 -11 q-11.5 -5 -23.5 -5 q-14 0 -28 4.5 q-14 4.5 -22 19.5 l-61 119 q32 26 67 44.5 q35 18.5 70.5 30.5 q35.5 12 70 17.5 q34.5 5.5 64.5 5.5 q58 0 105.5 -19.5 q47.5 -19.5 81.5 -58 q34 -38.5 52.5 -96.5 q18.5 -58 18.5 -134 q0 -76 -12 -145.5 q-12 -69.5 -35 -135.5 q39 53 77.5 116 q38.5 63 71.5 134 q33 71 58.5 148 q25.5 77 37.5 158 l0 -1 l2 21 l231 -1 l-54 -520 Z" /><glyph glyph-name="" unicode="&#x437;" d="M86 900 q33 31 77.5 58 q44.5 27 97 46.5 q52.5 19.5 111.5 30.5 q59 11 119 11 q88 0 152 -20.5 q64 -20.5 106 -54.5 q42 -34 62 -78 q20 -44 20 -92 q0 -36 -11.5 -72 q-11.5 -36 -37 -68 q-25.5 -32 -67 -58.5 q-41.5 -26.5 -100.5 -43.5 q85 -20 131 -75.5 q46 -55.5 46 -139.5 q0 -63 -27 -126.5 q-27 -63.5 -84 -115.5 q-57 -52 -145.5 -84.5 q-88.5 -32.5 -211.5 -32.5 q-97 0 -185.5 29.5 q-88.5 29.5 -174.5 104.5 l70 111 q8 13 22.5 23.5 q14.5 10.5 31.5 10.5 q24 0 44.5 -12.5 q20.5 -12.5 46.5 -28 q26 -15.5 63.5 -28 q37.5 -12.5 95.5 -12.5 q51 0 89 12.5 q38 12.5 63.5 35 q25.5 22.5 38 53 q12.5 30.5 12.5 65.5 q0 32 -10 53.5 q-10 21.5 -28.5 34.5 q-18.5 13 -44.5 18.5 q-26 5.5 -57 5.5 q-31 0 -75.5 -6.5 q-44.5 -6.5 -82.5 -13.5 q0 51 4.5 98 q4.5 47 24.5 97 q27 -5 53 -8.5 q26 -3.5 53 -3.5 q56 0 95.5 12 q39.5 12 64 30 q24.5 18 35.5 40.5 q11 22.5 11 43.5 q0 43 -34 70 q-34 27 -113 27 q-53 0 -90 -10.5 q-37 -10.5 -64 -23.5 q-27 -13 -46 -24.5 q-19 -11.5 -37 -13.5 q-17 -2 -30 3 q-13 5 -27 28 l-57 94 l0 0 Z" /><glyph glyph-name="" unicode="&#x438;" d="M423 1031 l-78 -655 q-11 -93 9.5 -131.5 q20.5 -38.5 74.5 -38.5 q36 0 74.5 20.5 q38.5 20.5 74 58.5 q35.5 38 66 92 q30.5 54 50.5 120 l65 534 l275 0 l-125 -1031 l-140 0 q-98 0 -98 93 l3 93 q-76 -102 -166 -151.5 q-90 -49.5 -185 -49.5 q-65 0 -117 26 q-52 26 -86 76 q-34 50 -48 122.5 q-14 72.5 -2 166.5 l77 655 l276 0 Z" /><glyph glyph-name="" unicode="&#x43a;" d="M611 817 q43 60 71.5 101 q28.5 41 57.5 66.5 q29 25.5 65.5 36.5 q36.5 11 94.5 11 l115 0 l-29 -140 q-6 -30 -18.5 -38.5 q-12.5 -8.5 -29 -13 q-16.5 -4.5 -36 -12.5 q-19.5 -8 -39.5 -36 l-97 -139 q-15 -22 -29.5 -38.5 q-14.5 -16.5 -30.5 -29 q-16 -12.5 -34 -21 q-18 -8.5 -40 -13.5 q66 -12 105 -46.5 q39 -34.5 63 -100.5 l148 -404 l-157 0 q-35 0 -60.5 6 q-25.5 6 -44 17 q-18.5 11 -32 28 q-13.5 17 -23.5 38 l-97 278 q-11 37 -39 59.5 q-28 22.5 -63 22.5 l-83 -17 l-53 -432 l-265 0 l126 1031 l266 0 l-52 -424 l46 11 q19 4 32 8 q13 4 23.5 10 q10.5 6 19 15 q8.5 9 19.5 24 l100 142 Z" /><glyph glyph-name="" unicode="&#x43b;" d="M231 560 q30 126 73 215 q43 89 108.5 145.5 q65.5 56.5 158 83 q92.5 26.5 222.5 26.5 l262 0 l-126 -1030 l-265 0 l102 830 l-29 0 q-52 0 -90.5 -13 q-38.5 -13 -67.5 -45.5 q-29 -32.5 -50 -87 q-21 -54.5 -39 -138.5 q-33 -161 -75 -268.5 q-42 -107.5 -94 -172.5 q-52 -65 -115 -92.5 q-63 -27.5 -138 -27.5 q-60 0 -83.5 10 q-23.5 10 -20.5 37 l19 153 l31 0 q45 0 74.5 18 q29.5 18 53 61.5 q23.5 43.5 43.5 115.5 q20 72 46 180 Z" /><glyph glyph-name="" unicode="&#x459;" d="M1060 1031 l-54 -441 q31 32 65.5 57 q34.5 25 69.5 42.5 q35 17.5 69 26.5 q34 9 66 9 q53 0 97.5 -17.5 q44.5 -17.5 77 -50.5 q32.5 -33 50.5 -80 q18 -47 18 -107 q0 -99 -42.5 -187 q-42.5 -88 -115.5 -154.5 q-73 -66.5 -170.5 -105 q-97.5 -38.5 -207.5 -38.5 q-159 0 -229.5 75.5 q-70.5 75.5 -53.5 215.5 l67 554 l-10 0 q-52 0 -93.5 -13 q-41.5 -13 -74 -45.5 q-32.5 -32.5 -57 -87 q-24.5 -54.5 -42.5 -138.5 q-33 -161 -75 -268.5 q-42 -107.5 -94 -172.5 q-52 -65 -115 -92.5 q-63 -27.5 -138 -27.5 q-60 0 -83.5 10 q-23.5 10 -20.5 37 l19 153 l31 0 q45 0 74.5 18 q29.5 18 53 61.5 q23.5 43.5 43.5 115.5 q20 72 46 180 q29 123 73.5 211 q44.5 88 111.5 144.5 q67 56.5 159 84 q92 27.5 216 29.5 l0 2 l269 0 ZM966 256 q-5 -36 22 -60.5 q27 -24.5 81 -24.5 q42 0 78 24.5 q36 24.5 62 62.5 q26 38 40.5 84 q14.5 46 14.5 90 q0 21 -3.5 40.5 q-3.5 19.5 -13 34.5 q-9.5 15 -26 24 q-16.5 9 -41.5 9 q-36 0 -71.5 -22.5 q-35.5 -22.5 -65 -58 q-29.5 -35.5 -49 -79.5 q-19.5 -44 -24.5 -88 l-4 -36 Z" /><glyph glyph-name="" unicode="&#x43c;" d="M696 512 q21 -71 33 -126 q9 22 19.5 44 q10.5 22 24.5 45 l262 499 q23 36 52 47 q29 11 55 11 l240 0 l-127 -1032 l-248 0 l72 584 q3 25 8.5 54.5 q5.5 29.5 13.5 59.5 l-356 -633 q-14 -22 -34.5 -34 q-20.5 -12 -45.5 -12 l-39 0 q-24 0 -42 12 q-18 12 -26 34 l-173 627 q-5 -35 -11.5 -72.5 q-6.5 -37.5 -13.5 -66.5 q-12 -56 -21.5 -109.5 q-9.5 -53.5 -20.5 -110 q-11 -56.5 -26.5 -118 q-15.5 -61.5 -39.5 -134.5 q-14 -38 -40 -59.5 q-26 -21.5 -67 -21.5 l-168 0 q36 114 72.5 239.5 q36.5 125.5 71 257 q34.5 131.5 65 266.5 q30.5 135 52.5 269 l222 0 q13 0 27.5 -2.5 q14.5 -2.5 27 -8.5 q12.5 -6 23 -17.5 q10.5 -11.5 15.5 -29.5 l143 -462 l0 0 Z" /><glyph glyph-name="" unicode="&#x43d;" d="M1033 1031 l-123 -1031 l-275 0 l52 439 l-326 0 l-52 -439 l-276 0 l124 1031 l275 0 l-48 -397 l326 0 l48 397 l275 0 Z" /><glyph glyph-name="" unicode="&#x45a;" d="M1026 1031 l-54 -441 q31 32 65.5 57 q34.5 25 69.5 42.5 q35 17.5 69 26.5 q34 9 66 9 q53 0 97.5 -17.5 q44.5 -17.5 77 -50.5 q32.5 -33 50.5 -80 q18 -47 18 -107 q0 -99 -42.5 -187 q-42.5 -88 -115.5 -154.5 q-73 -66.5 -170.5 -105 q-97.5 -38.5 -207.5 -38.5 q-159 0 -229.5 75.5 q-70.5 75.5 -53.5 215.5 l20 165 l-326 0 l-52 -441 l-276 0 l124 1031 l275 0 l-47 -395 l325 0 l48 395 l269 0 ZM932 256 q-5 -36 22 -60.5 q27 -24.5 81 -24.5 q42 0 78 24.5 q36 24.5 62 62.5 q26 38 40.5 84 q14.5 46 14.5 90 q0 21 -3.5 40.5 q-3.5 19.5 -13 34.5 q-9.5 15 -26 24 q-16.5 9 -41.5 9 q-36 0 -71.5 -22.5 q-35.5 -22.5 -65 -58 q-29.5 -35.5 -49 -79.5 q-19.5 -44 -24.5 -88 l-4 -36 Z" /><glyph glyph-name="" unicode="&#x473;" d="M441 -15 q-86 0 -160 28.5 q-74 28.5 -128 83.5 q-54 55 -84.5 136 q-30.5 81 -30.5 185 q0 135 44 250.5 q44 115.5 119 199.5 q75 84 175 131.5 q100 47.5 211 47.5 q86 0 159.5 -28.5 q73.5 -28.5 127.5 -84 q54 -55.5 85 -136.5 q31 -81 31 -185 q0 -134 -44 -249 q-44 -115 -119.5 -199 q-75.5 -84 -175 -132 q-99.5 -48 -210.5 -48 ZM463 175 q44 0 82 19.5 q38 19.5 68.5 54.5 q30.5 35 53 83.5 q22.5 48.5 36.5 105.5 l-400 0 l0 -23 q0 -125 38.5 -182.5 q38.5 -57.5 121.5 -57.5 ZM564 856 q-43 0 -80 -18.5 q-37 -18.5 -67 -51.5 q-30 -33 -53 -78.5 q-23 -45.5 -37 -99.5 l397 0 l0 9 q0 126 -38.5 182.5 q-38.5 56.5 -121.5 56.5 Z" /><glyph glyph-name="" unicode="&#x43f;" d="M33 0 l124 1032 l141 0 q43 0 67 -21 q24 -21 24 -67 l-3 -109 q77 108 168.5 160 q91.5 52 190.5 52 q64 0 116 -26 q52 -26 86.5 -76 q34.5 -50 48.5 -123 q14 -73 2 -167 l-78 -655 l-275 0 l77 655 q12 93 -9 131.5 q-21 38.5 -74 38.5 q-38 0 -78 -22.5 q-40 -22.5 -77 -63.5 q-37 -41 -68 -99 q-31 -58 -50 -129 l-57 -511 l-276 0 Z" /><glyph glyph-name="" unicode="&#x442;" d="M32 0 l125 1032 l142 0 q43 0 67 -21 q24 -21 24 -67 l-3 -88 q68 97 145 144 q77 47 162 47 q91 0 147.5 -60 q56.5 -60 68.5 -175 q71 121 155.5 178 q84.5 57 187.5 57 q65 0 115.5 -26 q50.5 -26 83 -76 q32.5 -50 44.5 -123 q12 -73 0 -167 l-77 -655 l-272 0 l77 655 q12 93 -5.5 131.5 q-17.5 38.5 -65.5 38.5 q-35 0 -67.5 -18.5 q-32.5 -18.5 -61.5 -53.5 q-29 -35 -54 -84.5 q-25 -49.5 -43 -112.5 l-66 -556 l-272 0 l78 655 q11 93 -5 131.5 q-16 38.5 -65 38.5 q-36 0 -69 -19.5 q-33 -19.5 -62.5 -55.5 q-29.5 -36 -54 -87.5 q-24.5 -51.5 -42.5 -115.5 l-66 -547 l-271 0 Z" /><glyph glyph-name="" unicode="&#x475;" d="M51 1030 l221 0 q29 0 46.5 -14 q17.5 -14 22.5 -35 l97 -525 q17 -83 24 -160 q14 38 28 78 q14 40 30 82 l140 379 q24 66 54.5 106.5 q30.5 40.5 67 63 q36.5 22.5 77 30.5 q40.5 8 84.5 8 q35 0 56.5 -4 q21.5 -4 33.5 -9.5 q12 -5.5 15.5 -12 q3.5 -6.5 2.5 -11.5 l-19 -144 l-28 0 q-36 0 -65 -17 q-29 -17 -46 -55 l-353 -790 l-241 0 l-248 1030 Z" /><glyph glyph-name="" unicode="&#x444;" d="M550 60 q-45 -38 -96 -56.5 q-51 -18.5 -119 -18.5 q-68 0 -123 22 q-55 22 -94 69.5 q-39 47.5 -60 121 q-21 73.5 -21 176.5 q0 89 16.5 173.5 q16.5 84.5 46 159.5 q29.5 75 72 137.5 q42.5 62.5 94 107.5 q51.5 45 112 70 q60.5 25 126.5 25 q48 0 88 -18 q40 -18 69 -44 l46 385 q3 25 15 47 q12 22 31 38.5 q19 16.5 45 26 q26 9.5 58 9.5 l136 0 l-62 -520 q45 38 95.5 57 q50.5 19 119.5 19 q68 0 123 -22 q55 -22 94 -69.5 q39 -47.5 60 -121 q21 -73.5 21 -176.5 q0 -89 -16.5 -173.5 q-16.5 -84.5 -46 -159.5 q-29.5 -75 -72 -137.5 q-42.5 -62.5 -94 -107.5 q-51.5 -45 -112 -70 q-60.5 -25 -126.5 -25 q-48 0 -87.5 17 q-39.5 17 -68.5 43 l-32 -267 q-3 -25 -15 -47 q-12 -22 -31.5 -38.5 q-19.5 -16.5 -45.5 -26 q-26 -9.5 -57 -9.5 l-137 0 l48 403 ZM437 198 q38 0 73.5 16 q35.5 16 63.5 47 l67 560 q-20 11 -41 15.5 q-21 4.5 -44 4.5 q-58 0 -103.5 -38 q-45.5 -38 -77 -100.5 q-31.5 -62.5 -48 -142 q-16.5 -79.5 -16.5 -162.5 q0 -107 30 -153.5 q30 -46.5 96 -46.5 ZM1043 834 q-38 0 -73.5 -16.5 q-35.5 -16.5 -63.5 -47.5 l-67 -561 q20 -11 41 -15 q21 -4 44 -4 q58 0 103.5 38 q45.5 38 77 100.5 q31.5 62.5 48 142.5 q16.5 80 16.5 163 q0 107 -30 153.5 q-30 46.5 -96 46.5 Z" /><glyph glyph-name="" unicode="&#x446;" d="M1034 1031 l-109 -900 l8 63 l175 0 l-114 -459 q-5 -36 -29 -57 q-24 -21 -56 -21 l-167 0 l100 343 l-73 0 q-98 0 -98 93 l3 93 q-76 -102 -166 -151.5 q-90 -49.5 -185 -49.5 q-65 0 -117 26 q-52 26 -86 76 q-34 50 -48 122.5 q-14 72.5 -2 166.5 l77 655 l276 0 l-78 -655 q-11 -93 9.5 -131.5 q20.5 -38.5 74.5 -38.5 q36 0 74.5 20.5 q38.5 20.5 74 58.5 q35.5 38 66 92 q30.5 54 50.5 120 l65 534 l275 0 Z" /><glyph glyph-name="" unicode="&#x45f;" d="M1034 1031 l-125 -1031 l-140 0 q-98 0 -98 93 l3 93 q-64 -85 -136 -133 l-39 -318 q-5 -36 -29 -57 q-24 -21 -56 -21 l-166 0 l40 330 q-57 7 -102.5 35.5 q-45.5 28.5 -75 78 q-29.5 49.5 -40.5 119 q-11 69.5 0 156.5 l77 655 l276 0 l-78 -655 q-11 -93 9.5 -131.5 q20.5 -38.5 74.5 -38.5 q36 0 74.5 20.5 q38.5 20.5 74 58.5 q35.5 38 66 92 q30.5 54 50.5 120 l65 534 l275 0 Z" /><glyph glyph-name="" unicode="&#x447;" d="M107 1031 l275 0 l-48 -388 q-8 -57 12 -93.5 q20 -36.5 73 -36.5 q31 0 61.5 11 q30.5 11 58 32 q27.5 21 50.5 52.5 q23 31.5 38 73.5 l42 349 l275 0 l-123 -1031 l-276 0 l50 417 q-126 -125 -297 -125 q-68 0 -117.5 25.5 q-49.5 25.5 -80 71.5 q-30.5 46 -41.5 111 q-11 65 -1 143 l49 388 Z" /><glyph glyph-name="" unicode="&#x448;" d="M977 1031 l-78 -655 q-11 -93 5 -131.5 q16 -38.5 65 -38.5 q36 0 69 19.5 q33 19.5 62 55.5 q29 36 54 87.5 q25 51.5 43 115.5 l66 547 l271 0 l-125 -1031 l-142 0 q-43 0 -67 21 q-24 21 -24 66 l2 88 q-68 -97 -144.5 -143.5 q-76.5 -46.5 -161.5 -46.5 q-92 0 -148 60 q-56 60 -68 175 q-71 -121 -155.5 -178 q-84.5 -57 -187.5 -57 q-65 0 -116 26 q-51 26 -83 76 q-32 50 -44 122.5 q-12 72.5 0 166.5 l77 655 l272 0 l-77 -655 q-12 -93 5.5 -131.5 q17.5 -38.5 65.5 -38.5 q34 0 66.5 18.5 q32.5 18.5 62 54 q29.5 35.5 54.5 85.5 q25 50 43 113 l66 554 l272 0 Z" /><glyph glyph-name="" unicode="&#x449;" d="M1534 1031 l-102 -837 l174 0 l-115 -459 q-4 -36 -28 -57 q-24 -21 -56 -21 l-167 0 l99 343 l-72 0 q-43 0 -67 21 q-24 21 -24 66 l2 88 q-68 -97 -144.5 -143.5 q-76.5 -46.5 -161.5 -46.5 q-92 0 -148 60 q-56 60 -68 175 q-71 -121 -155.5 -178 q-84.5 -57 -187.5 -57 q-65 0 -116 26 q-51 26 -83 76 q-32 50 -44 122.5 q-12 72.5 0 166.5 l77 655 l272 0 l-77 -655 q-12 -93 5.5 -131.5 q17.5 -38.5 65.5 -38.5 q34 0 66.5 18.5 q32.5 18.5 62 54 q29.5 35.5 54.5 85.5 q25 50 43 113 l66 554 l272 0 l-78 -655 q-11 -93 5 -131.5 q16 -38.5 65 -38.5 q36 0 69 19.5 q33 19.5 62 55.5 q29 36 54 87.5 q25 51.5 43 115.5 l66 547 l271 0 Z" /><glyph glyph-name="" unicode="&#x44a;" d="M54 931 q7 45 37.5 72.5 q30.5 27.5 83.5 27.5 l474 0 l-23 -136 q-22 -39 -39.5 -75.5 q-17.5 -36.5 -31 -73 q-13.5 -36.5 -23.5 -74 q-10 -37.5 -17 -78.5 q63 64 137.5 97.5 q74.5 33.5 142.5 33.5 q49 0 91.5 -17.5 q42.5 -17.5 73.5 -50.5 q31 -33 48.5 -80 q17.5 -47 17.5 -106 q0 -53 -14.5 -109.5 q-14.5 -56.5 -42.5 -110.5 q-28 -54 -69.5 -102.5 q-41.5 -48.5 -96 -84.5 q-54.5 -36 -122 -57.5 q-67.5 -21.5 -146.5 -21.5 q-75 0 -135.5 21 q-60.5 21 -103 63 q-42.5 42 -65.5 105.5 q-23 63.5 -23 149.5 q0 61 7.5 122 q7.5 61 25.5 124 q18 63 49 128 q31 65 78 136 l-326 0 l12 97 ZM573 171 q44 0 80.5 24 q36.5 24 62.5 62.5 q26 38.5 40.5 85.5 q14.5 47 14.5 93 q0 20 -3.5 38.5 q-3.5 18.5 -12.5 33 q-9 14.5 -24.5 23.5 q-15.5 9 -39.5 9 q-38 0 -77 -22 q-39 -22 -70 -58.5 q-31 -36.5 -50.5 -84 q-19.5 -47.5 -19.5 -98.5 q0 -54 28 -80 q28 -26 71 -26 Z" /><glyph glyph-name="" unicode="&#x44b;" d="M1309 1031 l-124 -1031 l-275 0 l123 1031 l276 0 ZM420 1031 l-54 -441 q31 32 65.5 57 q34.5 25 69.5 42.5 q35 17.5 69 26.5 q34 9 66 9 q53 0 97.5 -17.5 q44.5 -17.5 77 -50.5 q32.5 -33 50.5 -80 q18 -47 18 -107 q0 -99 -42.5 -187 q-42.5 -88 -115.5 -154.5 q-73 -66.5 -170.5 -105 q-97.5 -38.5 -207.5 -38.5 q-159 0 -229.5 75.5 q-70.5 75.5 -53.5 215.5 l91 755 l269 0 ZM326 256 q-5 -36 22 -60.5 q27 -24.5 81 -24.5 q42 0 78 24.5 q36 24.5 62 62.5 q26 38 40.5 84 q14.5 46 14.5 90 q0 21 -3.5 40.5 q-3.5 19.5 -13 34.5 q-9.5 15 -26 24 q-16.5 9 -41.5 9 q-36 0 -71.5 -22.5 q-35.5 -22.5 -65 -58 q-29.5 -35.5 -49 -79.5 q-19.5 -44 -24.5 -88 l-4 -36 Z" /><glyph glyph-name="" unicode="&#x44c;" d="M420 1031 l-54 -441 q31 32 65.5 57 q34.5 25 69.5 42.5 q35 17.5 69 26.5 q34 9 66 9 q53 0 97.5 -17.5 q44.5 -17.5 77 -50.5 q32.5 -33 50.5 -80 q18 -47 18 -107 q0 -99 -42.5 -187 q-42.5 -88 -115.5 -154.5 q-73 -66.5 -170.5 -105 q-97.5 -38.5 -207.5 -38.5 q-159 0 -229.5 75.5 q-70.5 75.5 -53.5 215.5 l91 755 l269 0 ZM326 256 q-5 -36 22 -60.5 q27 -24.5 81 -24.5 q42 0 78 24.5 q36 24.5 62 62.5 q26 38 40.5 84 q14.5 46 14.5 90 q0 21 -3.5 40.5 q-3.5 19.5 -13 34.5 q-9.5 15 -26 24 q-16.5 9 -41.5 9 q-36 0 -71.5 -22.5 q-35.5 -22.5 -65 -58 q-29.5 -35.5 -49 -79.5 q-19.5 -44 -24.5 -88 l-4 -36 Z" /><glyph glyph-name="" unicode="&#x44d;" d="M67 919 q78 58 167.5 92.5 q89.5 34.5 205.5 34.5 q99 0 175.5 -31.5 q76.5 -31.5 129 -91 q52.5 -59.5 80 -145 q27.5 -85.5 27.5 -193.5 q0 -131 -43 -241.5 q-43 -110.5 -118 -190 q-75 -79.5 -177.5 -124 q-102.5 -44.5 -222.5 -44.5 q-104 0 -178.5 35.5 q-74.5 35.5 -131.5 109.5 l80 94 q9 11 22.5 19 q13.5 8 27.5 8 q18 0 33 -9.5 q15 -9.5 34 -21 q19 -11.5 45.5 -21 q26.5 -9.5 67.5 -9.5 q108 0 180 65.5 q72 65.5 99 181.5 l-384 0 l23 178 l375 0 q-8 118 -58.5 173.5 q-50.5 55.5 -138.5 55.5 q-36 0 -65.5 -10 q-29.5 -10 -54.5 -22 q-25 -12 -46.5 -22 q-21.5 -10 -42.5 -10 q-30 0 -43 11 q-13 11 -20 24 l-48 104 Z" /><glyph glyph-name="" unicode="&#x454;" d="M837 182 q-50 -56 -96.5 -93.5 q-46.5 -37.5 -95 -60.5 q-48.5 -23 -102.5 -33 q-54 -10 -119 -10 q-90 0 -161.5 30.5 q-71.5 30.5 -122 87 q-50.5 56.5 -77 136.5 q-26.5 80 -26.5 179 q0 126 41 239.5 q41 113.5 114 200 q73 86.5 173.5 137.5 q100.5 51 219.5 51 q103 0 176 -36 q73 -36 130 -110 l-80 -94 q-9 -11 -22.5 -19 q-13.5 -8 -27.5 -8 q-18 0 -32 9.5 q-14 9.5 -31.5 20.5 q-17.5 11 -42.5 20.5 q-25 9.5 -66 9.5 q-86 0 -154 -59 q-68 -59 -103 -165 l369 0 l-22 -178 l-375 0 l0 -12 q0 -54 13 -98 q13 -44 37 -75.5 q24 -31.5 59 -48.5 q35 -17 80 -17 q53 0 87 15 q34 15 58 33 q24 18 43.5 33 q19.5 15 45.5 15 q14 0 26.5 -7 q12.5 -7 21.5 -18 l62 -75 l0 0 Z" /><glyph glyph-name="" unicode="&#x44e;" d="M1390 619 q0 -90 -18.5 -172 q-18.5 -82 -53 -152.5 q-34.5 -70.5 -82.5 -127.5 q-48 -57 -106 -97.5 q-58 -40.5 -123.5 -62.5 q-65.5 -22 -135.5 -22 q-78 0 -143 28 q-65 28 -111.5 82.5 q-46.5 54.5 -72.5 134 q-26 79.5 -26 182.5 l0 17 l-169 0 l-53 -429 l-265 0 l127 1030 l266 0 l-52 -414 l170 0 q24 96 70 175.5 q46 79.5 108.5 136.5 q62.5 57 138 88 q75.5 31 159.5 31 q78 0 146 -28.5 q68 -28.5 118 -83 q50 -54.5 79 -134 q29 -79.5 29 -182.5 ZM900 192 q50 0 90 34.5 q40 34.5 68 93 q28 58.5 42.5 136.5 q14.5 78 14.5 164 q-1 115 -30.5 167 q-29.5 52 -94.5 52 q-50 0 -90 -34 q-40 -34 -67.5 -92.5 q-27.5 -58.5 -42 -136 q-14.5 -77.5 -14.5 -164.5 q2 -114 31 -167 q29 -53 93 -53 Z" /><glyph glyph-name="" unicode="&#x44f;" d="M853 0 l-252 0 l50 408 l-92 0 q-27 -1 -45 -7.5 q-18 -6.5 -31.5 -17.5 q-13.5 -11 -23.5 -25.5 q-10 -14.5 -20 -31.5 l-108 -194 q-26 -47 -56.5 -75.5 q-30.5 -28.5 -64 -43.5 q-33.5 -15 -69 -19.5 q-35.5 -4.5 -71.5 -4.5 q-63 0 -86 10 q-23 10 -21 37 l20 153 l33 0 q38 0 66.5 16 q28.5 16 51.5 51 l59 96 q26 42 59.5 68 q33.5 26 78.5 40 q-57 12 -95.5 36.5 q-38.5 24.5 -62.5 56 q-24 31.5 -34.5 68.5 q-10.5 37 -10.5 75 q0 58 25 117.5 q25 59.5 77 107.5 q52 48 133 78.5 q81 30.5 193 30.5 l424 0 l-127 -1030 ZM394 688 q0 -60 31.5 -89 q31.5 -29 85.5 -29 l159 0 l36 290 l-148 0 q-48 0 -79.5 -17 q-31.5 -17 -50.5 -42.5 q-19 -25.5 -26.5 -56 q-7.5 -30.5 -7.5 -56.5 Z" /><glyph glyph-name="" unicode="&#x452;" d="M48 1273 l139 0 l27 217 l266 0 l-27 -217 l273 0 l-25 -197 l-272 0 l-35 -281 q69 77 145.5 117.5 q76.5 40.5 166.5 40.5 q132 0 198 -95.5 q66 -95.5 66 -268.5 q0 -114 -22.5 -230 q-22.5 -116 -63.5 -231.5 q-41 -115.5 -98.5 -229.5 q-57.5 -114 -126.5 -223 l-205 80 q71 127 118.5 237.5 q47.5 110.5 76 208 q28.5 97.5 40.5 183.5 q12 86 12 164 q0 107 -27 154.5 q-27 47.5 -81 47.5 q-56 0 -116 -53.5 q-60 -53.5 -114 -154.5 l-67 -542 l-265 0 l132 1076 l-139 0 l24 197 Z" /><glyph glyph-name="" unicode="&#x463;" d="M69 1031 l222 0 l33 263 l269 0 l-33 -263 l264 0 l-25 -197 l-263 0 l-12 -104 l-1 0 l-17 -140 q31 32 65.5 57 q34.5 25 69.5 42.5 q35 17.5 69 26.5 q34 9 66 9 q53 0 97.5 -17.5 q44.5 -17.5 77 -50.5 q32.5 -33 50.5 -80 q18 -47 18 -107 q0 -99 -42.5 -187 q-42.5 -88 -115.5 -154.5 q-73 -66.5 -170.5 -105 q-97.5 -38.5 -207.5 -38.5 q-159 0 -229.5 75.5 q-70.5 75.5 -53.5 215.5 l55 455 l12 103 l-222 0 l24 197 ZM466 256 q-5 -36 22 -60.5 q27 -24.5 81 -24.5 q42 0 78 24.5 q36 24.5 62 62.5 q26 38 40.5 84 q14.5 46 14.5 90 q0 21 -3.5 40.5 q-3.5 19.5 -13 34.5 q-9.5 15 -26 24 q-16.5 9 -41.5 9 q-36 0 -71.5 -22.5 q-35.5 -22.5 -65 -58 q-29.5 -35.5 -49 -79.5 q-19.5 -44 -24.5 -88 l-4 -36 Z" /><glyph glyph-name="" unicode="&#x203d;" d="M498 1427 q17 6 39.5 11.5 q22.5 5.5 47.5 9.5 q25 4 50.5 6.5 q25.5 2.5 49.5 2.5 q67 0 121 -17.5 q54 -17.5 92.5 -51.5 q38.5 -34 59 -84.5 q20.5 -50.5 20.5 -116.5 q0 -71 -16 -124 q-16 -53 -42.5 -92.5 q-26.5 -39.5 -61.5 -69 q-35 -29.5 -72.5 -53.5 q-37.5 -24 -75.5 -45.5 q-38 -21.5 -70.5 -45.5 q-32.5 -24 -57.5 -53 q-25 -29 -37 -69 l-43 -129 l-165 0 q-19 68 -36 148.5 q-17 80.5 -30 157.5 l-103 607 l253 61 l50 -435 q3 -27 6.5 -81.5 q3.5 -54.5 5.5 -115.5 q39 46 82.5 77.5 q43.5 31.5 80 62 q36.5 30.5 61 67 q24.5 36.5 24.5 92.5 q0 47 -25.5 72.5 q-25.5 25.5 -64.5 25.5 q-23 0 -43 -4 q-20 -4 -28 -4 q-30 0 -42.5 11 q-12.5 11 -12.5 32 l-17 147 ZM193 145 q0 33 12.5 62.5 q12.5 29.5 34 51 q21.5 21.5 51.5 34 q30 12.5 65 12.5 q34 0 63.5 -12.5 q29.5 -12.5 51.5 -34 q22 -21.5 34.5 -51 q12.5 -29.5 12.5 -62.5 q0 -34 -12.5 -63 q-12.5 -29 -34.5 -50.5 q-22 -21.5 -51.5 -33.5 q-29.5 -12 -63.5 -12 q-35 0 -65 12 q-30 12 -51.5 33.5 q-21.5 21.5 -34 50.5 q-12.5 29 -12.5 63 Z" /><glyph glyph-name="" unicode="¦" d="M166 1552 l213 0 l0 -814 l-213 0 l0 814 ZM166 481 l213 0 l0 -814 l-213 0 l0 814 Z" /><glyph glyph-name="" unicode="&#x2117;" d="M95 726 q0 102 26.5 197 q26.5 95 74.5 177 q48 82 116 150 q68 68 150 116 q82 48 176.5 74.5 q94.5 26.5 196.5 26.5 q102 0 197 -26.5 q95 -26.5 177.5 -74.5 q82.5 -48 150 -116 q67.5 -68 116 -150 q48.5 -82 75 -177 q26.5 -95 26.5 -197 q0 -102 -26.5 -196.5 q-26.5 -94.5 -75 -176.5 q-48.5 -82 -116 -150 q-67.5 -68 -150 -116 q-82.5 -48 -177.5 -74.5 q-95 -26.5 -197 -26.5 q-102 0 -196.5 26.5 q-94.5 26.5 -176.5 74.5 q-82 48 -150 116 q-68 68 -116 150 q-48 82 -74.5 176.5 q-26.5 94.5 -26.5 196.5 ZM244 726 q0 -129 45.5 -240.5 q45.5 -111.5 125 -194 q79.5 -82.5 187.5 -130 q108 -47.5 233 -47.5 q84 0 160.5 21.5 q76.5 21.5 143 61 q66.5 39.5 120.5 95 q54 55.5 92.5 123.5 q38.5 68 59.5 146.5 q21 78.5 21 164.5 q0 86 -21 165 q-21 79 -59.5 147.5 q-38.5 68.5 -92.5 124.5 q-54 56 -120.5 96 q-66.5 40 -143 61.5 q-76.5 21.5 -160.5 21.5 q-125 0 -233 -48 q-108 -48 -187.5 -131 q-79.5 -83 -125 -195.5 q-45.5 -112.5 -45.5 -241.5 ZM767 562 l0 -283 l-239 0 l0 899 l336 0 q97 0 167.5 -24.5 q70.5 -24.5 116 -67 q45.5 -42.5 67 -99 q21.5 -56.5 21.5 -119.5 q0 -60 -21.5 -115 q-21.5 -55 -67 -97.5 q-45.5 -42.5 -116.5 -68 q-71 -25.5 -169 -25.5 l-95 0 ZM767 729 l77 0 q52 0 83 10.5 q31 10.5 47.5 29 q16.5 18.5 21.5 44 q5 25.5 5 55.5 q0 29 -5 53 q-5 24 -19.5 41.5 q-14.5 17.5 -41.5 27.5 q-27 10 -71 10 l-97 0 l0 -271 Z" /><glyph glyph-name="" unicode="&#x2120;" d="M988 1177 q13 -38 20 -73 q8 19 17.5 37 q9.5 18 21.5 36 l132 246 q16 18 27.5 22.5 q11.5 4.5 34.5 4.5 l157 0 l-74 -606 l-160 0 l34 289 l23 94 l-157 -285 q-11 -19 -29 -28.5 q-18 -9.5 -38 -9.5 l-26 0 q-43 0 -57 38 l-85 282 l-2 -91 l-35 -289 l-159 0 l74 606 l158 0 q23 0 33 -4.5 q10 -4.5 22 -22.5 l68 -246 ZM564 1318 q-18 -24 -41 -24 q-11 0 -21 5.5 q-10 5.5 -23 12.5 q-13 7 -29 12.5 q-16 5.5 -38 5.5 q-23 0 -40.5 -12.5 q-17.5 -12.5 -17.5 -36.5 q0 -16 16 -25 q16 -9 40 -17 q24 -8 52 -18.5 q28 -10.5 52 -29 q24 -18.5 40 -47.5 q16 -29 16 -74 q0 -49 -17 -92 q-17 -43 -48.5 -75 q-31.5 -32 -76 -50.5 q-44.5 -18.5 -100.5 -18.5 q-26 0 -54 6 q-28 6 -54.5 17.5 q-26.5 11.5 -49.5 26.5 q-23 15 -39 33 l54 80 q7 10 18 16 q11 6 22 6 q14 0 26 -7.5 q12 -7.5 25.5 -16 q13.5 -8.5 31 -16 q17.5 -7.5 43.5 -7.5 q29 0 42.5 15.5 q13.5 15.5 13.5 41.5 q0 20 -16 30.5 q-16 10.5 -40 18.5 q-24 8 -51.5 17.5 q-27.5 9.5 -51.5 27 q-24 17.5 -40 47 q-16 29.5 -16 77.5 q0 43 16.5 83 q16.5 40 47 70 q30.5 30 74 48 q43.5 18 98.5 18 q55 0 103 -18.5 q48 -18.5 76 -48.5 l-43 -81 Z" /><glyph glyph-name="" unicode="¤" d="M211 673 q0 51 13 97.5 q13 46.5 36 87.5 l-154 153 l139 134 l151 -150 q42 24 89 37.5 q47 13.5 100 13.5 q51 0 96.5 -12.5 q45.5 -12.5 87.5 -35.5 l153 152 l137 -135 l-152 -151 q26 -42 39.5 -90 q13.5 -48 13.5 -101 q0 -51 -13 -97 q-13 -46 -36 -87 l153 -152 l-139 -135 l-151 149 q-42 -24 -89.5 -37 q-47.5 -13 -99.5 -13 q-51 0 -96.5 12 q-45.5 12 -86.5 35 l-153 -151 l-137 135 l151 150 q-25 42 -38.5 90 q-13.5 48 -13.5 101 ZM414 673 q0 -35 13.5 -67 q13.5 -32 36.5 -56 q23 -24 54.5 -38 q31.5 -14 66.5 -14 q36 0 68 14 q32 14 55 38 q23 24 36.5 56 q13.5 32 13.5 67 q0 37 -13.5 69.5 q-13.5 32.5 -36.5 56.5 q-23 24 -55 37.5 q-32 13.5 -68 13.5 q-35 0 -66.5 -13.5 q-31.5 -13.5 -54.5 -37.5 q-23 -24 -36.5 -56.5 q-13.5 -32.5 -13.5 -69.5 Z" /><glyph glyph-name="" unicode="&#x2105;" d="M1226 1409 q15 16 35.5 28.5 q20.5 12.5 54.5 12.5 l194 0 l-1176 -1411 q-16 -17 -37 -28 q-21 -11 -48 -11 l-199 0 l1176 1409 ZM563 930 q15 0 26 -11 l70 -87 q-49 -61 -117 -91 q-68 -30 -153 -30 q-72 0 -127.5 25 q-55.5 25 -93 69 q-37.5 44 -56.5 103.5 q-19 59.5 -19 127.5 q0 94 30.5 174 q30.5 80 84 138 q53.5 58 126 90.5 q72.5 32.5 156.5 32.5 q81 0 139 -29 q58 -29 89 -73 l-81 -93 q-7 -9 -16.5 -16 q-9.5 -7 -25.5 -7 q-15 0 -24.5 7.5 q-9.5 7.5 -21.5 16.5 q-12 9 -30 16.5 q-18 7.5 -51 7.5 q-36 0 -67 -17 q-31 -17 -53.5 -49 q-22.5 -32 -35.5 -78 q-13 -46 -13 -104 q0 -41 9.5 -73 q9.5 -32 26.5 -54.5 q17 -22.5 40 -34.5 q23 -12 49 -12 q32 0 55.5 7 q23.5 7 49.5 31 q8 5 17 9 q9 4 17 4 ZM1553 410 q0 -88 -31.5 -165.5 q-31.5 -77.5 -87.5 -135.5 q-56 -58 -133 -91.5 q-77 -33.5 -167 -33.5 q-76 0 -136.5 26.5 q-60.5 26.5 -102.5 71.5 q-42 45 -64 106 q-22 61 -22 130 q0 88 31.5 166 q31.5 78 87 136 q55.5 58 132.5 91.5 q77 33.5 167 33.5 q76 0 136.5 -26.5 q60.5 -26.5 102.5 -72 q42 -45.5 64.5 -106.5 q22.5 -61 22.5 -130 ZM1346 404 q0 78 -35.5 124.5 q-35.5 46.5 -104.5 46.5 q-46 0 -81.5 -18 q-35.5 -18 -60 -50.5 q-24.5 -32.5 -37 -79 q-12.5 -46.5 -12.5 -103.5 q0 -78 35 -124 q35 -46 105 -46 q46 0 81.5 17.5 q35.5 17.5 60 50.5 q24.5 33 37 79 q12.5 46 12.5 103 Z" /><glyph glyph-name="" unicode="&#x2116;" d="M426 1450 q19 0 32 -1.5 q13 -1.5 22.5 -6.5 q9.5 -5 18 -14 q8.5 -9 18.5 -24 l543 -938 q2 35 4 69 q2 34 6 64 l103 851 l255 0 l-178 -1450 l-151 0 q-33 0 -54.5 11 q-21.5 11 -39.5 38 l-540 933 q-2 -33 -4.5 -64.5 q-2.5 -31.5 -5.5 -57.5 l-104 -860 l-255 0 l178 1450 l152 0 ZM2188 1170 q0 -78 -28 -146.5 q-28 -68.5 -77.5 -119.5 q-49.5 -51 -118 -81 q-68.5 -30 -148.5 -30 q-68 0 -121.5 23.5 q-53.5 23.5 -91 63.5 q-37.5 40 -57.5 94 q-20 54 -20 115 q0 78 28 147 q28 69 77.5 120.5 q49.5 51.5 118 81 q68.5 29.5 149.5 29.5 q67 0 121 -23.5 q54 -23.5 91 -63.5 q37 -40 57 -94.5 q20 -54.5 20 -115.5 ZM1482 699 l640 0 l-23 -184 l-640 0 l23 184 ZM1982 1163 q0 62 -27 97.5 q-27 35.5 -79 35.5 q-71 0 -108.5 -53 q-37.5 -53 -37.5 -142 q0 -61 26.5 -97 q26.5 -36 79.5 -36 q70 0 108 52.5 q38 52.5 38 142.5 Z" /><glyph glyph-name="" unicode="&#x2080;" d="M568 216 q0 -114 -27.5 -199 q-27.5 -85 -74 -140.5 q-46.5 -55.5 -108.5 -83 q-62 -27.5 -130 -27.5 q-53 0 -98 19 q-45 19 -77.5 57 q-32.5 38 -50.5 95.5 q-18 57.5 -18 134.5 q0 115 27 200.5 q27 85.5 73 141.5 q46 56 107 83.5 q61 27.5 130 27.5 q54 0 99 -19 q45 -19 78 -57.5 q33 -38.5 51.5 -96.5 q18.5 -58 18.5 -136 ZM379 239 q0 42 -5.5 68.5 q-5.5 26.5 -16 41.5 q-10.5 15 -24.5 20.5 q-14 5.5 -32 5.5 q-22 0 -45 -10 q-23 -10 -41.5 -43.5 q-18.5 -33.5 -30 -96.5 q-11.5 -63 -11.5 -169 q0 -43 5.5 -70 q5.5 -27 15 -42.5 q9.5 -15.5 23 -21.5 q13.5 -6 29.5 -6 q28 0 52.5 13 q24.5 13 42.5 48.5 q18 35.5 28 98.5 q10 63 10 163 Z" /><glyph glyph-name="" unicode="&#x2081;" d="M62 -90 l135 0 l39 327 l11 50 l-74 -53 q-14 -9 -27 -11 q-13 -2 -24 0 q-11 2 -19 7.5 q-8 5.5 -12 11.5 l-49 80 l259 196 l161 0 l-75 -608 l95 0 l-16 -136 l-421 0 l17 136 Z" /><glyph glyph-name="" unicode="&#x2082;" d="M330 525 q56 0 98 -15 q42 -15 70 -41.5 q28 -26.5 42 -62 q14 -35.5 14 -75.5 q0 -46 -15 -84 q-15 -38 -40.5 -71.5 q-25.5 -33.5 -58.5 -64.5 q-33 -31 -69 -63 l-136 -123 q31 8 60.5 13 q29.5 5 53.5 5 l112 0 q29 0 44.5 -16 q15.5 -16 10.5 -42 l-12 -111 l-551 0 l8 61 q2 17 11.5 37 q9.5 20 28.5 36 l231 203 q26 24 49 49.5 q23 25.5 40.5 51 q17.5 25.5 27.5 51 q10 25.5 10 48.5 q0 28 -14 46 q-14 18 -43 18 q-29 0 -48.5 -14 q-19.5 -14 -36.5 -43 q-17 -24 -36.5 -33 q-19.5 -9 -56.5 -4 l-103 17 q32 117 114 172 q82 55 195 55 Z" /><glyph glyph-name="" unicode="&#x2083;" d="M330 525 q54 0 95.5 -15 q41.5 -15 69.5 -40 q28 -25 42.5 -57 q14.5 -32 14.5 -66 q0 -66 -28 -111 q-28 -45 -94 -70 q48 -18 71 -49.5 q23 -31.5 23 -82.5 q0 -69 -26.5 -119.5 q-26.5 -50.5 -69.5 -83.5 q-43 -33 -96 -49 q-53 -16 -105 -16 q-53 0 -95 10 q-42 10 -73.5 33.5 q-31.5 23.5 -53 62 q-21.5 38.5 -33.5 96.5 l87 34 q34 12 61 6.5 q27 -5.5 35 -27.5 q8 -24 27 -42 q19 -18 54 -18 q45 0 71 26.5 q26 26.5 26 70.5 q0 41 -29.5 55.5 q-29.5 14.5 -101.5 14.5 l16 131 q83 0 114.5 21 q31.5 21 31.5 71 q0 27 -15 44 q-15 17 -47 17 q-33 0 -52 -14 q-19 -14 -33 -38 q-17 -28 -35 -36 q-18 -8 -54 -3 l-97 17 q16 58 45 101 q29 43 68.5 71 q39.5 28 86.5 41.5 q47 13.5 99 13.5 Z" /><glyph glyph-name="" unicode="&#x2084;" d="M470 76 l89 0 l-13 -109 q-2 -14 -12.5 -25 q-10.5 -11 -27.5 -11 l-54 0 l-19 -157 l-160 0 l19 157 l-284 0 q-24 0 -37 12 q-13 12 -15 29 l-7 91 l391 454 l184 0 l-54 -441 ZM327 212 q3 25 8.5 54.5 q5.5 29.5 13.5 61.5 l-212 -252 l173 0 l17 136 Z" /><glyph glyph-name="" unicode="&#x2085;" d="M536 440 q-5 -38 -33 -63 q-28 -25 -87 -25 l-153 0 l-29 -99 q70 12 123.5 2 q53.5 -10 89.5 -36 q36 -26 54 -65.5 q18 -39.5 18 -86.5 q0 -65 -25 -120 q-25 -55 -68.5 -95.5 q-43.5 -40.5 -104 -63 q-60.5 -22.5 -130.5 -22.5 q-74 0 -130 30 q-56 30 -94 74 l68 76 q10 14 23 20 q13 6 25 6 q18 0 30.5 -8.5 q12.5 -8.5 26.5 -18.5 q14 -10 33 -18.5 q19 -8.5 49 -8.5 q48 0 76 30.5 q28 30.5 28 84.5 q0 55 -45 71 q-45 16 -132 -13 l-109 30 l115 396 l390 0 l-9 -77 Z" /><glyph glyph-name="" unicode="&#x2086;" d="M346 304 q-23 -24 -51.5 -46 q-28.5 -22 -57.5 -48 q27 17 57.5 26.5 q30.5 9.5 63.5 9.5 q32 0 65 -10 q33 -10 59.5 -32.5 q26.5 -22.5 43.5 -58 q17 -35.5 17 -86.5 q0 -59 -23.5 -112.5 q-23.5 -53.5 -65 -93.5 q-41.5 -40 -98.5 -63.5 q-57 -23.5 -124 -23.5 q-59 0 -104.5 18 q-45.5 18 -76.5 49.5 q-31 31.5 -47 74.5 q-16 43 -16 94 q0 74 28.5 135.5 q28.5 61.5 84.5 123.5 l185 214 q14 17 41.5 29.5 q27.5 12.5 61.5 12.5 l166 0 l-209 -213 ZM174 -6 q0 -38 20.5 -62.5 q20.5 -24.5 60.5 -24.5 q21 0 40.5 8.5 q19.5 8.5 35 24 q15.5 15.5 24.5 36.5 q9 21 9 47 q0 41 -20.5 63 q-20.5 22 -61.5 22 q-50 0 -79 -31 q-29 -31 -29 -83 Z" /><glyph glyph-name="" unicode="&#x2087;" d="M591 517 l-16 -127 l-364 -616 l-206 0 l307 492 q30 48 64 82 l-294 0 q-15 0 -27 12 q-12 12 -9 29 l16 128 l529 0 Z" /><glyph glyph-name="" unicode="&#x2088;" d="M231 -234 q-57 0 -102.5 14.5 q-45.5 14.5 -77.5 41 q-32 26.5 -49.5 63 q-17.5 36.5 -17.5 81.5 q0 32 7 61.5 q7 29.5 23 55 q16 25.5 43 46 q27 20.5 66 34.5 q-74 41 -74 132 q0 50 21.5 92 q21.5 42 59 73 q37.5 31 87.5 48 q50 17 107 17 q49 0 89.5 -14 q40.5 -14 70 -39 q29.5 -25 45.5 -59 q16 -34 16 -73 q0 -63 -27 -108.5 q-27 -45.5 -84 -71.5 q53 -23 75 -60 q22 -37 22 -83 q0 -57 -22.5 -103 q-22.5 -46 -62.5 -79 q-40 -33 -95 -51 q-55 -18 -120 -18 ZM247 -93 q48 0 70.5 29.5 q22.5 29.5 22.5 82.5 q0 67 -71 67 q-45 0 -68.5 -23.5 q-23.5 -23.5 -23.5 -83.5 q0 -29 16 -50.5 q16 -21.5 54 -21.5 ZM287 228 q45 0 65 25 q20 25 20 71 q0 23 -15.5 44 q-15.5 21 -50.5 21 q-22 0 -37.5 -8 q-15.5 -8 -25.5 -21 q-10 -13 -14.5 -30 q-4.5 -17 -4.5 -35 q0 -67 63 -67 Z" /><glyph glyph-name="" unicode="&#x2089;" d="M228 10 q22 22 44 41.5 q22 19.5 42 42.5 q-23 -11 -50 -16 q-27 -5 -55 -5 q-33 0 -66.5 12.5 q-33.5 12.5 -60.5 36.5 q-27 24 -43.5 59 q-16.5 35 -16.5 80 q0 49 22 96 q22 47 62 84.5 q40 37.5 94 60.5 q54 23 119 23 q57 0 101 -16.5 q44 -16.5 73.5 -46 q29.5 -29.5 45 -69.5 q15.5 -40 15.5 -88 q0 -86 -30.5 -152.5 q-30.5 -66.5 -80.5 -126.5 l-177 -210 q-14 -17 -41.5 -29.5 q-27.5 -12.5 -59.5 -12.5 l-170 0 l233 236 ZM384 307 q0 36 -21.5 57 q-21.5 21 -56.5 21 q-49 0 -75 -28.5 q-26 -28.5 -26 -78.5 q0 -76 79 -76 q45 0 72.5 26.5 q27.5 26.5 27.5 78.5 Z" /><glyph glyph-name="" unicode="&#x208a;" d="M381 389 l-24 -191 l179 0 l-16 -136 l-180 0 l-24 -193 l-150 0 l24 193 l-178 0 l16 136 l179 0 l24 191 l150 0 Z" /><glyph glyph-name="" unicode="&#x208b;" d="M46 198 l471 0 l-16 -136 l-472 0 l17 136 Z" /><glyph glyph-name="" unicode="&#x208d;" d="M140 34 q0 -32 2.5 -69 q2.5 -37 7 -74 q4.5 -37 11.5 -72.5 q7 -35.5 17 -64.5 q10 -29 0.5 -45 q-9.5 -16 -25.5 -25 l-89 -50 q-22 43 -38.5 91.5 q-16.5 48.5 -27 98.5 q-10.5 50 -16 100.5 q-5.5 50.5 -5.5 97.5 q0 165 49.5 312 q49.5 147 159.5 292 l76 -49 q7 -5 12.5 -11 q5.5 -6 7.5 -14.5 q2 -8.5 -0.5 -19 q-2.5 -10.5 -11.5 -25.5 q-57 -103 -93.5 -221 q-36.5 -118 -36.5 -252 Z" /><glyph glyph-name="" unicode="&#x208e;" d="M74 226 q0 32 -2.5 68.5 q-2.5 36.5 -7 73 q-4.5 36.5 -12 72 q-7.5 35.5 -16.5 64.5 q-12 29 -1.5 44.5 q10.5 15.5 27.5 24.5 l90 48 q21 -42 37 -90 q16 -48 26.5 -98.5 q10.5 -50.5 15.5 -100.5 q5 -50 5 -97 q0 -83 -12 -160 q-12 -77 -37 -151.5 q-25 -74.5 -64.5 -147 q-39.5 -72.5 -94.5 -145.5 l-75 50 q-8 4 -13.5 10 q-5.5 6 -8 14 q-2.5 8 0.5 19 q3 11 12 25 q57 103 93.5 223 q36.5 120 36.5 254 Z" /><glyph glyph-name="" unicode="&#x2212;" d="M151 769 l893 0 l-25 -194 l-891 0 l23 194 Z" /><glyph glyph-name="" unicode="×" d="M1086 993 l-361 -321 l296 -337 l-156 -137 l-295 336 l-380 -338 l-122 137 l380 339 l-283 323 l157 137 l282 -322 l359 320 l123 -137 Z" /><glyph glyph-name="" unicode="&#x212e;" d="M500 718 l0 -157 q0 -84 28.5 -157 q28.5 -73 82.5 -128 q54 -55 131 -86.5 q77 -31.5 175 -31.5 q131 0 240 53 q109 53 194 175 l148 -105 q-47 -71 -107.5 -127.5 q-60.5 -56.5 -139.5 -95.5 q-79 -39 -177 -59.5 q-98 -20.5 -220 -20.5 q-174 0 -314 54.5 q-140 54.5 -238.5 152 q-98.5 97.5 -151.5 233 q-53 135.5 -53 298.5 q0 157 55 293.5 q55 136.5 154 237.5 q99 101 235.5 159 q136.5 58 299.5 58 q122 0 222 -28.5 q100 -28.5 180 -79 q80 -50.5 139.5 -120.5 q59.5 -70 100 -152.5 q40.5 -82.5 61.5 -175.5 q21 -93 25 -190 l-1070 0 ZM500 886 l700 0 l0 43 q0 84 -23.5 151.5 q-23.5 67.5 -67.5 115.5 q-44 48 -108.5 74 q-64.5 26 -146.5 26 q-78 0 -143.5 -27 q-65.5 -27 -112 -76.5 q-46.5 -49.5 -72.5 -118.5 q-26 -69 -26 -152 l0 -36 Z" /><glyph glyph-name="" unicode="&#x2113;" d="M38 641 q42 8 82.5 16.5 q40.5 8.5 80.5 19.5 q13 101 42 198.5 q29 97.5 72.5 185.5 q43.5 88 99.5 163 q56 75 123.5 129.5 q67.5 54.5 145 85 q77.5 30.5 163.5 30.5 q70 0 122.5 -23 q52.5 -23 87.5 -63 q35 -40 52.5 -94 q17.5 -54 17.5 -117 q0 -99 -49 -186.5 q-49 -87.5 -137.5 -163 q-88.5 -75.5 -213 -139.5 q-124.5 -64 -275.5 -116 l0 -6 q0 -104 8.5 -172 q8.5 -68 24 -108 q15.5 -40 38 -55.5 q22.5 -15.5 51.5 -15.5 q33 0 65 17.5 q32 17.5 59.5 46 q27.5 28.5 50.5 65 q23 36.5 40 75.5 l228 -54 q-29 -82 -78.5 -150.5 q-49.5 -68.5 -114.5 -118 q-65 -49.5 -143.5 -77 q-78.5 -27.5 -165.5 -27.5 q-71 0 -129.5 26.5 q-58.5 26.5 -101.5 86 q-43 59.5 -67.5 155 q-24.5 95.5 -26.5 234.5 l-118 -27 l-34 179 ZM807 1266 q-49 0 -100 -39 q-51 -39 -96.5 -106.5 q-45.5 -67.5 -82 -158.5 q-36.5 -91 -56.5 -196 q93 39 171 84.5 q78 45.5 133.5 95.5 q55.5 50 86.5 103.5 q31 53.5 31 109.5 q0 49 -23 78 q-23 29 -64 29 Z" /><glyph glyph-name="" unicode="&#x2190;" d="M91 649 l592 590 l97 -97 q29 -28 23 -56.5 q-6 -28.5 -32 -54.5 l-175 -183 q-31 -30 -58.5 -54.5 q-27.5 -24.5 -53.5 -44.5 q73 9 152.5 14.5 q79.5 5.5 159.5 5.5 l1099 0 l0 -242 l-1099 0 q-80 0 -160 5.5 q-80 5.5 -152 14.5 q26 -20 53.5 -44.5 q27.5 -24.5 58.5 -53.5 l176 -185 q27 -25 32 -54 q5 -29 -24 -57 l-96 -96 l-593 592 Z" /><glyph glyph-name="" unicode="&#x2192;" d="M1909 647 l-592 -590 l-97 97 q-29 28 -23 56.5 q6 28.5 32 54.5 l175 183 q30 30 57.5 54.5 q27.5 24.5 53.5 44.5 q-72 -9 -151.5 -14.5 q-79.5 -5.5 -159.5 -5.5 l-1099 0 l0 242 l1099 0 q80 0 159.5 -5.5 q79.5 -5.5 152.5 -14.5 q-26 20 -53.5 44 q-27.5 24 -58.5 54 l-176 185 q-27 25 -32 54 q-5 29 24 57 l96 96 l593 -592 Z" /><glyph glyph-name="" unicode="&#x2191;" d="M751 1576 l591 -591 l-99 -93 q-29 -28 -58.5 -23 q-29.5 5 -55.5 31 l-174 184 q-61 58 -101 107 q9 -70 15 -147 q6 -77 6 -155 l0 -1115 l-250 0 l0 1115 q0 78 5.5 155.5 q5.5 77.5 15.5 148.5 q-20 -26 -45 -52.5 q-25 -26.5 -55 -56.5 l-175 -185 q-26 -26 -56 -31 q-30 -5 -59 23 l-99 94 l594 591 Z" /><glyph glyph-name="" unicode="&#x2193;" d="M748 -351 l-591 591 l99 94 q29 28 58.5 22.5 q29.5 -5.5 55.5 -31.5 l175 -183 q30 -30 55 -56.5 q25 -26.5 45 -51.5 q-9 70 -14.5 147 q-5.5 77 -5.5 155 l0 1115 l249 0 l0 -1115 q0 -78 -6 -155 q-6 -77 -15 -148 q40 49 100 109 l176 184 q26 26 55.5 31 q29.5 5 58.5 -23 l99 -93 l-594 -592 Z" /><glyph glyph-name="" unicode="&#x2197;" d="M1397 1346 l0 -835 l-139 1 q-41 1 -58 25 q-17 24 -17 60 l0 259 q0 42 1.5 78 q1.5 36 5.5 68 q-45 -57 -96.5 -115 q-51.5 -58 -107.5 -113 l-778 -788 l-176 171 l778 789 q56 55 116.5 106 q60.5 51 118.5 95 q-32 -4 -69.5 -6 q-37.5 -2 -80.5 -2 l-249 0 q-37 -1 -61.5 16 q-24.5 17 -24.5 56 l-2 135 l839 0 Z" /><glyph glyph-name="" unicode="&#x2196;" d="M103 1346 l839 0 l-2 -135 q0 -39 -24.5 -56 q-24.5 -17 -61.5 -16 l-249 0 q-44 0 -81 2 q-37 2 -69 6 q58 -44 118 -95 q60 -51 117 -106 l778 -789 l-176 -171 l-778 788 q-56 55 -108 113 q-52 58 -97 115 q4 -32 6 -68 q2 -36 2 -78 l0 -259 q0 -36 -17 -60 q-17 -24 -58 -25 l-139 -1 l0 835 Z" /><glyph glyph-name="" unicode="&#x2198;" d="M1397 1 l-839 -1 l2 135 q0 39 24.5 56 q24.5 17 61.5 17 l249 0 q85 -2 150 -9 q-58 44 -118 95 q-60 51 -117 107 l-778 788 l176 171 l778 -788 q56 -55 107.5 -113 q51.5 -58 96.5 -115 q-4 32 -5.5 68 q-1.5 36 -1.5 78 l0 260 q0 36 17 60 q17 24 58 24 l139 2 l0 -835 Z" /><glyph glyph-name="" unicode="&#x2199;" d="M103 0 l0 835 l139 -2 q41 0 58 -24 q17 -24 17 -60 l0 -260 q0 -42 -2 -78 q-2 -36 -6 -68 q45 57 97 115 q52 58 108 113 l778 789 l176 -172 l-778 -788 q-57 -56 -117 -107 q-60 -51 -119 -95 q66 8 151 9 l249 0 q37 1 61.5 -16.5 q24.5 -17.5 24.5 -56.5 l2 -135 l-839 1 Z" /><glyph glyph-name="" unicode="&#x2194;" d="M91 649 l592 590 l97 -97 q29 -28 23 -56.5 q-6 -28.5 -32 -54.5 l-175 -183 q-23 -23 -45 -42.5 q-22 -19.5 -42 -36.5 l695 0 q80 0 159.5 -5.5 q79.5 -5.5 152.5 -14.5 q-26 20 -53.5 44 q-27.5 24 -58.5 54 l-176 185 q-27 25 -32 54 q-5 29 24 57 l96 96 l593 -592 l-592 -590 l-97 97 q-29 28 -23 56.5 q6 28.5 32 54.5 l175 183 q30 30 57.5 54.5 q27.5 24.5 53.5 44.5 q-72 -9 -151.5 -14.5 q-79.5 -5.5 -159.5 -5.5 l-695 0 q20 -17 42 -36 q22 -19 45 -42 l176 -185 q27 -25 32 -54 q5 -29 -24 -57 l-96 -96 l-593 592 Z" /><glyph glyph-name="" unicode="&#x2195;" d="M749 -351 l-591 591 l99 94 q29 28 58.5 22.5 q29.5 -5.5 55.5 -31.5 l175 -183 q23 -23 42.5 -43 q19.5 -20 36.5 -40 l0 830 q0 78 5.5 155.5 q5.5 77.5 15.5 148.5 q-20 -26 -45 -52.5 q-25 -26.5 -55 -56.5 l-175 -185 q-26 -26 -56 -31 q-30 -5 -59 23 l-99 94 l594 591 l591 -591 l-99 -93 q-29 -28 -58.5 -23 q-29.5 5 -55.5 31 l-174 184 q-61 58 -101 107 q9 -70 15 -147 q6 -77 6 -155 l0 -831 q17 20 36.5 40.5 q19.5 20.5 42.5 43.5 l176 184 q26 26 55.5 31 q29.5 5 58.5 -23 l99 -93 l-594 -592 Z" /><glyph glyph-name="" unicode="&#x1a0;" d="M1467 821 q0 -119 -27 -227.5 q-27 -108.5 -76.5 -201.5 q-49.5 -93 -120.5 -168 q-71 -75 -158.5 -128.5 q-87.5 -53.5 -190 -82.5 q-102.5 -29 -215.5 -29 q-141 0 -253 49.5 q-112 49.5 -190 136 q-78 86.5 -120 204.5 q-42 118 -42 255 q0 119 27 227.5 q27 108.5 76.5 201.5 q49.5 93 120.5 168.5 q71 75.5 158.5 129 q87.5 53.5 190 82.5 q102.5 29 215.5 29 q152 0 269.5 -57 q117.5 -57 196.5 -157 q47 14 70 43 q23 29 23 65 q0 14 -3.5 26 q-3.5 12 -7 24.5 q-3.5 12.5 -7 26.5 q-3.5 14 -3.5 32 q0 63 36.5 95 q36.5 32 117.5 32 l139 0 q1 -10 2 -28.5 q1 -18.5 1 -29.5 q0 -72 -18 -136.5 q-18 -64.5 -54.5 -117.5 q-36.5 -53 -92 -92 q-55.5 -39 -130.5 -60 q32 -69 49 -147.5 q17 -78.5 17 -164.5 ZM1170 814 q0 94 -23 171.5 q-23 77.5 -67.5 132 q-44.5 54.5 -108 84.5 q-63.5 30 -144.5 30 q-105 0 -189.5 -43 q-84.5 -43 -144 -121 q-59.5 -78 -91.5 -188 q-32 -110 -32 -244 q0 -95 23 -171.5 q23 -76.5 66.5 -131.5 q43.5 -55 107 -84.5 q63.5 -29.5 144.5 -29.5 q105 0 190 42.5 q85 42.5 144.5 120.5 q59.5 78 92 187.5 q32.5 109.5 32.5 244.5 Z" /><glyph glyph-name="" unicode="&#x1af;" d="M647 229 q66 0 121 25 q55 25 96 71.5 q41 46.5 68 112 q27 65.5 36 145.5 l107 868 l289 0 l-26 -208 q81 2 122.5 36 q41.5 34 41.5 82 q0 14 -3.5 26 q-3.5 12 -7.5 24.5 q-4 12.5 -7.5 26.5 q-3.5 14 -3.5 32 q0 63 37 95 q37 32 118 32 l138 0 q2 -10 2.5 -28.5 q0.5 -18.5 0.5 -29.5 q0 -88 -27 -165.5 q-27 -77.5 -83 -135 q-56 -57.5 -141.5 -91.5 q-85.5 -34 -202.5 -35 l-64 -529 q-16 -130 -69 -240 q-53 -110 -136 -189.5 q-83 -79.5 -193.5 -124.5 q-110.5 -45 -242.5 -45 q-132 0 -231.5 45 q-99.5 45 -163 124.5 q-63.5 79.5 -89 189.5 q-25.5 110 -9.5 240 l104 868 l290 0 l-106 -868 q-10 -80 1 -145.5 q11 -65.5 41 -112 q30 -46.5 78.5 -71.5 q48.5 -25 114.5 -25 Z" /><glyph glyph-name="" unicode="&#x1a1;" d="M440 -15 q-86 0 -159.5 28.5 q-73.5 28.5 -127.5 83.5 q-54 55 -84.5 136 q-30.5 81 -30.5 185 q0 135 44 250.5 q44 115.5 119 199.5 q75 84 175 131.5 q100 47.5 211 47.5 q109 0 196.5 -46 q87.5 -46 141.5 -134 q40 15 60.5 43 q20.5 28 20.5 60 q0 13 -4 24 q-4 11 -9 23 q-5 12 -9 26 q-4 14 -4 32 q0 54 33.5 83.5 q33.5 29.5 108.5 29.5 l128 0 q2 -10 2 -27 q0 -17 0 -28 q0 -67 -16 -127.5 q-16 -60.5 -50.5 -110 q-34.5 -49.5 -87.5 -85.5 q-53 -36 -127 -54 q18 -65 18 -143 q0 -134 -44 -249 q-44 -115 -119 -199 q-75 -84 -175 -132 q-100 -48 -211 -48 ZM465 192 q57 0 103.5 34 q46.5 34 78.5 91.5 q32 57.5 49.5 133.5 q17.5 76 17.5 161 q0 120 -37 173.5 q-37 53.5 -115 53.5 q-57 0 -103.5 -33.5 q-46.5 -33.5 -78.5 -90.5 q-32 -57 -49.5 -133.5 q-17.5 -76.5 -17.5 -161.5 q0 -118 37 -173 q37 -55 115 -55 Z" /><glyph glyph-name="" unicode="&#x1b0;" d="M1034 1031 l-21 -175 q30 4 53 15.5 q23 11.5 38.5 27 q15.5 15.5 23.5 34 q8 18.5 8 37.5 q0 13 -4 24 q-4 11 -9.5 23 q-5.5 12 -9.5 26 q-4 14 -4 32 q0 54 34 83.5 q34 29.5 109 29.5 l128 0 q1 -10 1.5 -27 q0.5 -17 0.5 -28 q0 -77 -22 -146 q-22 -69 -68.5 -121.5 q-46.5 -52.5 -119 -85.5 q-72.5 -33 -173.5 -38 l-90 -742 l-140 0 q-98 0 -98 93 l3 93 q-76 -102 -166 -151.5 q-90 -49.5 -185 -49.5 q-65 0 -117 26 q-52 26 -86 76 q-34 50 -48 122.5 q-14 72.5 -2 166.5 l77 655 l276 0 l-78 -655 q-11 -93 9.5 -131.5 q20.5 -38.5 74.5 -38.5 q36 0 74.5 20.5 q38.5 20.5 74 58.5 q35.5 38 66 92 q30.5 54 50.5 120 l65 534 l275 0 Z" /><glyph glyph-name="" unicode="&#x20ab;" d="M765 0 q-26 0 -43.5 7 q-17.5 7 -27.5 19 q-10 12 -14 28 q-4 16 -4 35 l4 117 q-72 -103 -161.5 -162 q-89.5 -59 -190.5 -59 q-64 0 -117 23 q-53 23 -90.5 70.5 q-37.5 47.5 -58 120.5 q-20.5 73 -20.5 173 q0 133 40.5 250 q40.5 117 109.5 204 q69 87 160.5 137.5 q91.5 50.5 192.5 50.5 q66 0 119 -22 q53 -22 93 -60 l24 197 l-109 0 q-54 0 -73.5 21.5 q-19.5 21.5 -11.5 71.5 l10 69 l205 0 l25 200 l270 0 l-25 -200 l123 0 l-19 -162 l-124 0 l-140 -1129 l-147 0 ZM437 198 q37 0 75.5 26 q38.5 26 74.5 72 q36 46 67 107.5 q31 61.5 53 132.5 l28 221 q-32 28 -71 39.5 q-39 11.5 -75 11.5 q-61 0 -111 -33.5 q-50 -33.5 -86 -89.5 q-36 -56 -56 -130.5 q-20 -74.5 -20 -155.5 q0 -103 32 -152 q32 -49 89 -49 ZM20 -94 l975 0 l-20 -162 l-975 0 l20 162 Z" /><glyph glyph-name="" unicode="&#x25cb;" d="M119 649 q0 113 43 213 q43 100 117.5 174.5 q74.5 74.5 174.5 117.5 q100 43 213 43 q113 0 213 -43 q100 -43 174.5 -117.5 q74.5 -74.5 117.5 -174.5 q43 -100 43 -213 q0 -113 -43 -213 q-43 -100 -117.5 -174.5 q-74.5 -74.5 -174.5 -117.5 q-100 -43 -213 -43 q-113 0 -213 43 q-100 43 -174.5 117.5 q-74.5 74.5 -117.5 174.5 q-43 100 -43 213 ZM362 649 q0 -65 24 -121.5 q24 -56.5 65.5 -98.5 q41.5 -42 97 -66.5 q55.5 -24.5 118.5 -24.5 q63 0 119 24.5 q56 24.5 97.5 66.5 q41.5 42 65.5 98.5 q24 56.5 24 121.5 q0 64 -24 121 q-24 57 -65.5 99.5 q-41.5 42.5 -97.5 67 q-56 24.5 -119 24.5 q-63 0 -118.5 -24.5 q-55.5 -24.5 -97 -67 q-41.5 -42.5 -65.5 -99.5 q-24 -57 -24 -121 Z" /><glyph glyph-name="" unicode="&#x25cc;" d="M592 1129 q0 30 22 52 q22 22 54 22 q31 0 53 -22 q22 -22 22 -52 q0 -31 -22 -53 q-22 -22 -53 -22 q-32 0 -54 22 q-22 22 -22 53 ZM774 1092 q0 31 22 53 q22 22 54 22 q31 0 53.5 -22 q22.5 -22 22.5 -53 q0 -30 -22.5 -52 q-22.5 -22 -53.5 -22 q-32 0 -54 22 q-22 22 -22 52 ZM930 990 q0 31 22 52.5 q22 21.5 54 21.5 q31 0 53.5 -21.5 q22.5 -21.5 22.5 -52.5 q0 -31 -22.5 -52.5 q-22.5 -21.5 -53.5 -21.5 q-32 0 -54 21.5 q-22 21.5 -22 52.5 ZM1031 834 q0 31 22.5 53 q22.5 22 53.5 22 q32 0 54 -22 q22 -22 22 -53 q0 -30 -22 -52 q-22 -22 -54 -22 q-31 0 -53.5 22 q-22.5 22 -22.5 52 ZM1073 648 q0 31 22.5 52.5 q22.5 21.5 53.5 21.5 q32 0 54 -21.5 q22 -21.5 22 -52.5 q0 -31 -22 -52.5 q-22 -21.5 -54 -21.5 q-31 0 -53.5 21.5 q-22.5 21.5 -22.5 52.5 ZM406 1092 q0 31 22 53 q22 22 53 22 q32 0 54 -22 q22 -22 22 -53 q0 -30 -22 -52 q-22 -22 -54 -22 q-31 0 -53 22 q-22 22 -22 52 ZM250 990 q0 31 22 52.5 q22 21.5 54 21.5 q31 0 53 -21.5 q22 -21.5 22 -52.5 q0 -31 -22 -52.5 q-22 -21.5 -53 -21.5 q-32 0 -54 21.5 q-22 21.5 -22 52.5 ZM148 834 q0 31 22 53 q22 22 53 22 q32 0 54 -22 q22 -22 22 -53 q0 -30 -22 -52 q-22 -22 -54 -22 q-31 0 -53 22 q-22 22 -22 52 ZM112 648 q0 31 22 52.5 q22 21.5 53 21.5 q32 0 54 -21.5 q22 -21.5 22 -52.5 q0 -31 -22 -52.5 q-22 -21.5 -54 -21.5 q-31 0 -53 21.5 q-22 21.5 -22 52.5 ZM1031 466 q0 31 22.5 52.5 q22.5 21.5 53.5 21.5 q32 0 54 -21.5 q22 -21.5 22 -52.5 q0 -31 -22 -53 q-22 -22 -54 -22 q-31 0 -53.5 22 q-22.5 22 -22.5 53 ZM148 466 q0 31 22 52.5 q22 21.5 53 21.5 q32 0 54 -21.5 q22 -21.5 22 -52.5 q0 -31 -22 -53 q-22 -22 -54 -22 q-31 0 -53 22 q-22 22 -22 53 ZM930 310 q0 30 22 52 q22 22 54 22 q31 0 53.5 -22 q22.5 -22 22.5 -52 q0 -31 -22.5 -53 q-22.5 -22 -53.5 -22 q-32 0 -54 22 q-22 22 -22 53 ZM250 310 q0 30 22 52 q22 22 54 22 q31 0 53 -22 q22 -22 22 -52 q0 -31 -22 -53 q-22 -22 -53 -22 q-32 0 -54 22 q-22 22 -22 53 ZM774 209 q0 30 22 52 q22 22 54 22 q31 0 53.5 -22 q22.5 -22 22.5 -52 q0 -31 -22.5 -53 q-22.5 -22 -53.5 -22 q-32 0 -54 22 q-22 22 -22 53 ZM406 209 q0 30 22 52 q22 22 53 22 q32 0 54 -22 q22 -22 22 -52 q0 -31 -22 -53 q-22 -22 -54 -22 q-31 0 -53 22 q-22 22 -22 53 ZM592 167 q0 30 22 52 q22 22 54 22 q31 0 53 -22 q22 -22 22 -52 q0 -31 -22 -53 q-22 -22 -53 -22 q-32 0 -54 22 q-22 22 -22 53 Z" /><glyph glyph-name="" unicode="&#x34f;" d="" /><glyph glyph-name="" unicode="&#x1dc2;" d="M-192 -89 q0 6 16.5 15.5 q16.5 9.5 40 17.5 q23.5 8 48 14 q24.5 6 41.5 6 q13 0 24.5 -4 q11.5 -4 23 -10.5 q11.5 -6.5 24.5 -14.5 q13 -8 30 -15 q29 -11 49.5 -30 q20.5 -19 20.5 -47 q0 -23 -12 -39.5 q-12 -16.5 -29.5 -28 q-17.5 -11.5 -38 -19 q-20.5 -7.5 -38 -12.5 q-17.5 -5 -29.5 -8.5 q-12 -3.5 -12 -7.5 q0 -5 15.5 -8 q15.5 -3 33.5 -10 q18 -7 33.5 -21.5 q15.5 -14.5 15.5 -41.5 q0 -24 -9.5 -38.5 q-9.5 -14.5 -23.5 -24.5 q-14 -10 -31 -15.5 q-17 -5.5 -31 -11 q-14 -5.5 -23.5 -11.5 q-9.5 -6 -9.5 -16 q0 -15 27 -24 q2 0 2 -4 q0 -5 -2 -9 q-2 -4 -5 -4 q-40 6 -63 23 q-23 17 -23 43 q0 27 17 41.5 q17 14.5 38 22 q21 7.5 38 10.5 q17 3 17 8 q0 5 -19.5 8.5 q-19.5 3.5 -43.5 11.5 q-24 8 -43.5 23 q-19.5 15 -19.5 43 q0 34 23 54.5 q23 20.5 50.5 32 q27.5 11.5 50.5 18 q23 6.5 23 13.5 q0 10 -17 10 q-11 0 -17 -3 q-6 -3 -11.5 -6 q-5.5 -3 -12.5 -5 q-7 -2 -19 -1 q-16 2 -36.5 9.5 q-20.5 7.5 -39 18.5 q-18.5 11 -31 23.5 q-12.5 12.5 -12.5 23.5 Z" /><glyph glyph-name="" unicode="&#x181;" d="M384 0 l152 1244 l-7 0 q-61 0 -99.5 -14 q-38.5 -14 -60.5 -39 q-22 -25 -30 -61 q-8 -36 -8 -79 q0 -15 1.5 -30 q1.5 -15 1.5 -23 q2 -13 0.5 -25.5 q-1.5 -12.5 -7.5 -23.5 q-6 -11 -18.5 -20 q-12.5 -9 -33.5 -14 l-173 -36 q-8 35 -13 73 q-5 38 -5 73 q0 97 32 176 q32 79 92.5 134 q60.5 55 148 85 q87.5 30 198.5 30 l488 0 q124 0 211.5 -24 q87.5 -24 143 -67.5 q55.5 -43.5 81.5 -105 q26 -61.5 26 -136.5 q0 -61 -16 -117 q-16 -56 -50.5 -103.5 q-34.5 -47.5 -87.5 -85.5 q-53 -38 -128 -63 q121 -32 179 -101 q58 -69 58 -175 q0 -100 -37.5 -186.5 q-37.5 -86.5 -109 -150 q-71.5 -63.5 -174 -99.5 q-102.5 -36 -231.5 -36 l-524 0 ZM751 630 l-50 -408 l230 0 q65 0 111.5 18.5 q46.5 18.5 76 51.5 q29.5 33 43 78 q13.5 45 13.5 99 q0 37 -10.5 67 q-10.5 30 -34 51 q-23.5 21 -61 32 q-37.5 11 -91.5 11 l-227 0 ZM775 828 l174 0 q62 0 110.5 13 q48.5 13 82 41.5 q33.5 28.5 51 74.5 q17.5 46 17.5 111 q0 87 -47.5 124.5 q-47.5 37.5 -147.5 37.5 l-191 0 l-49 -402 Z" /><glyph glyph-name="" unicode="&#x184;" d="M597 952 l231 0 q120 0 207.5 -33.5 q87.5 -33.5 144.5 -90.5 q57 -57 84.5 -132 q27.5 -75 27.5 -159 q0 -112 -38.5 -210 q-38.5 -98 -110.5 -170.5 q-72 -72.5 -176 -114.5 q-104 -42 -236 -42 l-540 0 l105 868 l-225 173 l375 409 l212 0 l-61 -498 ZM570 730 l-59 -481 l-3 -27 l245 0 q51 0 89.5 14.5 q38.5 14.5 66.5 39 q28 24.5 46.5 56 q18.5 31.5 29.5 65.5 q11 34 15.5 67 q4.5 33 4.5 61 q0 38 -10 75 q-10 37 -32.5 66 q-22.5 29 -59 46.5 q-36.5 17.5 -90.5 17.5 l-243 0 Z" /><glyph glyph-name="" unicode="&#x186;" d="M146 350 q25 0 45 -20 q25 -29 51 -49 q26 -20 56 -32.5 q30 -12.5 66.5 -18 q36.5 -5.5 81.5 -5.5 q86 0 165.5 39.5 q79.5 39.5 140 115 q60.5 75.5 97 185.5 q36.5 110 36.5 251 q0 94 -22 169.5 q-22 75.5 -63 128.5 q-41 53 -99 81 q-58 28 -130 28 q-75 0 -124.5 -17.5 q-49.5 -17.5 -84.5 -38.5 q-35 -21 -59 -38.5 q-24 -17.5 -48 -17.5 q-23 0 -34.5 10 q-11.5 10 -19.5 23 l-80 132 q88 85 209 137.5 q121 52.5 271 52.5 q133 0 240.5 -47.5 q107.5 -47.5 183.5 -132.5 q76 -85 116.5 -202.5 q40.5 -117.5 40.5 -256.5 q0 -180 -54 -334 q-54 -154 -152.5 -267.5 q-98.5 -113.5 -236 -177.5 q-137.5 -64 -304.5 -64 q-167 0 -281 58 q-114 58 -180 168 l129 123 q21 17 43 17 Z" /><glyph glyph-name="" unicode="&#x187;" d="M689 226 q58 0 101 9 q43 9 74.5 23 q31.5 14 53.5 30 q22 16 39.5 30 q17.5 14 31 23 q13.5 9 28.5 9 q14 0 23.5 -5 q9.5 -5 14.5 -11 l101 -124 q-94 -110 -223 -168 q-129 -58 -294 -58 q-135 0 -240.5 48 q-105.5 48 -177.5 132.5 q-72 84.5 -109.5 200 q-37.5 115.5 -37.5 251.5 q0 125 27.5 236.5 q27.5 111.5 77 206 q49.5 94.5 119.5 170 q70 75.5 155.5 128 q85.5 52.5 183.5 81 q98 28.5 205 29.5 q60 0 118.5 -12 q58.5 -12 112.5 -34 q4 67 23 132 q19 65 59.5 116 q40.5 51 107 82 q66.5 31 165.5 31 q34 0 62 -2.5 q28 -2.5 52 -8 q24 -5.5 46.5 -13 q22.5 -7.5 45.5 -16.5 l-55 -147 q-8 -20 -18.5 -30.5 q-10.5 -10.5 -22 -15 q-11.5 -4.5 -24.5 -4.5 q-13 0 -25 3 q-11 4 -27 6.5 q-16 2.5 -33 2.5 q-58 0 -89 -46 q-31 -46 -41 -134 l-12 -113 l-101 -119 q-11 -13 -25.5 -23 q-14.5 -10 -37.5 -10 q-23 0 -43 17.5 q-20 17.5 -49 38 q-29 20.5 -75 38 q-46 17.5 -121 17.5 q-99 0 -184 -41 q-85 -41 -147.5 -116.5 q-62.5 -75.5 -98 -183.5 q-35.5 -108 -35.5 -242 q0 -98 24 -174.5 q24 -76.5 67 -130 q43 -53.5 101 -81.5 q58 -28 127 -28 Z" /><glyph glyph-name="" unicode="&#x18a;" d="M1684 822 q0 -179 -59 -330 q-59 -151 -163.5 -260.5 q-104.5 -109.5 -248 -170.5 q-143.5 -61 -313.5 -61 l-516 0 l152 1244 l-7 0 q-61 0 -99.5 -14 q-38.5 -14 -60.5 -39 q-22 -25 -30 -61 q-8 -36 -8 -79 q0 -15 1.5 -30 q1.5 -15 1.5 -23 q2 -13 0.5 -25.5 q-1.5 -12.5 -7.5 -23.5 q-6 -11 -18.5 -20 q-12.5 -9 -33.5 -14 l-173 -36 q-8 35 -13 73 q-5 38 -5 73 q0 97 32 176 q32 79 92.5 134 q60.5 55 148 85 q87.5 30 198.5 30 l523 0 q141 0 253 -47 q112 -47 190.5 -131 q78.5 -84 120.5 -199 q42 -115 42 -251 ZM1387 814 q0 94 -22.5 169.5 q-22.5 75.5 -65.5 129 q-43 53.5 -105.5 82.5 q-62.5 29 -143.5 29 l-225 0 l-121 -997 l225 0 q105 0 189.5 41 q84.5 41 144 117 q59.5 76 92 185 q32.5 109 32.5 244 Z" /><glyph glyph-name="" unicode="&#x18b;" d="M781 855 l46 375 l-644 0 l28 220 l933 0 l-178 -1450 l-482 0 q-108 0 -192 28.5 q-84 28.5 -141.5 81 q-57.5 52.5 -87 125.5 q-29.5 73 -29.5 162 q0 94 31 177.5 q31 83.5 97.5 146 q66.5 62.5 172 98.5 q105.5 36 255.5 36 l191 0 ZM318 392 q0 -35 9.5 -66 q9.5 -31 32 -54 q22.5 -23 59.5 -36.5 q37 -13.5 93 -13.5 l191 0 l51 412 l-193 0 q-131 0 -187 -61.5 q-56 -61.5 -56 -180.5 Z" /><glyph glyph-name="" unicode="&#x18e;" d="M1026 1450 l-178 -1450 l-855 0 l28 227 l563 0 l48 394 l-436 0 l27 218 l436 0 l47 384 l-564 0 l29 227 l855 0 Z" /><glyph glyph-name="" unicode="&#x18f;" d="M581 -17 q-119 0 -215 38 q-96 38 -164 110 q-68 72 -105 175.5 q-37 103.5 -37 234.5 q0 79 7.5 126 q7.5 47 22 72 q14.5 25 35 33 q20.5 8 46.5 8 l856 0 q0 7 0.5 14 q0.5 7 0.5 15 q0 205 -89 309.5 q-89 104.5 -260 104.5 q-73 0 -130 -20.5 q-57 -20.5 -103.5 -44.5 q-46.5 -24 -84.5 -44.5 q-38 -20.5 -72 -20.5 q-43 0 -64 32 l-74 107 q69 69 143.5 115 q74.5 46 150.5 73.5 q76 27.5 151 39 q75 11.5 144 11.5 q126 0 233 -43 q107 -43 186 -126 q79 -83 123.5 -204 q44.5 -121 44.5 -278 q0 -176 -54.5 -328.5 q-54.5 -152.5 -153 -265.5 q-98.5 -113 -235.5 -178 q-137 -65 -303 -65 ZM610 219 q78 0 142 25.5 q64 25.5 114 73 q50 47.5 84.5 115.5 q34.5 68 54.5 153 l-663 0 q-10 -80 2 -147 q12 -67 46 -116 q34 -49 89 -76.5 q55 -27.5 131 -27.5 Z" /><glyph glyph-name="" unicode="&#x190;" d="M1059 1192 q-23 -32 -43 -40 q-20 -8 -35 -8 q-22 0 -43.5 14 q-21.5 14 -54 31 q-32.5 17 -80.5 31 q-48 14 -122 14 q-61 0 -103.5 -16.5 q-42.5 -16.5 -69 -44.5 q-26.5 -28 -38.5 -65 q-12 -37 -12 -77 q0 -75 49 -116 q49 -41 152 -41 l224 0 l-26 -203 l-248 0 q-68 0 -116.5 -22 q-48.5 -22 -79.5 -56.5 q-31 -34.5 -46 -78 q-15 -43.5 -15 -85.5 q0 -42 14 -79.5 q14 -37.5 42.5 -65.5 q28.5 -28 72.5 -44.5 q44 -16.5 103 -16.5 q56 0 97.5 12 q41.5 12 73 30 q31.5 18 56.5 39 q25 21 48 38 q11 8 24 14 q13 6 26 6 q11 0 20.5 -4 q9.5 -4 17.5 -13 l91 -123 q-65 -70 -133.5 -115.5 q-68.5 -45.5 -139.5 -72.5 q-71 -27 -143.5 -37.5 q-72.5 -10.5 -145.5 -10.5 q-77 0 -153 25 q-76 25 -137 74 q-61 49 -98.5 122.5 q-37.5 73.5 -37.5 171.5 q0 71 21 133 q21 62 58.5 113.5 q37.5 51.5 88 91.5 q50.5 40 110.5 67 q-49 19 -82.5 47 q-33.5 28 -54.5 61 q-21 33 -30 69.5 q-9 36.5 -9 73.5 q0 84 39.5 162 q39.5 78 113 138 q73.5 60 178.5 96 q105 36 235 36 q74 0 136 -11.5 q62 -11.5 113.5 -33 q51.5 -21.5 93.5 -52 q42 -30.5 77 -67.5 l-79 -111 Z" /><glyph glyph-name="" unicode="&#x191;" d="M78 84 l168 1366 l854 0 l-28 -227 l-564 0 l-50 -412 l472 0 l-28 -227 l-472 0 l-58 -470 l1 0 l-8 -68 q-11 -88 -41 -162.5 q-30 -74.5 -80 -128.5 q-50 -54 -121.5 -84 q-71.5 -30 -165.5 -30 q-39 0 -69 2.5 q-30 2.5 -55.5 8 q-25.5 5.5 -48 13 q-22.5 7.5 -46.5 17.5 l57 147 q7 19 17.5 30 q10.5 11 22.5 15.5 q12 4.5 25 4 q13 -0.5 25 -2.5 q11 -5 27 -7 q16 -2 33 -2 q57 0 87.5 45.5 q30.5 45.5 41.5 133.5 l4 38 Z" /></font>
</defs>
</svg>
