<svg xmlns="http://www.w3.org/2000/svg" viewBox="0 0 27 30"><path fill="#BFAB70" stroke="#BFAB70" stroke-width=".5" stroke-miterlimit="10" d="M24.4 3.7h-4.7V1.4c0-.2-.2-.4-.4-.4s-.4.2-.4.4v2.3h-11V1.4c0-.3-.1-.4-.4-.4-.2 0-.4.1-.4.4v2.3H2.4c-1.1 0-2 .9-2 2V27c0 1.1.9 2 2 2h22c1.1 0 2-.9 2-2V5.7c0-1.1-.9-2-2-2zm-22 .8h4.7v2.3c0 .2.2.4.4.4s.4-.2.4-.4V4.5h10.9v2.3c0 .2.2.4.4.4s.4-.2.4-.4V4.5h4.7c.7 0 1.2.5 1.2 1.2v5.7H1.2V5.7c0-.6.5-1.2 1.2-1.2zm22 23.7h-22c-.7 0-1.2-.5-1.2-1.2V12.2h24.3V27c.1.7-.4 1.2-1.1 1.2z"/><circle fill="#BFAB70" cx="6.2" cy="15.9" r=".8"/><circle fill="#BFAB70" cx="10.8" cy="15.9" r=".8"/><circle fill="#BFAB70" cx="15.5" cy="15.9" r=".8"/><circle fill="#BFAB70" cx="20.1" cy="15.9" r=".8"/><circle fill="#BFAB70" cx="6.2" cy="20.1" r=".8"/><circle fill="#BFAB70" cx="10.8" cy="20.1" r=".8"/><circle fill="#BFAB70" cx="15.5" cy="20.1" r=".8"/><circle fill="#BFAB70" cx="20.1" cy="20.1" r=".8"/><circle fill="#BFAB70" cx="6.2" cy="24.2" r=".8"/><circle fill="#BFAB70" cx="10.8" cy="24.2" r=".8"/><circle fill="#BFAB70" cx="15.5" cy="24.2" r=".8"/><circle fill="#BFAB70" cx="20.1" cy="24.2" r=".8"/></svg>