<svg xmlns="http://www.w3.org/2000/svg" xmlns:xlink="http://www.w3.org/1999/xlink" width="20" height="22.5"><defs><path id="a" d="M0 0h20v22.5H0z"/></defs><clipPath id="b"><use xlink:href="#a" overflow="visible"/></clipPath><path clip-path="url(#b)" fill="none" stroke="#FFF" stroke-miterlimit="10" d="M18.5 9.5V22h-17V9.5m-1-4h19v4H.5zm12 4v11.957m-5-.001V9.5"/><path clip-path="url(#b)" fill="none" stroke="#FFF" stroke-linejoin="round" stroke-miterlimit="10" d="M6.878.518C6.139.447 5.514.594 5.1.883c-.414.294-.624.731-.522 1.247.095.517.49 1.012 1.038 1.39.542.388 1.989.726 1.989.726l2.668.254-.362-1.862C9.713 1.609 8.35.656 6.878.518zm8.577.365c-.414-.29-1.039-.437-1.778-.365-1.479.138-2.835 1.091-3.039 2.12L10.274 4.5l2.676-.254s1.526-.29 1.988-.726c.541-.379.937-.873 1.038-1.39.096-.517-.114-.953-.521-1.247z"/></svg>