<svg xmlns="http://www.w3.org/2000/svg" xmlns:xlink="http://www.w3.org/1999/xlink" viewBox="0 0 283.5 75.6"><path d="M142.1.4H283v74.8H142.1z"/><path fill="#CDAF5C" d="M142.5.8h140.1v74H142.5V.8zm-.8 74.8h141.7V0H141.7v75.6zM0 0h141.7v75.6H0z"/><path fill="#CDAF5C" d="M255.2 26.5l2.2-4.6.7 4.7 4.5-1.6-3.2 4.1 3.5 2.6-4.6.4-.3 4.9-2.5-3.6-3.8 3.5 1.4-4.9-4.4-.6 4.3-2.5-1.8-4.2z"/><defs><path id="a" d="M0 0h283.5v75.6H0z"/></defs><clipPath id="b"><use xlink:href="#a" overflow="visible"/></clipPath><path clip-path="url(#b)" fill="#FFF" d="M215.3 35.5l-3.8.2-1.2 6.1c-1.5-.1-1.9-.1-3.6-.1-5.4 0-10.1 2.3-11.3 7.6-1.1 4.8 1.6 8.5 7.5 8.5 6.1 0 8.7-3.2 9.7-7.6l2.7-14.7zm-5.7 9l-1.3 6.3c-.6 2.6-2.1 4.2-5.2 4.2-3.6 0-4.5-2.2-3.8-5.4 1.2-4.4 4.8-5.7 10.3-5.1m-35.8.3c-5.6-.5-10.4 0-10.5 1.9-.1 2.9 9.2.4 9.1 5.6-.3 7.7-13.3 6-16.5 5l.6-2.3c5.6.9 11.4 1 11.6-2.1.1-3.3-9.3-.3-9-5.6.2-3.9 6-6 15.7-4.6l-1 2.1zm11.9-2.8c-5.6 0-10.1 3.2-11.2 8-1.1 4.8 1.9 8 7.5 8s10.1-3.2 11.2-8c1-4.8-2-8-7.5-8m3.2 8c-.8 3.2-3.4 5.3-6.4 5.3-3.2 0-4.6-1.8-3.8-5.3.8-3.2 3.4-5.4 6.4-5.4 3.1 0 4.6 2.2 3.8 5.4m72.5-8.1c-5.7 0-10.2 3.3-11.3 8.2-1.1 4.9 1.9 8.2 7.6 8.2 5.7 0 10.2-3.3 11.3-8.2 1.1-4.9-2-8.2-7.6-8.2m3.3 8.2c-.8 3.3-3.4 5.3-6.5 5.3-3.2 0-4.7-1.9-3.8-5.3.8-3.3 3.5-5.5 6.5-5.5 3.1 0 4.6 2.2 3.8 5.5m-21.5.5c3.6 4 6.9 7.4 6.9 7.4h-4.8c-1.2-1.2-3-3-4.9-5.2-3.6 2.5-7.7 3.8-11.5 3.9 3.3-1.8 6.5-4 9.4-6.4-2-2.5-4-5.2-5.7-8.1h3.6c1.2 1.6 2.9 3.7 4.8 5.9 4.1-3.6 7.7-7.5 10.7-11-1.9 5.6-4.9 10.2-8.5 13.5M231.7 46c0-2.3-1.9-4.1-6.1-4.1-6.9 0-11.3 4.5-11.3 10 0 3.6 3 6.5 8.4 6.5 3.7 0 6.2-1.8 6.2-1.8-4.7.5-10.6 0-10.6-5.1v-.6c6.5 1.4 13.4-.2 13.4-4.9m-6.4-1.7c1.8 0 2.7.6 2.7 1.9 0 3.2-6.3 3-9.1 2.5 1-2.5 3.2-4.4 6.4-4.4"/><path clip-path="url(#b)" d="M25.7 39.8c-.2-.6-.5-1.1-.9-1.5-.4-.4-.8-.7-1.2-.9-.4-.2-.9-.4-1.3-.5-.4-.1-.9-.2-1.3-.2h-2.7c-.3 0-.6 0-.9.1h-2.1c-.4 0-.9-.1-1.3-.1 0 1.4.1 2.7.1 4 0 1.3.1 2.6.1 4V50c0 1.4 0 2.7-.1 4-.1 1.3-.1 2.6-.1 3.9.4 0 .9-.1 1.3-.1.5 0 .9 0 1.3.1-.1-1.3-.1-2.6-.2-3.9 0-1.3-.1-2.7-.1-4v-1.7c.4 0 .7.1 1.1.1h1.2c.7 0 1.4-.1 2.2-.2.9-.2 1.7-.5 2.4-1 .8-.5 1.4-1.1 1.9-2 .5-.8.8-1.9.8-3.3.2-.8.1-1.5-.2-2.1m-2.6 5c-.3.7-.7 1.2-1.2 1.6-.5.4-1.1.7-1.7.8-.6.1-1.2.2-1.8.2-.7 0-1.3-.1-1.9-.2V38H19c.7 0 1.4.1 1.9.2.6.1 1 .3 1.4.6.4.3.7.8.9 1.3.2.6.3 1.3.3 2.2 0 1-.1 1.8-.4 2.5M42 56.7c-.4-.5-.9-1.2-1.3-1.8l-1.5-2.1-1.5-2.1c-.5-.7-.9-1.3-1.3-1.8-.4-.6-.7-1-.9-1.3.5-.1 1.1-.3 1.8-.5.7-.3 1.3-.6 1.8-1.1.6-.5 1-1 1.4-1.8.4-.7.6-1.6.6-2.5 0-.9-.2-1.7-.5-2.3-.3-.6-.7-1.1-1.2-1.5-.5-.4-1.1-.7-1.8-.8-.7-.2-1.4-.2-2.2-.2-.5 0-1 0-1.6.1-.5.1-1 .1-1.6.1h-1.6c-.5 0-1-.1-1.6-.1.1 1.4.1 2.7.1 4 0 1.3.1 2.6.1 4v5.3c0 1.4 0 2.7-.1 4 0 1.3-.1 2.6-.1 3.9.4 0 .9-.1 1.3-.1s.9 0 1.3.1c-.1-1.3-.1-2.6-.1-3.9-.1-1.3-.1-2.7-.1-4V48h1.1c.6.7 1.2 1.5 1.9 2.5s1.4 2 2.1 2.9c.7 1 1.3 1.9 1.8 2.8.6.9 1 1.5 1.3 1.9.2 0 .5-.1.8-.1H42c.3 0 .5 0 .8.1-.1-.4-.4-.8-.8-1.4m-8.5-10h-1c-.3 0-.6-.1-.8-.1v-1.8c0-1.1 0-2.2.1-3.3 0-1.1.1-2.2.1-3.4.3 0 .7-.1 1.1-.1h1.6c.5 0 .9.1 1.5.2.5.1.9.3 1.4.6.4.3.8.7 1 1.2.3.5.4 1.2.4 2 0 .9-.2 1.7-.5 2.3-.3.6-.8 1.1-1.3 1.5-.5.4-1.1.6-1.7.7-.8.1-1.4.2-1.9.2m12.7-5.9c0-1.3-.1-2.6-.2-3.9.8 0 1.6.1 2.4.1h4.9c.8 0 1.6-.1 2.4-.1-.1.3-.1.6-.1.9 0 .3 0 .6.1.9-.6 0-1.1-.1-1.6-.1s-1-.1-1.5-.1c-.6 0-1.1-.1-1.8-.1-.6 0-1.4-.1-2.3-.1 0 .7 0 1.3-.1 1.9v6.1h2.2c.6 0 1.2 0 1.8-.1.5 0 1-.1 1.5-.1.4 0 .9-.1 1.3-.1-.1.3-.1.6-.1 1 0 .3 0 .6.1.9-.5-.1-1-.1-1.7-.2-.6 0-1.3-.1-1.9-.1h-3.1v7.3c0 .8 0 1.3.1 1.7h4c.7 0 1.3-.1 1.9-.1.6 0 1.1-.1 1.5-.2 0 .1-.1.3-.1.5v.5c0 .3 0 .6.1.8-.8 0-1.6-.1-2.4-.1h-5.1c-.8 0-1.6 0-2.5.1.1-1.3.1-2.6.2-3.9 0-1.3.1-2.6.1-4v-5.3c0-1.5-.1-2.8-.1-4.1m13.9 14.3c.3.4.5.7.9 1 .4.3.8.6 1.3.8.5.2 1 .3 1.6.3.6 0 1.1-.1 1.6-.4.5-.2.9-.6 1.2-1 .3-.4.6-.9.8-1.4.2-.5.3-1.1.3-1.7 0-.9-.2-1.7-.7-2.2-.4-.6-1-1-1.6-1.4-.6-.4-1.3-.7-2.1-1-.7-.3-1.4-.7-2.1-1.2-.6-.5-1.2-1-1.6-1.8-.4-.7-.6-1.7-.6-2.9 0-.9.1-1.6.4-2.4.3-.7.7-1.3 1.2-1.8s1.1-.9 1.9-1.2c.7-.3 1.5-.4 2.5-.4.9 0 1.6.1 2.3.4.6.2 1.2.6 1.8 1.1-.2.4-.3.7-.4 1.1-.1.4-.2.9-.3 1.5H68c-.1-.3-.2-.6-.4-.9-.2-.3-.4-.7-.6-.9-.3-.3-.6-.5-.9-.7-.4-.2-.8-.3-1.3-.3s-1 .1-1.4.3c-.4.2-.8.5-1.1.8-.3.3-.6.7-.8 1.2-.2.5-.3 1-.3 1.5 0 1 .2 1.7.7 2.3.4.6 1 1 1.6 1.4.6.4 1.3.7 2.1 1 .7.3 1.4.7 2.1 1.1.6.4 1.2 1 1.6 1.7.4.7.7 1.6.7 2.7 0 .9-.1 1.8-.5 2.7-.3.9-.7 1.6-1.3 2.2-.6.6-1.3 1.1-2.1 1.5-.8.3-1.8.5-2.8.5-1.1 0-2.1-.2-2.8-.5-.7-.3-1.3-.7-1.8-1.2.2-.5.3-.9.3-1.3.1-.4.1-.9.2-1.5h.3c.1.2.3.6.6 1m17.3-16.7h-1.5c-.5 0-1 0-1.6.1-.5 0-1 .1-1.5.1-.5.1-.9.1-1.3.2.1-.4.1-.7.1-1 0-.2 0-.5-.1-1 1.2 0 2.4.1 3.5.1h7c1.2 0 2.3-.1 3.5-.1-.1.4-.1.7-.1 1 0 .3 0 .6.1.9-.4-.1-.8-.1-1.3-.2-.5 0-1-.1-1.5-.1s-1 0-1.6-.1h-1.5c-.1 2.1-.1 4.2-.1 6.4V50c0 1.4 0 2.7.1 4 0 1.3.1 2.6.1 3.9-.4 0-.9-.1-1.3-.1-.5 0-.9 0-1.3.1 0-1.3.1-2.6.1-3.9 0-1.3.1-2.7.1-4v-5.3c.2-2 .2-4.2.1-6.3m11.5 2.4c-.1-1.3-.1-2.6-.2-4 .2 0 .5.1.7.1h1.4c.2 0 .5-.1.7-.1 0 1.4-.1 2.7-.1 4 0 1.3-.1 2.6-.1 4v5.3c0 1.4 0 2.7.1 4 0 1.3.1 2.6.1 3.9-.4 0-.9-.1-1.3-.1-.5 0-.9 0-1.3.1.1-1.3.1-2.6.2-3.9 0-1.3.1-2.7.1-4v-5.3c-.3-1.4-.3-2.7-.3-4m22.3-1.3c-.4-.4-.9-.7-1.4-1-.5-.3-1.1-.5-1.7-.7-.6-.2-1.3-.3-2-.3-1.1 0-2.2.2-3.2.6-1 .4-1.8 1-2.5 1.8s-1.3 1.8-1.7 3.1c-.4 1.2-.6 2.7-.6 4.4 0 1.5.2 2.9.5 4.1.4 1.2.9 2.2 1.6 3.1.7.8 1.6 1.5 2.6 1.9 1 .5 2.1.7 3.4.7.4 0 .8 0 1.2-.1.4 0 .8-.1 1.2-.2.4-.1.8-.2 1.1-.3.3-.1.6-.3.9-.4v-6c0-.7-.1-1.4-.1-2 .5.1.9.1 1.3.1h.6c.2 0 .4-.1.6-.1 0 .5-.1 1.2-.1 2.2v6.5c-.4.2-.9.3-1.4.5-.6.2-1.2.3-1.8.4-.6.1-1.3.2-2 .3-.7.1-1.2.1-1.8.1-1.6 0-3.1-.2-4.4-.7-1.3-.4-2.4-1.1-3.3-2-.9-.9-1.6-2.1-2.1-3.5s-.7-3-.7-4.8c0-1.7.3-3.3.8-4.7.5-1.4 1.2-2.5 2.2-3.5.9-.9 2.1-1.7 3.4-2.2 1.3-.5 2.8-.7 4.4-.7.9 0 1.8.1 2.5.2s1.4.3 1.9.4c.6.2 1.1.4 1.5.6.4.2.8.4 1.1.6-.1.3-.3.7-.4 1.1-.1.5-.2.9-.2 1.3h-.3c-.3-.1-.7-.5-1.1-.8m6.6 1.3c-.1-1.3-.1-2.6-.2-3.9.8 0 1.6.1 2.5.1h4.9c.8 0 1.6-.1 2.4-.1-.1.3-.1.6-.1.9 0 .3 0 .6.1.9-.6 0-1.1-.1-1.6-.1s-1-.1-1.5-.1c-.6 0-1.1-.1-1.8-.1-.6 0-1.4-.1-2.3-.1 0 .7 0 1.3-.1 1.9v6.1h2.2c.6 0 1.2 0 1.7-.1.5 0 1-.1 1.5-.1.4 0 .9-.1 1.3-.1-.1.3-.1.6-.1 1 0 .3 0 .6.1.9-.5-.1-1-.1-1.7-.2-.6 0-1.3-.1-1.9-.1h-3.1v9h3.9c.7 0 1.3-.1 1.9-.1.6 0 1.1-.1 1.5-.2 0 .1-.1.3-.1.5v.5c0 .3 0 .6.1.8-.8 0-1.6-.1-2.5-.1h-5c-.8 0-1.7 0-2.5.1.1-1.3.1-2.6.2-3.9 0-1.3.1-2.6.1-4v-5.3c.2-1.5.2-2.8.1-4.1M14 27.6v-6.2h1v6.3c0 .9.4 1.3 1.1 1.3h2.3v.9h-2.3c-1.4 0-2.1-.8-2.1-2.3m5.7-6.2h1v8.5h-1zm3.1 6.2v-6.2h4.7v.9h-3.6v2.6h3.3v.9h-3.3v1.8c0 .9.4 1.3 1.1 1.3h2.5v.9h-2.4c-1.5.1-2.3-.6-2.3-2.2m6.3-.6v-5.6h1V27c0 1.5.9 2.1 2 2.1s2-.6 2-2.1v-5.6h1V27c0 2-1.2 3-3 3s-3-1.1-3-3m7.3 2.8l2.6-4.2-2.6-4.1v-.1h1.2l2 3.3 2.1-3.3h1v.1l-2.5 4 2.7 4.3v.1h-1.2l-2.1-3.4-2.2 3.4h-1zm20.9-2.2v-6.2H62v.9h-3.6v2.6h3.3v.9h-3.3v1.8c0 .9.4 1.3 1.1 1.3H62v.9h-2.4c-1.6.1-2.3-.6-2.3-2.2m5.6-6.1l1-.1c.6 3.1 1.4 5.8 2.3 7.6.9-1.9 1.7-4.5 2.3-7.6h1v.1c-.6 3.8-2 7.2-2.6 8.4h-1.3c-.8-1.2-2.1-4.7-2.7-8.4m7.9 6.1v-6.2h4.7v.9h-3.6v2.6h3.3v.9h-3.3v1.8c0 .9.4 1.3 1.1 1.3h2.5v.9h-2.4c-1.5.1-2.3-.6-2.3-2.2m6.4-6.2h.7l4.5 6.3v-6.3h1.1v8.5h-.7l-4.5-6.3v6.3h-1.1zm8.3 6.2v-6.2h4.7v.9h-3.6v2.6h3.3v.9h-3.3v1.8c0 .9.4 1.3 1.1 1.3h2.5v.9h-2.4c-1.5.1-2.3-.6-2.3-2.2m6.5-6.2h.8l2.8 4 2.8-4h.8v8.5h-1v-6.6l-2.4 3.4h-.5L93 23.4v6.5h-1zm9.3 6.2v-6.2h4.7v.9h-3.6v2.6h3.3v.9h-3.3v1.8c0 .9.4 1.3 1.1 1.3h2.5v.9h-2.4c-1.5.1-2.3-.6-2.3-2.2m6.5-6.2h.6l4.6 6.3v-6.3h1v8.5h-.7l-4.5-6.3v6.3h-1zm10 .9h-2.6v-.9h6.3v.9h-2.6v7.6h-1.1zm4.4 7.3v-.9h.1c.4.1 1.4.4 2.1.4h.3c1 0 1.7-.4 1.7-1.5 0-.9-.5-1.2-1.2-1.4l-1.1-.3c-.8-.2-1.8-.8-1.8-2.3 0-1.4 1-2.3 2.7-2.3h.3c.6 0 1.6.2 1.9.4v.9h-.1c-.4-.1-1.3-.3-1.8-.3h-.3c-1 0-1.7.4-1.7 1.4 0 .9.6 1.1 1.2 1.3l1.1.3c.9.2 1.9.7 1.9 2.3 0 1.5-1 2.4-2.8 2.4h-.3c-.7 0-1.8-.2-2.2-.4m-70.5-.9c-.3.4-.7.8-1.1 1-.4.2-.9.4-1.4.4-.4 0-.7-.1-1-.2-.3-.1-.6-.3-.8-.5-.2-.2-.4-.5-.6-.8-.1-.3-.2-.6-.2-1 0-.3 0-.6.1-.8.1-.3.2-.5.4-.7.2-.2.4-.4.6-.5.2-.2.5-.3.7-.4-.3-.3-.5-.6-.7-.9-.2-.3-.3-.7-.3-1.1 0-.3.1-.6.2-.8.1-.2.3-.4.5-.6.2-.2.4-.3.7-.4.3-.1.5-.1.8-.1.3 0 .5 0 .8.1.3.1.5.2.7.4.2.2.3.4.5.6.1.2.2.5.2.8 0 .3-.1.5-.2.7-.1.2-.2.4-.4.6-.2.2-.4.3-.6.5-.2.1-.4.3-.6.4l1.7 1.9 1.2-1.9h1v.1L52.3 28l1.8 1.9v.1h-1.2l-1.2-1.3zM49 25.8c-.2.1-.4.2-.5.3-.2.1-.3.2-.5.4-.1.1-.3.3-.3.5-.1.2-.1.4-.1.6 0 .2 0 .4.1.6.1.2.2.4.4.5.1.1.3.3.5.3.2.1.4.1.6.1.2 0 .4 0 .6-.1.2-.1.3-.1.5-.3.2-.1.3-.2.4-.4l.4-.4-2.1-2.1zm.3-1.1c.2-.1.3-.2.5-.3.2-.1.3-.2.4-.3.1-.1.2-.3.3-.4.1-.2.1-.3.1-.6s-.1-.6-.3-.7c-.2-.2-.5-.3-.7-.3-.3 0-.6.1-.8.3-.2.2-.4.5-.4.8 0 .2.1.4.2.6.1.2.3.3.4.5l.3.4z"/></svg>