<svg xmlns="http://www.w3.org/2000/svg" viewBox="0 0 225 186"><path fill="#CBB572" d="M21.1 5.5l7.7-4.2H.2l7.5 4.2v133.8l-7.5 4.2H46V93.7l-10.5 46.6H21.1zm66.8-4.2H59.3l7.5 4.2v133.8l-7.5 4.2h28.6l-7.7-4.2V5.5zm35.6 0h-21.3l7.5 4.4v133.6l-7.5 4.2h21.3c8 0 12.7-1.6 17.2-6.1 9.8-9.8 15.9-34.7 15.9-65.1 0-30.4-5.9-54.6-15.9-64.7-4.3-4.4-9.4-6.3-17.2-6.3zm16.6 121.2c-.5 4.7-1.2 7.8-2.3 10.2-2.3 5.5-6.5 7.7-14.3 7.7h-.4V4.5h.3c11.5.2 15.8 5.9 17.1 22.4C141.6 40 142 60 142 74.1c.1 19-.7 38.5-1.9 48.4zm77-101.6C212.2 7.4 205.7 0 198.8 0c-5.6 0-10.4 4.5-14.6 13.7-6.7 14.1-10.6 36.1-10.6 58.8 0 21.6 4 44.1 10.4 58.6 4 9.2 8.9 13.9 14.6 13.9 14.5 0 26.2-32.5 26.2-72.5 0-19.6-2.8-38-7.7-51.6zM210 93.1l-.2 6c-.3 9.3-.8 17.2-1.5 23.6l-.4 2.3c-.4 3-.9 6-1.7 8.9-1.6 5.6-3.8 7.9-7.5 7.9-5 0-7.5-4.6-8.8-16.6-1.5-12.5-2-26.8-2-52.7V60.7c-.2-19.8 1.2-41.2 3.3-50 1.3-4.9 4-7.5 7.5-7.5 6.9 0 9.2 7.8 10.5 34.8.5 8.6 1 27.3 1 35.6.1 5.8 0 12.1-.2 19.5zM33 168.3h-8V186h8c5.9 0 9.6-3.5 9.6-8.8 0-5.2-3.9-8.9-9.6-8.9zm0 14.5h-4.6v-11.3H33c3.6 0 6.1 2.3 6.1 5.7s-2.3 5.6-6.1 5.6zm21.3-4.6H63V175h-8.7v-3.4h13.3v-3.3H50.9v17.8h17.4v-3.3h-14zm53.7-14.9H95V186h3.5v-9.6h9.9c3.6.2 6.7-2.5 6.9-6v-.7c-.1-4-2.9-6.4-7.3-6.4zm-9.5 3.3h9.4c2.4 0 3.7 1.2 3.7 3.3 0 2.1-1.3 3.2-3.8 3.2h-9.3v-6.5zm26.7 1.7l-9 17.7h3.7l2.2-4.3h8.5l2.2 4.3h3.7l-9.1-17.7h-2.2zm3.8 10.4h-5.4l2.7-5.3 2.7 5.3zm31.9-5.3c0-3.2-2.2-5.1-5.9-5.1h-12.1V186h3.4v-7.4h6.8l4.8 7.4h3.8l-4.8-7.6c2.3-.5 4-2.6 4-5zm-14.6-1.9h8.7c1.6 0 2.4.6 2.4 1.9 0 1.3-.8 1.9-2.4 1.9h-8.7v-3.8zm23.6-3.2h3.5v17.8h-3.5zm21.1 6.5c-4.1 0-4.9-.6-4.9-1.7 0-1.2 1.6-2.1 3.9-2.1 2.4.1 4.7.8 6.7 2.2l.3.2 1.7-2.9-.3-.2c-2.5-1.6-5.4-2.5-8.4-2.5-4.4 0-7.4 2.1-7.4 5.2 0 4.3 4 4.8 8.5 4.8 4.5.1 4.9 1.4 4.9 2.5 0 1.7-1.9 2.9-4.7 2.9-2.7-.1-5.3-.9-7.6-2.4l-.3-.2-1.7 2.9.3.2c2.9 1.8 6.2 2.8 9.6 2.8 5.2 0 7.9-3 7.9-6 0-2.5-1.5-5.7-8.5-5.7zM.3 173.5h6.1v6.1H.3zm218.3 0h6.1v6.1h-6.1z"/></svg>