<svg width="97" height="41" viewBox="0 0 97 41" fill="none" xmlns="http://www.w3.org/2000/svg">
<g clip-path="url(#clip0)">
<path fill-rule="evenodd" clip-rule="evenodd" d="M91.1006 15.699C91.1006 14.5064 91.8956 13.502 92.9016 13.502C93.9086 13.502 94.7026 14.5064 94.7026 15.699C94.7026 16.8918 93.9086 17.8962 92.9016 17.8962C91.8956 17.959 91.1006 16.9546 91.1006 15.699ZM92.8486 17.4568C93.5906 17.4568 94.2256 16.7035 94.2256 15.7618C94.2256 14.8202 93.5906 14.0668 92.8486 14.0668C92.1076 14.0668 91.4716 14.8202 91.4716 15.7618C91.4716 16.7035 92.1076 17.4568 92.8486 17.4568ZM92.6366 16.7035H92.2666V14.7574H92.9546C93.1136 14.7574 93.2726 14.7574 93.3786 14.883C93.5376 15.0086 93.5906 15.1968 93.5906 15.3852C93.5906 15.6363 93.4846 15.8246 93.3256 15.8874L93.6436 16.7662H93.1136L92.8486 16.013H92.5836V16.7035H92.6366ZM92.6366 15.5735H92.8486C92.9546 15.5735 93.0076 15.5735 93.0606 15.5108C93.1136 15.448 93.1666 15.3852 93.1666 15.2596C93.1666 15.1968 93.1136 15.0713 93.0606 15.0713C93.0076 15.0086 92.9016 15.0086 92.8486 15.0086H92.6366V15.5735Z" fill="white"/>
<path fill-rule="evenodd" clip-rule="evenodd" d="M65.4117 0.816353L64.9347 4.64718C63.8757 3.9564 63.0807 3.70514 62.2337 3.70514C60.0087 3.70514 58.4197 6.40556 58.4197 10.2363C58.4197 12.8739 59.4787 14.5067 61.2267 14.5067C61.9687 14.5067 62.7637 14.1927 63.7697 13.6275L63.2397 17.6467C62.1277 18.0235 61.4387 18.1491 60.5917 18.1491C57.3607 18.1491 55.3477 15.2603 55.3477 10.6131C55.3477 4.33313 58.1017 0 62.1277 0C62.6577 0 63.0807 0.0627886 63.5047 0.188365L64.7757 0.5652C65.0407 0.690777 65.1467 0.690776 65.4117 0.816353Z" fill="white"/>
<path fill-rule="evenodd" clip-rule="evenodd" d="M55.4005 3.45401C55.2945 3.39122 55.1885 3.39111 55.0825 3.39111C54.1295 3.39111 53.5464 4.01921 52.5934 5.71481L52.8575 3.57958H50.2095L48.3555 17.7723H51.3745C52.4875 9.04311 52.7525 7.59877 54.1825 7.59877C54.2885 7.59877 54.2885 7.59877 54.3945 7.59877C54.6585 5.90317 55.0294 4.64719 55.5594 3.45401H55.4005Z" fill="white"/>
<path fill-rule="evenodd" clip-rule="evenodd" d="M37.4437 17.5841C36.6487 17.8981 35.9607 18.0864 35.2717 18.0864C33.7357 18.0864 32.8887 17.0189 32.8887 14.9465C32.8887 14.5696 32.9417 14.1301 32.9947 13.6277L33.2057 12.2462L33.3647 11.1158L34.6897 1.44458H37.6557L37.2847 3.51701H38.8207L38.3967 6.971H36.8607L36.0667 12.8742C36.0137 13.1253 36.0137 13.3137 36.0137 13.4394C36.0137 14.1929 36.3317 14.5069 37.0197 14.5069C37.3907 14.5069 37.6027 14.4441 37.8147 14.3813L37.4437 17.5841Z" fill="white"/>
<path fill-rule="evenodd" clip-rule="evenodd" d="M25.6306 8.03822C25.6306 9.8594 26.3186 11.0526 27.9086 11.9946C29.1266 12.6854 29.3386 12.9366 29.3386 13.5645C29.3386 14.4438 28.8086 14.8833 27.6436 14.8833C26.7426 14.8833 25.9486 14.6949 24.9416 14.3182L24.5176 17.5837L24.6766 17.6465L25.2066 17.7721C25.4186 17.835 25.6306 17.8978 26.0016 17.8978C26.6896 17.9606 27.2726 18.0234 27.6436 18.0234C30.8216 18.0234 32.2516 16.5161 32.2516 13.3134C32.2516 11.3666 31.6686 10.2362 30.1326 9.35698C28.8616 8.66621 28.7556 8.47784 28.7556 7.78696C28.7556 7.0334 29.2326 6.65667 30.2386 6.65667C30.8216 6.65667 31.6156 6.78224 32.4106 6.90782L32.8346 3.6422C32.0396 3.45383 30.8746 3.32825 30.1856 3.32825C26.7426 3.26547 25.5776 5.40058 25.6306 8.03822Z" fill="white"/>
<path fill-rule="evenodd" clip-rule="evenodd" d="M89.3532 17.7722H86.4932L86.6522 16.3906C85.8572 17.4582 84.9572 17.9605 83.8972 17.9605C81.6722 17.9605 80.2422 15.637 80.2422 12.0574C80.2422 7.34732 82.4672 3.32813 85.1162 3.32813C86.2812 3.32813 87.1282 3.95612 87.9762 5.27499L88.6122 0.250977H91.5782L89.3532 17.7722ZM84.9042 14.4438C86.3342 14.4438 87.2872 12.497 87.2872 9.67101C87.2872 7.84973 86.7052 6.84501 85.6982 6.84501C84.3212 6.84501 83.3682 8.85455 83.3682 11.6178C83.3682 13.4389 83.8972 14.4438 84.9042 14.4438Z" fill="white"/>
<path fill-rule="evenodd" clip-rule="evenodd" d="M46.9783 17.4583C45.9713 17.8351 44.9653 18.0235 43.9053 18.0235C40.5683 18.0235 38.8203 15.8256 38.8203 11.618C38.8203 6.7197 41.0453 3.14014 44.0643 3.14014C46.5543 3.14014 48.0903 5.14968 48.0903 8.35241C48.0903 9.35723 47.9843 10.4248 47.7193 11.8692H41.7343C41.6813 12.1203 41.6813 12.1832 41.6813 12.3088C41.6813 14.0044 42.5813 14.8208 44.3293 14.8208C45.3893 14.8208 46.3423 14.5067 47.4543 13.9415L46.9783 17.4583ZM45.2833 8.9804C45.3363 8.66645 45.3363 8.4152 45.3363 8.28962C45.3363 7.15922 44.8063 6.46844 43.9053 6.46844C42.9523 6.46844 42.2633 7.34769 41.9983 9.04319H45.2833V8.9804Z" fill="white"/>
<path fill-rule="evenodd" clip-rule="evenodd" d="M13.5533 17.7721H10.5863L12.2813 4.33302L8.41528 17.7721H6.40231L6.1373 4.3958L4.3363 17.7721H1.5293L3.85928 0.313721H8.1503L8.3093 11.1153L11.2223 0.313721H15.8833L13.5533 17.7721Z" fill="white"/>
<path fill-rule="evenodd" clip-rule="evenodd" d="M21.2868 11.4295C20.9698 11.3667 20.8108 11.3667 20.5988 11.3667C18.9038 11.3667 18.0558 12.1204 18.0558 13.5019C18.0558 14.381 18.4799 14.9462 19.1689 14.9462C20.3339 15.009 21.2338 13.5019 21.2868 11.4295ZM23.4589 17.7723H20.9698L21.0229 16.2651C20.2809 17.4583 19.2748 17.9606 17.8438 17.9606C16.2018 17.9606 15.0898 16.3907 15.0898 14.0671C15.0898 10.6131 17.0498 8.60358 20.3868 8.60358C20.7578 8.60358 21.1819 8.66637 21.6049 8.72915C21.7109 8.22674 21.7108 8.03838 21.7108 7.78712C21.7108 6.84519 21.1818 6.46835 19.8038 6.46835C18.9568 6.46835 18.0028 6.65672 17.3148 6.90798L16.9438 7.09634L16.6788 7.22192L17.1028 4.01919C18.5858 3.45399 19.5918 3.26562 20.7048 3.26562C23.2998 3.26562 24.6248 4.70997 24.6248 7.41039C24.6248 8.10117 24.5718 8.60358 24.3598 10.2363L23.7769 15.3231L23.6708 16.2022L23.5648 16.8931L23.5118 17.3954L23.4589 17.7723Z" fill="white"/>
<path fill-rule="evenodd" clip-rule="evenodd" d="M70.6032 11.4296C70.2852 11.3668 70.1273 11.3668 69.9153 11.3668C68.2203 11.3668 67.3192 12.1205 67.3192 13.5021C67.3192 14.3812 67.7433 14.9464 68.4323 14.9464C69.6503 15.0092 70.5502 13.5021 70.6032 11.4296ZM72.7752 17.7724H70.2852L70.3383 16.2653C69.5973 17.4585 68.5902 17.9609 67.1602 17.9609C65.5182 17.9609 64.4062 16.3908 64.4062 14.0673C64.4062 10.6133 66.3662 8.60362 69.7032 8.60362C70.0212 8.60362 70.4973 8.66652 70.9213 8.7293C71.0273 8.22689 71.0273 8.03853 71.0273 7.78727C71.0273 6.84523 70.4972 6.4685 69.1202 6.4685C68.2732 6.4685 67.3193 6.65687 66.6313 6.90813L66.2072 7.0337L65.9423 7.15928L66.3662 3.95645C67.8492 3.39125 68.8553 3.20288 69.9683 3.20288C72.5633 3.20288 73.8872 4.64733 73.8872 7.34765C73.8872 8.03842 73.8343 8.54083 73.6233 10.1736L72.9872 15.1977L72.8813 16.0768L72.7752 16.7676L72.7223 17.27L72.7752 17.7724Z" fill="white"/>
<path fill-rule="evenodd" clip-rule="evenodd" d="M81.1429 3.45401C81.0369 3.39122 80.9309 3.39111 80.8249 3.39111C79.8719 3.39111 79.2889 4.01921 78.3359 5.71481L78.5999 3.57958H75.8989L74.0449 17.7723H77.0639C78.1769 9.04311 78.4419 7.59877 79.8719 7.59877C79.9779 7.59877 79.9779 7.59877 80.0839 7.59877C80.3489 5.90317 80.7189 4.64719 81.2489 3.45401H81.1429Z" fill="white"/>
<path fill-rule="evenodd" clip-rule="evenodd" d="M68.5353 31.5883C68.5353 34.7911 67.6883 36.7379 66.3643 36.7379C65.4103 36.8008 64.8283 35.4819 64.8283 33.5979C64.8283 31.337 65.6753 28.7623 67.0523 28.7623C68.1653 28.6995 68.5353 30.0811 68.5353 31.5883ZM71.5023 31.5883C71.5023 28.0087 70.0193 25.1826 67.2113 25.1826C63.9803 25.1826 61.8613 28.5739 61.8613 33.5351C61.8613 37.1147 63.1333 40.0664 66.1523 40.0664C69.2773 40.1292 71.5023 37.5543 71.5023 31.5883Z" fill="#F3AE12"/>
<path fill-rule="evenodd" clip-rule="evenodd" d="M62.8675 22.7333L62.3914 26.5642C61.3844 25.8734 60.6965 25.6221 59.9015 25.6221C57.8355 25.6221 56.3524 28.3226 56.3524 32.1534C56.3524 34.7909 57.3065 36.4237 58.9485 36.4237C59.6365 36.4237 60.4315 36.1098 61.3315 35.5446L60.8545 39.5637C59.8485 39.9405 59.1594 40.0662 58.3654 40.0662C55.3464 40.0662 53.4395 37.1774 53.4395 32.5301C53.4395 26.2502 56.0344 21.917 59.7954 21.917C60.2724 21.917 60.6964 21.9798 61.0664 22.1054L62.2325 22.4822C62.4975 22.545 62.6025 22.6078 62.8675 22.7333Z" fill="#F3AE12"/>
<path fill-rule="evenodd" clip-rule="evenodd" d="M44.2753 25.3084C44.1693 25.2456 44.0633 25.2456 43.9583 25.2456C43.0573 25.2456 42.5273 25.8736 41.6273 27.5692L41.8923 25.434H39.3493L37.6543 39.6268H40.4623C41.4683 30.8976 41.7333 29.4532 43.0573 29.4532C43.1633 29.4532 43.1633 29.4532 43.2693 29.5159C43.5343 27.8203 43.8523 26.5644 44.3283 25.3712L44.2753 25.3084Z" fill="#F3AE12"/>
<path fill-rule="evenodd" clip-rule="evenodd" d="M80.932 39.5013H78.2831L78.442 38.1196C77.701 39.1872 76.853 39.6896 75.847 39.6896C73.834 39.6896 72.457 37.3661 72.457 33.7865C72.457 29.0764 74.576 25.0572 77.012 25.0572C78.125 25.0572 78.9191 25.6852 79.7141 27.004L80.349 21.98H83.104L80.932 39.5013ZM76.747 36.1729C78.072 36.1729 78.972 34.226 78.972 31.4C78.972 29.5788 78.442 28.6368 77.489 28.6368C76.218 28.6368 75.317 30.5837 75.317 33.4097C75.317 35.2308 75.794 36.1729 76.747 36.1729Z" fill="#F3AE12"/>
<path fill-rule="evenodd" clip-rule="evenodd" d="M18.0039 39.4381C17.0509 39.815 16.15 40.0033 15.144 40.0033C12.019 40.0033 10.377 37.8053 10.377 33.5978C10.377 28.7622 12.4429 25.1199 15.2499 25.1199C17.5809 25.1199 19.011 27.1294 19.011 30.3322C19.011 31.337 18.905 32.4046 18.64 33.8489H13.0779C13.0249 34.1002 13.0249 34.163 13.0249 34.2885C13.0249 35.9214 13.873 36.7377 15.515 36.7377C16.521 36.7377 17.4219 36.4238 18.4279 35.8586L18.0039 39.4381ZM16.4149 31.023C16.4149 30.709 16.468 30.4578 16.468 30.3322C16.468 29.2018 15.992 28.511 15.144 28.511C14.244 28.511 13.608 29.3902 13.343 31.0858H16.4149V31.023Z" fill="#F3AE12"/>
<path fill-rule="evenodd" clip-rule="evenodd" d="M51.3741 39.4381C50.4211 39.815 49.5201 40.0033 48.5141 40.0033C45.3351 40.0033 43.7461 37.8053 43.7461 33.5978C43.7461 28.7622 45.8121 25.1199 48.6201 25.1199C50.9501 25.1199 52.4331 27.1294 52.4331 30.3322C52.4331 31.337 52.3271 32.4046 52.0631 33.8489H46.5011C46.4481 34.1002 46.4481 34.163 46.4481 34.2885C46.4481 35.9214 47.2951 36.7377 48.9371 36.7377C49.9441 36.7377 50.8441 36.4238 51.8511 35.8586L51.3741 39.4381ZM49.7851 31.023C49.8381 30.709 49.8381 30.4578 49.8381 30.3322C49.8381 29.2018 49.3611 28.511 48.5141 28.511C47.6131 28.511 46.9771 29.3902 46.7131 31.0858H49.7851V31.023Z" fill="#F3AE12"/>
<path fill-rule="evenodd" clip-rule="evenodd" d="M90.4659 39.4381C89.5119 39.815 88.5589 40.0033 87.6049 40.0033C84.4799 40.0033 82.8379 37.8053 82.8379 33.5978C82.8379 28.7622 84.9569 25.1199 87.7639 25.1199C90.0949 25.1199 91.5249 27.1294 91.5249 30.3322C91.5249 31.337 91.4189 32.4046 91.1539 33.8489H85.5919C85.5399 34.1002 85.5399 34.163 85.5399 34.2885C85.5399 35.9214 86.3869 36.7377 88.0289 36.7377C89.0359 36.7377 89.9359 36.4238 90.9419 35.8586L90.4659 39.4381ZM88.8769 31.023C88.8769 30.709 88.9299 30.4578 88.9299 30.3322C88.9299 29.2018 88.4529 28.511 87.6049 28.511C86.7049 28.511 86.0689 29.3902 85.8039 31.0858H88.8769V31.023Z" fill="#F3AE12"/>
<path fill-rule="evenodd" clip-rule="evenodd" d="M9.68701 25.9366C9.15701 25.4969 8.36299 25.1202 7.35599 25.1202C6.19099 25.1202 5.34399 25.4341 5.34399 26.8158C5.34399 29.3278 9.47501 28.3858 9.47501 33.7866C9.47501 38.685 6.774 40.0038 4.284 40.0038C3.172 40.0038 1.9 39.5641 1 39.0617L1.689 35.4822C2.271 36.1102 3.38401 36.487 4.33701 36.487C5.23801 36.487 6.61499 36.1729 6.61499 34.3518C6.61499 31.463 2.483 32.5306 2.483 27.5066C2.483 22.9222 4.92 21.5405 7.25 21.5405C8.575 21.5405 9.793 21.7918 10.535 22.357L9.68701 25.9366Z" fill="#F3AE12"/>
<path fill-rule="evenodd" clip-rule="evenodd" d="M26.2149 39.4384C25.6319 39.7524 24.8379 40.0036 23.7249 40.0036C21.2889 40.0036 19.752 37.1148 19.752 33.5352C19.752 28.888 21.9769 25.2456 25.2079 25.2456C25.8969 25.2456 27.0089 25.6223 27.8569 26.1875L27.2209 29.5788C26.6389 29.0764 26.0029 28.8252 25.3669 28.8252C23.8839 28.8252 22.7719 30.458 22.7719 33.3468C22.7719 35.0424 23.5659 36.424 24.7849 36.424C25.5259 36.424 26.0559 36.2356 26.6389 35.796L26.2149 39.4384Z" fill="#F3AE12"/>
<path fill-rule="evenodd" clip-rule="evenodd" d="M36.7012 35.8588C36.5422 37.052 36.4362 38.2452 36.3312 39.5013H33.6292L33.8412 37.2404H33.7882C32.9412 38.8104 32.0932 39.878 30.5042 39.878C28.8092 39.878 27.9082 37.7428 27.9082 35.0423C27.9082 34.1003 27.9612 33.5351 28.1202 32.0907L28.8622 25.4966H31.8812L31.0872 32.0907C30.9812 32.7815 30.8752 33.5351 30.8752 34.2259C30.8752 35.0423 31.1932 35.9216 32.0402 35.8588C33.2582 35.8588 34.0002 34.1003 34.2122 31.9651L35.0592 25.4338H37.9732L36.7012 35.8588Z" fill="#F3AE12"/>
<path fill-rule="evenodd" clip-rule="evenodd" d="M93.2731 39.3744H92.7961V37.0518H92.1611V36.5496H93.9091V37.0518H93.2731V39.3744Z" fill="#F3AE12"/>
<path fill-rule="evenodd" clip-rule="evenodd" d="M96.2918 39.3744H95.8688V36.989L95.4448 39.3744H95.0208L94.5968 36.989V39.3744H94.1738V36.5496H94.8618L95.2328 38.8095H95.2858L95.6568 36.5496H96.2918V39.3744Z" fill="#F3AE12"/>
</g>
<defs>
<clipPath id="clip0">
<rect width="97" height="41" fill="white"/>
</clipPath>
</defs>
</svg>
