<svg width="79" height="50" viewBox="0 0 79 50" fill="none" xmlns="http://www.w3.org/2000/svg">
<g clip-path="url(#clip0)">
<path fill-rule="evenodd" clip-rule="evenodd" d="M67.2352 32.9435C67.1202 33.9199 66.9682 34.8539 66.8152 35.7454C66.0532 35.4907 65.2152 35.0237 63.9952 35.1086C63.2712 35.1511 62.3942 35.4907 62.3942 36.2124C62.3942 37.019 63.5762 37.4859 64.2242 37.868C65.4052 38.5048 66.7012 39.3538 66.8152 41.0944C66.8922 42.4104 66.3202 43.599 65.7102 44.2358C64.0332 46.0188 60.2982 46.1886 57.7822 45.0424C57.9352 44.1085 58.0872 43.1321 58.2012 42.1557C59.1922 42.6226 60.5262 43.2594 62.0132 43.0472C62.6992 42.9623 63.4992 42.5377 63.4992 41.7312C63.4612 40.7972 61.8992 40.2453 61.0982 39.7359C60.1832 39.184 59.1162 38.2076 59.0782 36.8067C59.0402 35.8303 59.3832 34.9388 59.8022 34.3445C61.0982 32.5615 64.4522 31.9247 67.2352 32.9435Z" fill="white"/>
<path fill-rule="evenodd" clip-rule="evenodd" d="M37.0863 14.6038H40.4783L38.4203 29.25H35.0283L37.0863 14.6038Z" fill="white"/>
<path fill-rule="evenodd" clip-rule="evenodd" d="M25.3469 14.6038H30.5309C33.8469 14.6038 34.6859 16.7265 34.3429 19.2312C34.0379 21.3538 32.6659 22.7547 30.9119 23.2642L34.1899 29.25H29.9209L27.4439 23.4764L26.6049 29.25H23.2129L25.3469 14.6038ZM28.3199 17.5331L27.7869 21.2264H28.7779C29.7309 21.2264 30.6449 20.4198 30.7979 19.401C30.9499 18.3821 30.3019 17.5755 29.3489 17.5755H28.3199V17.5331Z" fill="white"/>
<path fill-rule="evenodd" clip-rule="evenodd" d="M52.562 14.6038H55.9539L53.8959 29.25H50.5029L52.562 14.6038Z" fill="white"/>
<path fill-rule="evenodd" clip-rule="evenodd" d="M58.5443 14.6038H65.9772L65.5202 17.7878H61.4792L61.1362 20.2925H64.9862L64.5292 23.4764H60.6792L60.2982 26.066H64.3382L63.8812 29.25H56.4482L58.5443 14.6038Z" fill="white"/>
<path fill-rule="evenodd" clip-rule="evenodd" d="M15.8939 14.6038H23.3268L22.8688 17.7878H18.8289L18.4858 20.2925H22.3358L21.8778 23.4764H18.0288L17.6479 26.066H21.6878L21.2689 29.25H13.7979L15.8939 14.6038Z" fill="white"/>
<path fill-rule="evenodd" clip-rule="evenodd" d="M43.0706 14.6038H50.5786L50.1216 17.7878H46.0056L45.6236 20.2925H49.3976L48.9396 23.4764H45.1666L44.3666 29.25H40.9736L43.0706 14.6038Z" fill="white"/>
<path fill-rule="evenodd" clip-rule="evenodd" d="M67.9974 14.6038H72.4195C77.6795 14.6038 78.8985 19.0189 78.4795 21.9481C77.9075 26.066 74.5914 29.25 70.3604 29.25H65.9395L67.9974 14.6038ZM70.9325 17.7878C71.1615 17.7878 71.4284 17.7878 71.6184 17.7878C74.2104 17.7878 75.2394 19.8255 74.9344 21.7783C74.5534 24.4104 72.8764 26.066 70.6274 26.066C70.3224 26.066 70.0555 26.066 69.7125 26.066L70.9325 17.7878Z" fill="white"/>
<path fill-rule="evenodd" clip-rule="evenodd" d="M0 12.6084H6.289L7.052 23.2641C11.168 15.2405 15.399 7.55658 19.63 0H21.688C17.19 9.63676 12.731 19.3584 8.42401 29.2499H3.85001L2.745 17.533C2.478 14.6037 1.94399 13.3726 0.0379944 13.0754V12.6084H0Z" fill="white"/>
<path fill-rule="evenodd" clip-rule="evenodd" d="M2.3623 6.53757L7.7373 9.08474L8.19431 15.7074H8.57529L13.4543 6.53757V6.11304H2.3623V6.53757Z" fill="#F8981D"/>
<path fill-rule="evenodd" clip-rule="evenodd" d="M27.0998 39.7357C27.9008 39.7357 28.4718 40.5423 28.3198 41.6036C28.2048 42.6225 27.4428 43.4291 26.6048 43.4291C25.8038 43.4291 25.2318 42.6225 25.3848 41.6036C25.5368 40.5848 26.2998 39.7357 27.0998 39.7357ZM24.3558 32.6885H26.5658L25.8418 38.4621C26.4518 37.7829 27.2528 37.3584 28.0908 37.3584C29.8438 37.3584 30.9878 39.2687 30.6828 41.5612C30.3778 43.8961 28.7008 45.764 26.9478 45.764C26.0708 45.764 25.4608 45.3395 25.0418 44.5753L24.9278 45.5093H22.7168L24.3558 32.6885Z" fill="white"/>
<path fill-rule="evenodd" clip-rule="evenodd" d="M30.8357 37.5706H33.5037L34.6467 41.6886L36.9337 37.5706H39.4877L32.8177 49.5H30.2637L33.0847 44.4905L30.8357 37.5706Z" fill="white"/>
<path fill-rule="evenodd" clip-rule="evenodd" d="M52.5615 45.5518L54.5055 32.6885H57.6685L55.7245 45.5518H52.5615Z" fill="white"/>
<path fill-rule="evenodd" clip-rule="evenodd" d="M49.9312 32.646C48.8262 35.4903 47.9112 38.547 46.8062 41.3489L46.4632 39.6507L46.5012 39.9479C46.2722 39.0564 45.8532 38.2073 45.3202 37.4432L45.2812 37.4007C45.2052 37.2734 45.0911 37.146 44.9771 37.0186C44.9001 36.9337 44.8622 36.8488 44.7862 36.7639C44.0242 35.8299 43.1092 35.0233 42.1182 34.3865L44.9381 45.5093H48.3311C49.9311 41.179 51.6471 36.9762 53.2481 32.646C52.1421 32.646 51.0372 32.646 49.9312 32.646Z" fill="white"/>
<path fill-rule="evenodd" clip-rule="evenodd" d="M43.9858 32.646H38.8398V32.9431C41.8128 33.5799 45.5478 36.3818 46.5388 39.9478L45.4338 33.962C45.2818 33.028 44.7098 32.646 43.9858 32.646Z" fill="#F8981D"/>
<path fill-rule="evenodd" clip-rule="evenodd" d="M77.8699 45.5941C76.9169 45.5941 75.9259 45.5941 74.9729 45.5941C74.7829 44.9998 74.7449 44.2356 74.5539 43.5988C73.2579 43.5988 71.9239 43.5988 70.6279 43.5988L69.9039 45.5941C68.7989 45.5941 67.6929 45.5941 66.5879 45.5941L70.8949 34.5563C71.0859 34.0894 71.4289 33.4101 71.5809 33.1129C71.8099 32.6884 72.6479 32.646 72.9909 32.646H75.3929L77.8699 45.5941ZM73.0679 36.212L71.4669 41.0092H74.0589L73.0679 36.212Z" fill="white"/>
</g>
<defs>
<clipPath id="clip0">
<rect width="79" height="50" fill="white"/>
</clipPath>
</defs>
</svg>
