<svg width="23" height="27" viewBox="0 0 23 27" fill="none" xmlns="http://www.w3.org/2000/svg">
<path d="M22.7391 5.69842C22.7391 5.13642 22.7636 4.56812 22.7391 4.00622C22.7391 3.99982 22.7391 3.99352 22.7391 3.98712C22.7391 3.69182 22.5184 3.46642 22.2242 3.37442C21.0122 2.99342 19.7966 2.61242 18.5846 2.23142C16.672 1.63132 14.7629 1.02812 12.8503 0.428123C12.4265 0.294723 12.0061 0.142322 11.5753 0.0280219C11.3616 -0.0290781 11.2144 0.0153222 11.0288 0.0725222C10.8116 0.142322 10.5909 0.209022 10.3737 0.278922C8.54171 0.853522 6.71318 1.42822 4.88114 2.00282C3.44844 2.45362 2.01925 2.90132 0.586547 3.35212C0.562027 3.35852 0.541009 3.36802 0.516489 3.37442C0.222242 3.46642 0.00155686 3.69502 0.00155686 3.98712V9.87022C0.00155686 11.1084 -0.00194607 12.3466 0.00155686 13.5848C0.00505979 14.6356 0.20823 15.6929 0.593553 16.6834C1.38171 18.7249 2.81441 20.5187 4.52034 22.0141C6.20525 23.4904 8.17741 24.7254 10.2932 25.6334C10.5349 25.735 10.7766 25.8334 11.0183 25.9287C11.0323 25.935 11.0498 25.9414 11.0638 25.9477C11.0638 25.9477 11.0638 25.9477 11.0673 25.9477C11.1024 25.9604 11.1409 25.9731 11.1759 25.9827C11.3441 26.0239 11.5297 26.0017 11.7154 25.9319C11.7189 25.9319 11.7224 25.9287 11.7224 25.9287C13.8592 25.1064 15.8418 23.9444 17.5793 22.5506C19.3307 21.1441 20.8755 19.4329 21.8003 17.474C22.2767 16.4612 22.592 15.4135 22.6971 14.315C22.7531 13.7276 22.7321 13.1339 22.7321 12.5434V5.69842H22.7391ZM17.5898 9.59712C17.299 9.86062 17.0083 10.1241 16.7176 10.3877C15.4565 11.5306 14.1989 12.6704 12.9379 13.8134C12.1427 14.534 11.3441 15.2579 10.5489 15.9786C10.1461 16.3437 9.46298 16.3437 9.06365 15.9786C8.90251 15.8326 8.74138 15.6865 8.58024 15.5405C7.4523 14.5182 6.32435 13.4959 5.19291 12.4704C4.77606 12.0926 4.80758 11.5052 5.19291 11.1242C5.57823 10.7464 6.28932 10.7718 6.67815 11.1242C6.83928 11.2703 7.00042 11.4195 7.16155 11.5655C8.04079 12.3624 8.92003 13.1657 9.79926 13.9626C9.8448 13.9213 9.88684 13.8832 9.93237 13.8419C11.1934 12.699 12.451 11.556 13.712 10.4131C14.5072 9.69242 15.3059 8.96852 16.101 8.24782C16.5179 7.87002 17.1694 7.89862 17.5863 8.24782C18.0066 8.59702 17.9786 9.24472 17.5898 9.59712Z" fill="#92B061"/>
</svg>
