<svg xmlns="http://www.w3.org/2000/svg" xmlns:xlink="http://www.w3.org/1999/xlink" viewBox="0 0 20 23.5"><defs><path id="a" d="M0 0h20v23.5H0z"/></defs><clipPath id="b"><use xlink:href="#a" overflow="visible"/></clipPath><path clip-path="url(#b)" fill="none" stroke="#CAB471" stroke-miterlimit="10" d="M18.5 10.5V23h-17V10.5m-1-4h19v4H.5zm12 4v11.96m-5 0V10.5"/><path clip-path="url(#b)" fill="none" stroke="#CAB471" stroke-linejoin="round" stroke-miterlimit="10" d="M6.88.52C6.14.43 5.5.62 5.1.98c-.41.37-.62.91-.52 1.56.1.64.49 1.26 1.04 1.73.54.49 1.99.91 1.99.91l2.66.77-.36-2.78C9.71 1.9 8.35.7 6.88.52zm8.58.46a2.25 2.25 0 0 0-1.78-.46C12.2.7 10.84 1.9 10.64 3.17l-.37 2.78 2.68-.77s1.53-.36 1.99-.9c.54-.48.94-1.1 1.04-1.74a1.7 1.7 0 0 0-.53-1.56z"/></svg>