<svg width="20" height="23" viewBox="0 0 20 23" fill="none" xmlns="http://www.w3.org/2000/svg">
<path d="M17.6805 7.0464L18.8245 5.93312C19.1795 5.58767 19.1795 5.02771 18.8245 4.68227C18.4695 4.33683 17.8941 4.33683 17.5391 4.68227L16.395 5.79556C14.8791 4.56506 12.9845 3.7636 10.9091 3.58048V1.76923H11.8182C12.32 1.76923 12.7273 1.37292 12.7273 0.884615C12.7273 0.396308 12.32 0 11.8182 0H8.18182C7.68 0 7.27273 0.396308 7.27273 0.884615C7.27273 1.37292 7.68 1.76923 8.18182 1.76923H9.09091V3.58048C7.01545 3.7636 5.12091 4.56506 3.605 5.79556L2.46091 4.68227C2.10636 4.33683 1.53 4.33683 1.17545 4.68227C0.820455 5.02771 0.820455 5.58767 1.17545 5.93312L2.31955 7.0464C0.872272 8.73425 0 10.9042 0 13.2692C0 18.6349 4.48591 23 10 23C15.5141 23 20 18.6349 20 13.2692C20 10.9042 19.1277 8.73425 17.6805 7.0464ZM10 21.2308C5.48864 21.2308 1.81818 17.6591 1.81818 13.2692C1.81818 8.87933 5.48864 5.30769 10 5.30769C14.5114 5.30769 18.1818 8.87933 18.1818 13.2692C18.1818 17.6591 14.5114 21.2308 10 21.2308Z" fill="white"/>
<path d="M10 7.07692C9.49818 7.07692 9.09091 7.47323 9.09091 7.96154V13.2692C9.09091 13.7575 9.49818 14.1538 10 14.1538C10.5018 14.1538 10.9091 13.7575 10.9091 13.2692V7.96154C10.9091 7.47323 10.5018 7.07692 10 7.07692Z" fill="white"/>
</svg>
