<svg width="21" height="21" viewBox="0 0 21 21" fill="none" xmlns="http://www.w3.org/2000/svg">
<path d="M7.64864 7.64864C5.89891 9.39838 3.06203 9.39838 1.3123 7.64864C-0.437433 5.89891 -0.437433 3.06203 1.3123 1.3123C3.06203 -0.437433 5.89891 -0.437433 7.64864 1.3123C9.39838 3.06203 9.39838 5.89891 7.64864 7.64864ZM6.38138 6.38138C7.43122 5.33154 7.43122 3.62941 6.38138 2.57957C5.33154 1.52973 3.62941 1.52973 2.57957 2.57957C1.52973 3.62941 1.52973 5.33154 2.57957 6.38138C3.62941 7.43122 5.33154 7.43122 6.38138 6.38138ZM19.6877 19.6877C17.938 21.4374 15.1011 21.4374 13.3514 19.6877C11.6016 17.938 11.6016 15.1011 13.3514 13.3514C15.1011 11.6016 17.938 11.6016 19.6877 13.3514C21.4374 15.1011 21.4374 17.938 19.6877 19.6877ZM18.4204 18.4204C19.4703 17.3706 19.4703 15.6685 18.4204 14.6186C17.3706 13.5688 15.6685 13.5688 14.6186 14.6186C13.5688 15.6685 13.5688 17.3706 14.6186 18.4204C15.6685 19.4703 17.3706 19.4703 18.4204 18.4204ZM3.58802 18.7374C3.2089 18.4193 3.15931 17.8542 3.47797 17.4745L16.1491 2.37355C16.4675 1.99417 17.0302 1.94229 17.412 2.26262C17.7911 2.58074 17.8407 3.14578 17.522 3.52555L4.85087 18.6265C4.53253 19.0058 3.96978 19.0577 3.58802 18.7374Z" fill="white"/>
</svg>
