<svg xmlns="http://www.w3.org/2000/svg" width="21" height="15" viewBox="0 0 21 15"><defs><style>.cls-1{fill:#b19955;fill-rule:evenodd;filter:url(#filter)}</style><filter id="filter" x="310" y="5341" width="21" height="15" filterUnits="userSpaceOnUse"><feFlood result="flood" flood-color="#b8a15d"/><feComposite result="composite" operator="in" in2="SourceGraphic"/><feBlend result="blend" in2="SourceGraphic"/></filter></defs><path id="picto_youtube" data-name="picto youtube" class="cls-1" d="M320.5 5340.99h-.009s-4.407 0-7.346.21a2.991 2.991 0 0 0-2.1.91 4.634 4.634 0 0 0-.835 2.12 32.593 32.593 0 0 0-.21 3.45v1.62a32.907 32.907 0 0 0 .21 3.46 4.673 4.673 0 0 0 .835 2.12 3.527 3.527 0 0 0 2.315.91c1.68.17 7.139.22 7.139.22s4.412-.01 7.35-.23a2.971 2.971 0 0 0 2.1-.9 4.685 4.685 0 0 0 .835-2.12 33.062 33.062 0 0 0 .209-3.46v-1.62a32.747 32.747 0 0 0-.209-3.45 4.646 4.646 0 0 0-.835-2.12 2.993 2.993 0 0 0-2.1-.91c-2.938-.21-7.346-.21-7.346-.21m-2.2 4.45l5.578 2.95-5.578 3.07v-6.02z" transform="translate(-310 -5341)"/></svg>